<svg width="117" height="121" viewBox="0 0 117 121" fill="none" xmlns="http://www.w3.org/2000/svg">
<g style="mix-blend-mode:multiply">
<path d="M78.0987 67.4406C77.7509 69.3104 77.2116 71.1558 76.6455 73.1007C76.2836 74.335 75.9143 75.6227 75.5887 76.9201C75.1197 78.7995 74.2092 80.7685 73.3351 82.6768L72.9807 83.4455C72.5752 84.3402 72.1819 85.1598 71.791 85.9479C69.7346 85.3066 67.4746 84.5099 65.2171 83.4344C61.8466 81.8224 59.0462 80.0578 56.651 78.0169C54.229 75.9517 51.8946 73.5762 49.6401 71.2734L49.5965 71.2225C48.6147 70.2203 47.645 69.2254 46.7142 68.2209C52.0115 67.394 57.4252 66.7854 63.2658 66.1528L64.5004 66.02C69.167 65.5154 73.9452 65.0035 78.6606 63.992C78.5072 65.1124 78.3175 66.2523 78.0914 67.4527L78.0987 67.4406ZM102.482 43.9701C102.201 43.8342 101.92 43.7394 101.629 43.6884C101.486 43.6107 101.348 43.5524 101.238 43.4869C101.168 43.4529 101.098 43.4189 101.049 43.3898C100.278 42.9431 99.5242 42.4819 98.7217 41.9916L98.552 41.8897C96.8353 40.8338 94.9877 39.79 92.7254 38.6126C91.8331 38.1344 90.9238 37.712 90.0557 37.2895C89.1319 36.8501 88.2638 36.4276 87.42 35.9785C86.8017 35.6484 86.1858 35.328 85.5602 35.0099C85.1698 34.8084 84.7795 34.6069 84.3891 34.4054C84.377 34.3982 84.3527 34.3836 84.3406 34.3763C84.3406 34.3763 84.2363 34.3302 84.0835 34.2549C83.0448 30.7522 81.6591 27.47 80.4187 24.6051C79.7718 23.1277 78.9868 21.3859 77.9933 19.6344C77.8649 19.4087 77.7437 19.171 77.6128 18.9357C76.9319 17.6523 76.0063 15.8838 74.1248 14.7866C71.1934 13.0753 67.2114 12.193 62.3024 12.1809C57.9902 12.1642 54.0268 12.7614 49.8279 14.0666C45.8206 15.3137 42.0459 17.1212 38.6032 19.4333C34.9373 21.8836 32.3238 24.6691 30.8138 27.7049C29.1751 31.0098 29.1466 34.6139 29.1257 37.7935L29.1182 38.3004C29.0897 42.0694 29.3862 45.8192 30.0488 49.7558C30.2253 50.794 30.4262 51.8055 30.644 52.8024C30.4523 52.9842 30.2703 53.1636 30.1781 53.2484C29.9378 53.4836 29.8214 53.5951 29.7073 53.7163C28.9284 54.5599 28.2052 55.4206 27.5063 56.2546C27.3316 56.4631 27.1471 56.674 26.9724 56.8825C25.0407 59.1784 23.3733 61.5423 22.002 63.5644C20.6987 65.487 19.325 67.5406 18.2155 69.8272C17.9921 70.2952 17.8027 70.7341 17.623 71.1706C17.436 71.6192 17.2539 72.0459 17.0816 72.3878C16.8995 72.7321 16.7587 73.0765 16.6591 73.4208C16.2754 74.238 16.2071 75.2032 16.5753 76.0596C17.0065 77.0857 17.9157 77.7555 18.944 77.9113C19.703 78.1032 20.5374 78.0188 21.2991 77.602C21.3185 77.5971 21.3355 77.5826 21.3622 77.5656L21.5782 77.4396C21.8766 77.2724 22.1434 77.0615 22.3812 76.8167C22.7815 76.5622 23.1503 76.3053 23.4827 76.0678C23.8782 75.7939 24.2373 75.5394 24.5551 75.3674C26.1756 74.4683 27.852 73.6688 29.5671 72.8596C32.1579 71.636 34.8991 70.643 37.7274 69.9167C37.7613 69.9701 37.8025 70.0113 37.8365 70.0647C39.1138 71.7146 40.4372 73.4251 41.8456 75.0629C44.3714 77.9988 47.1809 81.0804 50.5023 83.7353C53.6904 86.2689 57.0679 88.4049 60.5427 90.0631C63.3166 91.3911 66.4665 92.8212 69.7161 93.4946C69.8906 93.8633 70.0893 94.1641 70.2977 94.4213C70.266 94.9137 70.0958 95.6776 70.0035 96.0923C69.9719 96.2547 69.9281 96.41 69.9038 96.5603C69.8236 96.9411 69.7167 97.3388 69.5976 97.7704C69.3935 98.5222 69.1724 99.3709 69.041 100.29C68.8122 101.976 69.0928 103.472 69.8732 104.617C70.5882 105.665 71.7375 106.265 72.9623 106.217C73.3601 106.2 73.7312 106.118 74.0975 105.975C74.4491 106.269 74.8734 106.524 75.385 106.716C76.1125 106.988 76.8716 107.015 77.5799 106.838C78.4144 106.63 79.1664 106.133 79.7052 105.401C80.443 104.475 80.7808 103.102 80.2478 101.874C80.1582 101.639 80.0322 101.423 79.8892 101.222C79.4796 100.448 79.4147 99.2377 79.3499 97.9449C79.3234 97.5083 79.3018 97.0499 79.2608 96.5964C79.2512 96.4339 79.2319 96.1501 79.2321 95.8615C79.1867 94.399 79.1173 92.3859 78.2789 90.7605C78.2718 90.484 78.2331 90.2051 78.1629 89.9237C78.9858 88.4301 79.6342 86.8976 80.2728 85.4087C80.433 85.0183 80.6054 84.6352 80.7681 84.2545C82.021 81.3859 83.0968 78.4275 83.952 75.452C84.7731 72.6293 85.3227 69.7506 85.8576 66.9787L86.0764 65.8316C86.3439 64.425 86.5483 63.0136 86.6654 61.6239C90.3138 60.219 93.7733 58.3871 96.9516 56.1718C98.6014 55.0182 99.8874 53.6873 101.174 52.3152C102.193 51.2364 103.244 50.0363 103.967 48.4335C104.744 46.7143 104.078 44.747 102.458 43.9556L102.482 43.9701Z" fill="white"/>
<path d="M77.7471 67.2294C77.3994 69.0992 76.86 70.9446 76.294 72.8895C75.932 74.1238 75.5627 75.4115 75.2371 76.7089C74.7681 78.5883 73.8576 80.5573 72.9836 82.4656L72.6291 83.2343C72.2236 84.129 71.8303 84.9486 71.4395 85.7367C69.3831 85.0954 67.123 84.2988 64.8655 83.2232C61.4951 81.6112 58.6946 79.8466 56.297 77.796C53.875 75.7308 51.5406 73.3553 49.2885 71.0622L49.2449 71.0113C48.2631 70.0091 47.2934 69.0143 46.3626 68.0097C51.66 67.1828 57.0737 66.5742 62.9142 65.9416L64.1488 65.8088C68.8154 65.3042 73.5936 64.7923 78.309 63.7808C78.1557 64.9013 77.9659 66.0411 77.7398 67.2415L77.7471 67.2294ZM102.128 43.7493C101.847 43.6133 101.566 43.5186 101.275 43.4675C101.132 43.3898 101.003 43.3291 100.884 43.266C100.814 43.232 100.744 43.198 100.695 43.1689C99.917 42.7344 99.1702 42.2611 98.3677 41.7708L98.1979 41.6688C96.4813 40.613 94.6337 39.5691 92.3714 38.3918C91.4815 37.9232 90.5698 37.4911 89.7017 37.0686C88.7779 36.6292 87.9098 36.2068 87.066 35.7577C86.4477 35.4275 85.8318 35.1071 85.2062 34.789C84.8158 34.5875 84.4255 34.3861 84.0351 34.1846C84.023 34.1773 83.9987 34.1627 83.9866 34.1554C83.9866 34.1554 83.8823 34.1093 83.7295 34.034C82.6908 30.5313 81.3051 27.2491 80.0647 24.3842C79.4178 22.9068 78.6328 21.1651 77.6393 19.4135C77.5109 19.1878 77.3897 18.9501 77.2589 18.7148C76.578 17.4314 75.6523 15.6629 73.7708 14.5657C70.8394 12.8544 66.8574 11.9721 61.9484 11.96C57.6362 11.9434 53.6728 12.5405 49.4739 13.8457C45.4666 15.0928 41.6919 16.9003 38.2492 19.2125C34.5833 21.6627 31.9698 24.4482 30.4598 27.484C28.8186 30.7793 28.7926 34.393 28.7717 37.5727L28.7642 38.0796C28.7357 41.8485 29.0322 45.5983 29.6948 49.535C29.8713 50.5731 30.0746 51.5943 30.2924 52.5912C30.1007 52.773 29.9187 52.9524 29.8265 53.0372C29.5863 53.2724 29.4698 53.3839 29.3558 53.5051C28.5768 54.3488 27.8536 55.2094 27.1547 56.0434C26.98 56.2519 26.8053 56.4604 26.6208 56.6713C24.6891 58.9672 23.0218 61.3311 21.6505 63.3532C20.3447 65.2661 18.9734 67.3295 17.8614 69.6063C17.6381 70.0743 17.4511 70.5229 17.269 70.9497C17.082 71.3983 16.8999 71.8251 16.7276 72.1669C16.5455 72.5113 16.4047 72.8556 16.305 73.2C15.9214 74.0171 15.8531 74.9824 16.2213 75.8387C16.6525 76.8648 17.5617 77.5347 18.59 77.6904C19.349 77.8824 20.1834 77.7979 20.9452 77.3811C20.9646 77.3762 20.9816 77.3617 21.0082 77.3447L21.2241 77.2187C21.5225 77.0515 21.7894 76.8406 22.0273 76.5958C22.4276 76.3413 22.7963 76.0844 23.1384 75.8445C23.5339 75.5706 23.893 75.3161 24.2108 75.1441C25.8314 74.2451 27.5077 73.4455 29.2228 72.6363C31.8137 71.4127 34.5548 70.4196 37.3831 69.6934C37.417 69.7468 37.4582 69.788 37.4922 69.8414C38.7695 71.4913 40.0929 73.2018 41.5013 74.8396C44.0271 77.7755 46.8366 80.8571 50.158 83.512C53.3461 86.0456 56.7236 88.1816 60.1984 89.8398C62.9723 91.1678 66.1222 92.5979 69.3718 93.2713C69.5463 93.64 69.745 93.9408 69.9535 94.198C69.9217 94.6904 69.7515 95.4543 69.6592 95.869C69.6276 96.0314 69.5838 96.1866 69.5595 96.337C69.4793 96.7177 69.3724 97.1155 69.2533 97.5471C69.0492 98.2989 68.8281 99.1476 68.6943 100.057C68.4655 101.743 68.7485 103.249 69.5265 104.384C70.2415 105.432 71.3908 106.032 72.6156 105.984C73.0037 105.97 73.3845 105.885 73.7508 105.742C74.1023 106.036 74.5267 106.291 75.0383 106.482C75.7658 106.754 76.5249 106.782 77.2332 106.605C78.0676 106.397 78.8197 105.9 79.3585 105.168C80.0963 104.242 80.4171 102.883 79.9035 101.651C79.8042 101.418 79.6879 101.2 79.5449 100.999C79.1354 100.225 79.068 99.0047 79.0056 97.7216C78.9791 97.285 78.9575 96.8266 78.9165 96.3731C78.9069 96.2106 78.8973 95.9244 78.8878 95.6382C78.8424 94.1757 78.773 92.1626 77.9347 90.5372C77.9275 90.2607 77.8888 89.9818 77.8283 89.698C78.6513 88.2043 79.302 86.6815 79.9382 85.183C80.0984 84.7926 80.2708 84.4094 80.4335 84.0287C81.6864 81.1602 82.7622 78.2017 83.6174 75.2262C84.4386 72.4035 84.9881 69.5249 85.523 66.753L85.7418 65.6059C86.0093 64.1993 86.2137 62.7879 86.3308 61.3982C89.9792 59.9932 93.4387 58.1614 96.617 55.9461C98.2668 54.7924 99.5529 53.4616 100.839 52.0894C101.858 51.0106 102.911 49.8203 103.632 48.2078C104.409 46.4886 103.743 44.5213 102.124 43.7298L102.128 43.7493Z" fill="#F1F1F1"/>
<path d="M77.3858 67.0207C77.038 68.8905 76.4987 70.7359 75.9327 72.6807C75.5707 73.9151 75.2014 75.2028 74.8758 76.5002C74.4068 78.3796 73.4963 80.3485 72.6223 82.2569L72.2678 83.0256C71.8623 83.9203 71.469 84.7399 71.0781 85.5279C69.0217 84.8866 66.7617 84.09 64.5042 83.0145C61.1337 81.4024 58.3333 79.6378 55.9356 77.5872C53.5137 75.5221 51.1792 73.1465 48.9272 70.8535L48.8836 70.8025C47.9018 69.8004 46.9321 68.8055 46.0013 67.801C51.2987 66.9741 56.7123 66.3655 62.5529 65.7329L63.7875 65.6001C68.4541 65.0955 73.2323 64.5836 77.9574 63.5697C77.8041 64.6901 77.6143 65.8299 77.3882 67.0304L77.3858 67.0207ZM101.767 43.5405C101.486 43.4045 101.205 43.3098 100.914 43.2587C100.77 43.1811 100.642 43.1204 100.523 43.0573C100.453 43.0233 100.383 42.9893 100.334 42.9602C99.5557 42.5256 98.8089 42.0523 98.0063 41.562L97.8366 41.4601C96.12 40.4042 94.2627 39.3628 92.0101 38.183C91.1202 37.7145 90.2085 37.2823 89.3404 36.8599C88.4166 36.4205 87.5485 35.998 86.7047 35.5489C86.0864 35.2188 85.4705 34.8983 84.8449 34.5803C84.4545 34.3788 84.0642 34.1773 83.6738 33.9758C83.6616 33.9685 83.6374 33.954 83.6253 33.9467C83.6253 33.9467 83.521 33.9006 83.3682 33.8253C82.3295 30.3226 80.9437 27.0404 79.7034 24.1755C79.0565 22.6981 78.2715 20.9563 77.278 19.2047C77.1496 18.9791 77.0284 18.7414 76.8975 18.506C76.2166 17.2227 75.291 15.4542 73.4095 14.357C70.478 12.6457 66.496 11.7633 61.5847 11.7416C57.2724 11.7249 53.3091 12.3221 49.1126 13.637C45.1053 14.8841 41.3306 16.6916 37.8879 19.0037C34.2244 21.4637 31.6085 24.2394 30.0985 27.2753C28.4573 30.5705 28.4313 34.1843 28.4104 37.3639L28.4028 37.8708C28.3743 41.6398 28.6708 45.3895 29.3335 49.3262C29.5076 50.3546 29.7108 51.3758 29.9311 52.3825C29.7394 52.5643 29.5574 52.7437 29.4652 52.8285C29.225 53.0636 29.1085 53.1751 28.9944 53.2964C28.2155 54.14 27.4923 55.0007 26.7934 55.8346C26.6187 56.0431 26.4342 56.2541 26.2595 56.4626C24.3278 58.7584 22.6604 61.1223 21.2891 63.1444C19.9834 65.0574 18.612 67.1207 17.5001 69.3976C17.2768 69.8656 17.0898 70.3142 16.9077 70.7409C16.7207 71.1895 16.5386 71.6163 16.3662 71.9582C16.1842 72.3025 16.0433 72.6468 15.9437 72.9912C15.5601 73.8084 15.4918 74.7736 15.86 75.63C16.2912 76.6561 17.2004 77.3259 18.2287 77.4816C18.9877 77.6736 19.8221 77.5891 20.5863 77.182C20.6057 77.1772 20.6226 77.1627 20.6493 77.1457L20.8677 77.0294C21.1661 76.8622 21.433 76.6513 21.6683 76.3968C22.0711 76.152 22.4374 75.8854 22.7795 75.6454C23.1653 75.374 23.5341 75.1171 23.8519 74.945C25.4724 74.046 27.1488 73.2465 28.8639 72.4372C31.4548 71.2137 34.1959 70.2206 37.0242 69.4944C37.0581 69.5477 37.0993 69.589 37.1333 69.6424C38.4106 71.2922 39.734 73.0027 41.1424 74.6405C43.6682 77.5764 46.468 80.6604 49.7991 83.313C52.9872 85.8466 56.3647 87.9825 59.8395 89.6407C62.6158 90.9785 65.7657 92.4085 69.0056 93.0843C69.1801 93.4531 69.3788 93.7539 69.5873 94.0111C69.5555 94.5034 69.3854 95.2674 69.293 95.682C69.2614 95.8445 69.2177 95.9997 69.1933 96.1501C69.1131 96.5308 69.0062 96.9285 68.8872 97.3602C68.6831 98.112 68.4619 98.9607 68.3281 99.8702C68.0993 101.556 68.3823 103.062 69.1603 104.197C69.8753 105.246 71.0246 105.845 72.2494 105.797C72.6375 105.783 73.0183 105.698 73.3846 105.555C73.7362 105.849 74.1605 106.104 74.6721 106.296C75.3996 106.568 76.1587 106.595 76.867 106.418C77.7014 106.21 78.4535 105.713 78.9923 104.981C79.7301 104.055 80.0509 102.697 79.5373 101.464C79.438 101.231 79.3217 101.013 79.1787 100.812C78.7692 100.038 78.7019 98.8177 78.6394 97.5347C78.613 97.0981 78.5913 96.6397 78.5503 96.1862C78.5407 96.0236 78.5215 95.7399 78.5216 95.4513C78.4762 93.9887 78.4069 91.9757 77.5685 90.3503C77.5613 90.0738 77.5227 89.7948 77.4525 89.5135C78.2754 88.0198 78.9334 86.4849 79.572 84.9961C79.7322 84.6057 79.9046 84.2225 80.0673 83.8418C81.3202 80.9732 82.3961 78.0148 83.2512 75.0393C84.0724 72.2166 84.6219 69.338 85.1568 66.5661L85.3757 65.419C85.6431 64.0124 85.8476 62.6009 85.9646 61.2113C89.6131 59.8063 93.0725 57.9744 96.2508 55.7592C97.9006 54.6055 99.1867 53.2746 100.473 51.9025C101.492 50.8237 102.543 49.6237 103.266 48.0209C104.043 46.3017 103.377 44.3344 101.757 43.5429L101.767 43.5405Z" fill="#E2E2E2"/>
<path d="M77.0342 66.8095C76.6865 68.6793 76.1471 70.5247 75.5811 72.4696C75.2191 73.7039 74.8498 74.9916 74.5242 76.289C74.0552 78.1684 73.1447 80.1374 72.2707 82.0457L71.9162 82.8144C71.5107 83.7091 71.1174 84.5287 70.7266 85.3168C68.6702 84.6755 66.4101 83.8789 64.1526 82.8033C60.7822 81.1913 57.9818 79.4267 55.5841 77.3761C53.1621 75.3109 50.8277 72.9354 48.5756 70.6423L48.532 70.5913C47.5502 69.5892 46.5805 68.5943 45.6497 67.5898C50.9471 66.7629 56.3608 66.1543 62.2013 65.5217L63.4359 65.3889C68.1026 64.8843 72.8807 64.3724 77.6058 63.3585C77.4525 64.4789 77.2628 65.6188 77.0366 66.8192L77.0342 66.8095ZM101.416 43.3293C101.134 43.1934 100.853 43.0986 100.562 43.0476C100.419 42.9699 100.288 42.8995 100.172 42.8461C100.101 42.8121 100.031 42.7781 99.9825 42.749C99.2041 42.3145 98.4574 41.8411 97.6548 41.3508L97.4851 41.2489C95.7684 40.193 93.9111 39.1516 91.6585 37.9718C90.7687 37.5033 89.8666 37.0687 88.9888 36.6487C88.065 36.2093 87.1969 35.7868 86.3531 35.3377C85.7348 35.0076 85.1189 34.6872 84.4933 34.3691C84.103 34.1676 83.7126 33.9661 83.3222 33.7646C83.3101 33.7574 83.2858 33.7428 83.2737 33.7355C83.2737 33.7355 83.1694 33.6894 83.0167 33.6141C81.9779 30.1114 80.5922 26.8292 79.3518 23.9643C78.7049 22.4869 77.92 20.7451 76.9264 18.9935C76.798 18.7679 76.6769 18.5302 76.546 18.2949C75.8651 17.0115 74.9394 15.243 73.0579 14.1458C70.1265 12.4345 66.1445 11.5522 61.2331 11.5304C56.9209 11.5137 52.9575 12.1109 48.761 13.4258C44.7537 14.6729 40.979 16.4804 37.5363 18.7925C33.8728 21.2525 31.2569 24.0283 29.7469 27.0641C28.1058 30.3593 28.0798 33.9731 28.0588 37.1527L28.0513 37.6596C28.0228 41.4286 28.3193 45.1784 28.9819 49.115C29.1585 50.1532 29.3593 51.1647 29.5795 52.1713C29.3878 52.3531 29.2155 52.53 29.1136 52.6173C28.8734 52.8525 28.7569 52.964 28.6429 53.0852C27.8639 53.9288 27.1407 54.7895 26.4418 55.6235C26.2671 55.832 26.0827 56.0429 25.908 56.2514C23.9763 58.5472 22.3089 60.9112 20.9376 62.9332C19.6318 64.8462 18.2605 66.9095 17.1486 69.1864C16.9252 69.6544 16.7382 70.103 16.5561 70.5298C16.3692 70.9784 16.1871 71.4051 16.005 71.7494C15.8229 72.0938 15.6821 72.4381 15.5825 72.7824C15.1989 73.5996 15.1305 74.5649 15.4987 75.4212C15.9299 76.4473 16.8391 77.1172 17.8674 77.2729C18.6264 77.4649 19.4608 77.3804 20.225 76.9733C20.2444 76.9685 20.2614 76.9539 20.2881 76.9369L20.5064 76.8206C20.8048 76.6534 21.0717 76.4425 21.3071 76.188C21.7098 75.9432 22.0762 75.6766 22.4207 75.4464C22.8064 75.1749 23.1752 74.918 23.493 74.746C25.1136 73.8469 26.7899 73.0474 28.505 72.2382C31.0959 71.0146 33.837 70.0215 36.6654 69.2953C36.6993 69.3487 36.7405 69.3899 36.7744 69.4433C38.0518 71.0932 39.3752 72.8037 40.7835 74.4415C43.319 77.375 46.1188 80.459 49.4403 83.1139C52.6284 85.6475 56.0059 87.7835 59.4806 89.4417C62.2546 90.7697 65.4044 92.1998 68.6444 92.8756C68.8188 93.2443 69.0175 93.5452 69.226 93.8024C69.1942 94.2947 69.0241 95.0586 68.9317 95.4733C68.9001 95.6358 68.8564 95.791 68.8321 95.9413C68.7518 96.3221 68.6449 96.7198 68.5259 97.1514C68.3218 97.9032 68.1007 98.752 67.9668 99.6614C67.738 101.347 68.0211 102.853 68.7991 103.989C69.514 105.037 70.6634 105.636 71.8882 105.588C72.2763 105.574 72.6571 105.489 73.0234 105.346C73.3749 105.64 73.7992 105.895 74.3109 106.087C75.0383 106.359 75.7975 106.386 76.5058 106.209C77.3402 106.001 78.0923 105.504 78.6311 104.772C79.3688 103.846 79.6896 102.488 79.1761 101.255C79.0767 101.023 78.9604 100.804 78.8174 100.603C78.4079 99.829 78.343 98.6187 78.2782 97.3259C78.2517 96.8894 78.2301 96.431 78.1891 95.9774C78.1794 95.8149 78.1602 95.5311 78.1603 95.2425C78.115 93.78 78.0456 91.7669 77.2072 90.1415C77.2001 89.865 77.1614 89.5861 77.0912 89.3047C77.9141 87.8111 78.5746 86.2859 79.2107 84.7873C79.371 84.3969 79.5434 84.0138 79.7061 83.6331C80.9589 80.7645 82.0348 77.8061 82.89 74.8306C83.7111 72.0079 84.2606 69.1292 84.7956 66.3573L85.0144 65.2102C85.2819 63.8036 85.4863 62.3922 85.6034 61.0025C89.2518 59.5976 92.7112 57.7657 95.8895 55.5504C97.5393 54.3968 98.8254 53.0659 100.112 51.6937C101.131 50.615 102.181 49.4149 102.905 47.8121C103.682 46.0929 103.016 44.1256 101.396 43.3342L101.416 43.3293Z" fill="#D4D4D4"/>
<path d="M76.6826 66.5983C76.3349 68.4681 75.7931 70.3038 75.2295 72.2584C74.8675 73.4927 74.4982 74.7804 74.1726 76.0778C73.7036 77.9572 72.7931 79.9262 71.9191 81.8345L71.5646 82.6032C71.1591 83.4979 70.7658 84.3175 70.375 85.1056C68.3186 84.4643 66.0585 83.6677 63.8011 82.5921C60.4306 80.9801 57.6302 79.2155 55.2325 77.1649C52.8106 75.0997 50.4761 72.7242 48.224 70.4311L48.1804 70.3802C47.1986 69.378 46.229 68.3832 45.2981 67.3786C50.5955 66.5517 56.0092 65.9431 61.8497 65.3105L63.0843 65.1777C67.7509 64.6731 72.5292 64.1612 77.2542 63.1473C77.1009 64.2678 76.9112 65.4076 76.685 66.608L76.6826 66.5983ZM101.066 43.1278C100.785 42.9919 100.504 42.8972 100.213 42.8461C100.07 42.7684 99.9388 42.698 99.8224 42.6446C99.7521 42.6106 99.6818 42.5766 99.6333 42.5475C98.855 42.113 98.1082 41.6397 97.3056 41.1494L97.1359 41.0474C95.4192 39.9916 93.5716 38.9477 91.3094 37.7704C90.4195 37.3018 89.5175 36.8672 88.6397 36.4472C87.7158 36.0078 86.8478 35.5854 86.0039 35.1363C85.3856 34.8061 84.7698 34.4857 84.1442 34.1676C83.7538 33.9662 83.3634 33.7647 82.973 33.5632C82.9609 33.5559 82.9367 33.5413 82.9245 33.534C82.9245 33.534 82.8203 33.4879 82.6675 33.4126C81.6287 29.9099 80.243 26.6277 79.0026 23.7628C78.3558 22.2854 77.5708 20.5437 76.5772 18.7921C76.4488 18.5664 76.3277 18.3287 76.1968 18.0934C75.5159 16.81 74.5903 15.0415 72.7087 13.9443C69.7773 12.233 65.7953 11.3507 60.884 11.3289C56.5717 11.3123 52.6084 11.9094 48.4119 13.2243C44.4046 14.4714 40.6298 16.2789 37.1871 18.591C33.5237 21.051 30.9078 23.8268 29.3977 26.8626C27.7566 30.1579 27.7306 33.7716 27.7096 36.9513L27.7021 37.4582C27.6736 41.2271 27.9701 44.9769 28.6327 48.9136C28.8093 49.9517 29.0101 50.9632 29.2303 51.9698C29.0386 52.1516 28.8663 52.3286 28.7644 52.4158C28.5218 52.6413 28.4077 52.7625 28.2937 52.8837C27.5147 53.7274 26.7916 54.588 26.0927 55.422C25.9179 55.6305 25.7335 55.8414 25.5588 56.0499C23.6271 58.3458 21.9597 60.7097 20.5884 62.7318C19.2826 64.6447 17.9113 66.7081 16.7994 68.9849C16.576 69.4529 16.3891 69.9015 16.207 70.3283C16.02 70.7769 15.8379 71.2037 15.6558 71.548C15.4737 71.8923 15.3329 72.2366 15.2333 72.581C14.8497 73.3981 14.7813 74.3634 15.1495 75.2197C15.5808 76.2458 16.49 76.9157 17.5182 77.0714C18.2773 77.2634 19.1116 77.1789 19.8734 76.7621C19.8928 76.7573 19.9122 76.7524 19.9365 76.7258L20.1524 76.5997C20.4508 76.4325 20.7201 76.2314 20.9555 75.9768C21.3582 75.732 21.7246 75.4654 22.0667 75.2255C22.4524 74.954 22.8212 74.6971 23.139 74.5251C24.7596 73.6261 26.4359 72.8265 28.151 72.0173C30.7419 70.7937 33.483 69.8007 36.3113 69.0744C36.3453 69.1278 36.3865 69.169 36.4204 69.2224C37.6978 70.8723 39.0212 72.5828 40.4295 74.2206C42.965 77.1541 45.7648 80.2381 49.0863 82.893C52.2744 85.4266 55.6519 87.5626 59.1266 89.2208C61.9006 90.5488 65.0528 91.9886 68.2928 92.6644C68.4672 93.0331 68.666 93.334 68.8744 93.5912C68.8426 94.0835 68.6725 94.8474 68.5801 95.2621L68.4805 95.7301C68.4003 96.1109 68.2933 96.5086 68.1743 96.9403C67.9702 97.692 67.7491 98.5408 67.6152 99.4502C67.3864 101.136 67.6695 102.642 68.4475 103.777C69.1624 104.826 70.3118 105.425 71.5366 105.377C71.9344 105.36 72.3152 105.276 72.6718 105.135C73.0233 105.429 73.4476 105.684 73.9593 105.876C74.6867 106.148 75.4459 106.175 76.1542 105.998C76.9886 105.79 77.731 105.295 78.2795 104.561C79.0172 103.635 79.338 102.277 78.8245 101.044C78.7251 100.811 78.6088 100.593 78.4658 100.392C78.0563 99.6178 77.9914 98.4075 77.9266 97.1148C77.9001 96.6782 77.8785 96.2198 77.8375 95.7662C77.8278 95.6037 77.8086 95.3199 77.8087 95.0313C77.7633 93.5688 77.694 91.5557 76.8556 89.9303C76.8485 89.6538 76.8098 89.3749 76.7396 89.0935C77.5625 87.5999 78.2133 86.0771 78.8591 84.5761C79.0194 84.1857 79.1918 83.8026 79.3545 83.4219C80.6073 80.5533 81.6832 77.5949 82.5384 74.6194C83.3595 71.7967 83.909 68.918 84.444 66.1461L84.6628 64.999C84.9303 63.5925 85.1347 62.181 85.2518 60.7913C88.9002 59.3864 92.3596 57.5545 95.5379 55.3393C97.1877 54.1856 98.4738 52.8547 99.7599 51.4826C100.779 50.4038 101.83 49.2037 102.553 47.6009C103.33 45.8817 102.664 43.9144 101.045 43.123L101.066 43.1278Z" fill="#C5C5C5"/>
<path d="M76.3311 66.3871C75.9833 68.2569 75.4513 70.0902 74.878 72.0472C74.516 73.2815 74.1467 74.5692 73.8211 75.8666C73.3521 77.7461 72.4416 79.715 71.5675 81.6233L71.2131 82.392C70.8076 83.2868 70.4143 84.1063 70.0234 84.8944C67.967 84.2531 65.707 83.4565 63.4495 82.381C60.079 80.7689 57.2762 78.9946 54.8809 76.9537C52.459 74.8886 50.1245 72.513 47.8725 70.22L47.8289 70.169C46.8471 69.1669 45.8774 68.172 44.9466 67.1674C50.244 66.3405 55.6577 65.732 61.4982 65.0994L62.7328 64.9666C67.3994 64.4619 72.1776 63.9501 76.9003 62.9264C76.7469 64.0469 76.5596 65.1964 76.3311 66.3871ZM100.712 42.907C100.431 42.771 100.15 42.6763 99.8588 42.6252C99.7158 42.5475 99.5873 42.4868 99.4685 42.4237C99.3982 42.3897 99.3278 42.3557 99.2793 42.3266C98.501 41.8921 97.7542 41.4188 96.9517 40.9285L96.7819 40.8265C95.0653 39.7707 93.2201 38.7366 90.9554 37.5495C90.0655 37.0809 89.1635 36.6464 88.2857 36.2264C87.3619 35.7869 86.4938 35.3645 85.65 34.9154C85.0317 34.5852 84.4158 34.2648 83.7902 33.9468C83.3998 33.7453 83.0095 33.5438 82.6191 33.3423C82.607 33.335 82.5827 33.3204 82.5609 33.3156C82.5609 33.3156 82.4663 33.267 82.3038 33.1942C81.2651 29.6915 79.8793 26.4093 78.639 23.5443C77.9921 22.067 77.2071 20.3252 76.2136 18.5736C76.0852 18.348 75.964 18.1102 75.8331 17.8749C75.1522 16.5916 74.2266 14.823 72.3451 13.7259C69.4136 12.0146 65.4316 11.1322 60.5203 11.1104C56.208 11.0938 52.2447 11.6909 48.0482 13.0059C44.0409 14.253 40.2662 16.0605 36.8235 18.3726C33.16 20.8326 30.5441 23.6083 29.0341 26.6441C27.3954 29.9491 27.3669 33.5532 27.346 36.7328L27.3385 37.2397C27.3099 41.0087 27.6064 44.7584 28.2691 48.6951C28.4432 49.7235 28.6464 50.7447 28.8667 51.7513C28.675 51.9331 28.493 52.1125 28.4008 52.1974C28.1581 52.4228 28.0441 52.544 27.93 52.6652C27.1511 53.5089 26.4279 54.3695 25.729 55.2035C25.5543 55.412 25.3795 55.6205 25.1951 55.8314C23.2634 58.1273 21.596 60.4912 20.2247 62.5133C18.919 64.4263 17.5477 66.4896 16.4357 68.7665C16.2124 69.2344 16.023 69.6733 15.8433 70.1098C15.6563 70.5584 15.4742 70.9852 15.2921 71.3295C15.1101 71.6738 14.9692 72.0181 14.8696 72.3625C14.486 73.1797 14.4177 74.1449 14.7859 75.0012C15.2147 76.0177 16.1263 76.6972 17.1546 76.853C17.9136 77.0449 18.748 76.9604 19.5097 76.5436C19.5291 76.5388 19.5486 76.534 19.5728 76.5073L19.7887 76.3813C20.0871 76.2141 20.3564 76.0129 20.5918 75.7583C20.9946 75.5136 21.3609 75.247 21.703 75.007C22.0985 74.7332 22.4673 74.4763 22.7754 74.3066C24.3959 73.4076 26.0722 72.608 27.7874 71.7988C30.3782 70.5753 33.1194 69.5822 35.9477 68.856C35.9816 68.9093 36.0228 68.9506 36.0568 69.004C37.3341 70.6538 38.6575 72.3643 40.0659 74.0021C42.5917 76.9381 45.4012 80.0196 48.7226 82.6746C51.9107 85.2082 55.2882 87.3441 58.7629 89.0023C61.5369 90.3304 64.6892 91.7701 67.9291 92.4459C68.1036 92.8147 68.3023 93.1155 68.5083 93.363C68.4766 93.8553 68.3064 94.6193 68.214 95.0339C68.1824 95.1964 68.1387 95.3516 68.1144 95.502C68.0342 95.8827 67.9273 96.2804 67.8082 96.7121C67.6041 97.4639 67.383 98.3126 67.2492 99.2221C67.0204 100.908 67.3034 102.414 68.0814 103.549C68.7963 104.597 69.9457 105.197 71.1705 105.149C71.5683 105.132 71.9491 105.048 72.3057 104.907C72.6572 105.201 73.0815 105.456 73.5835 105.65C74.311 105.922 75.0701 105.949 75.7784 105.772C76.6031 105.566 77.3649 105.067 77.9037 104.335C78.6415 103.409 78.9623 102.051 78.4463 100.809C78.3469 100.576 78.2306 100.358 78.0876 100.156C77.6781 99.3823 77.6132 98.1721 77.5484 96.8793C77.5219 96.4427 77.5003 95.9843 77.4593 95.5308C77.4496 95.3683 77.4304 95.0845 77.4305 94.7959C77.3851 93.3334 77.3158 91.3203 76.4774 89.6949C76.4703 89.4184 76.4316 89.1395 76.3614 88.8581C77.1843 87.3645 77.8448 85.8392 78.4809 84.3407C78.6412 83.9503 78.8136 83.5672 78.9763 83.1864C80.2291 80.3179 81.305 77.3594 82.1602 74.3839C82.9789 71.5515 83.5308 68.6826 84.0658 65.9107L84.2846 64.7636C84.5521 63.357 84.7565 61.9456 84.8736 60.5559C88.522 59.1509 91.9814 57.3191 95.1597 55.1038C96.8095 53.9501 98.0956 52.6192 99.3817 51.2471C100.401 50.1683 101.452 48.9683 102.175 47.3655C102.952 45.6463 102.286 43.679 100.666 42.8875L100.712 42.907Z" fill="#B7B7B7"/>
<path d="M75.9795 66.176C75.6318 68.0457 75.0997 69.8791 74.5264 71.836C74.1644 73.0704 73.7951 74.3581 73.4695 75.6555C73.0005 77.5349 72.09 79.5038 71.216 81.4122L70.8615 82.1808C70.456 83.0756 70.0627 83.8952 69.6719 84.6832C67.6155 84.0419 65.3554 83.2453 63.098 82.1698C59.7275 80.5577 56.9246 78.7834 54.5294 76.7425C52.1075 74.6774 49.773 72.3018 47.5185 69.9991L47.4773 69.9578C46.4955 68.9557 45.5259 67.9608 44.595 66.9563C49.8924 66.1294 55.3061 65.5208 61.1466 64.8882L62.3812 64.7554C67.0478 64.2507 71.8261 63.7389 76.5487 62.7153C76.3954 63.8357 76.2081 64.9852 75.9795 66.176ZM100.361 42.6958C100.08 42.5598 99.7983 42.4651 99.5073 42.414C99.3642 42.3364 99.2333 42.266 99.1169 42.2125C99.0466 42.1786 98.9763 42.1446 98.9278 42.1154C98.1494 41.6809 97.4027 41.2076 96.6001 40.7173L96.4304 40.6154C94.7137 39.5595 92.8686 38.5254 90.6039 37.3383C89.714 36.8698 88.8119 36.4352 87.9342 36.0152C87.0103 35.5757 86.1422 35.1533 85.2984 34.7042C84.6801 34.3741 84.0642 34.0536 83.4387 33.7356C83.0483 33.5341 82.6579 33.3326 82.2675 33.1311C82.2554 33.1238 82.2311 33.1093 82.219 33.102C82.219 33.102 82.1244 33.0534 81.962 32.9806C80.9232 29.4779 79.5375 26.1957 78.2971 23.3307C77.6502 21.8534 76.8653 20.1116 75.8717 18.36C75.7433 18.1344 75.6221 17.8966 75.4913 17.6613C74.8104 16.378 73.8848 14.6094 72.0032 13.5123C69.0718 11.801 65.0898 10.9186 60.1784 10.8969C55.8662 10.8802 51.9029 11.4773 47.7063 12.7923C43.6991 14.0394 39.9243 15.8469 36.4816 18.159C32.8181 20.619 30.2023 23.3947 28.6922 26.4305C27.0535 29.7355 27.0251 33.3396 27.0041 36.5192L26.9966 37.0261C26.9681 40.7951 27.2646 44.5448 27.9272 48.4815C28.1014 49.5099 28.3046 50.5311 28.5248 51.5378C28.3331 51.7196 28.1511 51.8989 28.0589 51.9838C27.8163 52.2092 27.7022 52.3304 27.5882 52.4516C26.8092 53.2953 26.086 54.156 25.3871 54.9899C25.2124 55.1984 25.0377 55.4069 24.8533 55.6178C22.9216 57.9137 21.2542 60.2776 19.8829 62.2997C18.5771 64.2127 17.2058 66.276 16.0939 68.5529C15.8705 69.0209 15.6811 69.4597 15.5014 69.8962C15.3145 70.3448 15.1324 70.7716 14.9503 71.1159C14.7682 71.4602 14.6274 71.8046 14.5278 72.1489C14.1442 72.9661 14.0758 73.9313 14.444 74.7877C14.8728 75.8041 15.7844 76.4836 16.8127 76.6394C17.5717 76.8313 18.4061 76.7468 19.1679 76.3301C19.1873 76.3252 19.2067 76.3204 19.231 76.2937L19.4469 76.1677C19.7453 76.0005 20.0122 75.7896 20.25 75.5448C20.6527 75.3 21.0191 75.0334 21.3611 74.7934C21.7566 74.5196 22.1254 74.2627 22.4335 74.093C24.0541 73.194 25.7304 72.3944 27.4455 71.5852C30.0364 70.3617 32.7775 69.3686 35.6058 68.6424C35.6373 68.686 35.681 68.737 35.7149 68.7904C36.9923 70.4402 38.3157 72.1507 39.724 73.7885C42.2498 76.7245 45.0593 79.806 48.3807 82.461C51.5689 84.9946 54.9464 87.1305 58.4211 88.7887C61.195 90.1168 64.3473 91.5565 67.5873 92.2323C67.7617 92.6011 67.9604 92.9019 68.1665 93.1494C68.1347 93.6417 67.9646 94.4057 67.8722 94.8203C67.8309 94.9852 67.7969 95.138 67.7725 95.2884C67.6923 95.6691 67.5854 96.0668 67.4663 96.4985C67.2622 97.2503 67.0411 98.099 66.9073 99.0085C66.6785 100.694 66.9615 102.2 67.7395 103.336C68.4545 104.384 69.6038 104.983 70.8286 104.936C71.2264 104.919 71.5975 104.836 71.9638 104.694C72.3154 104.987 72.7397 105.242 73.2416 105.436C73.9691 105.708 74.7282 105.735 75.4365 105.559C76.2612 105.353 77.0231 104.854 77.5618 104.121C78.2996 103.195 78.6204 101.837 78.1044 100.595C78.0051 100.362 77.8888 100.144 77.7458 99.9426C77.3387 99.1785 77.2713 97.9585 77.2065 96.6657C77.18 96.2291 77.1584 95.7707 77.1174 95.3172C77.1078 95.1547 77.0885 94.8709 77.0887 94.5823C77.0433 93.1198 76.9739 91.1067 76.1355 89.4813C76.1284 89.2048 76.0897 88.9259 76.0195 88.6445C76.8425 87.1509 77.5029 85.6256 78.1391 84.1271C78.2993 83.7367 78.4717 83.3536 78.6344 82.9728C79.8873 80.1043 80.9631 77.1459 81.8183 74.1704C82.637 71.3379 83.189 68.469 83.7239 65.6971L83.9427 64.55C84.2102 63.1434 84.4146 61.732 84.5317 60.3423C88.1801 58.9373 91.6396 57.1055 94.8179 54.8902C96.4701 53.7462 97.7562 52.4154 99.0423 51.0432C100.061 49.9644 101.112 48.7644 101.836 47.1616C102.613 45.4424 101.947 43.4751 100.327 42.6837L100.361 42.6958Z" fill="#A8A8A8"/>
<path d="M75.6255 65.9551C75.2778 67.8249 74.7481 69.6679 74.1724 71.6152C73.8104 72.8495 73.4411 74.1372 73.1155 75.4346C72.6465 77.314 71.736 79.283 70.862 81.1913L70.5075 81.96C70.102 82.8547 69.7087 83.6743 69.3178 84.4623C67.2615 83.8211 65.0014 83.0244 62.7439 81.9489C59.3735 80.3368 56.5706 78.5626 54.1753 76.5217C51.7534 74.4565 49.419 72.081 47.1645 69.7782L47.1233 69.7369C46.1415 68.7348 45.1718 67.7399 44.241 66.7354C49.5384 65.9085 54.9521 65.2999 60.7926 64.6673L62.0272 64.5345C66.6938 64.0299 71.472 63.518 76.1947 62.4944C76.0414 63.6148 75.854 64.7644 75.6255 65.9551ZM100.009 42.4846C99.728 42.3487 99.4467 42.2539 99.1557 42.2029C99.0126 42.1252 98.872 42.0572 98.7653 42.0014C98.695 41.9674 98.6246 41.9334 98.5762 41.9043C97.7978 41.4698 97.0511 40.9964 96.2485 40.5061L96.0788 40.4042C94.3621 39.3483 92.5145 38.3045 90.2522 37.1271C89.3624 36.6586 88.4603 36.224 87.5825 35.804C86.6587 35.3646 85.7906 34.9421 84.9468 34.493C84.3285 34.1629 83.7126 33.8424 83.087 33.5244C82.6967 33.3229 82.3063 33.1214 81.9159 32.9199C81.9038 32.9127 81.8795 32.8981 81.8674 32.8908C81.8674 32.8908 81.7728 32.8423 81.6104 32.7694C80.5716 29.2667 79.1859 25.9845 77.9455 23.1196C77.2986 21.6422 76.5137 19.9004 75.5201 18.1488C75.3917 17.9232 75.2705 17.6855 75.1397 17.4501C74.4588 16.1668 73.5332 14.3983 71.6516 13.3011C68.7178 11.5801 64.7382 10.7075 59.8365 10.6833C55.5243 10.6666 51.5609 11.2638 47.3644 12.5787C43.3572 13.8258 39.5824 15.6333 36.1397 17.9454C32.4738 20.3957 29.8604 23.1811 28.3503 26.2169C26.7116 29.5219 26.6832 33.126 26.6622 36.3056L26.6547 36.8125C26.6262 40.5815 26.9227 44.3312 27.5853 48.2679C27.7594 49.2963 27.9627 50.3175 28.1829 51.3242C27.9912 51.506 27.8092 51.6854 27.717 51.7702C27.4744 51.9956 27.3603 52.1168 27.2463 52.2381C26.477 53.0793 25.7441 53.9424 25.0477 54.786C24.8729 54.9945 24.6885 55.2055 24.5138 55.4139C22.5821 57.7098 20.9147 60.0737 19.5434 62.0958C18.2376 64.0088 16.8663 66.0721 15.7544 68.349C15.531 68.817 15.3416 69.2559 15.1619 69.6923C14.975 70.1409 14.7929 70.5677 14.6108 70.912C14.4287 71.2563 14.2879 71.6007 14.1883 71.945C13.8047 72.7622 13.7363 73.7274 14.1045 74.5838C14.5358 75.6099 15.4449 76.2797 16.4732 76.4355C17.2323 76.6274 18.0666 76.543 18.8284 76.1262C18.8478 76.1213 18.8648 76.1068 18.8915 76.0898L19.1074 75.9638C19.4058 75.7966 19.6751 75.5954 19.9105 75.3409C20.3132 75.0961 20.6796 74.8295 21.0217 74.5895C21.4171 74.3157 21.7859 74.0588 22.094 73.8891C23.7146 72.9901 25.3909 72.1906 27.106 71.3813C29.6969 70.1578 32.438 69.1647 35.2663 68.4385C35.2978 68.4822 35.3415 68.5331 35.3754 68.5865C36.6528 70.2363 37.9762 71.9469 39.3845 73.5847C41.9103 76.5206 44.7101 79.6046 48.0413 82.2571C51.2294 84.7907 54.6069 86.9267 58.0816 88.5849C60.8556 89.9129 64.0078 91.3526 67.2478 92.0285C67.4222 92.3972 67.621 92.698 67.827 92.9455C67.7952 93.4379 67.6251 94.2018 67.5327 94.6164C67.4914 94.7814 67.4574 94.9341 67.4331 95.0845C67.3528 95.4652 67.2459 95.8629 67.1269 96.2946C66.9228 97.0464 66.7016 97.8951 66.5678 98.8046C66.339 100.49 66.622 101.996 67.4 103.132C68.115 104.18 69.2643 104.78 70.4892 104.732C70.8869 104.715 71.2581 104.633 71.6243 104.49C71.9856 104.781 72.4002 105.038 72.9119 105.23C73.6393 105.502 74.3984 105.529 75.1067 105.352C75.9412 105.144 76.6933 104.647 77.2321 103.915C77.9698 102.989 78.2906 101.631 77.7746 100.389C77.6753 100.156 77.559 99.9377 77.416 99.7363C77.0089 98.9721 76.9416 97.7522 76.8767 96.4594C76.8502 96.0228 76.8286 95.5644 76.7876 95.1109C76.778 94.9484 76.7612 94.6743 76.7589 94.376C76.7135 92.9135 76.6442 90.9004 75.8058 89.275C75.7986 88.9985 75.76 88.7195 75.6898 88.4382C76.5127 86.9445 77.1731 85.4193 77.8093 83.9208C77.9695 83.5304 78.1419 83.1472 78.3046 82.7665C79.5575 79.8979 80.6334 76.9395 81.4885 73.964C82.3097 71.1413 82.8592 68.2627 83.3941 65.4908L83.613 64.3437C83.8804 62.9371 84.0848 61.5256 84.2019 60.136C87.8503 58.731 91.3098 56.8991 94.4881 54.6839C96.1379 53.5302 97.4264 52.2091 98.7125 50.8369C99.7317 49.7581 100.782 48.5581 101.506 46.9553C102.283 45.2361 101.617 43.2688 99.9972 42.4773L100.009 42.4846Z" fill="#9A9A9A"/>
<path d="M75.2739 65.7439C74.9262 67.6137 74.3868 69.4591 73.8208 71.404C73.4588 72.6383 73.0895 73.926 72.7639 75.2234C72.2949 77.1028 71.3844 79.0718 70.5104 80.9801L70.1559 81.7488C69.7505 82.6435 69.3572 83.4631 68.9663 84.2512C66.9099 83.6099 64.6498 82.8133 62.3924 81.7377C59.0219 80.1257 56.219 78.3514 53.8238 76.3105C51.4019 74.2453 49.0674 71.8698 46.8129 69.567L46.7717 69.5258C45.7899 68.5236 44.8203 67.5288 43.8894 66.5242C49.1868 65.6973 54.6005 65.0887 60.441 64.4561L61.6756 64.3233C66.3423 63.8187 71.1205 63.3068 75.8431 62.2832C75.6898 63.4036 75.5025 64.5532 75.2739 65.7439ZM99.6577 42.2734C99.3764 42.1375 99.0951 42.0428 98.8041 41.9917C98.661 41.914 98.5204 41.846 98.4137 41.7902C98.3434 41.7562 98.2731 41.7222 98.2246 41.6931C97.4463 41.2586 96.6995 40.7853 95.8969 40.295L95.7272 40.193C94.0106 39.1371 92.1629 38.0933 89.9007 36.916C89.0108 36.4474 88.1088 36.0128 87.231 35.5928C86.3071 35.1534 85.4391 34.731 84.5952 34.2819C83.9769 33.9517 83.3611 33.6313 82.7355 33.3132C82.3451 33.1117 81.9547 32.9103 81.5643 32.7088C81.5522 32.7015 81.528 32.6869 81.5158 32.6796C81.5158 32.6796 81.4213 32.6311 81.2588 32.5582C80.22 29.0555 78.8343 25.7733 77.5939 22.9084C76.9471 21.431 76.1621 19.6892 75.1686 17.9377C75.0401 17.712 74.919 17.4743 74.7881 17.239C74.1072 15.9556 73.1816 14.1871 71.3 13.0899C68.3686 11.3786 64.3866 10.4963 59.4753 10.4745C55.163 10.4579 51.1997 11.055 47.0032 12.3699C42.9959 13.617 39.2211 15.4245 35.7784 17.7366C32.1125 20.1869 29.4991 22.9724 27.989 26.0082C26.3503 29.3131 26.3219 32.9172 26.3009 36.0968L26.2934 36.6037C26.2649 40.3727 26.5614 44.1225 27.224 48.0592C27.3982 49.0876 27.6014 50.1088 27.8216 51.1154C27.6299 51.2972 27.4479 51.4766 27.3557 51.5614C27.1131 51.7869 26.999 51.9081 26.885 52.0293C26.106 52.8729 25.3829 53.7336 24.6864 54.5773C24.5117 54.7858 24.3272 54.9967 24.1525 55.2052C22.2208 57.5011 20.5534 59.865 19.1821 61.8871C17.8764 63.8 16.505 65.8633 15.3931 68.1402C15.1698 68.6082 14.9804 69.0471 14.8007 69.4836C14.6137 69.9322 14.4316 70.359 14.2592 70.7008C14.0772 71.0452 13.9363 71.3895 13.8367 71.7338C13.4531 72.551 13.3847 73.5163 13.753 74.3726C14.1842 75.3987 15.0934 76.0686 16.1217 76.2243C16.8807 76.4163 17.7151 76.3318 18.4768 75.915C18.4962 75.9101 18.5132 75.8956 18.5399 75.8786L18.7558 75.7526C19.0542 75.5854 19.3211 75.3745 19.5589 75.1297C19.9592 74.8752 20.328 74.6183 20.6701 74.3784C21.0656 74.1045 21.4343 73.8476 21.7424 73.678C23.363 72.7789 25.0393 71.9794 26.7544 71.1702C29.3453 69.9466 32.0865 68.9535 34.9148 68.2273C34.9463 68.271 34.9899 68.3219 35.0238 68.3753C36.3012 70.0252 37.6246 71.7357 39.033 73.3735C41.5588 76.3094 44.3585 79.3934 47.6897 82.0459C50.8778 84.5795 54.2553 86.7155 57.73 88.3737C60.504 89.7017 63.6563 91.1415 66.8962 91.8173C67.0706 92.186 67.2694 92.4869 67.4754 92.7343C67.4437 93.2267 67.2735 93.9906 67.1811 94.4053C67.1398 94.5702 67.1058 94.723 67.0815 94.8733C67.0013 95.2541 66.8943 95.6518 66.7753 96.0834C66.5712 96.8352 66.3501 97.684 66.2187 98.6031C65.9899 100.289 66.2729 101.795 67.0509 102.93C67.7659 103.978 68.9152 104.578 70.14 104.53C70.5281 104.516 70.9089 104.431 71.2752 104.288C71.6364 104.579 72.051 104.837 72.5627 105.029C73.2902 105.301 74.0493 105.328 74.7576 105.151C75.592 104.943 76.3441 104.446 76.8829 103.714C77.6206 102.788 77.9415 101.429 77.4255 100.187C77.3261 99.9546 77.2098 99.7362 77.0668 99.5348C76.6597 98.7707 76.5924 97.5507 76.5276 96.2579C76.5011 95.8214 76.4795 95.3629 76.4385 94.9094C76.4289 94.7469 76.412 94.4728 76.4097 94.1745C76.3644 92.712 76.295 90.6989 75.4542 89.0638C75.4471 88.7873 75.4084 88.5084 75.3382 88.227C76.1611 86.7334 76.8215 85.2082 77.4577 83.7096C77.618 83.3192 77.7904 82.9361 77.953 82.5554C79.2059 79.6868 80.2818 76.7284 81.137 73.7529C81.9581 70.9301 82.5076 68.0515 83.0426 65.2796L83.2614 64.1325C83.5289 62.7259 83.7333 61.3145 83.8504 59.9248C87.4988 58.5199 90.9582 56.688 94.1365 54.4727C95.7863 53.3191 97.0748 51.9979 98.3609 50.6257C99.3801 49.5469 100.431 48.3469 101.154 46.7441C101.931 45.0249 101.265 43.0576 99.6456 42.2662L99.6577 42.2734Z" fill="#8B8B8B"/>
<path d="M74.9224 65.5327C74.5746 67.4025 74.0353 69.248 73.4692 71.1928C73.1097 72.4369 72.738 73.7148 72.4123 75.0122C71.9433 76.8917 71.0329 78.8606 70.1588 80.7689L69.8043 81.5376C69.3989 82.4324 69.0056 83.2519 68.6147 84.04C66.5583 83.3987 64.2983 82.6021 62.0408 81.5266C58.6703 79.9145 55.8675 78.1402 53.4722 76.0993C51.0503 74.0342 48.7158 71.6586 46.4614 69.3558L46.4201 69.3146C45.4384 68.3124 44.4687 67.3176 43.5379 66.313C48.8352 65.4861 54.2489 64.8776 60.0895 64.2449L61.3241 64.1122C65.9907 63.6075 70.7689 63.0957 75.4916 62.072C75.3382 63.1925 75.1509 64.342 74.9224 65.5327ZM99.3061 42.0623C99.0249 41.9263 98.7436 41.8316 98.4525 41.7805C98.3095 41.7028 98.1689 41.6349 98.0622 41.579C97.9919 41.545 97.9215 41.511 97.873 41.4819C97.0923 41.0377 96.3479 40.5741 95.5454 40.0838L95.3756 39.9818C93.659 38.926 91.8114 37.8822 89.5491 36.7048C88.6592 36.2362 87.7572 35.8017 86.8794 35.3817C85.9556 34.9422 85.0875 34.5198 84.2437 34.0707C83.6254 33.7405 83.0095 33.4201 82.3839 33.1021C81.9935 32.9006 81.6032 32.6991 81.2128 32.4976C81.2007 32.4903 81.1764 32.4757 81.1643 32.4684C81.1643 32.4684 81.0697 32.4199 80.9072 32.3471C79.8685 28.8443 78.4828 25.5622 77.2424 22.6972C76.5955 21.2199 75.8105 19.4781 74.817 17.7265C74.6886 17.5009 74.5674 17.2631 74.4365 17.0278C73.7556 15.7444 72.83 13.9759 70.9485 12.8787C68.0146 11.1577 64.035 10.2851 59.1237 10.2633C54.8114 10.2467 50.8481 10.8438 46.6516 12.1588C42.6443 13.4059 38.8696 15.2133 35.4269 17.5255C31.761 19.9757 29.1475 22.7612 27.6375 25.797C25.9987 29.102 25.9703 32.706 25.9494 35.8857L25.9419 36.3926C25.9134 40.1616 26.2098 43.9113 26.8725 47.848C27.0466 48.8764 27.2499 49.8976 27.4701 50.9042C27.2784 51.086 27.1061 51.263 27.0042 51.3503C26.7615 51.5757 26.6475 51.6969 26.5334 51.8181C25.7545 52.6618 25.0313 53.5224 24.3348 54.3661C24.1601 54.5746 23.9757 54.7855 23.8009 54.994C21.8692 57.2899 20.2019 59.6538 18.8306 61.6759C17.5248 63.5889 16.1535 65.6522 15.0416 67.929C14.8182 68.397 14.6288 68.8359 14.4491 69.2724C14.2621 69.721 14.08 70.1478 13.898 70.4921C13.7159 70.8364 13.5751 71.1807 13.4755 71.5251C13.0919 72.3423 13.0235 73.3075 13.3917 74.1638C13.8229 75.19 14.7321 75.8598 15.7604 76.0155C16.5194 76.2075 17.3538 76.123 18.1156 75.7062C18.135 75.7014 18.1519 75.6868 18.1786 75.6699L18.3946 75.5439C18.693 75.3767 18.9598 75.1658 19.1976 74.9209C19.598 74.6665 19.9667 74.4096 20.3088 74.1696C20.7043 73.8957 21.0731 73.6388 21.3812 73.4692C23.0017 72.5702 24.6781 71.7706 26.3932 70.9614C28.984 69.7378 31.7252 68.7448 34.5535 68.0185C34.585 68.0622 34.6286 68.1132 34.6626 68.1665C35.9399 69.8164 37.2634 71.5269 38.6717 73.1647C41.1975 76.1006 43.9973 79.1846 47.3284 81.8371C50.5166 84.3708 53.894 86.5067 57.3688 88.1649C60.1427 89.4929 63.295 90.9327 66.5349 91.6085C66.7094 91.9773 66.9081 92.2781 67.1142 92.5256C67.0824 93.0179 66.9122 93.7818 66.8199 94.1965C66.7786 94.3614 66.7445 94.5142 66.7202 94.6646C66.64 95.0453 66.5331 95.443 66.414 95.8747C66.2099 96.6264 65.9888 97.4752 65.8574 98.3943C65.6286 100.08 65.9092 101.576 66.6896 102.722C67.4046 103.77 68.5539 104.369 69.7788 104.321C70.1668 104.307 70.5476 104.222 70.9139 104.079C71.2752 104.371 71.6898 104.628 72.2014 104.82C72.9289 105.092 73.688 105.119 74.3963 104.942C75.2211 104.736 75.9829 104.237 76.5216 103.505C77.2594 102.579 77.5802 101.221 77.0642 99.9787C76.9649 99.7458 76.8486 99.5275 76.7056 99.3261C76.2985 98.5619 76.2312 97.3419 76.1663 96.0492C76.1398 95.6126 76.1182 95.1542 76.0772 94.7006C76.0676 94.5381 76.0507 94.2641 76.0485 93.9657C76.0031 92.5032 75.9337 90.4901 75.0929 88.855C75.0858 88.5786 75.0471 88.2996 74.9769 88.0182C75.7998 86.5246 76.4603 84.9994 77.0964 83.5008C77.2567 83.1104 77.4291 82.7273 77.5918 82.3466C78.8447 79.478 79.9181 76.5099 80.7757 73.5441C81.5968 70.7214 82.1464 67.8428 82.6813 65.0708L82.9001 63.9237C83.1676 62.5172 83.372 61.1057 83.4891 59.716C87.1375 58.3111 90.597 56.4792 93.7752 54.264C95.425 53.1103 96.7136 51.7891 97.9997 50.417C99.0188 49.3382 100.07 48.1382 100.793 46.5354C101.57 44.8162 100.904 42.8489 99.2843 42.0574L99.3061 42.0623Z" fill="#7D7D7D"/>
<path d="M74.5707 65.3216C74.223 67.1913 73.6837 69.0368 73.1176 70.9816C72.7581 72.2257 72.3864 73.5037 72.0608 74.8011C71.5918 76.6805 70.6813 78.6494 69.8072 80.5578L69.4528 81.3264C69.0473 82.2212 68.654 83.0408 68.2631 83.8288C66.2067 83.1875 63.9467 82.3909 61.6892 81.3154C58.3187 79.7033 55.5159 77.929 53.1206 75.8881C50.6987 73.823 48.3642 71.4474 46.1098 69.1447L46.0686 69.1034C45.0868 68.1013 44.1171 67.1064 43.1863 66.1018C48.4836 65.2749 53.8973 64.6664 59.7379 64.0338L60.9725 63.901C65.6391 63.3963 70.4173 62.8845 75.1424 61.8706C74.989 62.991 74.8017 64.1405 74.5732 65.3313L74.5707 65.3216ZM98.9545 41.8511C98.6733 41.7151 98.392 41.6204 98.101 41.5693C97.9579 41.4917 97.8172 41.4237 97.7106 41.3678C97.6402 41.3338 97.5699 41.2999 97.5214 41.2707C96.7407 40.8265 95.9963 40.3629 95.1938 39.8726L95.024 39.7706C93.3074 38.7148 91.4598 37.671 89.1975 36.4936C88.3076 36.0251 87.4056 35.5905 86.5278 35.1705C85.604 34.731 84.7359 34.3086 83.8921 33.8595C83.2738 33.5294 82.6579 33.2089 82.0323 32.8909C81.6419 32.6894 81.2516 32.4879 80.8612 32.2864C80.849 32.2791 80.8248 32.2646 80.8127 32.2573C80.8127 32.2573 80.7084 32.2111 80.5556 32.1359C79.5169 28.6332 78.1408 25.3486 76.8908 22.486C76.2439 21.0087 75.4589 19.2669 74.4654 17.5153C74.337 17.2897 74.2158 17.0519 74.0849 16.8166C73.404 15.5333 72.4784 13.7647 70.5969 12.6676C67.663 10.9466 63.6834 10.0739 58.7818 10.0497C54.4695 10.0331 50.5062 10.6302 46.3073 11.9354C42.3 13.1826 38.5253 14.9901 35.0826 17.3022C31.4167 19.7524 28.8032 22.5379 27.2931 25.5737C25.6544 28.8787 25.626 32.4827 25.6051 35.6624L25.5975 36.1693C25.569 39.9383 25.8655 43.688 26.5282 47.6247C26.7047 48.6628 26.9055 49.6743 27.1258 50.6809C26.9341 50.8627 26.7618 51.0397 26.6599 51.127C26.4172 51.3524 26.3032 51.4736 26.1891 51.5948C25.4102 52.4385 24.687 53.2991 23.9905 54.1428C23.8158 54.3513 23.6314 54.5622 23.4566 54.7707C21.5249 57.0666 19.8576 59.4305 18.4863 61.4526C17.1805 63.3656 15.8092 65.4289 14.6972 67.7057C14.4739 68.1737 14.2845 68.6126 14.1048 69.0491C13.9178 69.4977 13.7357 69.9245 13.5537 70.2688C13.3716 70.6131 13.2307 70.9574 13.1311 71.3018C12.7475 72.1189 12.6792 73.0842 13.0474 73.9405C13.4786 74.9667 14.3878 75.6365 15.4161 75.7922C16.1751 75.9842 17.0095 75.8997 17.7712 75.4829C17.7907 75.4781 17.8076 75.4635 17.8343 75.4466L18.0502 75.3206C18.3486 75.1534 18.6155 74.9425 18.8533 74.6976C19.2536 74.4432 19.6224 74.1863 19.9645 73.9463C20.3503 73.6749 20.719 73.418 21.0369 73.2459C22.6574 72.3469 24.3337 71.5473 26.0489 70.7381C28.6397 69.5145 31.3809 68.5215 34.2092 67.7952C34.2407 67.8389 34.2843 67.8899 34.3183 67.9432C35.5956 69.5931 36.919 71.3036 38.3274 72.9414C40.8532 75.8773 43.653 78.9613 46.9841 81.6138C50.1722 84.1475 53.5497 86.2834 57.0244 87.9416C59.7984 89.2696 62.9507 90.7094 66.1906 91.3852C66.3651 91.754 66.5638 92.0548 66.7698 92.3023C66.7381 92.7946 66.5679 93.5585 66.4756 93.9732C66.444 94.1357 66.4002 94.2909 66.3759 94.4413C66.2957 94.822 66.1888 95.2197 66.0697 95.6514C65.8656 96.4031 65.6445 97.2519 65.5131 98.171C65.2843 99.8566 65.5649 101.353 66.3453 102.498C67.0627 103.556 68.2096 104.146 69.4344 104.098C69.8225 104.084 70.2033 103.999 70.5696 103.856C70.9212 104.15 71.3455 104.405 71.8571 104.596C72.5846 104.868 73.3437 104.896 74.052 104.719C74.8767 104.513 75.6385 104.014 76.1773 103.282C76.9151 102.355 77.2359 100.997 76.7199 99.7554C76.6206 99.5225 76.5042 99.3042 76.3612 99.1028C75.9517 98.3289 75.8868 97.1186 75.822 95.8259C75.7955 95.3893 75.7739 94.9309 75.7426 94.4749C75.733 94.3124 75.7137 94.0286 75.7139 93.74C75.6685 92.2775 75.5991 90.2644 74.7583 88.6293C74.7512 88.3528 74.7125 88.0739 74.6423 87.7925C75.4652 86.2989 76.1257 84.7737 76.7618 83.2751C76.9221 82.8847 77.0945 82.5016 77.2572 82.1209C78.51 79.2523 79.5859 76.2939 80.4411 73.3184C81.2622 70.4957 81.8142 67.6267 82.3467 64.8451L82.5655 63.698C82.833 62.2914 83.0374 60.88 83.1545 59.4903C86.8029 58.0854 90.2624 56.2535 93.4406 54.0383C95.0904 52.8846 96.3789 51.5634 97.6651 50.1913C98.6842 49.1125 99.735 47.9124 100.459 46.3096C101.235 44.5904 100.569 42.6231 98.9497 41.8317L98.9545 41.8511Z" fill="#6E6E6E"/>
<path d="M74.2095 65.1128C73.8617 66.9826 73.3321 68.8256 72.7564 70.7729C72.3968 72.0169 72.0251 73.2949 71.6995 74.5923C71.2305 76.4717 70.32 78.4407 69.446 80.349L69.0915 81.1177C68.686 82.0124 68.2927 82.832 67.9019 83.6201C65.8455 82.9788 63.5854 82.1821 61.3279 81.1066C57.9575 79.4946 55.157 77.73 52.7618 75.6891C50.3398 73.6239 48.0054 71.2484 45.7509 68.9456L45.7097 68.9044C44.7279 67.9022 43.7583 66.9073 42.8274 65.9028C48.1248 65.0759 53.5385 64.4673 59.3791 63.8347L60.6136 63.7019C65.2803 63.1973 70.0585 62.6854 74.7835 61.6715C74.6302 62.7919 74.4429 63.9415 74.2143 65.1322L74.2095 65.1128ZM98.5933 41.6423C98.312 41.5064 98.0307 41.4116 97.7397 41.3606C97.5966 41.2829 97.4681 41.2222 97.3493 41.1591C97.279 41.1251 97.2087 41.0911 97.1602 41.062C96.3891 40.6153 95.6351 40.1542 94.8325 39.6638L94.6628 39.5619C92.9461 38.506 91.0985 37.4622 88.8362 36.2848C87.9464 35.8163 87.0443 35.3817 86.1666 34.9617C85.2427 34.5223 84.3771 34.1095 83.5309 33.6507C82.9125 33.3206 82.2967 33.0001 81.6711 32.6821C81.2807 32.4806 80.8903 32.2791 80.4999 32.0776C80.4878 32.0704 80.4635 32.0558 80.4514 32.0485C80.4514 32.0485 80.3471 32.0024 80.1944 31.9271C79.1556 28.4244 77.7699 25.1422 76.5319 22.287C75.8851 20.8096 75.1001 19.0678 74.0969 17.3187C73.9684 17.093 73.8473 16.8553 73.7164 16.62C73.0355 15.3366 72.1099 13.5681 70.2283 12.4709C67.2945 10.7499 63.3149 9.87729 58.4036 9.85551C54.0913 9.83886 50.128 10.436 45.929 11.7412C41.9218 12.9883 38.147 14.7958 34.7043 17.108C31.0384 19.5582 28.425 22.3437 26.9149 25.3795C25.2762 28.6845 25.2478 32.2885 25.2268 35.4682L25.2217 35.9848C25.1932 39.7538 25.4897 43.5035 26.1523 47.4402C26.3265 48.4686 26.5297 49.4898 26.7499 50.4964C26.5582 50.6782 26.3762 50.8576 26.284 50.9424C26.0438 51.1776 25.9273 51.2891 25.8133 51.4103C25.0343 52.254 24.3112 53.1146 23.6147 53.9583C23.44 54.1668 23.2555 54.3777 23.0808 54.5862C21.1491 56.8821 19.4817 59.246 18.1104 61.2681C16.8047 63.1811 15.4333 65.2444 14.3238 67.5309C14.1005 67.9989 13.9111 68.4378 13.7314 68.8743C13.5444 69.3229 13.3623 69.7497 13.1802 70.094C12.9982 70.4383 12.8573 70.7826 12.7577 71.127C12.3741 71.9441 12.3058 72.9094 12.674 73.7657C13.1052 74.7919 14.0144 75.4617 15.0427 75.6174C15.8017 75.8094 16.6361 75.7249 17.3978 75.3081C17.4172 75.3033 17.4342 75.2887 17.4512 75.2742L17.6671 75.1482C17.9655 74.981 18.2324 74.7701 18.4702 74.5252C18.8705 74.2708 19.2393 74.0139 19.5814 73.7739C19.9672 73.5025 20.3359 73.2456 20.6537 73.0735C22.2743 72.1745 23.9506 71.3749 25.6658 70.5657C28.2566 69.3422 30.9978 68.3491 33.8261 67.6229C33.8576 67.6665 33.9012 67.7175 33.9352 67.7709C35.2125 69.4207 36.5359 71.1312 37.9443 72.769C40.4701 75.7049 43.2699 78.7889 46.5986 81.4318C49.7867 83.9654 53.1642 86.1013 56.6389 87.7595C59.4129 89.0876 62.5652 90.5273 65.8051 91.2031C65.9771 91.5622 66.1783 91.8727 66.3843 92.1202C66.3525 92.6125 66.1824 93.3764 66.09 93.7911C66.0584 93.9536 66.0147 94.1088 65.9904 94.2592C65.9101 94.6399 65.8032 95.0376 65.6842 95.4693C65.4801 96.221 65.259 97.0698 65.1276 97.9889C64.8988 99.6745 65.1794 101.171 65.9598 102.316C66.6772 103.374 67.8241 103.964 69.0489 103.916C69.4467 103.899 69.8275 103.815 70.1841 103.674C70.5356 103.968 70.9599 104.223 71.4595 104.407C72.1869 104.679 72.9485 104.716 73.6568 104.539C74.4815 104.333 75.2433 103.834 75.7821 103.102C76.5198 102.176 76.8576 100.803 76.3247 99.5757C76.2253 99.3428 76.109 99.1245 75.966 98.9231C75.5589 98.1589 75.4916 96.9389 75.4268 95.6462C75.4003 95.2096 75.3787 94.7512 75.3474 94.2952C75.3378 94.1327 75.3185 93.849 75.3089 93.5628C75.2636 92.1002 75.1942 90.0872 74.3534 88.4521C74.3462 88.1756 74.3076 87.8966 74.2374 87.6153C75.0603 86.1217 75.7183 84.5867 76.3569 83.0979C76.5172 82.7075 76.6896 82.3243 76.8522 81.9436C78.1051 79.075 79.181 76.1166 80.0361 73.1411C80.8573 70.3184 81.4092 67.4495 81.9417 64.6679L82.1606 63.5208C82.428 62.1142 82.6325 60.7027 82.7495 59.3131C86.398 57.9081 89.8574 56.0762 93.0357 53.861C94.6855 52.7073 95.9716 51.3764 97.2601 50.014C98.2793 48.9352 99.3301 47.7352 100.054 46.1324C100.831 44.4132 100.165 42.4459 98.5448 41.6544L98.5933 41.6423Z" fill="#606060"/>
</g>
<path d="M98.5933 41.6423C98.312 41.5064 98.0307 41.4116 97.7397 41.3606C97.5966 41.2829 97.4681 41.2222 97.3493 41.1591C97.279 41.1251 97.2087 41.0911 97.1602 41.062C96.3891 40.6153 95.6351 40.1542 94.8325 39.6638L94.6628 39.5619C92.9461 38.506 91.0985 37.4622 88.8362 36.2848C87.9464 35.8163 87.0443 35.3817 86.1666 34.9617C85.2427 34.5223 84.3771 34.1095 83.5309 33.6507C82.9125 33.3206 82.2967 33.0001 81.6711 32.6821C81.2807 32.4806 80.8903 32.2791 80.4999 32.0776C80.4878 32.0704 80.4635 32.0558 80.4514 32.0485C80.4514 32.0485 80.3471 32.0024 80.1944 31.9271C79.1556 28.4244 77.7699 25.1422 76.5319 22.287C75.8851 20.8096 75.1001 19.0678 74.0969 17.3187C73.9684 17.093 73.8473 16.8553 73.7164 16.62C73.0355 15.3366 72.1099 13.5681 70.2283 12.4709C67.2945 10.7499 63.3149 9.87729 58.4036 9.85551C54.0913 9.83886 50.128 10.436 45.929 11.7412C41.9218 12.9883 38.147 14.7958 34.7043 17.108C31.0384 19.5582 28.425 22.3437 26.9149 25.3795C25.2762 28.6845 25.2478 32.2885 25.2268 35.4682L25.2217 35.9848C25.1932 39.7538 25.4897 43.5035 26.1523 47.4402C26.3265 48.4686 26.5297 49.4898 26.7499 50.4964C26.5582 50.6782 26.3762 50.8576 26.284 50.9424C26.0438 51.1776 25.9273 51.2891 25.8133 51.4103C25.0343 52.254 24.3112 53.1146 23.6147 53.9583C23.44 54.1668 23.2555 54.3777 23.0808 54.5862C21.1491 56.8821 19.4817 59.246 18.1104 61.2681C16.8047 63.1811 15.4333 65.2444 14.3238 67.5309C14.1005 67.9989 13.9111 68.4378 13.7314 68.8743C13.5444 69.3229 13.3623 69.7497 13.1802 70.094C12.9982 70.4383 12.8573 70.7826 12.7577 71.127C12.3741 71.9441 12.3058 72.9094 12.674 73.7657C13.1052 74.7919 14.0144 75.4617 15.0427 75.6174C15.8017 75.8094 16.6361 75.7249 17.3978 75.3081C17.4172 75.3033 17.4342 75.2887 17.4512 75.2742L17.6671 75.1482C17.9655 74.981 18.2324 74.7701 18.4702 74.5252C18.8705 74.2708 19.2393 74.0139 19.5814 73.7739C19.9672 73.5025 20.3359 73.2456 20.6537 73.0735C22.2743 72.1745 23.9506 71.3749 25.6658 70.5657C28.2566 69.3422 30.9978 68.3491 33.8261 67.6229C33.8576 67.6665 33.9012 67.7175 33.9352 67.7709C35.2125 69.4207 36.5359 71.1312 37.9443 72.769C40.4701 75.7049 43.2699 78.7889 46.5986 81.4318C49.7867 83.9654 53.1642 86.1013 56.6389 87.7595C59.4129 89.0876 62.5652 90.5273 65.8051 91.2031C65.9771 91.5622 66.1783 91.8727 66.3843 92.1202C66.3525 92.6125 66.1824 93.3764 66.09 93.7911C66.0584 93.9536 66.0147 94.1088 65.9904 94.2592C65.9101 94.6399 65.8032 95.0376 65.6842 95.4693C65.4801 96.221 65.259 97.0698 65.1276 97.9889C64.8988 99.6745 65.1794 101.171 65.9598 102.316C66.6772 103.374 67.8241 103.964 69.0489 103.916C69.4467 103.899 69.8275 103.815 70.1841 103.674C70.5356 103.968 70.9599 104.223 71.4595 104.407C72.1869 104.679 72.9485 104.716 73.6568 104.539C74.4815 104.333 75.2433 103.834 75.7821 103.102C76.5198 102.176 76.8576 100.803 76.3247 99.5757C76.2253 99.3428 76.109 99.1245 75.966 98.9231C75.5589 98.1589 75.4916 96.9389 75.4268 95.6462C75.4003 95.2096 75.3787 94.7512 75.3474 94.2952C75.3378 94.1327 75.3185 93.849 75.3089 93.5628C75.2636 92.1002 75.1942 90.0872 74.3534 88.4521C74.3462 88.1756 74.3076 87.8966 74.2374 87.6153C75.0603 86.1217 75.7183 84.5867 76.3569 83.0979C76.5172 82.7075 76.6896 82.3243 76.8522 81.9436C78.1051 79.075 79.181 76.1166 80.0361 73.1411C80.8573 70.3184 81.4092 67.4495 81.9417 64.6679L82.1606 63.5208C82.428 62.1142 82.6325 60.7027 82.7495 59.3131C86.398 57.9081 89.8574 56.0762 93.0357 53.861C94.6855 52.7073 95.9716 51.3764 97.2601 50.014C98.2793 48.9352 99.3301 47.7352 100.054 46.1324C100.831 44.4132 100.165 42.4459 98.5448 41.6544L98.5933 41.6423ZM74.2095 65.1128C73.8617 66.9826 73.3321 68.8256 72.7564 70.7729C72.3968 72.0169 72.0251 73.2949 71.6995 74.5923C71.2305 76.4717 70.32 78.4407 69.446 80.349L69.0915 81.1177C68.686 82.0124 68.2927 82.832 67.9019 83.6201C65.8455 82.9788 63.5854 82.1821 61.3279 81.1066C57.9575 79.4946 55.157 77.73 52.7618 75.6891C50.3398 73.6239 48.0054 71.2484 45.7509 68.9456L45.7097 68.9044C44.7279 67.9022 43.7583 66.9073 42.8274 65.9028C48.1248 65.0759 53.5385 64.4673 59.3791 63.8347L60.6136 63.7019C65.2803 63.1973 70.0585 62.6854 74.7835 61.6715C74.6302 62.7919 74.4429 63.9415 74.2143 65.1322L74.2095 65.1128Z" fill="white"/>
<path d="M96.9936 44.5665C96.6906 44.1783 96.0358 43.95 95.6261 43.7122C94.7605 43.217 93.9167 42.6854 93.0657 42.166C91.2278 41.0373 89.3268 39.9862 87.4185 38.9884C85.663 38.0659 83.8492 37.2817 82.101 36.3471C81.102 35.813 80.0909 35.3129 79.0943 34.7885C79.0846 34.7909 77.9789 34.3247 77.6903 34.3246C76.7292 30.5964 75.2612 27.0255 73.7325 23.5007C73.0348 21.9021 72.3152 20.3398 71.4501 18.8138C70.6964 17.4868 70.0884 15.9173 68.7112 15.1066C65.7434 13.3734 61.8073 12.9228 58.4239 12.9115C54.4003 12.895 50.7086 13.4656 46.876 14.6691C43.184 15.8169 39.6567 17.5009 36.4421 19.653C33.7588 21.4562 31.1407 23.8099 29.6865 26.739C28.2881 29.5615 28.3422 32.9182 28.3189 36.0057C28.2832 39.7043 28.5943 43.2649 29.2086 46.925C29.4455 48.3707 29.7699 49.7945 30.0845 51.2208C30.0335 51.3056 29.9946 51.3978 29.9995 51.4584C30.0115 51.7131 28.2887 53.2766 28.1018 53.4778C27.1846 54.4694 26.3328 55.5167 25.4664 56.5471C23.741 58.5956 22.1901 60.7656 20.6805 62.9768C19.382 64.8776 18.1248 66.7785 17.1172 68.8541C16.6875 69.7343 16.3839 70.6655 15.9178 71.5239C15.7891 71.7518 15.6847 72.0355 15.7088 72.2974C15.6725 72.3168 15.6288 72.3483 15.5924 72.3677C15.556 72.3871 15.4977 72.5666 15.5559 72.552C15.6238 72.5351 15.6893 72.5084 15.7451 72.4842C15.7524 72.5133 15.7597 72.5424 15.7766 72.5691C15.8154 72.6419 15.9124 72.6177 15.9561 72.5862C16.0362 72.5353 16.1283 72.4917 16.2084 72.4408C16.2618 72.4068 16.3467 72.2929 16.4074 72.1644C17.3705 71.6458 18.261 70.8774 19.1926 70.3564C20.8957 69.4162 22.6253 68.5827 24.3866 67.7517C27.7901 66.1502 31.3826 64.9344 35.0599 64.1407C36.7857 66.3486 38.4605 68.6001 40.2979 70.7183C42.8358 73.6615 45.4974 76.5635 48.5449 78.9879C51.4494 81.2934 54.6644 83.3566 58.0009 84.9565C61.1168 86.4569 64.7177 88.0836 68.2051 88.4297C68.2075 88.4806 68.2269 88.517 68.2779 88.5146C68.2754 88.5874 68.2826 88.6577 68.2996 88.7256C68.3431 88.9827 68.5802 90.2635 69.024 90.2249C69.9208 91.4234 69.3062 93.5453 69.0266 94.8621C68.7738 96.0383 68.3658 97.1708 68.21 98.364C68.1102 99.0794 68.1292 99.9404 68.5412 100.559C68.8515 101.018 69.2881 100.785 69.4872 100.426C69.81 99.8612 69.2915 98.8981 69.2724 98.3257C69.2221 96.9674 69.7369 95.6022 70.1062 94.3145C70.2787 93.7253 70.6211 92.7019 70.7865 91.7125C71.1783 94.1501 70.7357 96.6311 71.2317 99.0736C71.4083 99.9468 71.6405 101.167 72.5693 101.502C72.9427 101.636 73.2193 101.464 73.3868 101.185C73.4911 101.107 73.6077 100.831 73.5398 100.724C73.5398 100.724 73.5398 100.724 73.5374 100.714C73.5277 100.675 73.5204 100.646 73.4865 100.634C72.3693 98.8413 72.4989 96.5519 72.3301 94.5121C72.2192 93.2411 72.388 90.1586 71.1831 89.1709C71.3506 88.892 71.3702 88.5574 71.2976 88.225C71.2056 87.8563 71.1985 87.4149 71.0022 87.1238C72.2644 85.1186 73.1507 82.8465 74.0928 80.6738C75.2874 77.9435 76.3123 75.1112 77.1432 72.2448C78.0372 69.1771 78.5917 66.0293 79.202 62.8985C79.574 60.9608 79.8029 59.0279 79.8718 57.0731C80.3472 56.9132 80.8105 56.7461 81.2836 56.5766C84.8471 55.2443 88.2216 53.4852 91.3368 51.3063C92.7488 50.315 93.9039 49.1199 95.0759 47.8689C95.9544 46.9283 96.7746 46.0023 97.3063 44.8286C97.4641 44.4698 97.2048 44.1325 96.9887 44.5471L96.9936 44.5665ZM78.2123 58.1467C78.292 58.9204 78.0975 59.7935 78.0025 60.5695C77.8028 62.289 77.5425 63.9721 77.224 65.6697C76.6112 68.9557 75.4867 72.0912 74.6751 75.3238C74.0651 77.7537 72.9192 80.1009 71.8801 82.3802C71.4819 83.2629 71.0594 84.1309 70.637 84.999C70.5545 85.1639 70.0518 86.3715 69.7558 86.7133C69.4865 86.7496 69.2148 86.941 68.9843 87.1325C65.8851 86.236 62.9412 85.2596 60.0048 83.8588C56.6731 82.2783 53.5769 80.402 50.7622 78.0019C48.2215 75.8324 45.8579 73.4229 43.5089 71.0303C41.2569 68.7373 38.9612 66.352 37.0464 63.7584C44.3207 62.3868 51.6797 61.5609 59.0362 60.7665C65.4685 60.0687 72.0124 59.4461 78.232 57.6059C78.232 57.6059 78.2344 57.6156 78.2465 57.6228C78.2732 57.6471 78.3023 57.6398 78.3193 57.6253C78.2489 57.7562 78.1736 57.9502 78.1929 58.1515L78.2123 58.1467Z" fill="#AD5A00"/>
<path d="M30.0253 48.257C29.6915 46.2583 29.5567 44.2307 29.2254 42.2417C28.6305 38.6179 28.9791 34.9752 29.1312 31.33C29.3006 27.1342 31.7516 24.2347 34.9082 21.7259C38.0309 19.2463 41.8784 17.3588 45.6432 16.0898C47.4698 15.4795 49.3182 14.9153 51.2004 14.5281C53.0439 14.1507 54.9114 14.1588 56.779 14.0846C58.729 14.0103 60.6231 14.1252 62.5536 14.4269C64.3142 14.7091 65.8395 15.2458 67.4909 15.8748C69.2005 16.5305 69.7722 17.9544 70.6324 19.4198C71.6381 21.1374 72.4619 22.9108 73.3026 24.7108C74.8605 28.0634 76.1661 31.4789 77.4159 34.9599C77.4522 35.0642 77.5589 35.1201 77.5613 35.2122C77.5613 35.2122 75.6154 36.7077 75.4286 36.8265C74.5018 37.4493 73.5096 37.9752 72.515 38.4913C70.3486 39.5986 68.0999 40.4173 65.7397 40.9958C61.262 42.0923 56.7091 43.0118 52.1806 43.8633C48.1153 44.6301 44.1735 45.8094 40.2342 47.0395C38.3227 47.6401 36.4087 48.3547 34.5821 49.1711C33.1556 49.8156 31.8286 50.528 30.5016 51.2816C30.3517 50.2678 30.1921 49.2563 30.0228 48.2473L30.0253 48.257Z" fill="#F9C847"/>
<g style="mix-blend-mode:screen">
<path d="M31.8675 50.3946C31.5208 50.2441 31.509 49.4534 31.4873 49.1599C31.427 48.4226 31.4274 47.6804 31.4593 46.9407C31.538 44.7773 31.1776 42.5895 31.0914 40.426C31.0004 37.9958 31.0089 35.5098 31.4733 33.1162C31.8283 31.3167 32.4184 29.675 33.5833 28.2301C34.7263 26.8215 36.1457 25.6532 37.6644 24.6765C40.469 22.8637 43.5474 21.57 46.5919 20.223C45.5805 20.3826 44.6344 20.8042 43.6907 21.2354C42.4026 21.8145 41.0684 22.2916 39.7609 22.8343C38.4436 23.3793 37.1506 23.9802 35.8261 24.5374C34.5404 25.0849 33.2862 25.6761 32.1847 26.5486C32.0561 26.6529 31.8742 26.5024 31.9204 26.3569C32.2897 25.028 32.8942 23.8568 33.6611 22.7998C31.1255 25.0711 29.2737 27.7284 29.1264 31.3518C28.9839 34.9946 28.6257 38.6398 29.2205 42.2635C29.5518 44.2525 29.6867 46.2801 30.0204 48.2788C30.1897 49.2878 30.3396 50.3017 30.4992 51.3131C31.0062 51.0321 31.5229 50.7485 32.03 50.4674C31.9742 50.4504 31.9087 50.4358 31.8505 50.4091L31.8675 50.3946Z" fill="#64BEBB"/>
</g>
<g style="mix-blend-mode:multiply">
<path d="M77.4183 34.9696C76.1685 31.4886 74.8532 28.0755 73.305 24.7205C72.4643 22.9205 71.6406 21.1471 70.6349 19.4295C69.7746 17.9642 69.1932 16.5426 67.4933 15.8845C65.8395 15.2458 64.3142 14.7091 62.556 14.4366C60.6256 14.1349 58.7314 14.02 56.7814 14.0943C54.9138 14.1685 53.0463 14.1604 51.2029 14.5378C50.9288 14.5959 50.6571 14.6637 50.383 14.7217C50.5817 14.9814 50.7562 15.2676 50.8604 15.6024C50.8773 15.6703 50.8603 15.7673 50.7875 15.8061C47.5731 17.4635 44.0583 18.4537 40.8269 20.0844C38.6314 21.199 36.2734 22.3232 34.2839 23.8503C40.5576 20.2856 47.89 19.0644 55.0546 18.9878C56.6699 18.9764 57.9115 19.3263 58.5389 20.9322C58.9676 22.0311 59.1829 23.1832 59.3982 24.3354C59.6256 25.4948 59.9283 26.6252 60.2236 27.7677C60.899 30.3922 61.344 32.9609 61.7114 35.6314C61.9265 37.1958 62.122 39.095 60.5427 40.0353C59.5916 40.6023 58.5195 40.808 57.4402 40.9845C56.2929 41.178 55.1577 41.3787 54.0128 41.6231C51.1385 42.2475 48.3004 43.0174 45.5157 43.9595C40.8412 45.5482 36.4843 47.6659 32.3332 50.2784C33.061 49.8907 33.8033 49.52 34.5724 49.1735C36.399 48.3571 38.313 47.6425 40.2245 47.042C44.1614 45.8021 48.1056 44.6326 52.1709 43.8657C56.697 43.0045 61.2523 42.0947 65.73 40.9982C68.0877 40.41 70.3389 39.601 72.5053 38.4937C73.5023 37.9873 74.4921 37.4517 75.4189 36.8289C75.6057 36.7101 77.554 35.2243 77.5516 35.2146C77.5492 35.1225 77.4425 35.0666 77.4062 34.9623L77.4183 34.9696Z" fill="#F9C847"/>
</g>
<path d="M68.2733 88.0004C66.651 87.4054 64.9437 87.0068 63.3142 86.424C61.5925 85.8022 59.9291 85.0423 58.285 84.2775C54.8224 82.6678 51.5371 80.447 48.5527 78.0687C43.5365 74.0742 39.7555 68.8748 35.5765 64.0633C35.7221 64.027 35.8676 63.9907 36.018 63.9738C36.2945 63.9254 36.5686 63.8673 36.8451 63.8189C38.3523 66.7204 41.0335 69.164 43.2831 71.4886C45.7121 73.9952 48.2066 76.4751 50.8661 78.749C53.499 80.9985 56.4207 82.6298 59.4759 84.2175C62.388 85.7275 65.4363 86.6675 68.5573 87.5689C68.5184 87.6198 68.4796 87.6707 68.4505 87.7192C68.3801 87.8089 68.3218 87.9059 68.2757 88.0101L68.2733 88.0004Z" fill="#F9C847"/>
<path d="M70.2671 92.4398C70.0921 93.3492 69.8515 94.2028 69.577 95.0855C69.1714 96.3514 68.7801 98.129 69.1238 99.4655C69.4022 100.54 68.5438 100.156 68.5076 99.8048C68.4231 99.0116 68.732 97.3165 68.9433 96.5526C69.196 95.665 69.4147 94.7653 69.5704 93.8607C69.7017 93.0653 70.2096 91.0525 69.5722 90.1499C69.805 90.0918 70.0331 90.0143 70.2562 89.9174C70.2562 89.9174 70.2611 89.9368 70.2635 89.9465C70.6901 90.4997 70.3863 91.8432 70.2671 92.4398Z" fill="#F9C847"/>
<path d="M71.8725 92.8432C71.9762 94.085 72.0702 95.3293 72.1763 96.5808C72.3138 98.1646 72.3349 99.6126 73.1443 100.998C72.7682 101.308 72.046 100.231 71.9588 100.047C71.7674 99.6099 71.6657 99.1199 71.552 98.6639C71.2978 97.6451 71.2886 96.6168 71.277 95.5787C71.268 94.138 71.5381 92.3289 70.8548 90.9946C70.8768 90.5047 70.8334 90.0414 70.6638 89.6921C70.7608 89.6266 70.8482 89.5636 70.9331 89.4909C70.9331 89.4909 70.9428 89.4885 70.9525 89.4861C71.0372 89.8257 71.4661 90.6359 71.4686 90.6456C71.7107 91.3685 71.8025 92.1083 71.8677 92.865L71.8725 92.8432Z" fill="#F9C847"/>
<path d="M70.7224 89.1003C70.4118 89.3015 70.014 89.4832 69.6647 89.5703C69.5385 89.6018 69.1626 89.6234 69.0656 89.524C68.9808 89.4317 68.9057 89.1722 68.8549 89.0509C68.6998 88.6773 68.5593 88.2795 68.7559 87.9522C68.7899 87.9231 68.836 87.9013 68.8821 87.8795C69.2048 87.6856 69.5856 87.5597 69.9518 87.5404C70.4709 87.514 70.6382 87.6475 70.764 88.152C70.8488 88.4916 71.0766 88.8676 70.7224 89.1003Z" fill="#F9C847"/>
<path d="M76.7965 71.8881C75.3581 77.1528 72.9741 81.9733 70.6991 86.9005C70.6288 86.8665 70.5536 86.8544 70.4663 86.8349C70.3912 86.8227 70.3087 86.8227 70.2359 86.8202C70.8015 85.9062 71.3358 84.4124 71.5057 84.0608C72.5546 81.8615 73.47 79.6234 74.3709 77.3682C75.6361 74.1771 76.4527 70.634 77.2377 67.2947C77.9547 64.2197 78.7107 60.7227 78.5133 57.5357C78.8772 57.4243 79.2411 57.3129 79.6025 57.1918C79.2799 62.1369 78.0891 67.1544 76.7965 71.8881Z" fill="#F9C847"/>
<path d="M96.593 45.2746C95.8576 46.4578 94.7948 47.4856 93.8363 48.4771C92.5575 49.7959 91.0072 50.8526 89.4714 51.8438C86.8415 53.5306 83.9499 54.8704 80.9977 55.9264C80.4664 56.1517 79.9376 56.3455 79.3821 56.4738C79.2948 56.4956 79.2026 56.5392 79.1153 56.561C71.9594 58.8204 64.3046 59.5758 56.8681 60.2974C49.793 60.9803 42.6596 61.9664 35.6933 63.3745C35.2227 63.5126 34.757 63.6288 34.2767 63.6867C31.053 64.4395 27.9092 65.5948 24.9035 66.9734C23.2758 67.7196 21.6358 68.4998 20.0832 69.3819C19.2899 69.8374 18.499 70.3027 17.7251 70.7947C17.2908 71.0783 16.8929 71.4249 16.478 71.7448C16.4586 71.7084 16.4198 71.6769 16.3494 71.6841C16.216 71.6865 16.449 71.5047 16.5534 71.3035C16.7864 70.8743 16.9103 70.3796 17.107 69.9285C17.5684 68.8446 18.1437 67.8457 18.7384 66.8419C19.9642 64.7736 21.3258 62.754 22.7698 60.8168C24.2017 58.9136 25.6699 57.0735 27.2182 55.2649C27.9923 54.3606 28.7907 53.4709 29.5915 52.5909C29.8584 52.2976 30.118 52.0163 30.2662 51.6599C30.4942 51.6236 30.71 51.5801 30.938 51.5438C31.9666 51.0398 32.9976 50.5868 34.0553 50.158C36.3841 49.206 38.7468 48.3485 41.1604 47.6124C45.7474 46.2103 50.3585 45.1939 55.0448 44.2309C57.4267 43.7397 59.782 43.1418 62.1615 42.6821C64.5289 42.2152 66.9957 41.775 69.2396 40.8544C71.6024 39.8733 73.9434 38.7636 76.0226 37.2658C76.7384 36.7471 77.6579 36.1363 78.0245 35.2925C77.9809 35.1591 77.9349 35.016 77.8792 34.8753C78.4588 35.0914 79.3097 35.817 79.6128 35.999C80.4444 36.4821 81.3028 36.9069 82.1466 37.356C83.7542 38.2227 85.4201 38.9923 87.0617 39.7886C88.8681 40.6675 90.5823 41.7136 92.3329 42.6992C93.1137 43.1434 93.8726 43.624 94.6388 44.0925C95.1625 44.4153 96.1325 44.7092 96.5567 45.2115C96.5616 45.2309 96.5567 45.2527 96.5494 45.2648L96.593 45.2746Z" fill="#F9C847"/>
<g style="mix-blend-mode:screen">
<path d="M16.4876 71.7424C16.6939 71.5776 16.8977 71.4031 17.1136 71.2358C18.8711 68.1177 20.8347 65.1233 23.0383 62.3061C25.7467 58.827 28.3315 55.1005 32.2228 52.8517C36.1676 50.5689 40.5048 49.157 44.7911 47.6651C47.9761 46.551 51.1418 45.3592 54.3704 44.3785C49.9219 45.3028 45.5388 46.283 41.1822 47.6172C38.7686 48.3534 36.4059 49.2108 34.0771 50.1628C33.0194 50.5916 31.9787 51.0471 30.9598 51.5486C30.7318 51.5849 30.5135 51.6188 30.288 51.6647C30.1495 52.0188 29.8826 52.3121 29.6133 52.5957C28.8125 53.4758 28.0141 54.3655 27.24 55.2698C25.6917 57.0783 24.2235 58.9185 22.7916 60.8217C21.3451 62.7491 19.9835 64.7688 18.7602 66.8467C18.1655 67.8505 17.5926 68.8592 17.1288 69.9334C16.9322 70.3844 16.8058 70.8694 16.5752 71.3083C16.4708 71.5096 16.2379 71.6914 16.3713 71.689C16.4319 71.6842 16.4707 71.7157 16.4998 71.7497L16.4876 71.7424Z" fill="#64BEBB"/>
</g>
<g style="mix-blend-mode:multiply">
<path d="M94.68 44.0925C93.9138 43.624 93.1525 43.1337 92.3741 42.6992C90.6235 41.7137 88.9069 40.6578 87.1028 39.7886C85.4612 38.9923 83.7954 38.2227 82.1878 37.3561C81.344 36.907 80.4832 36.4724 79.654 35.999C79.3412 35.8194 78.4902 35.0938 77.9204 34.8753C77.9664 35.0184 78.01 35.1518 78.0657 35.2925C77.6991 36.1363 76.7723 36.7592 76.0638 37.2658C73.9846 38.7636 71.6436 39.8733 69.2808 40.8544C67.0393 41.7847 64.5725 42.2249 62.2027 42.6821C61.5454 42.8152 60.8978 42.9459 60.2428 43.0886C62.4714 43.7179 63.7751 46.093 64.4435 48.1936C64.7632 49.1858 65.0149 50.1948 65.2764 51.2015C65.4337 51.7909 65.6468 52.521 65.4792 53.1297C65.1098 54.5411 63.0723 55.0495 61.8933 55.4466C56.5688 57.1976 50.9977 57.3816 45.5547 58.5335C39.9345 59.7192 34.3117 61.3899 29.05 63.723C26.4131 64.8859 23.8706 66.2623 21.43 67.7988C19.6662 68.9087 17.7448 70.0477 16.4512 71.7206C16.4634 71.7278 16.4779 71.7448 16.49 71.7521C16.9025 71.4225 17.2907 71.0782 17.7371 70.802C18.5111 70.31 19.302 69.8447 20.0953 69.3891C21.6455 68.4974 23.2854 67.7172 24.9156 66.9807C27.9213 65.6021 31.0651 64.4467 34.2888 63.694C34.769 63.636 35.2445 63.5174 35.7054 63.3818C42.6692 61.9639 49.8027 60.9779 56.8802 60.3046C64.3191 59.5928 71.9715 58.8276 79.1274 56.5682C79.2147 56.5464 79.3069 56.5028 79.3942 56.4811C79.9473 56.3431 80.4785 56.159 81.0098 55.9337C83.9619 54.8777 86.8439 53.5403 89.4835 51.8511C91.0314 50.8672 92.5696 49.8032 93.8484 48.4844C94.7996 47.505 95.86 46.4675 96.6051 45.2818C96.6003 45.2624 96.6076 45.2503 96.6124 45.2285C96.1882 44.7262 95.2182 44.4323 94.6945 44.1095L94.68 44.0925Z" fill="#F9C847"/>
</g>
<path d="M68.1835 18.0725C67.0656 17.599 65.882 17.6882 64.6863 17.6876C63.0395 17.6965 61.3951 17.7151 59.7531 17.7847C56.292 17.9164 52.877 18.1912 49.4666 18.8565C46.2818 19.4759 43.0775 20.3887 40.0404 21.5174C38.5316 22.0794 37.093 22.799 35.681 23.5841C34.9751 23.9767 34.2958 24.3935 33.6067 24.8128C33.3569 24.9679 32.1291 25.9957 31.7776 25.7845C31.7169 25.7481 31.6247 25.9566 31.6756 25.9954C32.049 26.2939 32.8448 25.6007 33.1626 25.4286C34.6813 24.5756 36.2024 23.7323 37.7793 22.9885C40.9596 21.4839 44.4622 20.6513 47.863 19.8235C51.191 18.9932 54.6691 18.6408 58.0865 18.4993C61.3002 18.3675 64.822 17.9423 67.9989 18.5308C68.1517 18.5649 68.3265 18.1502 68.1762 18.0846L68.1835 18.0725Z" fill="#AD5A00"/>
</svg>
