<svg width="146" height="139" viewBox="0 0 146 139" fill="none" xmlns="http://www.w3.org/2000/svg">
<g style="mix-blend-mode:multiply">
<path d="M114.884 116.221L114.945 116.084C115.03 115.87 115.096 115.648 115.163 115.426C115.288 114.923 115.397 114.435 115.506 113.969L115.567 113.712C115.865 112.356 116.24 111.001 116.643 109.56C116.79 109.034 116.937 108.508 117.075 107.978C117.945 104.753 118.886 102.008 119.966 99.5884C120.024 99.4605 120.081 99.3327 120.115 99.2059C121.356 95.642 122.501 92.7583 123.746 90.1165C125.576 86.2135 127.359 82.2454 129.097 78.4002L130.231 75.8617C130.962 74.2719 131.752 72.675 132.592 70.991C133.538 69.0918 134.518 67.142 135.406 65.129C135.528 64.8551 135.623 64.5689 135.69 64.2705C136.192 62.1178 136.186 60.0455 135.676 58.1205C135.516 57.5232 135.25 56.9664 134.883 56.4632C132.905 53.8057 130.067 52.1886 127.997 51.0124C123.425 48.4237 118.051 46.9445 113.122 45.6965C113.165 44.5218 113.039 43.3813 112.739 42.2619C112.578 41.6646 112.312 41.1078 111.942 40.6137C109.958 37.943 107.126 36.3391 105.051 35.1721C99.9653 32.2881 93.892 30.7812 88.5423 29.4442C87.5284 29.1887 86.5237 28.9372 85.5503 28.6888C85.0297 28.555 72.7331 25.3867 65.2672 26.6312C64.8761 26.6976 64.5094 26.8076 64.1446 26.9624L63.9516 27.0514C61.4073 28.1386 59.643 29.147 58.2964 32.9482C58.0291 33.694 57.5291 35.7706 55.1441 46.0185C53.8433 51.5815 52.3777 57.8813 51.9036 59.6299C51.5379 60.9889 50.8098 62.2518 50.3295 62.8368C46.5765 64.8409 41.2094 64.2298 36.0138 63.6515C35.2941 63.5711 34.5967 63.4897 33.8952 63.4174C29.5736 62.9665 24.0308 62.945 19.4969 66.8455C15.5059 70.2656 12.6426 75.7223 11.8096 81.4394C11.2342 85.4754 14.306 88.2596 15.9474 89.759C16.1572 89.9512 16.3529 90.1262 16.512 90.2848C18.0426 91.8114 19.8883 93.1721 22.1727 94.4329C24.4332 96.0663 26.8983 97.364 29.0794 98.513L29.6018 98.79C31.3893 99.7414 33.316 100.602 35.4194 101.409C36.3342 103.285 37.8772 104.686 38.889 105.608C39.0988 105.801 39.2945 105.976 39.4445 106.13C40.966 107.653 42.8208 109.017 45.1011 110.287C47.3799 111.929 49.8541 113.231 52.0402 114.393L52.5261 114.654C53.4929 115.162 54.4811 115.647 55.4764 116.091C60.7177 118.431 66.2469 119.881 71.1035 120.998C85.8995 124.406 97.7311 125.133 108.341 123.299C109.469 123.101 110.383 122.6 111.063 122.083C111.774 121.667 112.36 121.14 112.812 120.52C112.824 120.493 112.859 120.464 112.871 120.437C113.625 119.361 114.258 118.066 114.747 116.577C114.796 116.467 114.845 116.357 114.898 116.239L114.884 116.221Z" fill="white"/>
<path d="M114.616 115.521L114.673 115.394C114.758 115.179 114.833 114.961 114.891 114.735C115.016 114.233 115.125 113.744 115.225 113.274L115.285 113.017C115.584 111.661 115.959 110.306 116.358 108.874C116.505 108.348 116.652 107.822 116.79 107.293C117.66 104.067 118.601 101.322 119.681 98.9026C119.738 98.7747 119.795 98.6469 119.83 98.52C121.071 94.9562 122.216 92.0725 123.461 89.4306C125.287 85.5368 127.074 81.5596 128.812 77.7144L129.946 75.1759C130.668 73.582 131.467 71.9892 132.306 70.3052C133.249 68.4152 134.233 66.4562 135.116 64.4523C135.239 64.1784 135.334 63.8922 135.401 63.5938C135.902 61.4411 135.897 59.3688 135.387 57.4438C135.227 56.8466 134.961 56.2897 134.59 55.7956C132.611 53.1382 129.774 51.521 127.704 50.3448C123.132 47.7562 117.758 46.2769 112.829 45.0289C112.871 43.8542 112.736 42.7097 112.446 41.5944C112.285 40.9971 112.019 40.4402 111.648 39.9461C109.665 37.2755 106.832 35.6716 104.758 34.5045C99.6719 31.6205 93.5986 30.1137 88.249 28.7766C87.2351 28.5211 86.2262 28.2788 85.257 28.0213C84.7364 27.8874 72.4397 24.7192 64.9738 25.9637C64.5828 26.03 64.2069 26.136 63.8513 26.2948L63.6491 26.3798C61.1048 27.467 59.3405 28.4753 57.9939 32.2766C57.7266 33.0224 57.2266 35.099 54.8416 45.3469C53.5408 50.9099 52.0752 57.2097 51.6012 58.9583C51.2354 60.3173 50.5114 61.571 50.0179 62.1611C46.2649 64.1652 40.8978 63.5541 35.6931 62.9717C34.9825 62.8954 34.2759 62.8099 33.5744 62.7377C29.2529 62.2867 23.7101 62.2652 19.1761 66.1657C15.1852 69.5858 12.3219 75.0425 11.4888 80.7596C10.9135 84.7956 13.9853 87.5798 15.6266 89.0792C15.8365 89.2714 16.0321 89.4464 16.1913 89.6051C17.7219 91.1317 19.5676 92.4923 21.8479 93.7622C24.1084 95.3957 26.5735 96.6934 28.7546 97.8423L29.277 98.1194C31.0685 99.0616 32.982 99.9268 35.0946 100.739C36.0094 102.614 37.5524 104.015 38.5641 104.938C38.774 105.13 38.9697 105.305 39.1197 105.46C40.6412 106.982 42.4959 108.347 44.7763 109.617C47.055 111.258 49.5293 112.56 51.7154 113.722L52.2013 113.983C53.1681 114.491 54.1562 114.976 55.1424 115.417C60.3838 117.757 65.913 119.207 70.7695 120.324C85.5655 123.732 97.3972 124.458 108.007 122.624C109.131 122.436 110.049 121.926 110.729 121.408C111.44 120.992 112.026 120.465 112.474 119.854C112.49 119.818 112.511 119.795 112.533 119.771C113.287 118.695 113.92 117.401 114.409 115.911C114.458 115.801 114.507 115.692 114.551 115.569L114.616 115.521Z" fill="#F1F1F1"/>
<path d="M114.348 114.821L114.405 114.694C114.49 114.479 114.566 114.261 114.623 114.035C114.749 113.533 114.857 113.044 114.957 112.574L115.018 112.317C115.316 110.961 115.691 109.606 116.094 108.165C116.241 107.639 116.388 107.113 116.526 106.583C117.396 103.358 118.337 100.613 119.417 98.1934C119.475 98.0656 119.532 97.9377 119.566 97.8109C120.807 94.247 121.952 91.3633 123.197 88.7215C125.027 84.8185 126.81 80.8505 128.548 77.0052L129.682 74.4667C130.413 72.8769 131.203 71.2801 132.052 69.6001C132.994 67.7101 133.978 65.7511 134.862 63.7472C134.984 63.4733 135.079 63.1871 135.147 62.8887C135.648 60.736 135.642 58.6637 135.132 56.7388C134.972 56.1415 134.706 55.5846 134.335 55.0905C132.347 52.429 129.519 50.816 127.449 49.6398C122.877 47.0511 117.508 45.5627 112.574 44.3238C112.607 43.1451 112.481 42.0046 112.191 40.8893C112.03 40.292 111.764 39.7351 111.394 39.241C109.41 36.5704 106.569 34.9624 104.507 33.7903C99.4213 30.9063 93.348 29.3995 87.9984 28.0624C86.9845 27.8069 85.9756 27.5646 85.0064 27.3071C84.4858 27.1732 72.1891 24.005 64.7232 25.2495C64.3322 25.3158 63.9563 25.4218 63.6007 25.5806L63.4076 25.6696C60.8634 26.7569 59.099 27.7652 57.7524 31.5664C57.4851 32.3123 56.9851 34.3888 54.6002 44.6368C53.2993 50.1997 51.8337 56.4995 51.3597 58.2482C50.9939 59.6071 50.2658 60.87 49.7765 61.451C46.0234 63.4551 40.6563 62.8439 35.4607 62.2656C34.7501 62.1893 34.0436 62.1038 33.3421 62.0316C29.0205 61.5806 23.4778 61.5592 18.9438 65.4596C14.9528 68.8797 12.0804 74.3324 11.2606 80.0444C10.6852 84.0804 13.757 86.8646 15.3984 88.364C15.6082 88.5562 15.8039 88.7312 15.963 88.8899C17.4936 90.4165 19.3393 91.7771 21.6197 93.047C23.8801 94.6805 26.3453 95.9782 28.5263 97.1271L29.0488 97.4042C30.8403 98.3464 32.7629 99.2157 34.8704 100.014C35.7852 101.89 37.3282 103.291 38.3399 104.213C38.5498 104.406 38.7455 104.581 38.8996 104.726C40.421 106.249 42.2758 107.613 44.5562 108.883C46.8349 110.525 49.3092 111.827 51.4953 112.989L51.9903 113.254C52.9571 113.762 53.9361 114.243 54.9314 114.687C60.1728 117.027 65.702 118.477 70.5585 119.594C85.3546 123.002 97.1862 123.729 107.796 121.894C108.92 121.706 109.838 121.196 110.518 120.679C111.229 120.262 111.815 119.735 112.267 119.116C112.279 119.088 112.304 119.056 112.326 119.033C113.08 117.957 113.713 116.662 114.203 115.172C114.251 115.063 114.304 114.944 114.344 114.831L114.348 114.821Z" fill="#E2E2E2"/>
<path d="M114.085 114.135L114.147 113.998C114.231 113.783 114.307 113.565 114.364 113.339C114.49 112.837 114.598 112.348 114.708 111.883L114.768 111.625C115.067 110.269 115.442 108.914 115.84 107.482C115.987 106.956 116.134 106.43 116.272 105.901C117.143 102.675 118.083 99.9305 119.164 97.5107C119.221 97.3828 119.278 97.255 119.313 97.1281C120.553 93.5643 121.698 90.6806 122.943 88.0387C124.774 84.1358 126.556 80.1677 128.295 76.3225L129.428 73.784C130.16 72.1942 130.949 70.5973 131.798 68.9173C132.74 67.0273 133.724 65.0683 134.608 63.0645C134.73 62.7906 134.825 62.5044 134.893 62.206C135.394 60.0533 135.388 57.981 134.879 56.056C134.718 55.4587 134.452 54.9019 134.085 54.3987C132.107 51.7412 129.27 50.1241 127.199 48.9479C122.628 46.3592 117.254 44.88 112.324 43.632C112.367 42.4573 112.232 41.3127 111.941 40.1974C111.781 39.6001 111.515 39.0433 111.144 38.5492C109.16 35.8785 106.319 34.2705 104.254 33.1075C99.1676 30.2235 93.0943 28.7167 87.7447 27.3797C86.7308 27.1241 85.726 26.8727 84.7527 26.6243C84.232 26.4904 71.9354 23.3222 64.4695 24.5667C64.0785 24.6331 63.7026 24.7391 63.347 24.8979L63.1539 24.9869C60.6097 26.0741 58.8453 27.0824 57.4987 30.8837C57.2314 31.6295 56.7314 33.7061 54.3464 43.954C53.0456 49.517 51.58 55.8168 51.106 57.5654C50.7402 58.9244 50.0121 60.1873 49.5227 60.7682C45.7697 62.7723 40.4026 62.1612 35.207 61.5829C34.4964 61.5066 33.7899 61.4211 33.0884 61.3488C28.7668 60.8979 23.224 60.8764 18.6901 64.7769C14.6991 68.197 11.8267 73.6497 11.0028 79.3708C10.4274 83.4068 13.4992 86.191 15.1406 87.6904C15.3504 87.8826 15.5461 88.0576 15.7052 88.2162C17.2358 89.7428 19.0906 91.1075 21.3659 92.3643C23.6264 93.9977 26.0915 95.2954 28.2726 96.4444L28.795 96.7214C30.5866 97.6636 32.5092 98.533 34.6126 99.3406C35.5274 101.217 37.0704 102.617 38.0862 103.531C38.2961 103.723 38.4918 103.898 38.6458 104.043C40.1673 105.566 42.0221 106.931 44.3025 108.201C46.5812 109.842 49.0555 111.144 51.2416 112.306L51.7366 112.571C52.7034 113.079 53.6824 113.56 54.6777 114.004C59.9191 116.344 65.4483 117.795 70.3048 118.911C85.1008 122.319 96.9325 123.046 107.542 121.212C108.67 121.015 109.584 120.514 110.264 119.996C110.975 119.58 111.561 119.053 112.009 118.442C112.021 118.415 112.047 118.382 112.068 118.359C112.822 117.283 113.455 115.989 113.945 114.499C113.994 114.389 114.043 114.28 114.086 114.157L114.085 114.135Z" fill="#D4D4D4"/>
<path d="M113.818 113.435L113.879 113.298C113.963 113.083 114.03 112.861 114.096 112.639C114.222 112.137 114.33 111.648 114.44 111.183L114.5 110.925C114.799 109.569 115.174 108.214 115.572 106.782C115.719 106.256 115.866 105.73 116.004 105.201C116.875 101.975 117.815 99.2304 118.896 96.8106C118.953 96.6828 119.01 96.555 119.045 96.4281C120.285 92.8643 121.43 89.9806 122.676 87.3387C124.506 83.4357 126.288 79.4677 128.027 75.6225L129.16 73.084C129.892 71.4941 130.681 69.8973 131.53 68.2173C132.472 66.3273 133.456 64.3683 134.34 62.3645C134.462 62.0905 134.557 61.8044 134.625 61.506C135.126 59.3533 135.12 57.2809 134.611 55.356C134.45 54.7587 134.184 54.2018 133.818 53.6986C131.839 51.0412 129.002 49.4241 126.932 48.2479C122.36 45.6592 116.986 44.1799 112.056 42.9319C112.099 41.7572 111.964 40.6127 111.673 39.4974C111.513 38.9001 111.247 38.3432 110.876 37.8492C108.892 35.1785 106.051 33.5705 103.986 32.4075C98.8997 29.5235 92.8264 28.0167 87.4768 26.6797C86.4629 26.4241 85.454 26.1818 84.4848 25.9243C83.9641 25.7904 71.6675 22.6222 64.2016 23.8667C63.8106 23.933 63.4347 24.039 63.0791 24.1978L62.8769 24.2828C60.3326 25.37 58.5683 26.3783 57.2216 30.1796C56.9544 30.9254 56.4544 33.002 54.0694 43.2499C52.7685 48.8129 51.303 55.1127 50.8289 56.8613C50.4632 58.2203 49.7391 59.474 49.2548 60.0682C45.5018 62.0723 40.1347 61.4612 34.93 60.8788C34.2194 60.8025 33.5128 60.717 32.8113 60.6448C28.4898 60.1938 22.947 60.1723 18.413 64.0728C14.4221 67.4929 11.5496 72.9456 10.7257 78.6667C10.1504 82.7027 13.2222 85.4869 14.8635 86.9863C15.0734 87.1785 15.269 87.3535 15.4282 87.5121C16.9588 89.0387 18.8045 90.3994 21.0848 91.6693C23.3453 93.3028 25.8104 94.6004 27.9915 95.7494L28.5139 96.0265C30.3014 96.9778 32.2281 97.838 34.3315 98.6457C35.2463 100.522 36.7893 101.922 37.801 102.845C38.0109 103.037 38.2066 103.212 38.3607 103.358C39.8821 104.88 41.7369 106.245 44.0214 107.506C46.3001 109.147 48.7703 110.458 50.9605 111.611L51.4464 111.872C52.4132 112.38 53.4013 112.865 54.3966 113.309C59.638 115.649 65.1671 117.1 70.0237 118.216C84.8197 121.624 96.6514 122.351 107.261 120.517C108.385 120.329 109.303 119.819 109.983 119.301C110.694 118.885 111.28 118.358 111.728 117.747C111.744 117.711 111.766 117.687 111.787 117.664C112.541 116.588 113.174 115.294 113.664 113.804C113.713 113.694 113.761 113.585 113.814 113.466L113.818 113.435Z" fill="#C5C5C5"/>
<path d="M113.555 112.748L113.616 112.611C113.701 112.397 113.776 112.178 113.833 111.952C113.959 111.45 114.067 110.962 114.168 110.492L114.228 110.234C114.527 108.878 114.902 107.523 115.304 106.082C115.451 105.556 115.598 105.03 115.736 104.501C116.607 101.275 117.548 98.5304 118.628 96.1106C118.685 95.9828 118.742 95.8549 118.777 95.7281C120.017 92.1643 121.163 89.2806 122.408 86.6387C124.234 82.7448 126.02 78.7677 127.759 74.9224L128.892 72.3839C129.624 70.7941 130.414 69.1973 131.253 67.5132C132.195 65.6232 133.18 63.6642 134.063 61.6604C134.185 61.3864 134.28 61.1003 134.344 60.811C134.845 58.6583 134.839 56.586 134.33 54.661C134.169 54.0637 133.903 53.5069 133.532 53.0128C131.554 50.3553 128.717 48.7382 126.646 47.562C122.075 44.9733 116.701 43.4941 111.771 42.2461C111.814 41.0714 111.679 39.9269 111.388 38.8115C111.228 38.2142 110.962 37.6574 110.591 37.1633C108.607 34.4927 105.766 32.8847 103.705 31.7125C98.6187 28.8285 92.5453 27.3217 87.1957 25.9847C86.1818 25.7291 85.1729 25.4868 84.2037 25.2293C83.6831 25.0954 71.3864 21.9272 63.9205 23.1717C63.5295 23.2381 63.1536 23.344 62.798 23.5029L62.5958 23.5878C60.0515 24.675 58.2872 25.6834 56.9406 29.4846C56.6733 30.2304 56.1733 32.307 53.7883 42.555C52.4875 48.1179 51.0219 54.4177 50.5479 56.1664C50.1821 57.5253 49.4581 58.779 48.9646 59.3692C45.2116 61.3732 39.8445 60.7621 34.6489 60.1838C33.9383 60.1075 33.2318 60.022 32.5303 59.9498C28.2087 59.4988 22.6659 59.4773 18.132 63.3778C14.141 66.7979 11.2686 72.2506 10.4447 77.9717C9.86929 82.0078 12.9411 84.7919 14.5825 86.2913C14.7923 86.4835 14.988 86.6585 15.1471 86.8172C16.6777 88.3438 18.5234 89.7044 20.8038 90.9744C23.0642 92.6078 25.5293 93.9055 27.7104 95.0544L28.2329 95.3315C30.0244 96.2737 31.947 97.143 34.0505 97.9507C34.9652 99.8266 36.5082 101.227 37.52 102.15C37.7298 102.342 37.9255 102.517 38.0796 102.663C39.6011 104.185 41.4558 105.55 43.7362 106.82C46.015 108.461 48.4892 109.763 50.6753 110.925L51.1612 111.186C52.128 111.694 53.1161 112.179 54.1023 112.62C59.3437 114.96 64.8729 116.41 69.7294 117.527C84.5255 120.934 96.3571 121.661 106.966 119.827C108.091 119.639 109.009 119.129 109.689 118.611C110.4 118.195 110.986 117.668 111.434 117.057C111.45 117.021 111.471 116.998 111.493 116.974C112.247 115.898 112.88 114.604 113.369 113.114C113.418 113.004 113.467 112.895 113.511 112.772L113.555 112.748Z" fill="#B7B7B7"/>
<path d="M113.287 112.048L113.344 111.92C113.429 111.706 113.504 111.488 113.561 111.261C113.687 110.759 113.795 110.271 113.905 109.805L113.965 109.547C114.264 108.191 114.639 106.836 115.037 105.404C115.184 104.878 115.331 104.353 115.469 103.823C116.34 100.598 117.281 97.8527 118.361 95.4329C118.418 95.3051 118.475 95.1773 118.51 95.0504C119.751 91.4866 120.896 88.6029 122.141 85.961C123.971 82.058 125.753 78.09 127.492 74.2447L128.625 71.7062C129.357 70.1164 130.147 68.5196 130.995 66.8396C131.938 64.9496 132.922 62.9906 133.805 60.9868C133.928 60.7128 134.023 60.4267 134.09 60.1283C134.591 57.9755 134.586 55.9032 134.076 53.9783C133.916 53.381 133.65 52.8241 133.279 52.33C131.3 49.6726 128.463 48.0555 126.389 46.8884C121.817 44.2997 116.447 42.8114 111.513 41.5725C111.556 40.3978 111.43 39.2573 111.13 38.1379C110.97 37.5406 110.704 36.9838 110.333 36.4897C108.349 33.8191 105.508 32.2111 103.443 31.0481C98.3568 28.1641 92.2835 26.6573 86.9338 25.3202C85.9199 25.0647 84.9151 24.8132 83.9418 24.5648C83.4212 24.431 71.1245 21.2628 63.6586 22.5072C63.2676 22.5736 62.8918 22.6796 62.5361 22.8384L62.3431 22.9274C59.7988 24.0146 58.0345 25.023 56.6878 28.8242C56.4206 29.57 55.9206 31.6466 53.5356 41.8946C52.2347 47.4575 50.7692 53.7573 50.2951 55.506C49.9293 56.8649 49.2013 58.1278 48.7119 58.7087C44.9589 60.7128 39.5917 60.1017 34.3962 59.5234C33.6855 59.4471 32.979 59.3616 32.2775 59.2894C27.9559 58.8384 22.4132 58.8169 17.8792 62.7174C13.8882 66.1375 11.0158 71.5902 10.1919 77.3113C9.61654 81.3474 12.6884 84.1315 14.3297 85.6309C14.5396 85.8231 14.7352 85.9981 14.8944 86.1568C16.425 87.6834 18.2706 89.044 20.5551 90.3048C22.8156 91.9382 25.2807 93.2359 27.4577 94.394L27.9801 94.6711C29.7676 95.6224 31.6943 96.4826 33.7977 97.2903C34.7124 99.1662 36.2555 100.567 37.2713 101.48C37.4812 101.673 37.6768 101.848 37.8309 101.993C39.3524 103.516 41.2072 104.88 43.4875 106.15C45.7663 107.792 48.2405 109.094 50.4267 110.256L50.9217 110.521C51.8885 111.029 52.8675 111.51 53.8628 111.954C59.1041 114.294 64.6333 115.744 69.4899 116.861C84.2859 120.269 96.1176 120.996 106.727 119.161C107.851 118.973 108.769 118.463 109.449 117.945C110.161 117.529 110.746 117.002 111.198 116.383C111.21 116.355 111.236 116.323 111.257 116.3C112.011 115.224 112.644 113.929 113.134 112.439C113.183 112.33 113.232 112.22 113.276 112.097L113.287 112.048Z" fill="#A8A8A8"/>
<path d="M113.024 111.361L113.085 111.224C113.17 111.01 113.236 110.788 113.303 110.565C113.428 110.063 113.537 109.575 113.646 109.109L113.706 108.851C114.005 107.495 114.38 106.14 114.779 104.708C114.926 104.183 115.073 103.657 115.211 103.127C116.081 99.9017 117.022 97.1568 118.102 94.737C118.159 94.6091 118.216 94.4813 118.251 94.3545C119.492 90.7906 120.637 87.9069 121.882 85.2651C123.712 81.3621 125.495 77.394 127.233 73.5488L128.367 71.0103C129.098 69.4205 129.888 67.8236 130.727 66.1396C131.67 64.2496 132.654 62.2906 133.542 60.2776C133.664 60.0037 133.759 59.7175 133.822 59.4282C134.323 57.2755 134.318 55.2032 133.808 53.2783C133.648 52.681 133.382 52.1241 133.015 51.6209C131.036 48.9635 128.199 47.3463 126.129 46.1701C121.557 43.5814 116.183 42.1022 111.254 40.8542C111.296 39.6795 111.17 38.5391 110.871 37.4196C110.71 36.8224 110.444 36.2655 110.073 35.7714C108.09 33.1008 105.248 31.4928 103.183 30.3298C98.097 27.4458 92.0237 25.939 86.6741 24.6019C85.6602 24.3464 84.6554 24.0949 83.6821 23.8466C83.1614 23.7127 70.8648 20.5445 63.3989 21.789C63.0079 21.8553 62.632 21.9613 62.2764 22.1201L62.0833 22.2091C59.5391 23.2964 57.7747 24.3047 56.4281 28.1059C56.1608 28.8518 55.6608 30.9283 53.2758 41.1763C51.975 46.7392 50.5094 53.039 50.0354 54.7877C49.6696 56.1466 48.9415 57.4095 48.4613 57.9945C44.7082 59.9986 39.3411 59.3875 34.1455 58.8092C33.4349 58.7329 32.7284 58.6474 32.0269 58.5752C27.7053 58.1242 22.1626 58.1027 17.6286 62.0032C13.6376 65.4233 10.7652 70.876 9.9413 76.5971C9.36594 80.6331 12.4378 83.4173 14.0791 84.9167C14.289 85.1089 14.4846 85.2839 14.6438 85.4426C16.1744 86.9692 18.02 88.3298 20.3004 89.5997C22.57 91.2372 25.026 92.5309 27.203 93.689L27.7254 93.966C29.5129 94.9173 31.4396 95.7775 33.543 96.5852C34.4578 98.4611 36.0008 99.8618 37.0166 100.775C37.2265 100.968 37.4221 101.143 37.5762 101.288C39.0977 102.81 40.9525 104.175 43.2329 105.445C45.5116 107.087 47.9858 108.388 50.172 109.551L50.667 109.815C51.6338 110.324 52.6128 110.805 53.6081 111.249C58.8495 113.589 64.3786 115.039 69.2352 116.156C84.0312 119.564 95.8629 120.29 106.472 118.456C107.601 118.259 108.514 117.758 109.194 117.24C109.906 116.824 110.492 116.297 110.943 115.678C110.956 115.65 110.981 115.618 111.002 115.595C111.757 114.519 112.389 113.224 112.879 111.734C112.928 111.625 112.977 111.515 113.03 111.396L113.024 111.361Z" fill="#9A9A9A"/>
<path d="M112.756 110.661L112.817 110.524C112.902 110.31 112.968 110.088 113.035 109.865C113.16 109.363 113.269 108.875 113.369 108.405L113.429 108.147C113.728 106.791 114.103 105.436 114.502 104.004C114.649 103.478 114.787 102.949 114.934 102.423C115.804 99.1976 116.745 96.4527 117.825 94.0329C117.882 93.905 117.939 93.7772 117.974 93.6504C119.215 90.0865 120.36 87.2028 121.605 84.561C123.435 80.658 125.218 76.69 126.956 72.8447L128.09 70.3062C128.821 68.7164 129.611 67.1195 130.459 65.4396C131.402 63.5495 132.386 61.5906 133.274 59.5776C133.396 59.3037 133.491 59.0175 133.554 58.7282C134.055 56.5755 134.05 54.5032 133.54 52.5782C133.38 51.9809 133.114 51.4241 132.747 50.9209C130.768 48.2634 127.931 46.6463 125.861 45.4701C121.289 42.8814 115.915 41.4022 110.986 40.1542C111.028 38.9795 110.893 37.835 110.603 36.7196C110.442 36.1223 110.176 35.5655 109.805 35.0714C107.822 32.4008 104.99 30.7968 102.915 29.6298C97.8291 26.7458 91.7558 25.239 86.4062 23.9019C85.3923 23.6464 84.3834 23.404 83.4142 23.1465C82.8935 23.0127 70.5969 19.8445 63.131 21.0889C62.74 21.1553 62.3641 21.2613 62.0085 21.4201L61.8063 21.505C59.262 22.5923 57.4977 23.6006 56.1511 27.4018C55.8838 28.1477 55.3838 30.2242 52.9988 40.4722C51.698 46.0351 50.2324 52.3349 49.7584 54.0836C49.3926 55.4425 48.6686 56.6963 48.1751 57.2864C44.4221 59.2905 39.055 58.6794 33.8594 58.101C33.1488 58.0247 32.4422 57.9392 31.7408 57.867C27.4192 57.416 21.8764 57.3946 17.3425 61.295C13.3515 64.7151 10.4882 70.1719 9.65514 75.8889C9.07978 79.925 12.1516 82.7091 13.7929 84.2085C14.0028 84.4008 14.1985 84.5757 14.3576 84.7344C15.8882 86.261 17.7339 87.6216 20.0183 88.8824C22.2788 90.5159 24.7439 91.8136 26.925 92.9625L27.4474 93.2396C29.2389 94.1818 31.1524 95.047 33.265 95.8588C34.1798 97.7346 35.7228 99.1354 36.7345 100.058C36.9444 100.25 37.1401 100.425 37.2901 100.58C38.8116 102.102 40.6663 103.467 42.9467 104.737C45.2254 106.379 47.6997 107.68 49.8858 108.842L50.3717 109.103C51.3385 109.612 52.3266 110.096 53.3219 110.541C58.5633 112.881 64.0925 114.331 68.949 115.448C83.7451 118.856 95.5767 119.582 106.186 117.748C107.314 117.551 108.228 117.05 108.908 116.532C109.62 116.116 110.205 115.589 110.653 114.979C110.67 114.942 110.691 114.919 110.712 114.895C111.466 113.819 112.099 112.525 112.589 111.035C112.638 110.926 112.687 110.816 112.74 110.697L112.756 110.661Z" fill="#8B8B8B"/>
<path d="M112.488 109.961L112.545 109.833C112.63 109.619 112.705 109.401 112.763 109.174C112.888 108.672 112.997 108.184 113.097 107.714L113.158 107.456C113.456 106.1 113.831 104.745 114.23 103.313C114.377 102.788 114.524 102.262 114.662 101.732C115.532 98.5067 116.473 95.7618 117.553 93.342C117.61 93.2141 117.667 93.0863 117.702 92.9594C118.943 89.3956 120.088 86.5119 121.333 83.8701C123.163 79.9671 124.946 75.999 126.684 72.1538L127.818 69.6153C128.549 68.0255 129.339 66.4286 130.187 64.7486C131.13 62.8586 132.114 60.8997 132.998 58.8958C133.12 58.6219 133.215 58.3357 133.282 58.0373C133.783 55.8846 133.778 53.8123 133.268 51.8873C133.108 51.29 132.842 50.7332 132.471 50.2391C130.492 47.5817 127.655 45.9645 125.585 44.7883C121.013 42.1997 115.643 40.7113 110.71 39.4724C110.752 38.2977 110.617 37.1532 110.327 36.0379C110.166 35.4406 109.9 34.8837 109.529 34.3896C107.546 31.719 104.705 30.111 102.643 28.9389C97.5572 26.0549 91.4839 24.5481 86.1342 23.211C85.1203 22.9555 84.1115 22.7131 83.1422 22.4556C82.6216 22.3218 70.325 19.1536 62.8591 20.398C62.468 20.4644 62.0922 20.5704 61.7365 20.7292L61.5343 20.8141C58.9901 21.9014 57.2258 22.9097 55.8791 26.7109C55.6118 27.4568 55.1119 29.5333 52.7269 39.7813C51.426 45.3442 49.9605 51.644 49.4864 53.3927C49.1206 54.7516 48.3966 56.0054 47.9032 56.5955C44.1501 58.5996 38.783 57.9885 33.5874 57.4101C32.8768 57.3338 32.1703 57.2483 31.4688 57.1761C27.1472 56.7251 21.6045 56.7037 17.0705 60.6041C13.0795 64.0242 10.2071 69.4769 9.38319 75.198C8.80783 79.2341 11.8797 82.0182 13.521 83.5176C13.7309 83.7099 13.9265 83.8848 14.0857 84.0435C15.6163 85.5701 17.4619 86.9307 19.7423 88.2007C22.0028 89.8341 24.4679 91.1318 26.649 92.2808L27.1714 92.5578C28.9588 93.5091 30.8855 94.3693 32.989 95.177C33.9037 97.0529 35.4467 98.4536 36.4626 99.3671C36.6724 99.5593 36.8681 99.7343 37.0181 99.8889C38.5396 101.411 40.3944 102.776 42.6748 104.046C44.9535 105.688 47.4277 106.989 49.6139 108.152L50.1089 108.416C51.0757 108.925 52.0638 109.41 53.05 109.85C58.2914 112.19 63.8205 113.64 68.6771 114.757C83.4731 118.165 95.3048 118.891 105.914 117.057C107.038 116.869 107.956 116.359 108.636 115.841C109.348 115.425 109.933 114.898 110.385 114.279C110.398 114.251 110.423 114.219 110.444 114.195C111.199 113.119 111.831 111.825 112.321 110.335C112.37 110.226 112.419 110.116 112.463 109.993L112.488 109.961Z" fill="#7D7D7D"/>
<path d="M112.225 109.274L112.287 109.137C112.371 108.923 112.447 108.705 112.504 108.478C112.63 107.976 112.738 107.488 112.838 107.018L112.899 106.76C113.197 105.404 113.572 104.049 113.971 102.617C114.118 102.092 114.265 101.566 114.403 101.036C115.273 97.8108 116.214 95.0658 117.295 92.646C117.352 92.5182 117.409 92.3904 117.443 92.2635C118.684 88.6997 119.829 85.816 121.074 83.1741C122.904 79.2711 124.687 75.3031 126.426 71.4579L127.559 68.9194C128.291 67.3295 129.08 65.7327 129.929 64.0527C130.871 62.1627 131.855 60.2037 132.739 58.1999C132.861 57.9259 132.956 57.6398 133.024 57.3414C133.525 55.1887 133.519 53.1163 133.01 51.1914C132.849 50.5941 132.583 50.0372 132.212 49.5432C130.234 46.8857 127.396 45.2686 125.326 44.0924C120.754 41.5037 115.381 40.0245 110.451 38.7765C110.494 37.6018 110.358 36.4572 110.068 35.3419C109.907 34.7446 109.641 34.1878 109.271 33.6937C107.287 31.023 104.446 29.415 102.38 28.252C97.2943 25.368 91.221 23.8612 85.8714 22.5242C84.8575 22.2686 83.8527 22.0172 82.8794 21.7688C82.3587 21.6349 70.0621 18.4667 62.5962 19.7112C62.2052 19.7776 61.8293 19.8836 61.4737 20.0424L61.2806 20.1314C58.7364 21.2186 56.972 22.2269 55.6254 26.0282C55.3581 26.774 54.8581 28.8506 52.4731 39.0985C51.1723 44.6615 49.7067 50.9613 49.2327 52.7099C48.8669 54.0689 48.1388 55.3318 47.6495 55.9127C43.8964 57.9168 38.5293 57.3057 33.3337 56.7274C32.6231 56.6511 31.9166 56.5656 31.2151 56.4934C26.8935 56.0424 21.3508 56.0209 16.8168 59.9214C12.8258 63.3415 9.95338 68.7942 9.12947 74.5153C8.55411 78.5513 11.6259 81.3355 13.2673 82.8349C13.4771 83.0271 13.6728 83.2021 13.8319 83.3607C15.3626 84.8873 17.2082 86.248 19.4927 87.5088C21.7531 89.1422 24.2182 90.4399 26.3993 91.5889L26.9217 91.8659C28.7133 92.8081 30.6359 93.6775 32.7394 94.4851C33.6541 96.361 35.1971 97.7617 36.2129 98.6752C36.4228 98.8675 36.6185 99.0424 36.7726 99.1879C38.294 100.71 40.1488 102.075 42.4292 103.345C44.7079 104.987 47.1822 106.288 49.3683 107.451L49.8633 107.715C50.8301 108.224 51.8182 108.709 52.8044 109.149C58.0458 111.489 63.575 112.939 68.4315 114.056C83.2276 117.464 95.0592 118.19 105.669 116.356C106.797 116.159 107.711 115.658 108.391 115.14C109.102 114.724 109.688 114.197 110.14 113.578C110.152 113.55 110.177 113.518 110.199 113.494C110.953 112.418 111.586 111.124 112.076 109.634C112.124 109.525 112.173 109.415 112.226 109.296L112.225 109.274Z" fill="#6E6E6E"/>
<path d="M111.958 108.574L112.019 108.437C112.103 108.223 112.179 108.005 112.236 107.778C112.362 107.276 112.47 106.788 112.58 106.322L112.64 106.064C112.939 104.708 113.314 103.353 113.712 101.921C113.859 101.396 114.006 100.87 114.144 100.34C115.015 97.1148 115.955 94.3699 117.036 91.9501C117.093 91.8223 117.15 91.6944 117.185 91.5676C118.425 88.0037 119.57 85.12 120.816 82.4782C122.642 78.5843 124.428 74.6072 126.167 70.7619L127.3 68.2234C128.032 66.6336 128.821 65.0368 129.67 63.3568C130.612 61.4668 131.596 59.5078 132.48 57.5039C132.602 57.23 132.697 56.9438 132.765 56.6454C133.266 54.4927 133.26 52.4204 132.751 50.4955C132.59 49.8982 132.324 49.3413 131.953 48.8472C129.975 46.1898 127.138 44.5727 125.067 43.3965C120.496 40.8078 115.122 39.3285 110.192 38.0805C110.235 36.9058 110.1 35.7613 109.809 34.646C109.649 34.0487 109.383 33.4918 109.012 32.9977C107.028 30.3271 104.196 28.7232 102.122 27.5561C97.0356 24.6721 90.9623 23.1653 85.6126 21.8283C84.5987 21.5727 83.5939 21.3213 82.6206 21.0729C82.1 20.939 69.8034 17.7708 62.3374 19.0153C61.9464 19.0816 61.5706 19.1876 61.2149 19.3464L61.0127 19.4314C58.4685 20.5186 56.7041 21.5269 55.3575 25.3282C55.0902 26.074 54.5902 28.1506 52.2053 38.3985C50.9044 43.9615 49.4389 50.2613 48.9648 52.0099C48.599 53.3689 47.875 54.6226 47.3907 55.2168C43.6377 57.2209 38.2705 56.6098 33.0658 56.0274C32.3552 55.9511 31.6487 55.8656 30.9472 55.7933C26.6256 55.3424 21.0829 55.3209 16.5489 59.2214C12.5579 62.6415 9.68549 68.0941 8.86159 73.8153C8.28622 77.8513 11.3581 80.6355 12.9994 82.1349C13.2092 82.3271 13.4049 82.5021 13.5732 82.6648C15.1038 84.1914 16.9494 85.552 19.2298 86.822C21.4903 88.4554 23.9554 89.7531 26.1365 90.9021L26.6589 91.1791C28.4504 92.1213 30.3731 92.9906 32.4806 93.7892C33.3953 95.6651 34.9383 97.0658 35.9501 97.9884C36.16 98.1807 36.3556 98.3556 36.5097 98.5011C38.0312 100.024 39.886 101.388 42.1664 102.658C44.4451 104.3 46.9193 105.602 49.1055 106.764L49.5914 107.025C50.5582 107.533 51.5463 108.018 52.5416 108.462C57.783 110.802 63.3121 112.252 68.1687 113.369C82.9647 116.777 94.7964 117.504 105.406 115.669C106.53 115.481 107.448 114.971 108.128 114.454C108.843 114.028 109.425 113.51 109.877 112.891C109.889 112.863 109.924 112.835 109.936 112.808C110.69 111.732 111.323 110.437 111.813 108.947C111.862 108.838 111.911 108.728 111.964 108.61L111.958 108.574Z" fill="#606060"/>
</g>
<path d="M111.958 108.574L112.019 108.437C112.103 108.223 112.179 108.005 112.236 107.778C112.362 107.276 112.47 106.788 112.58 106.322L112.64 106.064C112.939 104.708 113.314 103.353 113.712 101.921C113.859 101.396 114.006 100.87 114.144 100.34C115.015 97.1148 115.955 94.3699 117.036 91.9501C117.093 91.8223 117.15 91.6944 117.185 91.5676C118.425 88.0037 119.57 85.12 120.816 82.4782C122.642 78.5843 124.428 74.6072 126.167 70.7619L127.3 68.2234C128.032 66.6336 128.821 65.0368 129.67 63.3568C130.612 61.4668 131.596 59.5078 132.48 57.5039C132.602 57.23 132.697 56.9438 132.765 56.6454C133.266 54.4927 133.26 52.4204 132.751 50.4955C132.59 49.8982 132.324 49.3413 131.953 48.8472C129.975 46.1898 127.138 44.5727 125.067 43.3965C120.496 40.8078 115.122 39.3285 110.192 38.0805C110.235 36.9058 110.1 35.7613 109.809 34.646C109.649 34.0487 109.383 33.4918 109.012 32.9977C107.028 30.3271 104.196 28.7232 102.122 27.5561C97.0356 24.6721 90.9623 23.1653 85.6126 21.8283C84.5987 21.5727 83.5939 21.3213 82.6206 21.0729C82.1 20.939 69.8034 17.7708 62.3374 19.0153C61.9464 19.0816 61.5706 19.1876 61.2149 19.3464L61.0127 19.4314C58.4685 20.5186 56.7041 21.5269 55.3575 25.3282C55.0902 26.074 54.5902 28.1506 52.2053 38.3985C50.9044 43.9615 49.4389 50.2613 48.9648 52.0099C48.599 53.3689 47.875 54.6226 47.3907 55.2168C43.6377 57.2209 38.2705 56.6098 33.0658 56.0274C32.3552 55.9511 31.6487 55.8656 30.9472 55.7933C26.6256 55.3424 21.0829 55.3209 16.5489 59.2214C12.5579 62.6415 9.68549 68.0941 8.86159 73.8153C8.28622 77.8513 11.3581 80.6355 12.9994 82.1349C13.2092 82.3271 13.4049 82.5021 13.5732 82.6648C15.1038 84.1914 16.9494 85.552 19.2298 86.822C21.4903 88.4554 23.9554 89.7531 26.1365 90.9021L26.6589 91.1791C28.4504 92.1213 30.3731 92.9906 32.4806 93.7892C33.3953 95.6651 34.9383 97.0658 35.9501 97.9884C36.16 98.1807 36.3556 98.3556 36.5097 98.5011C38.0312 100.024 39.886 101.388 42.1664 102.658C44.4451 104.3 46.9193 105.602 49.1055 106.764L49.5914 107.025C50.5582 107.533 51.5463 108.018 52.5416 108.462C57.783 110.802 63.3121 112.252 68.1687 113.369C82.9647 116.777 94.7964 117.504 105.406 115.669C106.53 115.481 107.448 114.971 108.128 114.454C108.843 114.028 109.425 113.51 109.877 112.891C109.889 112.863 109.924 112.835 109.936 112.808C110.69 111.732 111.323 110.437 111.813 108.947C111.862 108.838 111.911 108.728 111.964 108.61L111.958 108.574Z" fill="white"/>
<path d="M84.3223 91.3409C84.412 91.14 84.4976 90.9482 84.5781 90.7432C84.7111 90.2003 84.8307 89.6623 84.9433 89.165C85.3842 87.1716 85.9653 85.2079 86.4965 83.2329C87.3354 80.103 88.3345 77.0556 89.6432 74.1244C90.7726 70.8833 92.0025 67.687 93.4596 64.5703C95.6708 59.8628 97.7866 55.1237 99.9248 50.3835C101.537 46.8214 103.482 43.2983 105.07 39.6924C105.36 38.4308 105.434 37.1608 105.092 35.891C103.751 34.0875 101.638 32.8595 99.7052 31.7668C94.2935 28.7045 87.3255 27.313 81.371 25.7607C79.8405 25.3621 69.0568 22.8037 63.1153 23.7979C61.1909 24.6252 60.687 24.7726 59.9137 26.9462C59.471 28.1831 54.6448 49.541 53.6353 53.2737C53.053 55.4121 51.7767 57.8539 50.3318 59.1034C44.5505 62.6332 37.0433 61.2966 30.4284 60.6103C26.6601 60.2202 22.754 60.2613 19.6954 62.8931C16.4081 65.7183 14.2683 70.2168 13.6539 74.4874C13.3889 76.3074 15.8522 78.0752 16.9896 79.2072C18.3843 80.5965 20.0588 81.7274 21.8198 82.6888C24.0265 84.3201 26.5677 85.6189 28.9142 86.8636C34.2664 89.6912 40.4429 91.4084 46.3124 92.7585C57.7439 95.3871 69.9781 97.0271 81.6448 95.0079C81.9027 94.9697 82.2249 94.7631 82.47 94.533C82.7068 94.4197 82.9202 94.285 83.0129 94.1512C83.5645 93.3571 83.9966 92.3892 84.3182 91.35L84.3223 91.3409Z" fill="#56281F"/>
<path d="M84.8196 27.9464C89.2321 29.2484 103.038 32.0282 103.91 38.0466C102.847 40.3314 93.4631 38.88 91.7181 38.6922C88.2411 38.3118 84.5836 37.2811 81.1805 36.4408C76.7138 35.3337 72.2785 33.7149 68.1412 31.7473C66.6691 31.0463 65.195 30.3006 63.7932 29.4667C62.9199 28.9453 61.2862 27.1099 61.3076 25.86C65.3338 22.0176 81.5589 26.9835 84.8196 27.9464Z" fill="#A02929"/>
<g style="mix-blend-mode:multiply">
<path d="M88.3223 32.9052C80.7833 30.5359 72.0715 28.782 63.9626 29.5532C65.3087 30.3404 66.7279 31.0616 68.1361 31.7341C72.2693 33.7108 76.7138 35.3337 81.1755 36.4276C84.5694 37.2638 88.232 38.3077 91.713 38.679C92.9901 38.8111 98.3214 39.6253 101.529 39.1626C99.2419 36.8275 89.6426 33.3084 88.3173 32.8919L88.3223 32.9052Z" fill="#A02929"/>
</g>
<path d="M17.4232 67.639C17.75 67.1279 19.0815 65.1268 19.4498 64.6451C22.5658 60.4621 27.507 61.3649 31.7469 62.0969C32.4463 62.223 35.2483 62.4226 35.9407 62.4908C41.9393 62.4968 47.1285 62.6233 51.987 58.9772C53.2372 57.5751 53.9179 55.5354 54.3929 53.8091C55.3123 50.4742 56.392 47.2218 57.1257 43.8369C58.1837 38.965 59.5852 33.9616 60.4353 28.9422C61.5899 30.06 63.7632 31.0302 64.655 31.4612C67.7695 32.9722 70.801 34.4242 74.0908 35.5425C80.3032 37.6699 87.3282 39.6454 93.9132 39.957C96.2097 40.0624 101.323 41.0203 103.9 39.4437C103.889 39.4935 103.895 39.529 103.884 39.5787C99.2723 47.7486 95.7314 56.4401 91.739 64.941C88.3683 72.0987 85.9144 79.8518 84.0514 87.6059C83.7202 88.3232 83.4621 89.0731 83.2181 89.8403C79.2099 90.8215 74.1899 90.2669 70.3531 90.1528C63.4775 89.9524 56.5765 88.5579 49.8552 87.178C45.8125 86.3477 41.8842 85.0649 38.0641 83.4908C35.8194 82.7295 27.605 79.2483 25.1229 77.1546C24.5884 76.8065 24.0671 76.4533 23.558 76.0727C22.913 75.6533 22.2893 75.2105 21.7378 74.6796C19.9253 72.9505 17.5466 70.9686 17.0027 68.3603C17.1534 68.1209 17.304 67.8815 17.4506 67.6513L17.4232 67.639Z" fill="#E6343D"/>
<g style="mix-blend-mode:screen">
<path d="M26.0807 64.2654C31.8108 62.7388 38.0459 64.6682 43.8669 64.6059C46.9273 64.5704 50.385 64.3072 52.7898 62.183C55.9187 59.4184 56.9377 54.781 57.9271 50.8969C59.635 44.2015 61.6039 37.4365 62.912 30.6065C62.0274 30.1349 61.0668 29.5636 60.417 28.9341C59.5669 33.9535 58.1705 38.97 57.1074 43.8287C56.3737 47.2137 55.294 50.4661 54.3746 53.8009C53.8996 55.5273 53.2321 57.5619 51.9687 58.9691C47.1062 62.6243 41.921 62.4887 35.9224 62.4827C35.23 62.4145 32.4321 62.2057 31.7286 62.0888C27.4979 61.3608 22.5475 60.4539 19.4315 64.637C19.0682 65.1319 17.7317 67.1197 17.405 67.6309C17.2584 67.8612 17.1077 68.1005 16.957 68.3399C17.1766 69.3688 17.6828 70.2957 18.32 71.1496C19.8494 67.9447 22.1292 65.3157 26.0583 64.2664L26.0807 64.2654Z" fill="#F4AD87"/>
</g>
<g style="mix-blend-mode:multiply">
<path d="M84.024 87.5937C85.887 79.8396 88.35 72.0905 91.7116 64.9288C95.7132 56.432 99.254 47.7405 103.856 39.5665C103.872 39.53 103.861 39.4812 103.873 39.4315C101.296 41.0081 96.1782 40.0593 93.8858 39.9448C87.6195 39.655 80.9781 37.8508 74.9991 35.8385C75.137 35.922 75.2841 36.0096 75.4129 36.089C77.7693 37.4586 80.1972 38.5206 82.8044 39.2794C84.0466 39.6369 85.584 40.0933 86.4789 41.1061C88.6922 43.6055 87.4498 47.0262 86.5333 49.8148C84.833 55.0461 83.1641 60.2804 81.2547 65.4403C79.3453 70.6001 76.9761 75.6861 75.3397 80.9459C74.2403 84.4632 73.1505 86.4627 69.346 87.0858C64.3948 87.8979 59.3225 88.2945 54.2898 88.0627C59.577 89.0981 64.9467 89.9732 70.3075 90.1324C74.1443 90.2465 79.1642 90.8012 83.1724 89.82C83.4123 89.0619 83.6745 88.3029 84.0057 87.5856L84.024 87.5937Z" fill="#C93035"/>
</g>
<path d="M81.6873 93.8332C70.3683 95.6134 58.8104 93.8811 47.7198 91.4703C41.8765 90.2086 36 88.8006 30.6261 86.1933C29.1672 85.4872 25.639 83.6273 24.1264 82.8206C21.2992 81.3284 16.4854 78.325 15.3008 75.0912C14.6196 73.232 15.297 71.3222 16.2462 69.5886C16.4999 71.4979 18.5162 73.3837 19.7459 74.5788C20.0216 74.8443 20.3288 75.1128 20.6309 75.3682C21.9067 76.2882 23.1957 77.2032 24.5468 78.0035C24.5924 78.0239 24.6249 78.0493 24.6705 78.0697C24.7486 78.1155 24.8135 78.1664 24.8916 78.2122C26.5349 79.143 27.9457 80.0795 29.6012 80.9829C31.2842 81.8985 33.2507 82.645 34.9204 83.5657C39.3795 85.5237 44.0425 87.0251 48.7905 88.1154C55.5826 89.6803 62.6121 90.7379 69.5717 91.1181C73.5515 91.3289 78.7402 91.7508 82.912 90.7222C82.5741 91.7979 82.222 92.8563 81.6914 93.824L81.6873 93.8332Z" fill="#E6343D"/>
<g style="mix-blend-mode:screen">
<path d="M17.7481 72.5041C17.0104 71.6053 16.3714 70.6082 16.2421 69.5977C15.3061 71.3263 14.6155 73.2411 15.2967 75.1003C15.516 75.713 15.8734 76.3106 16.3152 76.8911C16.7198 75.3962 17.1873 73.9074 17.7522 72.495L17.7481 72.5041Z" fill="#F4AD87"/>
</g>
<g style="mix-blend-mode:multiply">
<path d="M82.9079 90.7313C78.7402 91.7508 73.5474 91.338 69.5676 91.1273C62.7339 90.7594 55.8485 89.7223 49.166 88.2064C52.2933 89.3945 55.5084 90.3371 58.7241 90.8857C60.0183 91.1021 61.5126 91.2874 62.1115 92.5951C62.2986 92.9853 62.2704 93.4655 62.1762 93.971C68.664 94.7211 75.2097 94.8509 81.6873 93.8332C82.2179 92.8654 82.57 91.807 82.9079 90.7313Z" fill="#C93035"/>
</g>
<path d="M107.277 107.185C107.367 106.984 107.452 106.793 107.533 106.588C107.675 106.049 107.786 105.507 107.898 105.009C108.339 103.016 108.92 101.052 109.451 99.0773C110.294 95.9383 111.298 92.9041 112.598 89.9688C113.727 86.7277 114.957 83.5314 116.414 80.4147C118.626 75.7072 120.741 70.9681 122.88 66.228C124.479 62.6708 126.433 59.1519 128.025 55.5369C128.324 54.2793 128.385 53.0143 128.047 51.7354C126.705 49.932 124.588 48.713 122.66 47.6112C117.248 44.549 110.28 43.1574 104.326 41.6051C102.795 41.2066 92.0115 38.6481 86.0701 39.6423C84.1456 40.4696 83.6418 40.617 82.8776 42.7947C82.4349 44.0316 77.6087 65.3895 76.5901 69.1182C76.0078 71.2565 74.7314 73.6983 73.2865 74.9478C67.5053 78.4776 59.998 77.141 53.3832 76.4547C49.6149 76.0646 45.7088 76.1058 42.6502 78.7375C39.3628 81.5628 37.2231 86.0612 36.6087 90.3318C36.3437 92.1518 38.807 93.9196 39.9443 95.0516C41.33 96.4368 43.0136 97.5718 44.7746 98.5332C46.9904 100.169 49.5184 101.472 51.8689 102.708C57.2212 105.536 63.3977 107.253 69.2672 108.603C80.6986 111.232 92.9328 112.872 104.6 110.852C104.862 110.805 105.18 110.608 105.429 110.368C105.666 110.255 105.875 110.129 105.968 109.996C106.519 109.202 106.951 108.234 107.277 107.185Z" fill="#56281F"/>
<path d="M107.761 43.7959C112.174 45.0979 125.971 47.8736 126.843 53.892C125.779 56.1768 116.396 54.7254 114.65 54.5377C111.174 54.1572 107.516 53.1265 104.113 52.2862C99.6553 51.1832 95.2109 49.5603 91.0736 47.5927C89.6015 46.8917 88.1183 46.1419 86.7256 45.3121C85.8523 44.7907 84.2186 42.9553 84.2491 41.7095C88.2753 37.8671 104.5 42.833 107.761 43.7959Z" fill="#A02929"/>
<g style="mix-blend-mode:multiply">
<path d="M111.264 48.7546C103.725 46.3854 95.013 44.6315 86.9042 45.4027C88.2502 46.1899 89.6695 46.9111 91.0868 47.5877C95.22 49.5644 99.6645 51.1873 104.126 52.2812C107.52 53.1174 111.183 54.1612 114.664 54.5326C115.937 54.6738 121.281 55.4829 124.479 55.0161C122.193 52.681 112.593 49.162 111.268 48.7455L111.264 48.7546Z" fill="#A02929"/>
</g>
<path d="M40.3689 83.4794C40.6956 82.9682 42.0271 80.9672 42.3863 80.4814C45.5023 76.2983 50.4435 77.2012 54.6834 77.9332C55.3868 78.0502 58.1848 78.2589 58.8731 78.3362C64.8717 78.3422 70.061 78.4687 74.9235 74.8135C76.1737 73.4114 76.8544 71.3717 77.3294 69.6454C78.2488 66.3105 79.3194 63.054 80.0622 59.6731C81.1202 54.8012 82.5217 49.7979 83.3718 44.7785C84.5356 45.9003 86.7047 46.8797 87.5874 47.3066C90.7019 48.8176 93.7374 50.2605 97.0233 51.3879C103.236 53.5153 110.261 55.4908 116.846 55.8024C119.142 55.9078 124.256 56.8657 126.832 55.2891C126.825 55.3297 126.827 55.3744 126.816 55.4242C122.205 63.594 118.664 72.2856 114.671 80.7865C111.301 87.9441 108.847 95.6972 106.975 103.447C106.643 104.165 106.385 104.914 106.141 105.682C102.133 106.663 97.1132 106.108 93.2723 106.003C86.4008 105.794 79.4957 104.408 72.7744 103.028C68.7317 102.198 64.8034 100.915 60.9873 99.3321C58.7427 98.5709 50.5282 95.0897 48.0462 92.9959C47.5076 92.6569 46.9863 92.3037 46.4813 91.914C45.8363 91.4946 45.2166 91.0427 44.6611 90.5209C42.8486 88.7918 40.4699 86.8099 39.926 84.2016C40.0767 83.9622 40.2273 83.7229 40.3739 83.4926L40.3689 83.4794Z" fill="#E6343D"/>
<g style="mix-blend-mode:screen">
<path d="M49.0222 80.1148C54.7524 78.5882 60.9874 80.5177 66.8085 80.4554C69.8688 80.4199 73.3306 80.1475 75.7355 78.0234C78.8643 75.2587 79.8834 70.6213 80.8728 66.7372C82.5807 60.0419 84.5587 53.2809 85.8668 46.4509C84.9822 45.9793 84.0216 45.408 83.3718 44.7785C82.5217 49.7979 81.1253 54.8144 80.0622 59.6731C79.3285 63.0581 78.2488 66.3105 77.3294 69.6454C76.8544 71.3717 76.1869 73.4063 74.9235 74.8135C70.0651 78.4596 64.8717 78.3422 58.8731 78.3362C58.1848 78.2589 55.3828 78.0593 54.6834 77.9332C50.4527 77.2052 45.5023 76.2983 42.3863 80.4814C42.0271 80.9672 40.6865 82.9641 40.3689 83.4794C40.2223 83.7096 40.0716 83.949 39.9209 84.1884C40.1406 85.2173 40.6467 86.1441 41.2839 86.9981C42.8133 83.7932 45.0931 81.1642 49.0222 80.1148Z" fill="#F4AD87"/>
</g>
<g style="mix-blend-mode:multiply">
<path d="M106.966 103.443C108.829 95.6891 111.292 87.94 114.662 80.7824C118.664 72.2855 122.205 63.594 126.807 55.4201C126.814 55.3795 126.812 55.3348 126.823 55.2851C124.247 56.8616 119.138 55.9169 116.836 55.7983C110.574 55.4994 103.929 53.7043 97.9498 51.692C98.0877 51.7755 98.2348 51.8631 98.3636 51.9425C100.72 53.3121 103.148 54.3742 105.764 55.137C107.006 55.4945 108.544 55.9509 109.439 56.9637C111.643 59.4591 110.41 62.8838 109.493 65.6724C107.793 70.9037 106.124 76.1381 104.215 81.2979C102.305 86.4577 99.9359 91.5437 98.2995 96.8035C97.2092 100.325 96.1103 102.32 92.3058 102.943C87.3546 103.756 82.2731 104.148 77.2496 103.92C82.5368 104.956 87.9065 105.831 93.2632 105.999C97.1 106.113 102.12 106.668 106.132 105.678C106.372 104.92 106.634 104.16 106.966 103.443Z" fill="#C93035"/>
</g>
<path d="M104.633 109.674C93.314 111.454 81.7561 109.721 70.6654 107.311C64.8131 106.045 58.9457 104.641 53.5718 102.034C52.1129 101.328 48.5938 99.4717 47.068 98.6701C44.2408 97.1779 39.427 94.1745 38.2424 90.9407C37.5612 89.0814 38.2427 87.1626 39.1878 85.4381C39.4415 87.3473 41.4578 89.2332 42.6874 90.4283C42.9723 90.6978 43.2704 90.9623 43.5725 91.2177C44.8442 92.1468 46.1332 93.0618 47.4883 93.853C47.534 93.8734 47.5665 93.8988 47.6121 93.9192C47.6943 93.9559 47.7551 94.0159 47.8332 94.0617C49.4765 94.9925 50.8873 95.929 52.5428 96.8324C54.2166 97.7439 56.1922 98.4945 57.862 99.4152C62.3211 101.373 66.9882 102.865 71.7321 103.965C78.5242 105.53 85.5537 106.587 92.5133 106.968C96.4931 107.178 101.682 107.6 105.854 106.572C105.516 107.647 105.164 108.706 104.633 109.674Z" fill="#E6343D"/>
<g style="mix-blend-mode:screen">
<path d="M40.6938 88.3445C39.9561 87.4457 39.3171 86.4485 39.1878 85.4381C38.2518 87.1666 37.5612 89.0814 38.2424 90.9407C38.4658 91.5442 38.8191 92.1509 39.2608 92.7314C39.6654 91.2365 40.133 89.7478 40.6938 88.3445Z" fill="#F4AD87"/>
</g>
<g style="mix-blend-mode:multiply">
<path d="M105.854 106.572C101.682 107.6 96.4931 107.178 92.5133 106.968C85.6837 106.591 78.7851 105.559 72.1117 104.047C75.239 105.235 78.4541 106.177 81.6698 106.726C82.964 106.942 84.445 107.133 85.0571 108.435C85.2443 108.826 85.2252 109.31 85.1218 109.811C91.6137 110.552 98.1554 110.691 104.633 109.674C105.173 108.71 105.516 107.647 105.854 106.572Z" fill="#C93035"/>
</g>
</svg>
