<svg width="90" height="86" viewBox="0 0 90 86" fill="none" xmlns="http://www.w3.org/2000/svg">
<g style="mix-blend-mode:multiply">
<path d="M89.7318 47.3603C89.9979 38.8607 88.8475 21.6898 88.3581 14.3578C88.2723 13.0957 88.2036 12.117 88.1778 11.5503C88.0405 9.19793 87.9203 7.16317 86.392 5.56628C84.7265 3.82343 82.2796 3.63455 79.704 3.59162C77.197 3.55728 63.2199 3.84919 48.4272 4.16685C34.845 4.45876 20.7992 4.75066 17.2018 4.75066C7.56896 4.75066 4.40952 12.469 4.28074 12.8038C4.17771 13.0614 4.10904 13.3275 4.0747 13.6023C3.97167 14.3492 3.91156 15.3966 3.89438 16.8819C3.87721 16.9248 3.86004 16.9678 3.84287 17.0107C3.84287 17.0279 3.8257 17.045 3.81712 17.0708C3.4737 18.0495 3.51662 19.0884 3.89438 19.9898C3.96307 25.1926 4.28073 32.3872 4.56405 38.7748C4.76151 43.2479 4.93322 47.1113 4.96757 49.1546C5.05342 54.3574 5.29381 66.2397 5.47411 72.3869C5.15644 73.1167 5.02767 73.7176 4.97616 74.0611C4.97616 74.1126 4.959 74.1641 4.959 74.2156C4.8388 75.3145 5.16503 76.3706 5.80036 77.1776C6.84778 81.4789 11.587 85.0075 17.2877 85.4969C20.327 85.763 27.6074 85.7545 34.6561 85.7459C38.0989 85.7459 41.3527 85.7373 43.5077 85.7716C46.9505 85.8317 54.2309 85.8746 60.9276 85.8746C66.345 85.8746 71.3847 85.8489 73.6942 85.7716C76.1668 85.6944 78.1672 85.6085 79.661 85.3509C80.5883 85.1878 83.4129 84.6984 84.4174 82.0026C84.7952 81.0067 84.8553 80.0537 84.7694 79.2381C85.2159 78.4997 85.5764 77.5639 85.6366 76.4221C85.6366 76.4135 85.6366 76.4049 85.6366 76.3877C85.6623 75.7953 85.6623 74.9024 85.6451 74.0181C87.0445 73.5459 88.4268 72.7389 89.2682 71.3481C90.1096 69.9658 90.0924 68.3689 89.8692 61.1657C89.7404 57.0876 89.5858 52.005 89.7318 47.3775V47.3603Z" fill="white"/>
<path d="M89.4056 47.0339C89.5429 38.5257 88.5213 21.3634 88.0319 14.04C87.946 12.778 87.8859 11.7992 87.8516 11.2326C87.7142 8.88016 87.594 6.84541 86.0658 5.24852C84.4003 3.50567 81.9534 3.31679 79.3778 3.27386C76.8708 3.23952 62.8937 3.53142 48.1009 3.84909C34.5188 4.14099 20.4729 4.4329 16.8756 4.4329C7.24273 4.4329 4.08329 12.1512 3.95451 12.4861C3.85148 12.7436 3.78281 13.0098 3.74847 13.2845C3.64544 14.0314 3.58532 15.0789 3.56815 16.5641C3.55098 16.6071 3.53381 16.65 3.51664 16.6929C3.51664 16.7101 3.49948 16.7273 3.49948 16.753C3.14748 17.7232 3.19899 18.7706 3.57675 19.6721C3.64543 24.8749 3.96309 32.0695 4.24641 38.4571C4.44388 42.9301 4.61559 46.7935 4.64993 48.8369C4.7272 54.0397 4.97617 65.922 5.15647 72.0691C4.83881 72.7989 4.71004 73.3999 4.65852 73.7433C4.65852 73.7948 4.64134 73.8463 4.64134 73.8978C4.51255 74.9968 4.8474 76.0528 5.48272 76.8598C6.53015 81.1611 11.2693 84.6898 16.9701 85.1791C20.0093 85.4453 27.2898 85.4367 34.3385 85.4281C37.7812 85.4281 41.0351 85.4195 43.1901 85.4539C46.6328 85.514 53.9133 85.5569 60.6099 85.5569C66.0274 85.5569 71.067 85.5311 73.3765 85.4539C75.8491 85.3766 77.8495 85.2907 79.3434 85.0332C80.2706 84.8701 83.0953 84.3807 84.0998 81.6848C84.4775 80.6889 84.5376 79.7359 84.4518 78.9203C84.8982 78.182 85.2588 77.2462 85.3189 76.0957C85.3189 76.0957 85.3189 76.0785 85.3189 76.07C85.3532 75.4776 85.3446 74.5847 85.3275 73.7004C86.7269 73.2368 88.1092 72.4211 88.9505 71.0303C89.7919 69.648 89.7747 68.0511 89.5515 60.8479C89.4228 56.7699 89.2682 51.6873 89.4142 47.0597L89.4056 47.0339Z" fill="#F1F1F1"/>
<path d="M89.0794 46.7076C89.2168 38.1994 88.1951 21.0371 87.7057 13.7137C87.6199 12.4516 87.5598 11.4729 87.5254 10.8976C87.3881 8.54522 87.2765 6.51046 85.7397 4.91357C84.0741 3.17072 81.6272 2.98184 79.0516 2.93891C76.5446 2.90457 62.5675 3.19648 47.7748 3.51414C34.1926 3.80605 20.1468 4.09795 16.5495 4.09795C6.91658 4.09795 3.75712 11.8163 3.62834 12.1511C3.52531 12.4087 3.45664 12.6748 3.4223 12.9496C3.31927 13.6965 3.25918 14.7439 3.24201 16.2292C3.22484 16.2721 3.20767 16.3151 3.1905 16.358C3.1905 16.3752 3.17331 16.3923 3.17331 16.4181C2.82131 17.3882 2.87282 18.4357 3.25058 19.3371C3.31926 24.5399 3.63692 31.7345 3.92024 38.1221C4.11771 42.5951 4.28942 46.4586 4.32376 48.5019C4.40103 53.7047 4.65 65.587 4.8303 71.7342C4.51263 72.464 4.38386 73.0649 4.32376 73.4084C4.32376 73.4599 4.3066 73.5114 4.3066 73.5543C4.17781 74.6618 4.51266 75.7093 5.14798 76.5163C6.19541 80.809 10.9346 84.3462 16.6353 84.8356C19.6746 85.1017 26.955 85.0932 34.0037 85.0846C37.4465 85.0846 40.7003 85.076 42.8553 85.1103C46.2981 85.1704 53.5785 85.2134 60.2752 85.2134C65.6926 85.2134 70.7323 85.1876 73.0418 85.1103C75.5144 85.0331 77.5148 84.9472 79.0087 84.6896C79.9359 84.5265 82.7605 84.0371 83.765 81.3413C84.1428 80.3454 84.2029 79.3924 84.117 78.5768C84.5634 77.8384 84.924 76.9026 84.9841 75.7608C84.9841 75.7608 84.9841 75.7436 84.9841 75.735C85.0185 75.1426 85.0099 74.2497 84.9927 73.3654C86.3922 72.9018 87.7744 72.0862 88.6158 70.6953C89.4572 69.3131 89.44 67.7162 89.2168 60.513C89.0966 56.4349 88.9334 51.3523 89.088 46.7247L89.0794 46.7076Z" fill="#E2E2E2"/>
<path d="M88.7532 46.3814C88.8906 37.8732 87.8689 20.7109 87.3796 13.3875C87.2937 12.1255 87.2336 11.1467 87.1993 10.5715C87.0619 8.21908 86.9503 6.18432 85.4135 4.58743C83.7479 2.84458 81.3011 2.6557 78.7254 2.61277C76.2185 2.57843 62.2413 2.87034 47.4486 3.188C33.8664 3.47132 19.8206 3.77181 16.2233 3.77181C6.59041 3.77181 3.43095 11.4901 3.30217 11.825C3.19914 12.0825 3.13047 12.3487 3.09612 12.6234C2.9931 13.3704 2.93301 14.4178 2.91584 15.9031C2.89867 15.946 2.8815 15.9889 2.86433 16.0318C2.86433 16.049 2.84714 16.0662 2.84714 16.0834C2.49513 17.0621 2.54664 18.1009 2.9244 19.011C2.99309 24.2138 3.31075 31.4084 3.59407 37.796C3.79153 42.269 3.96324 46.1325 3.99759 48.1758C4.08344 53.3786 4.32386 65.2609 4.50415 71.408C4.18649 72.1378 4.05768 72.7388 3.99759 73.0822C3.99759 73.1337 3.98042 73.1852 3.98042 73.2282C3.85164 74.3357 4.18648 75.3831 4.82181 76.1901C5.86923 80.4829 10.6084 84.0201 16.3092 84.5095C19.3484 84.7756 26.6289 84.767 33.6775 84.7584C37.1203 84.7584 40.3742 84.7498 42.5291 84.7842C45.9719 84.8443 53.2524 84.8872 59.949 84.8872C65.3664 84.8872 70.4061 84.8615 72.7156 84.7842C75.1882 84.7069 77.1886 84.6211 78.6825 84.3635C79.6097 84.2004 82.4343 83.711 83.4388 81.0152C83.8166 80.0193 83.8767 79.0663 83.7908 78.2507C84.2373 77.5123 84.5979 76.5765 84.6666 75.426C84.6666 75.4174 84.6666 75.4089 84.6666 75.4003C84.7009 74.8079 84.6923 73.915 84.6666 73.0307C86.066 72.5671 87.4482 71.7515 88.2896 70.3606C89.131 68.9784 89.1138 67.3815 88.8906 60.1783C88.7704 56.1002 88.6073 51.0176 88.7618 46.39L88.7532 46.3814Z" fill="#D4D4D4"/>
<path d="M88.4271 46.0553C88.5645 37.5471 87.5428 20.3848 87.0535 13.0528C86.9676 11.7907 86.9075 10.812 86.8731 10.2453C86.7358 7.89292 86.6156 5.85817 85.0874 4.26127C83.4218 2.51842 80.9749 2.32954 78.3993 2.28662C75.8923 2.25227 61.9152 2.54418 47.1225 2.86184C33.5403 3.14516 19.4945 3.44565 15.8972 3.44565C6.26429 3.44565 3.10485 11.164 2.97607 11.4988C2.87304 11.7564 2.80434 12.0225 2.77 12.2973C2.66698 13.0442 2.60688 14.0916 2.58971 15.5769C2.57254 15.6198 2.55537 15.6628 2.5382 15.7057C2.5382 15.7229 2.52102 15.7486 2.52102 15.7572C2.16901 16.7359 2.22055 17.7748 2.59831 18.6848C2.66699 23.8876 2.98465 31.0822 3.26797 37.4698C3.46544 41.9428 3.63715 45.8063 3.67149 47.8496C3.74876 53.0524 3.99773 64.9347 4.17803 71.0819C3.86037 71.8116 3.73157 72.4126 3.68006 72.756C3.68006 72.8076 3.6629 72.8591 3.6629 72.902C3.53411 74.0095 3.86896 75.0569 4.50428 75.864C5.55171 80.1567 10.2909 83.6939 15.9916 84.1833C19.0309 84.4494 26.3199 84.4408 33.36 84.4323C36.8028 84.4323 40.0566 84.4237 42.2116 84.458C45.6544 84.5181 52.9348 84.5611 59.6315 84.5611C65.0489 84.5611 70.0886 84.5353 72.3981 84.458C74.8707 84.3808 76.8711 84.2949 78.365 84.0373C79.2922 83.8742 82.1168 83.3848 83.1213 80.689C83.4991 79.6931 83.5592 78.7401 83.4733 77.9245C83.9197 77.1861 84.2804 76.2503 84.349 75.1085C84.349 75.0999 84.349 75.0913 84.349 75.0827C84.3834 74.4903 84.3748 73.5974 84.3576 72.7131C85.757 72.2495 87.1393 71.4339 87.9807 70.043C88.822 68.6608 88.8049 67.0639 88.5817 59.8607C88.4615 55.774 88.2983 50.7 88.4529 46.0724L88.4271 46.0553Z" fill="#C5C5C5"/>
<path d="M88.1005 45.7287C88.2379 37.2205 87.2162 20.0582 86.7268 12.7262C86.641 11.4642 86.5809 10.4854 86.5465 9.91878C86.4092 7.56637 86.289 5.53161 84.7608 3.93472C83.0952 2.19187 80.6483 2.00299 78.0727 1.96006C75.5657 1.92572 61.5886 2.21763 46.7959 2.53529C33.2137 2.81861 19.1679 3.1191 15.5706 3.1191C5.93768 3.1191 2.77824 10.8374 2.64946 11.1723C2.54643 11.4298 2.47773 11.696 2.44339 11.9707C2.34036 12.7176 2.28886 13.7651 2.2631 15.2504C2.24593 15.2933 2.22876 15.3362 2.21159 15.3791L2.19443 15.4306C1.84242 16.4094 1.89393 17.4482 2.27169 18.3583C2.34038 23.5611 2.65804 30.7557 2.94136 37.1433C3.13882 41.6163 3.31053 45.4797 3.34488 47.5231C3.43073 52.7259 3.67112 64.6082 3.85141 70.7553C3.53375 71.4851 3.40496 72.0861 3.35344 72.4295C3.35344 72.481 3.33628 72.5325 3.33628 72.5755C3.2075 73.6744 3.54234 74.7304 4.17767 75.5374C5.22509 79.8302 9.96427 83.3674 15.665 83.8567C18.7043 84.1229 25.9933 84.1143 33.0334 84.1057C36.4761 84.1057 39.73 84.0971 41.885 84.1315C45.3278 84.1916 52.6082 84.2345 59.3049 84.2345C64.7223 84.2345 69.762 84.2087 72.0714 84.1315C74.5441 84.0542 76.5445 83.9684 78.0384 83.7108C78.9656 83.5477 81.7902 83.0583 82.7947 80.3625C83.1724 79.3666 83.2325 78.4136 83.1467 77.5979C83.5931 76.8596 83.9537 75.9238 84.0138 74.7819C84.0138 74.7733 84.0138 74.7647 84.0138 74.7562C84.0482 74.1638 84.0396 73.2709 84.0224 72.3866C85.4219 71.923 86.8041 71.1073 87.6455 69.7165C88.4869 68.3342 88.4697 66.7373 88.2465 59.5341C88.1177 55.4475 87.9631 50.3735 88.1177 45.7459L88.1005 45.7287Z" fill="#B7B7B7"/>
<path d="M87.7746 45.4028C87.912 36.9032 86.8903 19.7409 86.4009 12.4089C86.3151 11.1468 86.255 10.1681 86.2206 9.60143C86.0833 7.24901 85.9717 5.21426 84.4435 3.61737C82.7779 1.87452 80.331 1.68564 77.7554 1.64271C75.2484 1.60837 61.2713 1.90027 46.4786 2.21794C32.8964 2.50126 18.8506 2.80175 15.2533 2.80175C5.62037 2.80175 2.46093 10.5201 2.33215 10.8549C2.22912 11.1125 2.16042 11.3786 2.12608 11.6534C2.02305 12.4003 1.96296 13.4477 1.94579 14.933C1.92862 14.9759 1.91145 15.0189 1.89428 15.0618C1.89428 15.079 1.87709 15.0961 1.87709 15.1133C1.52509 16.092 1.57663 17.1309 1.95439 18.0409C2.02307 23.2437 2.34932 30.4383 2.62405 36.8259C2.82152 41.2989 2.99323 45.1624 3.02757 47.2057C3.11342 52.4085 3.35381 64.2908 3.53411 70.438C3.21645 71.1677 3.08765 71.7687 3.03614 72.1121C3.03614 72.1637 3.01898 72.2152 3.01898 72.2581C2.89019 73.357 3.22504 74.413 3.86036 75.2201C4.90779 79.5128 9.64694 83.05 15.3477 83.5394C18.3869 83.8055 25.676 83.7969 32.7161 83.7884C36.1588 83.7884 39.4127 83.7798 41.5677 83.8141C45.0104 83.8742 52.2909 83.9171 58.9876 83.9171C64.405 83.9171 69.4447 83.8914 71.7542 83.8141C74.2268 83.7369 76.2272 83.651 77.7211 83.3934C78.6483 83.2303 81.4729 82.7409 82.4774 80.0451C82.8551 79.0492 82.9152 78.0962 82.8294 77.2806C83.2758 76.5422 83.6364 75.6064 83.6965 74.4646C83.6965 74.456 83.6965 74.4474 83.6965 74.4302C83.7309 73.8378 83.7223 72.9535 83.7051 72.0606C85.1045 71.5884 86.4868 70.7814 87.3282 69.3905C88.1696 68.0083 88.1524 66.4114 87.9291 59.2082C87.8004 55.1215 87.6458 50.0475 87.8004 45.42L87.7746 45.4028Z" fill="#A8A8A8"/>
<path d="M87.4483 45.0762C87.5856 36.5766 86.564 19.4143 86.0746 12.0823C85.9887 10.8202 85.9287 9.8415 85.8943 9.27486C85.757 6.92245 85.6453 4.88769 84.1171 3.2908C82.4515 1.54795 80.0047 1.35907 77.429 1.31614C74.9221 1.2818 60.945 1.57371 46.1522 1.89137C32.57 2.17469 18.5242 2.47518 14.9269 2.47518C5.29404 2.47518 2.1346 10.1935 2.00582 10.5283C1.90279 10.7859 1.83409 11.0521 1.79975 11.3182C1.69672 12.0651 1.64523 13.1211 1.62806 14.5978C1.61088 14.6408 1.59372 14.6837 1.57654 14.7266C1.57654 14.7438 1.55936 14.761 1.55936 14.7781C1.20735 15.7569 1.25886 16.7957 1.63662 17.7058C1.70531 22.9086 2.03155 30.1032 2.30629 36.4908C2.50375 40.9638 2.67546 44.8272 2.70981 46.8706C2.79566 52.0734 3.03608 63.9556 3.21637 70.1028C2.89871 70.8326 2.76991 71.4336 2.7184 71.777C2.7184 71.8285 2.70124 71.88 2.70124 71.9315C2.57246 73.0305 2.90727 74.0865 3.5426 74.8935C4.59002 79.1862 9.3292 82.7234 15.0299 83.2128C18.0692 83.479 25.3497 83.4704 32.3983 83.4618C35.8411 83.4618 39.095 83.4618 41.2499 83.4876C44.6927 83.5477 51.9732 83.5906 58.6698 83.5906C64.0873 83.5906 69.1269 83.5648 71.4364 83.4876C73.909 83.4103 75.9094 83.3244 77.4033 83.0669C78.3305 82.9037 81.1551 82.4144 82.1596 79.7185C82.5374 78.7226 82.5975 77.7696 82.5116 76.954C82.9581 76.2157 83.3187 75.2799 83.3788 74.1294C83.3788 74.1294 83.3788 74.1122 83.3788 74.1037C83.4131 73.5113 83.4045 72.627 83.3788 71.7341C84.7782 71.2619 86.1605 70.4548 87.0018 69.064C87.8432 67.6817 87.826 66.0848 87.6028 58.8816C87.474 54.795 87.3195 49.721 87.474 45.0934L87.4483 45.0762Z" fill="#9A9A9A"/>
<path d="M87.1221 44.7501C87.2595 36.2419 86.2378 19.0881 85.7484 11.7562C85.6626 10.4941 85.5939 9.51536 85.5682 8.94872C85.4308 6.5963 85.3192 4.56155 83.7824 2.96466C82.1168 1.22181 79.67 1.03293 77.0943 0.99C74.5874 0.955659 60.6102 1.24756 45.8175 1.56523C32.2353 1.85713 18.1895 2.14904 14.5922 2.14904C4.95931 2.14904 1.79984 9.86736 1.67106 10.1936C1.56804 10.4512 1.49936 10.7173 1.46502 10.9921C1.36199 11.739 1.31049 12.7864 1.28473 14.2717C1.26756 14.3146 1.25037 14.3576 1.2332 14.4005C1.2332 14.4177 1.21603 14.4348 1.21603 14.452C0.86403 15.4222 0.91554 16.4696 1.2933 17.3711C1.36198 22.5738 1.67964 29.7685 1.96296 36.1646C2.16043 40.6376 2.33214 44.5011 2.36648 46.5444C2.45234 51.7472 2.69273 63.6209 2.87302 69.7767C2.55536 70.5064 2.42659 71.1074 2.37508 71.4509C2.37508 71.5024 2.35791 71.5539 2.35791 71.6054C2.22913 72.7043 2.56395 73.7603 3.19927 74.5674C4.2467 78.8601 8.98588 82.3973 14.6866 82.8867C17.7259 83.1528 25.0063 83.1442 32.055 83.1357C35.4978 83.1357 38.7517 83.1357 40.898 83.1614C44.3408 83.2215 51.6213 83.2644 58.3179 83.2644C63.7353 83.2644 68.775 83.2387 71.0845 83.1614C73.5571 83.0841 75.5575 82.9983 77.0514 82.7407C77.9786 82.5776 80.8032 82.0882 81.8077 79.3924C82.1855 78.3965 82.2456 77.4435 82.1597 76.6279C82.6062 75.8895 82.9668 74.9537 83.0269 73.8119C83.0269 73.8033 83.0269 73.7947 83.0269 73.7775C83.0612 73.1851 83.0526 72.3008 83.0269 71.4079C84.4263 70.9443 85.8086 70.1287 86.6499 68.7378C87.4913 67.3556 87.4741 65.7587 87.2509 58.5555C87.1221 54.4774 86.9676 49.3948 87.1136 44.7673L87.1221 44.7501Z" fill="#8B8B8B"/>
<path d="M86.8043 44.4239C86.9417 35.9158 85.92 18.7534 85.4306 11.43C85.3448 10.168 85.2847 9.18922 85.2503 8.62258C85.113 6.27016 85.0014 4.23541 83.4646 2.63851C81.799 0.895666 79.3521 0.706786 76.7765 0.663859C74.2695 0.629517 60.2924 0.921423 45.4997 1.23908C31.9175 1.53099 17.8717 1.8229 14.2744 1.8229C4.64147 1.8229 1.48203 9.54122 1.35325 9.87605C1.25023 10.1336 1.18155 10.3998 1.14721 10.6745C1.04418 11.4214 0.992653 12.4689 0.966896 13.9541C0.949725 13.9971 0.932556 14.04 0.915386 14.0829C0.915386 14.1001 0.898224 14.1173 0.898224 14.1344C0.54622 15.1046 0.59773 16.152 0.97549 17.0535C1.04417 22.2563 1.36183 29.4509 1.64515 35.8471C1.84262 40.3201 2.01433 44.1835 2.04867 46.2269C2.13453 51.4297 2.37492 63.3119 2.55521 69.4591C2.23755 70.1889 2.10878 70.7899 2.05727 71.1333C2.05727 71.1848 2.04008 71.2363 2.04008 71.2878C1.9113 72.3868 2.24614 73.4428 2.88146 74.2498C3.92889 78.5425 8.66807 82.0798 14.3688 82.5691C17.4081 82.8353 24.6885 82.8267 31.7372 82.8181C35.18 82.8181 38.4339 82.8181 40.5888 82.8439C44.0316 82.904 51.312 82.9469 58.0087 82.9469C63.4261 82.9469 68.4658 82.9211 70.7752 82.8439C73.2479 82.7666 75.2483 82.6807 76.7421 82.4232C77.6694 82.26 80.494 81.7707 81.4985 79.0748C81.8763 78.0789 81.9364 77.1259 81.8505 76.3103C82.297 75.572 82.6575 74.6362 82.7176 73.4943C82.7176 73.4857 82.7176 73.4771 82.7176 73.4685C82.752 72.8761 82.7434 71.9918 82.7176 71.099C84.1171 70.6353 85.4993 69.8197 86.3407 68.4289C87.1821 67.0466 87.1649 65.4497 86.9417 58.2465C86.8129 54.1684 86.6584 49.0858 86.8043 44.4583V44.4239Z" fill="#7D7D7D"/>
<path d="M86.478 44.0976C86.6154 35.5894 85.5937 18.427 85.1043 11.1036C85.0185 9.84159 84.9584 8.86284 84.924 8.28762C84.7867 5.9352 84.6751 3.90045 83.1383 2.30355C81.4727 0.560706 79.0258 0.371825 76.4502 0.328898C73.9432 0.294556 59.9661 0.586462 45.1734 0.904124C31.5912 1.19603 17.5454 1.48793 13.9481 1.48793C4.31518 1.48793 1.15572 9.20626 1.02693 9.54109C0.923909 9.79866 0.855234 10.0648 0.820892 10.3395C0.717867 11.0865 0.657776 12.1339 0.640605 13.6192C0.623434 13.6621 0.606239 13.705 0.589068 13.748C0.589068 13.7651 0.571898 13.7823 0.563313 13.8081C0.211309 14.7782 0.262845 15.8256 0.640605 16.7271C0.709289 21.9299 1.02695 29.1245 1.31027 35.5121C1.50774 39.9851 1.67945 43.8486 1.71379 45.8919C1.79964 51.0947 2.04003 62.977 2.22033 69.1242C1.90266 69.8539 1.77389 70.4549 1.71379 70.7983C1.71379 70.8498 1.6966 70.9014 1.6966 70.9529C1.56782 72.0518 1.90266 73.1078 2.53798 73.9148C3.58541 78.2162 8.32459 81.7448 14.0253 82.2342C17.0646 82.5003 24.3536 82.4917 31.3937 82.4831C34.8365 82.4831 38.0903 82.4831 40.2453 82.5089C43.6881 82.569 50.9685 82.6119 57.6652 82.6119C63.0826 82.6119 68.1223 82.5862 70.4318 82.5089C72.9044 82.4316 74.9048 82.3458 76.3987 82.0882C77.3259 81.9251 80.1505 81.4357 81.155 78.7399C81.5328 77.744 81.5929 76.791 81.507 75.9754C81.9535 75.237 82.314 74.3012 82.3742 73.1593C82.3742 73.1507 82.3742 73.1422 82.3742 73.1336C82.4085 72.5412 82.3999 71.6483 82.3742 70.764C83.7736 70.3004 85.1558 69.4848 85.9972 68.0939C86.8386 66.7117 86.8214 65.1148 86.5982 57.9116C86.478 53.8249 86.3149 48.7509 86.4694 44.1233L86.478 44.0976Z" fill="#6E6E6E"/>
<path d="M86.1518 43.7714C86.418 35.2718 85.2675 18.1009 84.7782 10.7775C84.6923 9.51544 84.6322 8.5367 84.5978 7.96148C84.4605 5.60906 84.3403 3.57431 82.8121 1.97741C81.1465 0.234564 78.6996 0.045684 76.124 0.00275668C73.617 -0.0315851 59.6399 0.26032 44.8472 0.577982C31.265 0.869888 17.2192 1.16179 13.6219 1.16179C3.98899 1.16179 0.82953 8.88012 0.700748 9.21495C0.597723 9.47252 0.529047 9.73867 0.494705 10.0134C0.39168 10.7603 0.331589 11.8078 0.314418 13.293C0.297247 13.336 0.280079 13.3789 0.262908 13.4218C0.262908 13.439 0.245738 13.4562 0.237152 13.4819C-0.114851 14.4607 -0.0633419 15.4995 0.314418 16.401C0.383102 21.6038 0.700763 28.7984 0.984083 35.186C1.18155 39.659 1.35326 43.5224 1.3876 45.5658C1.46487 50.7686 1.71384 62.6508 1.89414 68.798C1.57648 69.5278 1.44768 70.1288 1.39617 70.4722C1.38758 70.5237 1.37901 70.5752 1.37901 70.6181C1.25881 71.7257 1.58507 72.7731 2.22039 73.5801C3.26782 77.8814 8.00699 81.4101 13.7077 81.8994C16.747 82.1656 24.0274 82.157 31.0761 82.1484C34.5189 82.1484 37.7728 82.1398 39.9277 82.1742C43.3705 82.2343 50.6509 82.2772 57.3476 82.2772C62.765 82.2772 67.8047 82.2514 70.1142 82.1742C72.5868 82.0969 74.5872 82.0111 76.0811 81.7535C77.0083 81.5904 79.8329 81.1096 80.8374 78.4052C81.2152 77.4092 81.2753 76.4563 81.1894 75.6406C81.6359 74.9023 81.9965 73.9665 82.0565 72.8246C82.0565 72.816 82.0565 72.8074 82.0565 72.7989C82.0823 72.2065 82.0823 71.3136 82.0565 70.4293C83.456 69.9657 84.8382 69.15 85.6796 67.7592C86.521 66.3769 86.5038 64.78 86.2806 57.5768C86.1604 53.4987 85.9973 48.4162 86.1518 43.7886V43.7714Z" fill="#606060"/>
</g>
<path d="M86.1518 43.7714C86.418 35.2718 85.2675 18.1009 84.7782 10.7775C84.6923 9.51544 84.6322 8.5367 84.5978 7.96148C84.4605 5.60906 84.3403 3.57431 82.8121 1.97741C81.1465 0.234564 78.6996 0.045684 76.124 0.00275668C73.617 -0.0315851 59.6399 0.26032 44.8472 0.577982C31.265 0.869888 17.2192 1.16179 13.6219 1.16179C3.98899 1.16179 0.82953 8.88012 0.700748 9.21495C0.597723 9.47252 0.529047 9.73867 0.494705 10.0134C0.39168 10.7603 0.331589 11.8078 0.314418 13.293C0.297247 13.336 0.280079 13.3789 0.262908 13.4218C0.262908 13.439 0.245738 13.4562 0.237152 13.4819C-0.114851 14.4607 -0.0633419 15.4995 0.314418 16.401C0.383102 21.6038 0.700763 28.7984 0.984083 35.186C1.18155 39.659 1.35326 43.5224 1.3876 45.5658C1.46487 50.7686 1.71384 62.6508 1.89414 68.798C1.57648 69.5278 1.44768 70.1288 1.39617 70.4722C1.38758 70.5237 1.37901 70.5752 1.37901 70.6181C1.25881 71.7257 1.58507 72.7731 2.22039 73.5801C3.26782 77.8814 8.00699 81.4101 13.7077 81.8994C16.747 82.1656 24.0274 82.157 31.0761 82.1484C34.5189 82.1484 37.7728 82.1398 39.9277 82.1742C43.3705 82.2343 50.6509 82.2772 57.3476 82.2772C62.765 82.2772 67.8047 82.2514 70.1142 82.1742C72.5868 82.0969 74.5872 82.0111 76.0811 81.7535C77.0083 81.5904 79.8329 81.1096 80.8374 78.4052C81.2152 77.4092 81.2753 76.4563 81.1894 75.6406C81.6359 74.9023 81.9965 73.9665 82.0565 72.8246C82.0565 72.816 82.0565 72.8074 82.0565 72.7989C82.0823 72.2065 82.0823 71.3136 82.0565 70.4293C83.456 69.9657 84.8382 69.15 85.6796 67.7592C86.521 66.3769 86.5038 64.78 86.2806 57.5768C86.1604 53.4987 85.9973 48.4162 86.1518 43.7886V43.7714Z" fill="white"/>
<path d="M82.7264 43.6682C83.0355 33.8808 81.4042 12.0995 81.1724 8.16734C80.9406 4.21803 80.8633 3.52261 76.0726 3.43675C71.282 3.36807 21.0399 4.59579 13.6134 4.59579C6.18702 4.59579 3.87754 10.4768 3.87754 10.4768C3.25939 15.0014 4.71033 39.0235 4.81335 45.5141C4.91638 52.0133 5.26838 68.7635 5.4315 72.0002C5.58604 75.2455 9.60403 78.1131 14.0084 78.4994C18.4127 78.8858 33.6519 78.654 39.9794 78.757C46.3154 78.86 65.0489 78.9115 69.9942 78.757C74.9308 78.5938 77.1544 78.4479 77.618 77.203C78.0816 75.9753 77.4034 74.7905 77.4034 74.7905C77.4721 77.203 75.5232 77.2717 72.896 77.5722C70.2603 77.8984 60.1466 77.5722 47.2427 77.5722C34.3388 77.5722 24.0705 77.5893 16.2406 77.5722C8.40207 77.5464 7.27739 71.4937 12.0166 69.9483C16.7557 68.4115 30.3036 68.2999 46.5473 68.3342C62.7738 68.3686 78.5453 67.6045 78.5453 67.6045C80.1593 67.5186 82.091 67.0722 82.7521 65.9732C83.4218 64.9 82.4087 53.4556 82.7264 43.6682Z" fill="#442C1B"/>
<path d="M82.7864 43.6854C82.9409 38.6114 82.7005 33.5116 82.4601 28.4462C82.2112 23.2692 81.8935 18.1007 81.5501 12.9323C81.4471 11.4298 81.344 9.92736 81.2496 8.42491C81.1895 7.48051 81.1809 6.51035 80.9748 5.58312C80.8289 4.92204 80.5284 4.33823 79.9274 3.99481C79.1547 3.55695 78.176 3.49685 77.3089 3.44534C76.6993 3.411 76.0983 3.39383 75.4887 3.39383C74.5615 3.39383 73.6343 3.411 72.707 3.41959C69.4102 3.46251 66.122 3.5312 62.8252 3.59988C58.3522 3.68573 53.8791 3.78018 49.3975 3.87462C44.6412 3.97764 39.8763 4.07208 35.1199 4.17511C30.913 4.26096 26.7148 4.3554 22.5079 4.43267C19.7949 4.48418 17.0733 4.5357 14.3603 4.56145C12.2912 4.57862 10.2908 4.77609 8.41057 5.72049C6.75358 6.55328 5.33697 7.84968 4.35823 9.42941C4.16935 9.73848 3.92896 10.0819 3.82594 10.4339C3.70574 10.8288 3.73149 11.3268 3.71432 11.7303C3.62847 13.4732 3.65423 15.2246 3.68857 16.976C3.77442 21.9642 3.99763 26.9523 4.21227 31.9319C4.40115 36.1903 4.62438 40.4487 4.73599 44.7156C4.85619 49.3947 4.90771 54.0652 5.01074 58.7443C5.10518 63.0628 5.16527 67.3812 5.35415 71.6911C5.40566 72.833 5.75766 73.8375 6.44449 74.7476C7.29445 75.8723 8.47924 76.7222 9.7413 77.3404C11.115 78.0186 12.6175 78.4136 14.1371 78.5424C14.9699 78.611 15.8027 78.6368 16.6269 78.6625C21.9928 78.8343 27.3673 78.7656 32.7418 78.757C37.1032 78.757 41.4646 78.8171 45.826 78.8428C51.1919 78.8772 56.5578 78.8943 61.9237 78.8772C64.0615 78.8772 66.1907 78.86 68.3285 78.8257C69.2901 78.8085 70.243 78.7827 71.2046 78.7484C72.6555 78.6969 74.1322 78.6625 75.566 78.4136C76.2099 78.302 76.9998 78.1388 77.4548 77.6151C78.0816 76.8854 77.9098 75.5889 77.472 74.8077C77.4634 74.7905 77.3518 74.739 77.3518 74.7819C77.3604 75.3571 77.2745 75.9667 76.8796 76.4131C76.5276 76.8167 76.0039 77.0313 75.4973 77.1601C74.4842 77.4262 73.3939 77.5207 72.3465 77.5979C70.5178 77.7267 68.6719 77.701 66.8432 77.6924C59.992 77.6666 53.1322 77.5464 46.281 77.555C39.1465 77.555 32.0034 77.555 24.8689 77.555C22.0786 77.555 19.2969 77.555 16.5066 77.555C14.1628 77.555 11.2008 77.1429 9.80141 74.988C8.88277 73.5714 9.2176 71.8285 10.5312 70.7897C11.8705 69.7251 13.8366 69.5104 15.4764 69.2872C17.8889 68.9524 20.3272 68.8064 22.7655 68.6862C25.985 68.5317 29.2046 68.463 32.4327 68.4287C40.3227 68.3256 48.2127 68.4287 56.1028 68.3257C62.3959 68.2312 68.6976 68.0595 74.9908 67.8105C76.1756 67.7676 77.3518 67.7161 78.5366 67.656C79.6098 67.6045 80.7516 67.4328 81.7218 66.9434C82.1425 66.7288 82.6404 66.4111 82.8465 65.9646C82.9324 65.7844 82.9495 65.5697 82.9753 65.3637C83.0697 64.5395 83.0611 63.6981 83.0525 62.8739C83.0525 61.629 83.0096 60.3755 82.9753 59.1306C82.8722 55.7394 82.7606 52.3481 82.7434 48.9483C82.7349 47.1968 82.7435 45.4454 82.8036 43.7026C82.8036 43.6596 82.6834 43.6339 82.6834 43.6682C82.5718 47.2483 82.6233 50.8285 82.7177 54.4086C82.795 57.3191 82.9323 60.2381 82.9409 63.1572C82.9409 63.9299 82.9581 64.7283 82.8379 65.501C82.6834 66.5055 81.5844 66.9863 80.7001 67.2353C79.4123 67.6045 78.0644 67.6045 76.7422 67.6646C71.0672 67.905 65.3922 68.0767 59.7087 68.1969C51.6298 68.36 43.5508 68.2741 35.4719 68.3342C29.3333 68.3772 23.1518 68.3943 17.0389 69.0297C15.3047 69.21 13.4846 69.3988 11.8362 69.9826C10.3337 70.5149 9.00297 71.8028 9.16609 73.5113C9.34639 75.34 11.0549 76.5333 12.6604 77.0742C13.9482 77.5121 15.3047 77.6151 16.6612 77.6151C18.0091 77.6151 19.3656 77.6151 20.7135 77.6151C27.4445 77.6151 34.1669 77.6151 40.8979 77.6151C48.436 77.6151 55.9826 77.658 63.5206 77.7267C65.873 77.7525 68.234 77.7782 70.5865 77.7267C71.2819 77.7096 71.9773 77.6924 72.6641 77.6323C73.7631 77.5293 74.9564 77.4692 75.9953 77.0914C77.0341 76.7136 77.4892 75.9066 77.472 74.8163C77.4291 74.8077 77.3947 74.7991 77.3518 74.7819C77.8068 75.6061 77.9871 77.0141 77.2058 77.701C76.5533 78.2848 75.4888 78.3792 74.6646 78.4737C72.3722 78.7312 70.0456 78.7484 67.7447 78.7827C62.8166 78.8514 57.8971 78.8428 52.9691 78.8343C48.4703 78.8257 43.9715 78.7913 39.4813 78.7312C34.2614 78.6625 29.0414 78.7312 23.8215 78.7141C21.3574 78.7141 18.902 78.6969 16.4465 78.611C15.6395 78.5853 14.8325 78.5509 14.0255 78.4822C12.274 78.3277 10.5398 77.804 9.02013 76.8939C7.71514 76.1127 6.496 75.0223 5.87785 73.6143C5.51726 72.8073 5.48292 71.9745 5.44858 71.1159C5.37989 69.2271 5.33696 67.3469 5.28545 65.4581C5.14808 60.178 5.03648 54.8894 4.94204 49.6093C4.87335 45.9605 4.77892 42.3203 4.62438 38.6715C4.40974 33.6662 4.16934 28.6608 3.99763 23.6469C3.91178 21.2859 3.83453 18.9163 3.80018 16.5468C3.77443 14.8983 3.74866 13.2328 3.8431 11.5844C3.86027 11.2152 3.84311 10.7773 3.96331 10.4253C4.10068 10.0304 4.35824 9.65263 4.58146 9.30921C5.63747 7.68656 7.1571 6.37298 8.9257 5.58312C10.2393 4.99072 11.6645 4.69882 13.0982 4.63872C13.6219 4.61296 14.1371 4.62155 14.6608 4.62155C15.8026 4.61296 16.9445 4.59579 18.0778 4.57862C21.6322 4.52711 25.178 4.44984 28.7324 4.38116C33.2655 4.28672 37.79 4.19228 42.3231 4.09784C46.985 3.99481 51.6469 3.90037 56.3174 3.80593C60.2753 3.72008 64.2246 3.64281 68.1825 3.57412C70.5864 3.5312 72.9904 3.47968 75.3943 3.4711C75.8751 3.4711 76.3473 3.4711 76.8281 3.49685C77.8412 3.53978 79.129 3.52261 80.0047 4.13218C80.64 4.57862 80.8289 5.3599 80.9319 6.08108C81.0521 6.93104 81.0779 7.79817 81.1294 8.65671C81.3784 12.5974 81.6617 16.5382 81.8935 20.4789C82.2197 26.0079 82.5202 31.5455 82.649 37.0832C82.7005 39.2725 82.7263 41.4617 82.6576 43.6596C82.6576 43.7026 82.7778 43.7197 82.7778 43.694L82.7864 43.6854Z" fill="#21130A"/>
<path d="M35.953 75.4429C29.3336 75.5631 9.58705 77.0741 9.23505 73.597C9.49261 75.5802 11.7678 77.5549 16.2408 77.5721C24.0707 77.5892 34.3304 77.5721 47.2429 77.5721C60.1554 77.5721 70.2691 77.8983 72.8962 77.5721C75.5234 77.2716 77.4723 77.2029 77.4036 74.7904C77.4036 74.7904 75.4461 75.8721 69.8484 76.104C64.2421 76.3358 42.5981 75.3398 35.953 75.4515V75.4429Z" fill="#442C1B"/>
<path d="M35.9528 75.4171C32.0808 75.4858 28.2173 75.7262 24.3453 75.8121C22.1131 75.855 19.8722 75.8721 17.64 75.7863C15.7942 75.7176 13.9225 75.6146 12.111 75.2454C11.4327 75.0995 10.7202 74.9278 10.1106 74.5843C9.73283 74.3697 9.35507 74.052 9.30356 73.597C9.26063 73.597 9.21769 73.597 9.18335 73.597C9.42374 75.3055 10.9348 76.4388 12.463 76.9968C14.6523 77.7953 17.0476 77.6064 19.34 77.6064C24.4741 77.6064 29.6167 77.6064 34.7508 77.6064C41.147 77.6064 47.5518 77.5807 53.9479 77.6322C58.8932 77.6665 63.8384 77.7695 68.7836 77.7438C70.0628 77.7438 71.3592 77.7438 72.6385 77.6322C73.5399 77.5463 74.4586 77.4605 75.3429 77.2716C76.0812 77.1085 76.8711 76.808 77.2403 76.0954C77.4463 75.7004 77.4893 75.2454 77.4807 74.799C77.4807 74.756 77.3862 74.7732 77.3691 74.7818C76.9054 75.0308 76.356 75.1767 75.8494 75.3055C74.1495 75.752 72.3809 75.9408 70.6209 76.0439C68.3028 76.1812 65.9761 76.1125 63.6667 76.0696C60.49 76.0095 57.3134 75.9151 54.1368 75.8206C50.84 75.7262 47.5346 75.6232 44.2378 75.5373C41.6965 75.4686 39.1552 75.3999 36.6139 75.4171C36.3993 75.4171 36.1846 75.4171 35.97 75.4171C35.9013 75.4171 35.8927 75.4686 35.97 75.4686C38.3911 75.4257 40.8122 75.4944 43.2247 75.5545C46.5387 75.6318 49.8612 75.7348 53.1752 75.8378C56.4377 75.9322 59.7088 76.0353 62.9712 76.104C65.2206 76.1469 67.4872 76.2156 69.7366 76.1383C71.5739 76.0696 73.4198 75.9065 75.2227 75.5201C75.7207 75.4085 76.2186 75.2883 76.6994 75.1252C76.914 75.0565 77.1974 74.9878 77.3948 74.8591C77.4206 74.8419 77.4549 74.8333 77.4807 74.8161C77.4463 74.8161 77.4034 74.8076 77.3691 74.799C77.3862 75.752 77.0514 76.559 76.1413 76.9625C75.1798 77.3918 74.0379 77.4261 73.0076 77.5463C71.8572 77.6751 70.6982 77.6837 69.5391 77.6923C64.9717 77.7352 60.4128 77.6322 55.8453 77.5978C49.6466 77.5463 43.4565 77.5549 37.2578 77.5635C32.0464 77.5635 26.8436 77.5635 21.6323 77.5635C20.5505 77.5635 19.4687 77.5635 18.387 77.5635C17.2022 77.5635 16.0002 77.6064 14.824 77.4776C12.8837 77.263 10.6 76.5075 9.64697 74.6358C9.48385 74.3096 9.37223 73.9662 9.32072 73.6056C9.32072 73.5712 9.19195 73.5712 9.20054 73.6056C9.30356 74.5328 10.5656 74.9106 11.3126 75.1166C12.9438 75.5717 14.6695 75.7004 16.3608 75.7949C20.8853 76.0524 25.427 75.8807 29.943 75.7004C31.9606 75.6232 33.9696 75.5201 35.9872 75.4858C36.0558 75.4858 36.0644 75.4343 35.9872 75.4343L35.9528 75.4171Z" fill="#21130A"/>
<g style="mix-blend-mode:multiply" opacity="0.6">
<path d="M35.9529 75.4429C29.3335 75.5631 9.58693 77.0741 9.23492 73.597C9.49249 75.5803 11.7676 77.5549 16.2407 77.5721C24.0706 77.5893 34.3302 77.5721 47.2428 77.5721C60.1553 77.5721 70.2689 77.8983 72.8961 77.5721C75.5232 77.2716 77.4721 77.2029 77.4035 74.7904C77.4035 74.7904 75.446 75.8722 69.8483 76.104C64.242 76.3358 42.598 75.3399 35.9529 75.4515V75.4429Z" fill="#442C1B"/>
</g>
<path d="M78.6222 72.6265C78.6909 71.2356 78.545 67.604 78.545 67.604C78.545 67.604 62.7735 68.3681 46.547 68.3337C30.3033 68.2908 16.7554 68.4024 12.0163 69.9478C9.98152 70.6089 9.0371 72.1113 9.23457 73.5966C9.58657 77.0737 29.3331 75.5627 35.9525 75.4425C42.6062 75.3309 64.2416 76.3268 69.8479 76.095C75.4456 75.8632 77.4031 74.7814 77.4031 74.7814C77.4031 74.7814 78.545 74.0173 78.6222 72.6179V72.6265Z" fill="#442C1B"/>
<path d="M78.6825 72.6266C78.7598 70.9525 78.674 69.2697 78.6053 67.6042C78.6053 67.5784 78.5452 67.5784 78.528 67.5784C75.0852 67.7501 71.6424 67.8617 68.1997 67.9733C60.6101 68.2051 53.0206 68.3253 45.431 68.3082C38.2193 68.291 30.9989 68.2738 23.7957 68.5657C21.263 68.6688 18.7303 68.8147 16.2061 69.1152C15.2789 69.2268 14.3431 69.3642 13.4331 69.5531C12.523 69.7419 11.5786 69.9737 10.7887 70.4803C9.74129 71.1499 8.98577 72.3176 9.17465 73.5968C9.23475 74.0003 9.50091 74.2836 9.82715 74.4983C10.3079 74.8159 10.8918 75.0048 11.4412 75.1422C12.2397 75.3482 13.0553 75.4684 13.8795 75.5715C16.043 75.8204 18.2237 75.8805 20.4044 75.8977C22.8341 75.9149 25.2552 75.8548 27.6763 75.7689C31.4024 75.6401 35.1285 75.4255 38.8546 75.477C43.6624 75.5371 48.4789 75.7002 53.2867 75.8462C57.9401 75.9836 62.602 76.1467 67.2639 76.1639C69.3845 76.1639 71.5051 76.1038 73.6085 75.8033C74.5873 75.6573 75.566 75.477 76.5104 75.1765C76.8195 75.0735 77.1715 74.9791 77.4548 74.8074C78.176 74.3695 78.6224 73.4423 78.6825 72.6352C78.6825 72.6009 78.5623 72.5923 78.5623 72.6352C78.5022 73.4337 78.0558 74.3781 77.3346 74.7988C76.9826 75.0048 76.5448 75.1164 76.1584 75.228C73.8747 75.8891 71.4364 76.0694 69.0754 76.1123C64.9372 76.1982 60.7818 76.0265 56.6437 75.9063C51.6469 75.7603 46.6502 75.5886 41.662 75.4856C39.8849 75.4513 38.1162 75.4083 36.3391 75.4255C34.6048 75.4427 32.8791 75.5285 31.1449 75.5972C26.483 75.7861 21.8039 75.9836 17.142 75.7775C15.2704 75.7002 13.3558 75.5886 11.5357 75.1164C10.9604 74.9705 10.3509 74.7816 9.8615 74.4296C9.39789 74.0948 9.26051 73.6827 9.28627 73.116C9.38071 70.5833 12.1281 69.8364 14.1714 69.4672C16.3349 69.0809 18.5414 68.9091 20.7393 68.7718C27.3587 68.3597 34.0124 68.3597 40.6404 68.3511C48.393 68.3511 56.1371 68.3339 63.8898 68.1365C68.5603 68.0163 73.2308 67.8617 77.8927 67.6557C78.1159 67.6471 78.3477 67.6299 78.5709 67.6213C78.5452 67.6127 78.5194 67.6042 78.4937 67.5956C78.5623 69.2697 78.6482 70.9525 78.5709 72.6181C78.5709 72.6524 78.6911 72.661 78.6911 72.6181L78.6825 72.6266Z" fill="#21130A"/>
<g style="mix-blend-mode:multiply" opacity="0.5">
<path d="M78.6227 72.6269C78.6914 71.236 78.5454 67.6044 78.5454 67.6044C78.5454 67.6044 62.7739 68.3685 46.5474 68.3342C30.3037 68.2912 16.7559 68.4029 12.0167 69.9482C9.98195 70.6093 9.03753 72.1118 9.23499 73.5971C9.587 77.0742 29.3335 75.5631 35.9529 75.4429C42.6067 75.3313 64.242 76.3272 69.8483 76.0954C75.4461 75.8636 77.4035 74.7818 77.4035 74.7818C77.4035 74.7818 78.5454 74.0177 78.6227 72.6183V72.6269Z" fill="#442C1B"/>
</g>
<path d="M5.38829 71.6911H5.30243C4.9676 71.6396 4.72721 71.3391 4.77014 71.0043C4.77873 70.9356 4.99335 69.2443 7.12255 67.6216C7.38011 67.4242 7.78363 67.4671 7.98109 67.7418C8.19573 68.008 8.14422 68.4029 7.87807 68.6004C6.19532 69.8968 6.01503 71.0902 6.00645 71.1417C5.96352 71.4593 5.69735 71.6826 5.39686 71.6826L5.38829 71.6911ZM10.7714 67.0378C10.5138 67.0378 10.2734 66.8747 10.1876 66.6257C10.076 66.2995 10.2391 65.9475 10.5653 65.8359C11.6557 65.4495 12.9006 65.1404 14.2571 64.9086C14.6005 64.8571 14.9096 65.0889 14.9782 65.4152C15.0383 65.75 14.8065 66.0677 14.4717 66.1364C13.1839 66.351 12.0077 66.6429 10.9774 67.0035C10.9087 67.0292 10.8401 67.0464 10.7714 67.0464V67.0378ZM18.0518 65.7157C17.7342 65.7157 17.4594 65.4667 17.4337 65.149C17.4165 64.8142 17.6741 64.5137 18.0003 64.4794C19.0993 64.3935 20.3613 64.3162 21.7264 64.2647C22.0956 64.2304 22.3617 64.4965 22.3703 64.8485C22.3789 65.1834 22.1213 65.4753 21.7779 65.4924C20.4214 65.5611 19.1765 65.6298 18.0862 65.7157H18.0433H18.0518ZM25.4697 65.3465C25.1434 65.3465 24.8687 65.0803 24.8601 64.7369C24.8515 64.4021 25.1177 64.1188 25.4611 64.1016C26.6459 64.0587 27.8908 64.0329 29.17 63.9986C29.5649 64.0072 29.7882 64.2647 29.8053 64.6167C29.8053 64.943 29.5392 65.2349 29.2043 65.2349C27.9165 65.2606 26.6802 65.3036 25.4954 65.3465H25.4697ZM32.8875 65.1576C32.5613 65.1576 32.2779 64.8915 32.2779 64.5566C32.2779 64.2132 32.5441 63.9385 32.8789 63.9385C34.0981 63.9127 35.3429 63.8956 36.5964 63.8784C36.9398 63.8784 37.206 64.1445 37.2232 64.4794C37.2232 64.8228 36.9484 65.0975 36.605 65.1061C35.3515 65.1233 34.1152 65.1404 32.9047 65.1576H32.8875ZM40.3139 65.0632C39.9791 65.0632 39.7044 64.7884 39.7044 64.445C39.6958 64.1016 39.9705 63.8355 40.3139 63.8269C41.5502 63.8269 42.7951 63.8097 44.0229 63.7925C44.3663 63.7925 44.641 64.0758 44.641 64.4021C44.641 64.7627 44.3577 65.0288 44.0314 65.0288C42.7951 65.0288 41.5588 65.046 40.3225 65.0632H40.3139ZM71.1872 65.0632H69.9939C69.659 65.0546 69.3843 64.7713 69.3843 64.445C69.3843 64.093 69.659 63.8269 70.0024 63.8269H71.1872C72.269 63.8269 73.0245 63.8183 73.6684 63.7668C73.9861 63.741 74.3038 63.9986 74.3295 64.3334C74.3553 64.6768 74.0891 64.9687 73.7543 64.9945C73.0674 65.046 72.3119 65.0803 71.1786 65.0803L71.1872 65.0632ZM66.2849 65.0288H62.5846C62.2326 65.0288 61.9665 64.7369 61.9665 64.4021C61.9665 64.0673 62.2498 63.7925 62.5846 63.7925L66.2935 63.8097C66.637 63.8097 66.9031 64.0758 66.9031 64.4279C66.9031 64.7799 66.6369 65.0374 66.2849 65.0374V65.0288ZM47.7318 65.0117C47.3883 65.0117 47.1136 64.7369 47.1136 64.4021C47.1136 64.0673 47.3883 63.7839 47.7318 63.7839H51.4493C51.7927 63.7754 52.0674 64.0501 52.0674 64.3935C52.0674 64.7369 51.7927 65.0117 51.4493 65.0117H47.7318ZM58.8671 65.0117H55.1582C54.8148 65.0117 54.5486 64.7198 54.5486 64.3935C54.5486 64.0673 54.8234 63.7754 55.1582 63.7754H58.8671C59.2105 63.7839 59.4852 64.0587 59.4852 64.4107C59.4852 64.7627 59.2019 65.0203 58.8671 65.0203V65.0117ZM77.2228 63.9642C77.0425 63.9642 76.8622 63.887 76.742 63.7324C76.5274 63.4491 76.5875 63.0713 76.845 62.8567C77.5662 62.2901 77.944 61.3972 78.0298 60.0149C78.047 59.6715 78.3389 59.4311 78.6823 59.4311C79.0172 59.4569 79.2747 59.7574 79.2576 60.0836C79.1374 61.8265 78.5965 63.0456 77.592 63.8269C77.4804 63.9127 77.3344 63.9471 77.2056 63.9471L77.2228 63.9642ZM78.545 56.9585C78.2101 56.9585 77.944 56.7095 77.9354 56.3575C77.8925 55.3358 77.841 54.0652 77.8066 52.64C77.798 52.2966 78.0556 52.0047 78.4076 52.0047C78.7596 52.0047 79.0257 52.2537 79.0429 52.5971C79.0858 54.0309 79.1202 55.2843 79.1631 56.3146C79.1631 56.658 78.9056 56.9413 78.5707 56.9499H78.545V56.9585ZM78.3132 49.5235C77.9783 49.5235 77.7036 49.2573 77.695 48.9225L77.6092 45.2136C77.6006 44.8702 77.8667 44.5869 78.2101 44.5783C78.5965 44.5869 78.8283 44.8444 78.8369 45.1792L78.9313 48.8968C78.9313 49.2402 78.6652 49.5321 78.3303 49.5321H78.3132V49.5235ZM78.1415 42.0971C77.8066 42.0971 77.5319 41.8223 77.5233 41.4961L77.4374 37.7786C77.4374 37.4266 77.7036 37.1518 78.0384 37.1518C78.4162 37.169 78.6652 37.4008 78.6652 37.7528L78.751 41.4703C78.7596 41.8052 78.4935 42.0885 78.1501 42.1057L78.1415 42.0971ZM77.9783 34.6535C77.6349 34.6535 77.3688 34.3873 77.3602 34.0525L77.2829 30.335C77.2743 30.0087 77.5405 29.7254 77.8839 29.7083C78.2445 29.7083 78.5106 29.9744 78.5106 30.3092L78.5879 34.0267C78.5879 34.3787 78.3303 34.6621 77.9869 34.6621H77.9783V34.6535ZM77.8238 27.2271C77.4804 27.2271 77.2142 26.9609 77.2056 26.6261L77.1284 22.9086C77.1284 22.5737 77.3774 22.2818 77.7208 22.2818C78.0985 22.3076 78.3475 22.548 78.3561 22.8828L78.4334 26.6003C78.4334 26.9437 78.1672 27.2185 77.8324 27.2271H77.8238ZM77.6521 19.7921C77.3172 19.7921 77.0339 19.5259 77.0339 19.1911L76.9481 15.4736C76.9309 15.1301 77.2056 14.8468 77.5405 14.8382H77.5577C77.8925 14.8382 78.1672 15.1044 78.1672 15.4392L78.2616 19.1653C78.2788 19.5001 77.9955 19.7835 77.6693 19.8006H77.6521V19.7921ZM4.04037 15.4564C3.97169 15.4564 3.903 15.4564 3.81714 15.4221C3.49948 15.3019 3.33637 14.9584 3.45657 14.6236C3.90301 13.4474 4.72719 12.3914 5.92916 11.4813C6.20389 11.2753 6.59024 11.3268 6.7963 11.6015C7.01093 11.8677 6.95085 12.2626 6.67611 12.4601C5.66303 13.2413 4.96759 14.1085 4.61558 15.0615C4.52973 15.3104 4.28935 15.4564 4.04037 15.4564ZM77.4288 12.3485C77.1026 12.3485 76.8365 12.0823 76.8193 11.7475C76.8193 11.5672 76.8021 11.4212 76.7935 11.2839C76.6905 9.7299 76.2355 9.24053 75.789 8.95721C75.4971 8.77691 75.4199 8.39915 75.583 8.10724C75.7719 7.80675 76.1582 7.72949 76.4415 7.90978C77.4289 8.53652 77.9096 9.54102 78.0212 11.198C78.0212 11.3354 78.0384 11.4985 78.047 11.7046C78.0556 12.048 77.798 12.3313 77.4546 12.3485H77.4288ZM9.56941 10.8288C9.31184 10.8288 9.08863 10.6829 8.9856 10.4425C8.85682 10.1162 9.01992 9.76424 9.33758 9.63546C10.4365 9.20618 11.6728 8.85418 12.9864 8.57086C13.3212 8.50218 13.6561 8.71681 13.7248 9.05165C13.7934 9.38648 13.5788 9.72131 13.244 9.78141C11.9905 10.0476 10.8315 10.391 9.79261 10.7859C9.71534 10.8117 9.62951 10.8203 9.56941 10.8203V10.8288ZM16.7898 9.26628C16.4721 9.26628 16.1974 9.03447 16.1716 8.69964C16.1459 8.36481 16.4034 8.06432 16.7383 8.04715L17.1246 8.01281C17.8629 7.95271 19.0134 7.89261 20.4815 7.8411C20.8335 7.81534 21.1083 8.09866 21.1254 8.44208C21.1426 8.77691 20.8679 9.0774 20.533 9.0774C19.0821 9.1375 17.9488 9.18901 17.2105 9.24053L16.8413 9.27487H16.7898V9.26628ZM24.2248 8.94003C23.89 8.94003 23.6066 8.68247 23.598 8.35622C23.598 8.0128 23.8642 7.7209 24.199 7.7209C25.358 7.68656 26.603 7.65222 27.9165 7.61787C28.2685 7.64363 28.5347 7.87544 28.5518 8.21027C28.5518 8.56227 28.2857 8.84559 27.9423 8.86277C26.6287 8.88852 25.3752 8.92286 24.2248 8.94862H24.2162L24.2248 8.94003ZM31.6426 8.75115C31.3078 8.75115 31.0416 8.48501 31.0331 8.15876C31.0245 7.80675 31.2906 7.52343 31.634 7.52343L35.3601 7.43758H35.3773C35.7121 7.43758 35.9869 7.70373 35.9869 8.03856C35.9954 8.37339 35.7207 8.65671 35.3859 8.67389L31.6598 8.75115H31.6512H31.6426ZM39.069 8.59662C38.7342 8.59662 38.4595 8.33047 38.4509 7.99563C38.4509 7.66939 38.717 7.37748 39.0605 7.3689L42.7865 7.3088C43.0699 7.3088 43.4047 7.57495 43.4133 7.90978C43.4133 8.26178 43.1471 8.53652 42.8037 8.53652L39.0862 8.6052H39.0776L39.069 8.59662ZM46.504 8.47642C46.1692 8.47642 45.8859 8.21027 45.8859 7.86685C45.8773 7.53202 46.152 7.2487 46.4869 7.23153L50.213 7.18002C50.5564 7.15426 50.8311 7.44616 50.8311 7.79817C50.8311 8.15017 50.565 8.41632 50.2216 8.41632L46.504 8.47642ZM72.5008 8.37339H72.4836C71.8483 8.34764 71.1271 8.34764 70.3373 8.33905L68.7747 8.32188C68.4399 8.32188 68.1651 8.03856 68.1737 7.68656C68.1737 7.35172 68.4656 7.11133 68.7919 7.08558L70.3287 7.10275C71.1357 7.10275 71.8569 7.11133 72.518 7.1285C72.8528 7.1285 73.1104 7.42041 73.1104 7.76383C73.1104 8.09007 72.8185 8.36481 72.4922 8.36481L72.5008 8.37339ZM53.939 8.37339C53.5956 8.37339 53.3209 8.09007 53.3123 7.75524C53.3123 7.42041 53.587 7.13709 53.9305 7.13709L57.6394 7.09416C57.9828 7.09416 58.2489 7.37748 58.2575 7.70373C58.2575 8.04715 57.9828 8.33047 57.648 8.33047L53.9305 8.37339H53.939ZM61.3655 8.28754C61.022 8.28754 60.7559 8.02139 60.7473 7.67797C60.7473 7.33455 61.0135 7.05982 61.3655 7.05982C62.679 7.04265 63.8552 7.04265 64.8769 7.04265H65.083C65.4264 7.04265 65.7011 7.31738 65.7011 7.6608C65.7011 8.00422 65.4264 8.27895 65.083 8.27895H64.8769C63.8638 8.27895 62.6876 8.27895 61.3655 8.27895V8.28754Z" fill="#21130A"/>
<g style="mix-blend-mode:multiply" opacity="0.4">
<path d="M82.7259 43.6683C83.035 33.8809 81.4037 12.0996 81.1719 8.16745C80.9401 4.21814 80.8628 3.52271 76.0722 3.43686C71.2815 3.36818 21.0394 4.5959 13.613 4.5959C6.18654 4.5959 3.87705 10.4769 3.87705 10.4769C3.2589 15.0015 4.70984 39.0236 4.81286 45.5142C4.91589 52.0134 5.26789 68.7636 5.43102 72.0003C5.58555 75.2456 9.60354 78.1132 14.0079 78.4995C18.4122 78.8859 33.6514 78.6541 39.9789 78.7571C46.315 78.8601 65.0484 78.9116 69.9937 78.7571C74.9303 78.594 77.1539 78.448 77.6175 77.2031C78.0811 75.9754 77.4029 74.7906 77.4029 74.7906C77.4716 77.2031 75.5227 77.2718 72.8955 77.5723C70.2598 77.8985 60.1461 77.5723 47.2422 77.5723C34.3383 77.5723 24.07 77.5895 16.2401 77.5723C8.40158 77.5465 7.2769 71.4938 12.0161 69.9484C16.7552 68.4116 30.3031 68.3 46.5468 68.3343C62.7733 68.3687 78.5448 67.6046 78.5448 67.6046C80.1588 67.5187 82.0906 67.0723 82.7516 65.9733C83.4213 64.9002 82.4082 53.4557 82.7259 43.6683ZM77.4115 52.6745C76.3898 59.4827 72.8269 63.0285 53.046 63.0285C44.5979 63.0285 33.909 63.6037 26.2508 63.6381C15.931 63.7068 9.24297 60.5473 8.89955 55.1814C8.39301 47.2656 7.10518 30.6184 7.31123 17.4827C7.46577 7.20588 9.34599 5.72918 19.4425 5.72918C29.539 5.72918 57.6821 5.21405 66.7999 5.05093C75.9176 4.89639 76.3812 5.36 76.5358 13.5591C76.6903 21.7582 78.4417 45.8576 77.4115 52.6659V52.6745Z" fill="#442C1B"/>
</g>
<g style="mix-blend-mode:multiply" opacity="0.5">
<path d="M78.5449 67.5959C78.5449 67.5959 62.7734 68.36 46.5469 68.3257C30.3032 68.2827 16.7553 68.3943 12.0162 69.9397C9.9814 70.6008 9.03698 72.1033 9.23445 73.5885C9.58645 77.0657 29.333 75.5546 35.9524 75.4344C42.6061 75.3228 64.2415 76.3187 69.8478 76.0869C75.4455 75.8551 77.403 74.7733 77.403 74.7733C77.403 74.7733 78.5449 74.0092 78.6221 72.6098C78.6908 71.219 78.5449 67.5873 78.5449 67.5873V67.5959ZM55.201 74.1638C35.7292 73.8547 17.7856 73.8375 14.9094 73.5885C12.0247 73.3396 10.0672 69.1155 37.3776 69.5276C47.1736 69.6736 60.5583 69.5276 67.4696 69.5276C74.3809 69.5276 76.2354 68.6004 76.1237 70.1458C76.0207 71.6912 74.6814 74.4728 55.201 74.1552V74.1638Z" fill="#442C1B"/>
</g>
<g style="mix-blend-mode:screen" opacity="0.5">
<path d="M9.14024 27.2614C8.21301 9.25774 10.2134 8.43353 36.0299 8.04719C61.6833 7.66084 72.5181 11.1809 53.8189 12.4086C35.1112 13.6535 17.6484 10.7001 16.7126 31.6915C15.7768 52.6572 10.5225 54.1425 9.13165 27.2529L9.14024 27.2614Z" fill="#442C1B"/>
</g>
</svg>
