<svg width="103" height="94" viewBox="0 0 103 94" fill="none" xmlns="http://www.w3.org/2000/svg">
<g style="mix-blend-mode:multiply">
<path d="M94.6745 31.9238C93.9764 30.5972 93.5261 29.1737 93.0427 27.6728C92.8327 27.0075 92.6103 26.324 92.3615 25.6119C90.7841 21.1093 87.2214 17.4367 83.2924 16.2576C82.1804 15.9249 79.6207 15.3164 77.3965 16.0229C77.2489 15.9638 77.0907 15.9187 76.9249 15.8722C75.7492 15.5832 74.6574 15.6983 73.5915 16.2306L73.5475 16.2542C72.726 16.6652 71.7998 17.1281 70.9236 17.8779C69.5644 18.7524 67.6372 19.4821 65.3398 19.9847C62.7359 20.5574 60.0715 20.6432 57.4414 20.2437C54.7332 19.8377 52.0895 18.6982 50.0908 17.7574C48.8805 17.1845 47.8471 16.4699 47.1834 15.7285C46.5509 15.0326 46.0559 14.1084 45.6588 13.2974C45.0712 12.1023 44.2635 11.2392 43.2727 10.7228C42.3112 10.2197 41.1455 10.0912 40.0713 10.3682C39.663 10.475 39.3319 10.6358 39.0846 10.7724C38.6027 10.5484 38.1651 10.4278 37.855 10.3466L37.7553 10.3281C36.4885 9.97476 35.2144 9.961 34.1368 9.99946C33.7211 10.0177 33.2656 10.0365 32.7124 10.0689C28.0919 10.3557 23.9142 12.4055 21.2191 14.0715C17.7161 16.2462 15.3075 18.8058 13.8535 21.9069C13.0418 23.636 12.8788 25.3741 12.7387 26.9024C12.7191 27.1367 12.6918 27.3695 12.6709 27.6115C12.573 28.5687 12.5675 29.4558 12.5599 30.3108C12.5537 30.944 12.5518 31.5543 12.5081 32.133C11.9997 33.038 11.8569 33.8522 11.8882 34.5399C11.629 37.5687 14.7443 39.5884 16.3096 40.5997C16.4579 40.6985 16.5936 40.7791 16.691 40.8526C18.9387 42.4184 21.5879 43.4003 24.3557 43.6984C24.4324 43.7126 24.5091 43.7268 24.5857 43.741C24.1798 44.8633 23.7668 46.0239 23.4421 47.4783C23.1264 48.2843 22.6597 49.2208 22.1973 50.1344C21.8435 50.846 21.4702 51.5778 21.1667 52.275C20.7432 53.2354 20.2441 54.2611 19.7674 55.2513C19.5372 55.7241 19.307 56.197 19.0872 56.6559C17.8756 58.9612 16.9884 60.7556 16.3057 62.3024L16.0317 62.9258C14.6529 66.0486 12.9285 69.9243 12.8279 73.7675C12.7889 75.3065 13.461 77.3737 15.0075 78.3577C15.4852 78.8188 16.0657 79.1958 16.7413 79.4874C18.02 80.0333 19.3455 80.1121 20.4138 80.167C20.8929 80.1923 21.3475 80.2209 21.6527 80.2853C24.7815 80.904 27.9343 81.1782 30.977 81.4479C31.585 81.5049 32.1867 81.5528 32.7946 81.6098C33.3873 81.664 33.9966 81.7133 34.6046 81.7703C37.4556 82.0045 40.4077 82.2495 42.8907 83.058C44.0124 83.4241 45.1151 83.8502 46.2916 84.3058C48.5707 85.1876 50.9252 86.0911 53.532 86.5736C53.6087 86.5878 53.6929 86.6034 53.7773 86.619C55.4055 86.9044 57.1537 87.0139 58.6919 87.1003L59.1862 87.1283C63.7325 87.4146 67.91 86.7366 71.6107 85.1218C72.8021 84.597 74.0954 83.8213 75.0583 83.0321C75.14 82.9758 75.3573 82.8733 75.5228 82.7929C76.2883 82.4271 77.5672 81.8153 78.3945 80.43C79.6803 78.2812 79.4929 75.7803 79.2647 74.4852C78.9831 72.8789 78.3079 70.9143 77.8083 69.4579C76.8566 63.3741 76.6682 57.4079 77.2315 51.7076C77.2428 51.6463 77.2465 51.5835 77.2488 51.5284C77.8514 51.9571 78.4716 52.3336 79.1276 52.6453C79.3727 53.6343 79.9448 54.4855 80.7743 55.0593C82.9246 56.5516 85.7464 55.6147 87.4359 55.0551C87.5546 55.0137 87.6642 54.9785 87.7571 54.9481C89.0939 54.5373 92.4738 53.3707 95.0147 51.5096C95.3824 51.2367 95.6925 50.8896 95.9315 50.4977C96.3301 49.9292 96.7948 48.9605 96.6803 47.6944C96.9394 47.108 97.0583 46.5511 97.1489 46.1476C97.1645 46.0633 97.1801 45.9789 97.2034 45.896C97.7929 43.3962 97.7928 40.7398 97.1997 38.4176C96.6616 36.3118 95.7436 33.9454 94.6836 31.9175L94.6745 31.9238Z" fill="white"/>
<path d="M94.431 31.5693C93.7161 30.2476 93.2826 28.8193 92.7991 27.3184C92.5892 26.6531 92.3668 25.9696 92.1179 25.2574C90.5406 20.7549 86.9779 17.0823 83.0489 15.9032C81.9368 15.5705 79.3771 14.962 77.153 15.6684C77.0053 15.6094 76.8486 15.5566 76.6813 15.5177C75.5057 15.2288 74.4139 15.3439 73.3479 15.8762L73.3039 15.8997C72.4825 16.3107 71.5562 16.7737 70.68 17.5235C69.3208 18.3979 67.3936 19.1276 65.0962 19.6302C62.4923 20.203 59.828 20.2888 57.1979 19.8893C54.4897 19.4833 51.8459 18.3437 49.8473 17.4029C48.637 16.83 47.6036 16.1154 46.9384 15.3818C46.306 14.6858 45.8109 13.7616 45.4139 12.9507C44.8262 11.7556 44.0199 10.8847 43.0277 10.376C42.0662 9.87294 40.9005 9.74445 39.8263 10.0214C39.418 10.1282 39.0869 10.289 38.8396 10.4256C38.3577 10.2016 37.9201 10.081 37.61 9.99982L37.5103 9.98138C36.2436 9.62799 34.9694 9.61423 33.8918 9.65269C33.4684 9.6695 33.0206 9.68971 32.4598 9.72073C27.8392 10.0075 23.6615 12.0573 20.9664 13.7233C17.4634 15.898 15.0549 18.4577 13.6008 21.5587C12.7892 23.2878 12.6261 25.0259 12.486 26.5542C12.4665 26.7885 12.4378 27.029 12.4182 27.2633C12.3204 28.2205 12.3148 29.1076 12.3072 29.9626C12.3011 30.5959 12.2991 31.2061 12.2555 31.7848C11.747 32.6898 11.6043 33.504 11.6356 34.1917C11.3764 37.2205 14.4917 39.2402 16.057 40.2515C16.2052 40.3503 16.341 40.4309 16.4384 40.5044C18.6861 42.0702 21.3353 43.0521 24.1031 43.3502C24.1798 43.3644 24.2564 43.3786 24.3331 43.3928C23.9272 44.5151 23.5141 45.6757 23.1894 47.1301C22.8738 47.9361 22.4071 48.8726 21.9446 49.7862C21.5923 50.4902 21.219 51.222 20.9141 51.9268C20.4905 52.8872 19.9914 53.9129 19.5148 54.9031C19.2845 55.376 19.0543 55.8488 18.8346 56.3077C17.6229 58.613 16.7358 60.4075 16.053 61.9543L15.7791 62.5776C14.4016 65.6928 12.6836 69.5776 12.5767 73.4116C12.5362 74.9583 13.2098 77.0178 14.7563 78.0019C15.234 78.4629 15.813 78.8477 16.49 79.1315C17.7688 79.6774 19.0943 79.7562 20.1702 79.8126C20.6479 79.8455 21.1039 79.8664 21.4092 79.9309C24.5379 80.5495 27.6908 80.8238 30.7334 81.0935C31.3414 81.1505 31.9431 81.1984 32.5511 81.2554C33.1437 81.3096 33.7531 81.3589 34.3625 81.4082C37.2134 81.6424 40.1579 81.886 42.6486 82.6959C43.7703 83.062 44.8729 83.4881 46.0418 83.9423C48.3209 84.824 50.6753 85.7276 53.2822 86.2101C53.3665 86.2257 53.4432 86.2399 53.5275 86.2555C55.1558 86.5409 56.9038 86.6503 58.4406 86.7444L58.935 86.7725C63.4813 87.0587 67.6588 86.3807 71.3595 84.766C72.5509 84.2411 73.8442 83.4654 74.8071 82.6762C74.8874 82.6276 75.106 82.5174 75.2716 82.437C76.0371 82.0712 77.316 81.4594 78.1433 80.0742C79.4291 77.9253 79.2417 75.4245 79.0058 74.1279C78.7242 72.5216 78.0567 70.5584 77.5494 69.1006C76.5977 63.0169 76.4093 57.0506 76.9726 51.3503C76.9839 51.289 76.9862 51.2339 76.9898 51.1711C77.5848 51.5984 78.2141 51.9686 78.8686 52.288C79.1138 53.277 79.6858 54.1283 80.5153 54.7021C82.6657 56.1943 85.4876 55.2575 87.1771 54.6979C87.2958 54.6564 87.4054 54.6212 87.4982 54.5908C88.8351 54.18 92.2211 53.0225 94.7558 51.1523C95.1235 50.8794 95.4335 50.5323 95.6726 50.1405C96.0712 49.5719 96.536 48.6033 96.4214 47.3371C96.6806 46.7507 96.7995 46.1939 96.89 45.7903C96.9056 45.706 96.9212 45.6216 96.9445 45.5387C97.534 43.039 97.534 40.3825 96.9408 38.0604C96.4027 35.9546 95.5119 33.5694 94.4247 31.5602L94.431 31.5693Z" fill="#F1F1F1"/>
<path d="M94.1872 31.215C93.4723 29.8932 93.0388 28.4649 92.5553 26.964C92.3454 26.2987 92.123 25.6152 91.8741 24.9031C90.2968 20.4005 86.7341 16.7279 82.8051 15.5488C81.693 15.2161 79.1334 14.6076 76.9078 15.3217C76.7601 15.2627 76.6019 15.2176 76.4361 15.171C75.2604 14.8821 74.1686 14.9972 73.1027 15.5295L73.0587 15.5531C72.2373 15.964 71.311 16.427 70.4348 17.1768C69.0756 18.0512 67.1484 18.7809 64.851 19.2835C62.2471 19.8563 59.5828 19.9421 56.9527 19.5426C54.2445 19.1366 51.6007 17.997 49.6021 17.0562C48.3903 16.491 47.3584 15.7687 46.6856 15.0337C46.0531 14.3377 45.558 13.4135 45.161 12.6026C44.5733 11.4074 43.7671 10.5366 42.7749 10.0279C41.8133 9.52482 40.6476 9.39632 39.5734 9.67331C39.1651 9.78013 38.834 9.94089 38.5867 10.0775C38.1048 9.85352 37.6672 9.73288 37.3571 9.65171L37.2575 9.63326C35.9907 9.27988 34.7165 9.26611 33.6389 9.30457C33.2155 9.32137 32.7677 9.34158 32.2069 9.3726C27.5863 9.65937 23.4087 11.7092 20.7212 13.3767C17.2182 15.5513 14.8097 18.111 13.357 21.2043C12.5454 22.9334 12.3823 24.6716 12.2408 26.2075C12.2212 26.4418 12.194 26.6746 12.173 26.9166C12.0752 27.8738 12.0696 28.7609 12.062 29.6159C12.0559 30.2492 12.0539 30.8594 12.0103 31.4381C11.5018 32.3431 11.3591 33.1573 11.3904 33.845C11.1312 36.8738 14.2465 38.8935 15.8118 39.9048C15.96 40.0036 16.0958 40.0842 16.1932 40.1577C18.4409 41.7235 21.0901 42.7054 23.8579 43.0036C23.9345 43.0177 24.0112 43.0319 24.0879 43.0461C23.6819 44.1684 23.2689 45.329 22.9443 46.7834C22.6286 47.5894 22.1619 48.5259 21.6994 49.4395C21.3471 50.1435 20.9738 50.8753 20.6689 51.5801C20.2453 52.5405 19.7462 53.5662 19.2696 54.5564C19.0393 55.0293 18.8091 55.5021 18.5894 55.961C17.3763 58.274 16.4905 60.0608 15.8078 61.6076L15.5338 62.2309C14.155 65.3538 12.4384 69.2309 12.3301 73.0726C12.2896 74.6193 12.9631 76.6788 14.5097 77.6628C14.9874 78.1239 15.5678 78.501 16.2434 78.7925C17.5221 79.3384 18.8477 79.4172 19.9236 79.4736C20.4012 79.5065 20.8573 79.5274 21.1626 79.5918C24.2913 80.2105 27.4441 80.4847 30.4868 80.7544C31.0948 80.8114 31.7041 80.8608 32.3044 80.9164C32.8971 80.9705 33.5065 81.0199 34.1158 81.0692C36.9668 81.3034 39.9189 81.5484 42.402 82.3568C43.5236 82.723 44.634 83.1505 45.8028 83.6047C48.082 84.4864 50.4364 85.39 53.0432 85.8724L53.2885 85.9179C54.9168 86.2033 56.6663 86.3051 58.2031 86.3992L58.6975 86.4272C63.2437 86.7135 67.4213 86.0354 71.1219 84.4207C72.3134 83.8958 73.6067 83.1202 74.5695 82.3309C74.6499 82.2824 74.8685 82.1721 75.034 82.0918C75.7995 81.7259 77.0785 81.1141 77.8981 79.7275C79.1853 77.5709 78.9888 75.0764 78.7606 73.7813C78.479 72.1749 77.8115 70.2117 77.3041 68.7539C76.3524 62.6702 76.1641 56.7039 76.7273 51.0036C76.7387 50.9423 76.741 50.8872 76.7447 50.8244C77.3473 51.2532 77.9675 51.6296 78.6235 51.9413C78.8687 52.9303 79.4406 53.7816 80.2701 54.3554C82.4204 55.8476 85.2424 54.9108 86.9318 54.3512C87.0505 54.3097 87.1602 54.2745 87.253 54.2441C88.5898 53.8333 91.9682 52.6744 94.5106 50.8056C94.8783 50.5327 95.1884 50.1856 95.4274 49.7938C95.8184 49.2238 96.2907 48.2566 96.1762 46.9904C96.4353 46.404 96.5542 45.8471 96.6448 45.4436C96.6604 45.3593 96.676 45.2749 96.6993 45.192C97.2888 42.6923 97.2888 40.0358 96.6956 37.7137C96.1575 35.6079 95.2667 33.2227 94.1795 31.2135L94.1872 31.215Z" fill="#E2E2E2"/>
<path d="M93.9421 30.8683C93.2258 29.5542 92.7938 28.1182 92.3103 26.6173C92.1004 25.952 91.8779 25.2685 91.6291 24.5564C90.0517 20.0538 86.489 16.3812 82.56 15.2021C81.448 14.8694 78.8883 14.2609 76.6641 14.9674C76.5165 14.9083 76.3583 14.8632 76.1925 14.8167C75.0168 14.5277 73.925 14.6428 72.8605 15.1674L72.8165 15.191C71.9951 15.602 71.0689 16.065 70.1926 16.8147C68.8334 17.6892 66.9063 18.4189 64.6088 18.9215C62.005 19.4943 59.3482 19.5815 56.7105 19.1806C54.0023 18.7745 51.3585 17.635 49.3599 16.6942C48.1496 16.1213 47.1162 15.4067 46.4525 14.6654C45.82 13.9695 45.325 13.0452 44.9279 12.2343C44.3402 11.0392 43.534 10.1684 42.5418 9.65962C41.5802 9.15655 40.4145 9.02805 39.3404 9.30503C38.932 9.41185 38.601 9.57261 38.3536 9.70923C37.8717 9.48524 37.4341 9.36461 37.124 9.28343L37.0244 9.26499C35.7576 8.9116 34.4834 8.89783 33.4058 8.93629C32.9824 8.95309 32.5346 8.97332 31.9738 9.00433C27.3532 9.29111 23.1756 11.3409 20.4881 13.0084C16.9851 15.1831 14.5766 17.7427 13.1225 20.8437C12.3109 22.5728 12.1478 24.311 12.0077 25.8393C11.9881 26.0735 11.9609 26.3064 11.9399 26.5483C11.8421 27.5055 11.8365 28.3926 11.8289 29.2477C11.8228 29.8809 11.8209 30.4911 11.7772 31.0698C11.2687 31.9749 11.126 32.789 11.1573 33.4767C10.8981 36.5055 14.0134 38.5252 15.5787 39.5365C15.7269 39.6353 15.8627 39.7159 15.9601 39.7895C18.2078 41.3552 20.857 42.3372 23.6248 42.6353C23.7014 42.6495 23.7781 42.6637 23.8548 42.6779C23.4489 43.8001 23.0358 44.9607 22.7112 46.4152C22.3955 47.2211 21.9288 48.1576 21.4663 49.0712C21.1126 49.7828 20.7407 50.507 20.4358 51.2118C20.0136 52.1646 19.5146 53.1903 19.0365 54.1882C18.8062 54.661 18.576 55.1338 18.3563 55.5927C17.1432 57.9057 16.2574 59.6925 15.5747 61.2393L15.3008 61.8626C13.9219 64.9855 12.2053 68.8626 12.0984 72.6967C12.058 74.2434 12.7315 76.3029 14.278 77.2869C14.7557 77.748 15.3362 78.125 16.0117 78.4166C17.2905 78.9625 18.616 79.0413 19.6919 79.0976C20.171 79.1229 20.6256 79.1515 20.9309 79.2159C24.0596 79.8346 27.2125 80.1088 30.2551 80.3785C30.8631 80.4355 31.4725 80.4848 32.0728 80.5404C32.6731 80.596 33.2748 80.6439 33.8842 80.6933C36.7352 80.9275 39.6796 81.171 42.1689 81.9886C43.2905 82.3547 44.3932 82.7808 45.5635 83.2274C47.8426 84.1091 50.197 85.0126 52.8038 85.4951C52.8805 85.5093 52.9648 85.5249 53.0492 85.5405C54.6774 85.8259 56.4255 85.9353 57.9637 86.0218L58.4581 86.0498C63.0044 86.3361 67.1819 85.6581 70.8826 84.0434C72.074 83.5185 73.3673 82.7428 74.3302 81.9536C74.4105 81.905 74.6292 81.7948 74.7947 81.7144C75.5602 81.3486 76.8391 80.7368 77.6664 79.3515C78.9522 77.2027 78.7571 74.7004 78.5289 73.4053C78.2473 71.799 77.5798 69.8358 77.0725 68.378C76.1208 62.2942 75.9324 56.328 76.4957 50.6277C76.507 50.5663 76.5107 50.5036 76.513 50.4485C77.1156 50.8772 77.7358 51.2537 78.3918 51.5654C78.637 52.5544 79.2089 53.4056 80.0385 53.9794C82.1888 55.4716 85.0107 54.5348 86.7002 53.9752C86.8189 53.9338 86.9285 53.8985 87.0199 53.8758C88.3567 53.4651 91.7428 52.3075 94.2775 50.4373C94.6452 50.1644 94.9553 49.8174 95.1943 49.4255C95.5929 48.8569 96.0576 47.8883 95.9431 46.6221C96.2023 46.0357 96.3212 45.4789 96.4117 45.0754C96.4273 44.991 96.4429 44.9067 96.4662 44.8237C97.0557 42.324 97.0542 39.6752 96.4625 37.3454C95.9244 35.2396 95.0336 32.8544 93.9464 30.8453L93.9421 30.8683Z" fill="#D4D4D4"/>
<path d="M93.6985 30.5142C92.9821 29.2001 92.5501 27.7642 92.0666 26.2632C91.8567 25.5979 91.6343 24.9145 91.3855 24.2023C89.8081 19.6997 86.2454 16.0271 82.3164 14.848C81.2044 14.5154 78.6446 13.9068 76.4205 14.6133C76.2728 14.5543 76.1147 14.5091 75.9488 14.4626C74.7732 14.1737 73.6813 14.2888 72.6154 14.821L72.5714 14.8446C71.75 15.2556 70.8237 15.7186 69.9475 16.4683C68.5883 17.3428 66.6612 18.0725 64.3637 18.5751C61.7599 19.1479 59.1031 19.2351 56.4654 18.8342C53.7572 18.4281 51.1134 17.2886 49.1148 16.3478C47.9045 15.7749 46.8711 15.0603 46.2074 14.319C45.5749 13.6231 45.0799 12.6988 44.6828 11.8879C44.0951 10.6928 43.2889 9.82196 42.2967 9.31322C41.3351 8.81015 40.1694 8.68165 39.0952 8.95864C38.6869 9.06546 38.3558 9.22621 38.1085 9.36282C37.6266 9.13883 37.189 9.0182 36.8789 8.93703L36.7793 8.91858C35.5125 8.5652 34.2369 8.55911 33.1607 8.5899C32.745 8.60812 32.2895 8.62692 31.7287 8.65793C27.1082 8.9447 22.9305 10.9945 20.2353 12.6606C16.7324 14.8352 14.3238 17.3949 12.8698 20.4959C12.0581 22.225 11.895 23.9631 11.7549 25.4914C11.7354 25.7257 11.7082 25.9586 11.6872 26.2005C11.5907 27.1501 11.5837 28.0448 11.5762 28.8998C11.57 29.5331 11.5681 30.1433 11.5244 30.722C11.016 31.627 10.8732 32.4412 10.9045 33.1289C10.6454 36.1577 13.7606 38.1774 15.3259 39.1887C15.4742 39.2875 15.6099 39.3681 15.7073 39.4417C17.9551 41.0074 20.6042 41.9893 23.372 42.2875C23.4487 42.3016 23.5253 42.3158 23.602 42.33C23.1961 43.4523 22.7831 44.6129 22.4584 46.0674C22.1427 46.8733 21.676 47.8098 21.2135 48.7234C20.8598 49.435 20.4865 50.1668 20.183 50.864C19.7609 51.8167 19.2604 52.8501 18.7837 53.8403C18.5535 54.3131 18.3232 54.786 18.1035 55.2449C16.8828 57.5565 16.0047 59.3447 15.3219 60.8915L15.048 61.5148C13.6691 64.6377 11.9525 68.5148 11.8456 72.3488C11.8052 73.8956 12.4787 75.955 14.0252 76.9391C14.5029 77.4002 15.0834 77.7772 15.759 78.0687C17.0377 78.6146 18.3632 78.6934 19.4315 78.7484C19.9106 78.7736 20.3652 78.8022 20.6704 78.8667C23.7992 79.4853 26.952 79.7595 29.9947 80.0292C30.6027 80.0862 31.2044 80.1342 31.8123 80.1912C32.4126 80.2467 33.0143 80.2947 33.6237 80.344C36.4747 80.5782 39.4192 80.8218 41.9084 81.6393C43.0301 82.0055 44.1328 82.4316 45.3093 82.8872C47.5884 83.7689 49.9429 84.6725 52.5497 85.1549C52.634 85.1705 52.7107 85.1847 52.795 85.2003C54.4233 85.4858 56.1714 85.5952 57.7096 85.6816L58.204 85.7097C62.7502 85.996 66.9277 85.3179 70.6284 83.7032C71.8198 83.1783 73.1132 82.4027 74.076 81.6134C74.1578 81.5572 74.375 81.4546 74.5405 81.3743C75.306 81.0084 76.5849 80.3966 77.4122 79.0114C78.698 76.8625 78.5029 74.3603 78.2824 73.0666C78.0008 71.4602 77.3333 69.497 76.826 68.0392C75.8743 61.9555 75.6859 55.9892 76.2492 50.289C76.2605 50.2276 76.2642 50.1648 76.2665 50.1098C76.8691 50.5385 77.4907 50.9073 78.1453 51.2266C78.3904 52.2156 78.9625 53.0669 79.792 53.6407C81.9423 55.1329 84.7641 54.1961 86.4536 53.6365C86.5723 53.595 86.6819 53.5598 86.7748 53.5294C88.1116 53.1186 91.4901 51.9597 94.0324 50.0909C94.4001 49.818 94.7102 49.471 94.9492 49.0791C95.3478 48.5105 95.8111 47.5496 95.698 46.2757C95.9571 45.6893 96.0775 45.1248 96.1666 44.729C96.1822 44.6446 96.1978 44.5603 96.2211 44.4774C96.8106 41.9776 96.8091 39.3288 96.2174 36.999C95.6793 34.8932 94.7885 32.508 93.7013 30.4989L93.6985 30.5142Z" fill="#C5C5C5"/>
<path d="M93.4622 30.1612C92.7473 28.8395 92.3138 27.4112 91.8303 25.9102C91.6204 25.2449 91.398 24.5615 91.1492 23.8493C89.5718 19.3468 86.0091 15.6742 82.0801 14.4951C80.9681 14.1624 78.4084 13.5539 76.1828 14.268C76.0351 14.209 75.8784 14.1562 75.7111 14.1173C74.5355 13.8283 73.4437 13.9435 72.3778 14.4757L72.3337 14.4993C71.5123 14.9103 70.5861 15.3733 69.7098 16.123C68.3506 16.9975 66.4235 17.7272 64.126 18.2298C61.5222 18.8026 58.8578 18.8883 56.2277 18.4888C53.5195 18.0828 50.8757 16.9433 48.8771 16.0025C47.6668 15.4296 46.6334 14.715 45.9697 13.9737C45.3372 13.2778 44.8422 12.3535 44.4451 11.5426C43.8574 10.3475 43.0512 9.47664 42.059 8.9679C41.0974 8.46483 39.9318 8.33634 38.8576 8.61333C38.4492 8.72014 38.1181 8.8809 37.8708 9.01752C37.3889 8.79353 36.9513 8.6729 36.6412 8.59172L36.5416 8.57328C35.2748 8.21989 33.9992 8.21379 32.9216 8.25225C32.4982 8.26905 32.0504 8.28927 31.4896 8.32029C26.869 8.60706 22.6914 10.6569 19.9962 12.3229C16.4933 14.4976 14.0847 17.0572 12.6307 20.1582C11.819 21.8874 11.6559 23.6255 11.5158 25.1538C11.4963 25.3881 11.469 25.6209 11.4481 25.8628C11.3502 26.8201 11.3446 27.7072 11.337 28.5622C11.3309 29.1954 11.329 29.8056 11.2853 30.3844C10.7768 31.2894 10.6341 32.1035 10.6654 32.7913C10.4062 35.82 13.5215 37.8398 15.0854 38.8587C15.2336 38.9575 15.3694 39.0381 15.4668 39.1117C17.7145 40.6775 20.3637 41.6593 23.1315 41.9575C23.2082 41.9717 23.2848 41.9858 23.3615 42C22.9556 43.1223 22.5425 44.2829 22.2179 45.7374C21.9022 46.5433 21.4355 47.4799 20.973 48.3934C20.6207 49.0974 20.2474 49.8292 19.9439 50.5264C19.5203 51.4868 19.0213 52.5125 18.5446 53.5027C18.3144 53.9755 18.0841 54.4484 17.8644 54.9073C16.6513 57.2203 15.7656 59.007 15.0828 60.5538L14.8089 61.1772C13.4301 64.3 11.7134 68.1771 11.6128 72.0203C11.5738 73.5593 12.2458 75.6265 13.7924 76.6105C14.2701 77.0716 14.8491 77.4563 15.5261 77.7402C16.8048 78.2861 18.1304 78.3649 19.1986 78.4198C19.6777 78.4451 20.1323 78.4737 20.4376 78.5381C23.5663 79.1568 26.7192 79.431 29.7618 79.7007C30.3698 79.7577 30.9715 79.8056 31.5795 79.8626C32.1721 79.9168 32.7815 79.9661 33.3909 80.0155C36.2419 80.2497 39.1862 80.4932 41.677 81.3031C42.7986 81.6693 43.9013 82.0954 45.0716 82.5419C47.3507 83.4236 49.7052 84.3272 52.312 84.8096C52.3963 84.8252 52.473 84.8394 52.5573 84.855C54.1856 85.1405 55.9337 85.2499 57.4719 85.3363L57.9663 85.3644C62.5125 85.6507 66.69 84.9726 70.3907 83.3579C71.5821 82.833 72.8755 82.0573 73.8383 81.2681C73.9201 81.2119 74.1373 81.1093 74.3028 81.029C75.0683 80.6631 76.3472 80.0513 77.1745 78.6661C78.4617 76.5095 78.2729 74.0164 78.0447 72.7213C77.7632 71.1149 77.0956 69.1517 76.5883 67.6939C75.6366 61.6102 75.4482 55.6439 76.0115 49.9436C76.0228 49.8823 76.0265 49.8195 76.0288 49.7644C76.6237 50.1917 77.2516 50.5696 77.9076 50.8813C78.1528 51.8703 78.7248 52.7216 79.5543 53.2954C81.7046 54.7876 84.5265 53.8508 86.216 53.2912C86.3423 53.2511 86.4442 53.2145 86.5371 53.1841C87.8739 52.7733 91.2601 51.6158 93.7947 49.7456C94.1624 49.4727 94.4725 49.1257 94.7115 48.7338C95.1101 48.1652 95.5734 47.2042 95.4603 45.9304C95.7195 45.344 95.8398 44.7795 95.9289 44.3836C95.9445 44.2993 95.9602 44.215 95.9834 44.1321C96.5729 41.6323 96.5729 38.9758 95.9797 36.6537C95.4417 34.5479 94.5509 32.1627 93.4636 30.1536L93.4622 30.1612Z" fill="#B7B7B7"/>
<path d="M93.2189 29.8067C92.5026 28.4926 92.0705 27.0567 91.587 25.5557C91.3771 24.8904 91.1547 24.207 90.9058 23.4948C89.3285 18.9922 85.7658 15.3196 81.8368 14.1405C80.7247 13.8079 78.1651 13.1993 75.9409 13.9058C75.7932 13.8468 75.635 13.8016 75.4692 13.7551C74.2936 13.4662 73.2018 13.5813 72.1358 14.1135L72.0918 14.1371C71.2704 14.5481 70.3441 15.0111 69.4679 15.7608C68.1087 16.6353 66.1816 17.365 63.8841 17.8676C61.2802 18.4404 58.6159 18.5262 55.9858 18.1267C53.2776 17.7206 50.6338 16.5811 48.6352 15.6403C47.4249 15.0674 46.3915 14.3528 45.7263 13.6191C45.0939 12.9232 44.5988 11.999 44.2018 11.188C43.6141 9.99293 42.8078 9.12211 41.8156 8.61337C40.8541 8.11031 39.6884 7.98181 38.6142 8.2588C38.2059 8.36562 37.8748 8.52638 37.6275 8.66299C37.1456 8.43901 36.7066 8.32604 36.3979 8.2372L36.2982 8.21875C35.0315 7.86537 33.7559 7.85926 32.6783 7.89772C32.2549 7.91452 31.8071 7.93475 31.2463 7.96577C26.6257 8.25254 22.4481 10.3024 19.7529 11.9684C16.2499 14.1431 13.8414 16.7027 12.3887 19.796C11.5771 21.5252 11.414 23.2633 11.2739 24.7916C11.2544 25.0259 11.2257 25.2664 11.2061 25.5007C11.1083 26.4579 11.1027 27.345 11.0951 28.2C11.089 28.8332 11.087 29.4435 11.0434 30.0222C10.5349 30.9272 10.3922 31.7413 10.4235 32.4291C10.1643 35.4578 13.2796 37.4776 14.8435 38.4965C14.9917 38.5953 15.1275 38.6759 15.2249 38.7495C17.4726 40.3153 20.1218 41.2972 22.8896 41.5953C22.9662 41.6095 23.0429 41.6237 23.1196 41.6378C22.7136 42.7601 22.3006 43.9207 21.9759 45.3752C21.6603 46.1811 21.1936 47.1176 20.7311 48.0312C20.3788 48.7352 20.0054 49.467 19.7006 50.1718C19.277 51.1322 18.7779 52.158 18.3013 53.1482C18.071 53.621 17.8408 54.0938 17.6211 54.5527C16.408 56.8657 15.5222 58.6525 14.8395 60.1993L14.5655 60.8226C13.1867 63.9455 11.4624 67.8212 11.3632 71.6566C11.3227 73.2034 11.9962 75.2629 13.5428 76.2469C14.0205 76.708 14.601 77.085 15.2765 77.3766C16.5553 77.9225 17.8808 78.0012 18.9567 78.0576C19.4343 78.0905 19.8904 78.1115 20.1956 78.1759C23.3244 78.7946 26.4772 79.0688 29.5199 79.3385C30.1279 79.3955 30.7296 79.4434 31.3376 79.5004C31.9302 79.5546 32.5396 79.6039 33.1489 79.6533C35.9999 79.8875 38.9444 80.1311 41.4337 80.9486C42.5553 81.3148 43.658 81.7408 44.8345 82.1965C47.1136 83.0782 49.4681 83.9817 52.0749 84.4642C52.1592 84.4798 52.2359 84.494 52.3202 84.5096C53.9485 84.795 55.698 84.8968 57.2334 84.9985L57.7278 85.0266C62.274 85.3129 66.4515 84.6349 70.1522 83.0201C71.3436 82.4952 72.637 81.7196 73.5998 80.9303C73.6802 80.8818 73.8988 80.7716 74.0643 80.6912C74.8298 80.3253 76.1087 79.7136 76.9283 78.3269C78.2079 76.1689 78.0191 73.6758 77.7986 72.3821C77.517 70.7757 76.8494 68.8125 76.3421 67.3547C75.3904 61.271 75.202 55.3047 75.7653 49.6044C75.7766 49.5431 75.7803 49.4803 75.7826 49.4253C76.3852 49.854 77.0054 50.2304 77.6614 50.5421C77.9066 51.5311 78.4786 52.3824 79.3081 52.9562C81.4584 54.4484 84.2803 53.5116 85.9698 52.952C86.0885 52.9105 86.1981 52.8753 86.291 52.8449C87.6278 52.4341 91.0062 51.2752 93.5486 49.4064C93.9163 49.1335 94.2263 48.7865 94.4653 48.3946C94.864 47.826 95.3287 46.8574 95.2141 45.5912C95.4733 45.0048 95.5922 44.448 95.6827 44.0444C95.6984 43.9601 95.714 43.8758 95.7372 43.7929C96.3267 41.2931 96.3267 38.6366 95.7335 36.3145C95.1955 34.2087 94.3047 31.8235 93.2174 29.8144L93.2189 29.8067Z" fill="#A8A8A8"/>
<path d="M92.9748 29.4523C92.26 28.1305 91.8265 26.7023 91.343 25.2013C91.1331 24.536 90.9106 23.8526 90.6618 23.1404C89.0845 18.6378 85.5218 14.9652 81.5927 13.7861C80.4807 13.4535 77.921 12.8449 75.6954 13.5591C75.5478 13.5 75.391 13.4472 75.2238 13.4083C74.0481 13.1194 72.9563 13.2345 71.8918 13.7591L71.8478 13.7827C71.0264 14.1937 70.1002 14.6567 69.2239 15.4064C67.8647 16.2809 65.9376 17.0106 63.6401 17.5132C61.0363 18.086 58.3719 18.1718 55.7418 17.7723C53.0336 17.3662 50.3898 16.2267 48.3912 15.2859C47.1809 14.713 46.1475 13.9984 45.4824 13.2647C44.8499 12.5688 44.3548 11.6446 43.9578 10.8336C43.3701 9.63853 42.5638 8.76772 41.5716 8.25898C40.6101 7.75591 39.4444 7.62742 38.3702 7.9044C37.9619 8.01122 37.6308 8.17198 37.3835 8.30859C36.9016 8.08461 36.464 7.96398 36.1539 7.8828L36.0542 7.86435C34.7874 7.51097 33.5133 7.4972 32.4357 7.53566C32.02 7.55388 31.5645 7.57268 31.0114 7.60511C26.3908 7.89189 22.2131 9.94171 19.518 11.6077C16.015 13.7824 13.6065 16.342 12.1524 19.4431C11.3407 21.1722 11.1777 22.9103 11.0376 24.4386C11.018 24.6729 10.9894 24.9134 10.9698 25.1477C10.872 26.1049 10.8664 26.992 10.8588 27.847C10.8526 28.4802 10.8507 29.0905 10.807 29.6692C10.2986 30.5742 10.1558 31.3884 10.1871 32.0761C9.92796 35.1049 13.0433 37.1246 14.6086 38.1359C14.7568 38.2347 14.8925 38.3153 14.9899 38.3888C17.2377 39.9546 19.8869 40.9365 22.6547 41.2346C22.7313 41.2488 22.808 41.263 22.8847 41.2772C22.4787 42.3995 22.0657 43.5601 21.741 45.0145C21.4253 45.8205 20.9586 46.757 20.4962 47.6706C20.1424 48.3822 19.7705 49.1063 19.4656 49.8112C19.0421 50.7716 18.543 51.7973 18.0664 52.7875C17.8361 53.2604 17.6059 53.7332 17.3862 54.1921C16.1731 56.5051 15.2873 58.2918 14.6046 59.8387L14.3306 60.462C12.9532 63.5772 11.2351 67.462 11.1282 71.296C11.0878 72.8427 11.7613 74.9022 13.3156 75.8877C13.7932 76.3488 14.3737 76.7258 15.0493 77.0173C16.328 77.5632 17.6535 77.642 18.7295 77.6984C19.2085 77.7236 19.6631 77.7523 19.9684 77.8167C23.0971 78.4354 26.25 78.7096 29.2927 78.9793C29.9006 79.0363 30.5023 79.0842 31.1103 79.1412C31.7029 79.1954 32.3123 79.2447 32.9217 79.294C35.7727 79.5283 38.7171 79.7718 41.2078 80.5817C42.3295 80.9479 43.4321 81.374 44.6086 81.8296C46.8878 82.7113 49.2423 83.6148 51.8491 84.0973C51.9257 84.1115 52.0101 84.1271 52.0944 84.1427C53.7227 84.4282 55.4707 84.5376 57.0075 84.6317L57.5019 84.6597C62.0482 84.946 66.2257 84.268 69.9187 82.6518C71.1101 82.1269 72.4035 81.3513 73.3663 80.562C73.4466 80.5135 73.6653 80.4032 73.8308 80.3229C74.5963 79.957 75.8752 79.3452 76.7025 77.96C77.9883 75.8111 77.7932 73.3089 77.5651 72.0138C77.2835 70.4074 76.6159 68.4442 76.1086 66.9864C75.1569 60.9027 74.9685 54.9364 75.5318 49.2361C75.5431 49.1748 75.5454 49.1197 75.5491 49.0569C76.144 49.4842 76.781 49.8559 77.4356 50.1752C77.6807 51.1642 78.2527 52.0155 79.0823 52.5893C81.2326 54.0815 84.0545 53.1447 85.744 52.5851C85.8703 52.545 85.9722 52.5084 86.0651 52.478C87.4019 52.0672 90.788 50.9097 93.3227 49.0395C93.6904 48.7666 94.0005 48.4196 94.2395 48.0277C94.6381 47.4592 95.1029 46.4905 94.9883 45.2243C95.2475 44.6379 95.3664 44.0811 95.4569 43.6776C95.4725 43.5932 95.4881 43.5089 95.5114 43.426C96.1009 40.9262 96.0995 38.2774 95.5077 35.9476C94.9696 33.8418 94.0789 31.4566 92.9916 29.4475L92.9748 29.4523Z" fill="#9A9A9A"/>
<path d="M92.7313 29.0978C92.0164 27.7761 91.5829 26.3478 91.0994 24.8469C90.8895 24.1816 90.6671 23.4981 90.4183 22.786C88.8409 18.2834 85.2782 14.6108 81.3492 13.4317C80.2371 13.099 77.6775 12.4905 75.4519 13.2046C75.3042 13.1456 75.146 13.1004 74.9802 13.0539C73.8046 12.765 72.7128 12.8801 71.6468 13.4124L71.6028 13.4359C70.7814 13.8469 69.8552 14.3099 68.9804 15.052C67.6212 15.9264 65.694 16.6562 63.3965 17.1588C60.7927 17.7315 58.1283 17.8173 55.4982 17.4178C52.79 17.0118 50.1463 15.8723 48.1476 14.9315C46.9373 14.3586 45.9039 13.644 45.2388 12.9103C44.6063 12.2144 44.1113 11.2901 43.7142 10.4792C43.1266 9.28408 42.3203 8.41327 41.3281 7.90453C40.3665 7.40146 39.2008 7.27297 38.1267 7.54995C37.7183 7.65677 37.3873 7.81752 37.1399 7.95414C36.658 7.73015 36.2204 7.60952 35.9104 7.52834L35.8107 7.5099C34.5439 7.15651 33.2697 7.14275 32.1921 7.18121C31.7764 7.19944 31.321 7.21823 30.7601 7.24925C26.1396 7.53602 21.9619 9.58584 19.2667 11.2519C15.7638 13.4266 13.3552 15.9862 11.9012 19.0872C11.0895 20.8163 10.9265 22.5545 10.7864 24.0828C10.7668 24.317 10.7395 24.5499 10.7186 24.7918C10.6207 25.749 10.6152 26.6361 10.6076 27.4911C10.6014 28.1244 10.5995 28.7346 10.5558 29.3133C10.0474 30.2184 9.90462 31.0325 9.93593 31.7202C9.67675 34.749 12.792 36.7687 14.3573 37.78C14.5056 37.8788 14.6413 37.9594 14.7387 38.033C16.9864 39.5987 19.6356 40.5807 22.4034 40.8788C22.4801 40.893 22.5568 40.9072 22.6334 40.9214C22.2275 42.0436 21.8145 43.2042 21.4898 44.6587C21.1741 45.4646 20.7074 46.4012 20.2449 47.3147C19.8912 48.0264 19.5193 48.7505 19.2144 49.4553C18.7909 50.4157 18.2918 51.4414 17.8151 52.4317C17.5849 52.9045 17.3546 53.3773 17.1349 53.8362C15.9218 56.1492 15.0361 57.936 14.3533 59.4828L14.0794 60.1061C12.702 63.2213 10.9839 67.1061 10.877 70.9401C10.8366 72.4869 11.5101 74.5464 13.0567 75.5304C13.5343 75.9915 14.1148 76.3685 14.7904 76.6601C16.0691 77.206 17.3946 77.2848 18.4629 77.3397C18.9419 77.3649 19.3966 77.3936 19.7018 77.458C22.8306 78.0766 25.9834 78.3509 29.0261 78.6206C29.6355 78.6699 30.2358 78.7255 30.8437 78.7825C31.4364 78.8367 32.0458 78.886 32.6551 78.9353C35.5061 79.1695 38.4582 79.4145 40.9489 80.2244C42.0706 80.5906 43.1733 81.0167 44.3421 81.4709C46.6213 82.3526 48.9757 83.2562 51.5825 83.7386C51.6592 83.7528 51.7435 83.7684 51.8278 83.784C53.4575 84.0618 55.2042 84.1788 56.7424 84.2653L57.2368 84.2933C61.783 84.5796 65.9605 83.9016 69.6612 82.2868C70.8603 81.7634 72.146 80.9863 73.1165 80.1985C73.1968 80.1499 73.4155 80.0397 73.581 79.9593C74.3465 79.5935 75.6254 78.9817 76.445 77.595C77.7308 75.4461 77.5357 72.9439 77.3152 71.6502C77.0336 70.0439 76.3661 68.0807 75.8588 66.6229C74.9071 60.5392 74.7187 54.5729 75.282 48.8726C75.2934 48.8113 75.297 48.7485 75.2993 48.6934C75.9019 49.1221 76.5312 49.4923 77.1858 49.8117C77.431 50.8007 78.0029 51.652 78.8324 52.2257C80.9827 53.718 83.8047 52.7812 85.4942 52.2216C85.6128 52.1801 85.7225 52.1449 85.8139 52.1221C87.1507 51.7114 90.5368 50.5538 93.0715 48.6837C93.4392 48.4107 93.7493 48.0637 93.9883 47.6718C94.3869 47.1033 94.8516 46.1346 94.737 44.8685C94.9962 44.2821 95.1166 43.7175 95.2057 43.3217C95.2213 43.2373 95.2369 43.153 95.2602 43.0701C95.8497 40.5703 95.8482 37.9215 95.2488 35.5903C94.7107 33.4845 93.8199 31.0994 92.7327 29.0902L92.7313 29.0978Z" fill="#8B8B8B"/>
<path d="M92.4863 28.7512C91.77 27.4371 91.3379 26.0011 90.8544 24.5002C90.6445 23.8349 90.4221 23.1514 90.1733 22.4393C88.5959 17.9367 85.0332 14.2641 81.1042 13.085C79.9922 12.7523 77.4325 12.1438 75.2083 12.8503C75.0606 12.7912 74.9025 12.7461 74.7366 12.6995C73.561 12.4106 72.4692 12.5257 71.4033 13.058L71.3592 13.0816C70.5378 13.4926 69.6116 13.9555 68.7353 14.7053C67.3761 15.5798 65.449 16.3095 63.1515 16.8121C60.5477 17.3848 57.8909 17.472 55.2532 17.0711C52.545 16.6651 49.9012 15.5256 47.9026 14.5848C46.6923 14.0119 45.6589 13.2973 44.9952 12.5559C44.3627 11.86 43.8677 10.9358 43.4706 10.1248C42.8829 8.92972 42.0767 8.05891 41.0845 7.55017C40.1229 7.04711 38.9573 6.91861 37.8831 7.1956C37.4747 7.30241 37.1437 7.46316 36.8963 7.59978C36.4144 7.37579 35.9768 7.25516 35.6591 7.17256L35.5671 7.15554C34.3003 6.80215 33.0262 6.78839 31.9471 6.83452C31.5237 6.85132 31.0759 6.87153 30.5228 6.90397C25.9022 7.19074 21.7246 9.24058 19.0294 10.9066C15.5264 13.0813 13.1179 15.6409 11.6638 18.7419C10.8522 20.471 10.6891 22.2092 10.549 23.7375C10.5294 23.9717 10.5022 24.2046 10.4812 24.4465C10.3848 25.3961 10.3778 26.2909 10.3702 27.1459C10.3641 27.7791 10.3621 28.3893 10.3185 28.9681C9.81 29.8731 9.66726 30.6872 9.69858 31.375C9.43939 34.4037 12.5547 36.4234 14.1186 37.4424C14.2668 37.5412 14.4025 37.6218 14.4999 37.6954C16.7477 39.2611 19.3969 40.243 22.1647 40.5412C22.2413 40.5553 22.318 40.5695 22.3947 40.5837C21.9887 41.706 21.5757 42.8666 21.251 44.3211C20.9353 45.127 20.4686 46.0635 20.0076 46.9694C19.6539 47.6811 19.2819 48.4052 18.9771 49.11C18.5535 50.0704 18.0544 51.0962 17.5778 52.0864C17.3475 52.5592 17.1173 53.032 16.8976 53.4909C15.6845 55.8039 14.7987 57.5907 14.116 59.1375L13.842 59.7608C12.4632 62.8837 10.7466 66.7608 10.6397 70.5948C10.5992 72.1416 11.2727 74.2011 12.8193 75.1851C13.297 75.6462 13.8775 76.0232 14.553 76.3148C15.8318 76.8607 17.1573 76.9395 18.2332 76.9959C18.7123 77.0211 19.1669 77.0497 19.4722 77.1141C22.6009 77.7328 25.7537 78.007 28.7964 78.2767C29.4058 78.326 30.0138 78.383 30.6141 78.4386C31.2067 78.4928 31.8161 78.5421 32.4255 78.5915C35.2765 78.8257 38.2208 79.0693 40.7101 79.8868C41.8318 80.253 42.9345 80.679 44.1047 81.1256C46.3839 82.0073 48.7384 82.9109 51.3452 83.3933C51.4218 83.4075 51.5061 83.4231 51.5905 83.4387C53.2187 83.7242 54.9668 83.8336 56.5051 83.92L56.9994 83.9481C61.5456 84.2343 65.7232 83.5563 69.4162 81.9402C70.6153 81.4167 71.901 80.6396 72.8714 79.8518C72.9532 79.7956 73.1705 79.693 73.336 79.6126C74.1015 79.2468 75.3804 78.635 76.2 77.2483C77.4858 75.0995 77.2908 72.5972 77.0703 71.3035C76.7887 69.6972 76.1211 67.734 75.6215 66.2776C74.6698 60.1939 74.4814 54.2276 75.0447 48.5273C75.056 48.466 75.0597 48.4032 75.0619 48.3481C75.6646 48.7768 76.2848 49.1533 76.9408 49.465C77.1859 50.454 77.7579 51.3053 78.5875 51.8791C80.7378 53.3713 83.5596 52.4345 85.2491 51.8749C85.3678 51.8334 85.4774 51.7982 85.5703 51.7678C86.9071 51.357 90.2932 50.1995 92.8279 48.3293C93.1956 48.0564 93.5057 47.7093 93.7447 47.3174C94.1433 46.7489 94.6066 45.7879 94.4934 44.5141C94.7526 43.9277 94.8729 43.3632 94.9621 42.9673C94.9777 42.883 94.9933 42.7986 95.0166 42.7157C95.6061 40.216 95.6046 37.5672 95.0129 35.2374C94.4748 33.1316 93.584 30.7464 92.4968 28.7372L92.4863 28.7512Z" fill="#7D7D7D"/>
<path d="M92.2424 28.3971C91.5261 27.083 91.0941 25.647 90.6106 24.1461C90.4007 23.4808 90.1782 22.7973 89.9294 22.0852C88.352 17.5826 84.7893 13.91 80.8603 12.7309C79.7483 12.3982 77.1886 11.7897 74.9645 12.4962C74.8168 12.4371 74.6586 12.392 74.4928 12.3454C73.3171 12.0565 72.2253 12.1716 71.1594 12.7039L71.1154 12.7275C70.294 13.1385 69.3677 13.6014 68.4915 14.3512C67.1323 15.2257 65.2051 15.9554 62.9077 16.458C60.3038 17.0307 57.6471 17.1179 55.0094 16.717C52.3012 16.311 49.6574 15.1715 47.6587 14.2307C46.4484 13.6578 45.415 12.9432 44.7499 12.2095C44.1175 11.5136 43.6224 10.5894 43.2253 9.77841C42.6377 8.58329 41.8314 7.71247 40.8392 7.20373C39.8777 6.70067 38.712 6.57217 37.6378 6.84916C37.2295 6.95598 36.8984 7.11674 36.6511 7.25336C36.1692 7.02937 35.7316 6.90874 35.4215 6.82756L35.3218 6.80911C34.055 6.45573 32.7795 6.44963 31.7018 6.48809C31.2785 6.5049 30.8307 6.52511 30.2699 6.55613C25.6493 6.8429 21.4716 8.89272 18.7841 10.5602C15.2812 12.7349 12.8726 15.2945 11.4186 18.3955C10.6069 20.1246 10.4438 21.8628 10.3037 23.3911C10.2842 23.6253 10.2555 23.8658 10.236 24.1001C10.1395 25.0497 10.1325 25.9444 10.125 26.7994C10.1188 27.4327 10.1169 28.0429 10.0746 28.6139C9.56617 29.519 9.42343 30.3331 9.45474 31.0209C9.19556 34.0496 12.3108 36.0694 13.8747 37.0883C14.023 37.1871 14.1587 37.2677 14.2561 37.3413C16.5038 38.907 19.153 39.889 21.9208 40.1871C21.9975 40.2013 22.0742 40.2154 22.1508 40.2296C21.7449 41.3519 21.3319 42.5125 21.0072 43.967C20.6915 44.7729 20.2248 45.7094 19.7623 46.623C19.4086 47.3346 19.0353 48.0664 18.7318 48.7636C18.3097 49.7163 17.8092 50.7497 17.3325 51.7399C17.1023 52.2128 16.872 52.6856 16.6523 53.1445C15.4392 55.4575 14.5535 57.2443 13.8707 58.7911L13.5968 59.4144C12.218 62.5373 10.5013 66.4144 10.3944 70.2484C10.354 71.7952 11.0275 73.8547 12.5741 74.8387C13.0517 75.2998 13.6322 75.6768 14.3078 75.9683C15.5865 76.5143 16.912 76.593 17.9803 76.648C18.4593 76.6732 18.914 76.7019 19.2192 76.7663C22.348 77.385 25.5008 77.6592 28.5435 77.9288C29.1514 77.9859 29.7532 78.0338 30.3611 78.0908C30.9538 78.1449 31.5631 78.1943 32.1725 78.2436C35.0235 78.4779 37.9679 78.7214 40.4572 79.5389C41.5789 79.9051 42.6816 80.3312 43.8518 80.7778C46.131 81.6595 48.4854 82.563 51.0922 83.0454C51.1765 83.0611 51.2532 83.0752 51.3376 83.0909C52.9658 83.3763 54.7139 83.4857 56.2521 83.5722L56.7465 83.6002C61.2927 83.8865 65.4703 83.2085 69.1633 81.5923C70.3624 81.0688 71.648 80.2918 72.6109 79.5025C72.6912 79.454 72.9099 79.3438 73.0754 79.2634C73.8409 78.8975 75.1198 78.2857 75.9471 76.9005C77.2329 74.7516 77.0378 72.2494 76.8173 70.9557C76.5357 69.3493 75.8682 67.3861 75.3608 65.9283C74.4091 59.8446 74.2208 53.8783 74.784 48.1781C74.7954 48.1167 74.7991 48.054 74.8013 47.9989C75.4039 48.4276 76.0242 48.804 76.6878 49.1172C76.933 50.1062 77.505 50.9574 78.3345 51.5312C80.4848 53.0234 83.3067 52.0866 84.9962 51.527C85.1149 51.4855 85.2245 51.4503 85.3174 51.4199C86.6542 51.0092 90.0403 49.8516 92.575 47.9815C92.9427 47.7085 93.2527 47.3615 93.4917 46.9696C93.8904 46.4011 94.3551 45.4324 94.2405 44.1663C94.4997 43.5799 94.62 43.0153 94.7092 42.6195C94.7248 42.5351 94.7404 42.4508 94.7637 42.3679C95.3531 39.8681 95.3531 37.2117 94.7599 34.8895C94.2219 32.7837 93.3311 30.3986 92.2439 28.3894L92.2424 28.3971Z" fill="#6E6E6E"/>
<path d="M92.0065 28.044C91.3084 26.7175 90.8582 25.294 90.3747 23.7931C90.1648 23.1278 89.9423 22.4443 89.6935 21.7321C88.1161 17.2296 84.5534 13.557 80.6244 12.3779C79.5124 12.0452 76.9527 11.4367 74.7286 12.1431C74.5809 12.0841 74.4227 12.039 74.2569 11.9924C73.0812 11.7035 71.9894 11.8186 70.9235 12.3509L70.8795 12.3745C70.0581 12.7854 69.1318 13.2484 68.2556 13.9982C66.8964 14.8726 64.9692 15.6023 62.6718 16.1049C60.0679 16.6777 57.4112 16.7649 54.7735 16.364C52.0653 15.958 49.4215 14.8185 47.4229 13.8776C46.2126 13.3048 45.1791 12.5901 44.5154 11.8488C43.883 11.1529 43.3879 10.2287 42.9909 9.41772C42.4032 8.2226 41.5955 7.35945 40.6047 6.84304C39.6432 6.33998 38.4775 6.21148 37.4033 6.48847C36.995 6.59529 36.6639 6.75604 36.4166 6.89265C35.9347 6.66867 35.4971 6.54803 35.187 6.46686L35.095 6.44983C33.8282 6.09645 32.5541 6.08269 31.4765 6.12115C31.0607 6.13937 30.6053 6.15816 30.0444 6.18918C25.4239 6.47595 21.2462 8.52578 18.5511 10.1918C15.0481 12.3665 12.6396 14.9261 11.1855 18.0271C10.3739 19.7563 10.2108 21.4944 10.0707 23.0227C10.0511 23.257 10.0225 23.4975 10.0029 23.7317C9.90504 24.689 9.89946 25.5761 9.89189 26.4311C9.88572 27.0643 9.88381 27.6745 9.84015 28.2533C9.33168 29.1583 9.18895 29.9724 9.22026 30.6602C8.96108 33.6889 12.0763 35.7087 13.6417 36.7199C13.7899 36.8187 13.9256 36.8994 14.023 36.9729C16.2708 38.5387 18.9199 39.5206 21.6877 39.8187C21.7644 39.8329 21.8411 39.8471 21.9178 39.8613C21.5118 40.9835 21.0988 42.1441 20.7741 43.5986C20.4584 44.4045 19.9917 45.3411 19.5307 46.2469C19.1769 46.9586 18.8036 47.6904 18.5002 48.3876C18.0766 49.348 17.5852 50.3751 17.1009 51.3639C16.8706 51.8367 16.6404 52.3096 16.4207 52.7685C15.2076 55.0815 14.3218 56.8682 13.6391 58.415L13.3651 59.0384C11.9863 62.1612 10.2696 66.0384 10.1613 69.8801C10.1209 71.4268 10.7944 73.4863 12.341 74.4703C12.8187 74.9314 13.3991 75.3084 14.0747 75.6C15.3534 76.1459 16.679 76.2247 17.7472 76.2796C18.2249 76.3125 18.6809 76.3335 18.9862 76.3979C22.1149 77.0166 25.2677 77.2908 28.3104 77.5605C28.9184 77.6175 29.5201 77.6654 30.1281 77.7224C30.7207 77.7766 31.3301 77.8259 31.9381 77.8829C34.789 78.1171 37.7335 78.3607 40.2242 79.1706C41.3459 79.5367 42.4485 79.9628 43.625 80.4184C45.9042 81.3002 48.2586 82.2037 50.8654 82.6862C50.9421 82.7004 51.0264 82.716 51.1108 82.7316C52.739 83.0171 54.4885 83.1188 56.0239 83.2206L56.5183 83.2486C61.0645 83.5349 65.2421 82.8569 68.9427 81.2421C70.1342 80.7172 71.4275 79.9416 72.3903 79.1523C72.4707 79.1038 72.6893 78.9935 72.8548 78.9132C73.6203 78.5473 74.8992 77.9355 75.7265 76.5503C77.0123 74.4014 76.8172 71.8992 76.5967 70.6055C76.3152 68.9992 75.6476 67.0359 75.1403 65.5782C74.1886 59.4944 74.0002 53.5282 74.5635 47.8279C74.5748 47.7665 74.5785 47.7038 74.5808 47.6487C75.1757 48.076 75.8036 48.4539 76.4596 48.7656C76.7048 49.7546 77.2768 50.6058 78.1063 51.1796C80.2566 52.6718 83.0785 51.735 84.768 51.1754C84.8867 51.134 84.9962 51.0987 85.0891 51.0683C86.4259 50.6575 89.8058 49.4909 92.3467 47.6298C92.7144 47.3569 93.0245 47.0099 93.2635 46.618C93.6621 46.0495 94.1268 45.0808 94.0123 43.8147C94.2714 43.2282 94.3918 42.6637 94.4809 42.2679C94.4965 42.1835 94.5122 42.0992 94.5354 42.0163C95.1249 39.5165 95.1249 36.8601 94.5317 34.5379C93.9936 32.4321 93.0756 30.0657 92.0156 28.0378L92.0065 28.044Z" fill="#606060"/>
</g>
<path d="M92.0065 28.044C91.3084 26.7175 90.8582 25.294 90.3747 23.7931C90.1648 23.1278 89.9423 22.4443 89.6935 21.7321C88.1161 17.2296 84.5534 13.557 80.6244 12.3779C79.5124 12.0452 76.9527 11.4367 74.7286 12.1431C74.5809 12.0841 74.4227 12.039 74.2569 11.9924C73.0812 11.7035 71.9894 11.8186 70.9235 12.3509L70.8795 12.3745C70.0581 12.7854 69.1318 13.2484 68.2556 13.9982C66.8964 14.8726 64.9692 15.6023 62.6718 16.1049C60.0679 16.6777 57.4112 16.7649 54.7735 16.364C52.0653 15.958 49.4215 14.8185 47.4229 13.8776C46.2126 13.3048 45.1791 12.5901 44.5154 11.8488C43.883 11.1529 43.3879 10.2287 42.9909 9.41772C42.4032 8.2226 41.5955 7.35945 40.6047 6.84304C39.6432 6.33998 38.4775 6.21148 37.4033 6.48847C36.995 6.59529 36.6639 6.75604 36.4166 6.89265C35.9347 6.66867 35.4971 6.54803 35.187 6.46686L35.095 6.44983C33.8282 6.09645 32.5541 6.08269 31.4765 6.12115C31.0607 6.13937 30.6053 6.15816 30.0444 6.18918C25.4239 6.47595 21.2462 8.52578 18.5511 10.1918C15.0481 12.3665 12.6396 14.9261 11.1855 18.0271C10.3739 19.7563 10.2108 21.4944 10.0707 23.0227C10.0511 23.257 10.0225 23.4975 10.0029 23.7317C9.90504 24.689 9.89946 25.5761 9.89189 26.4311C9.88572 27.0643 9.88381 27.6745 9.84015 28.2533C9.33168 29.1583 9.18895 29.9724 9.22026 30.6602C8.96108 33.6889 12.0763 35.7087 13.6417 36.7199C13.7899 36.8187 13.9256 36.8994 14.023 36.9729C16.2708 38.5387 18.9199 39.5206 21.6877 39.8187C21.7644 39.8329 21.8411 39.8471 21.9178 39.8613C21.5118 40.9835 21.0988 42.1441 20.7741 43.5986C20.4584 44.4045 19.9917 45.3411 19.5307 46.2469C19.1769 46.9586 18.8036 47.6904 18.5002 48.3876C18.0766 49.348 17.5852 50.3751 17.1009 51.3639C16.8706 51.8367 16.6404 52.3096 16.4207 52.7685C15.2076 55.0815 14.3218 56.8682 13.6391 58.415L13.3651 59.0384C11.9863 62.1612 10.2696 66.0384 10.1613 69.8801C10.1209 71.4268 10.7944 73.4863 12.341 74.4703C12.8187 74.9314 13.3991 75.3084 14.0747 75.6C15.3534 76.1459 16.679 76.2247 17.7472 76.2796C18.2249 76.3125 18.6809 76.3335 18.9862 76.3979C22.1149 77.0166 25.2677 77.2908 28.3104 77.5605C28.9184 77.6175 29.5201 77.6654 30.1281 77.7224C30.7207 77.7766 31.3301 77.8259 31.9381 77.8829C34.789 78.1171 37.7335 78.3607 40.2242 79.1706C41.3459 79.5367 42.4485 79.9628 43.625 80.4184C45.9042 81.3002 48.2586 82.2037 50.8654 82.6862C50.9421 82.7004 51.0264 82.716 51.1108 82.7316C52.739 83.0171 54.4885 83.1188 56.0239 83.2206L56.5183 83.2486C61.0645 83.5349 65.2421 82.8569 68.9427 81.2421C70.1342 80.7172 71.4275 79.9416 72.3903 79.1523C72.4707 79.1038 72.6893 78.9935 72.8548 78.9132C73.6203 78.5473 74.8992 77.9355 75.7265 76.5503C77.0123 74.4014 76.8172 71.8992 76.5967 70.6055C76.3152 68.9992 75.6476 67.0359 75.1403 65.5782C74.1886 59.4944 74.0002 53.5282 74.5635 47.8279C74.5748 47.7665 74.5785 47.7038 74.5808 47.6487C75.1757 48.076 75.8036 48.4539 76.4596 48.7656C76.7048 49.7546 77.2768 50.6058 78.1063 51.1796C80.2566 52.6718 83.0785 51.735 84.768 51.1754C84.8867 51.134 84.9962 51.0987 85.0891 51.0683C86.4259 50.6575 89.8058 49.4909 92.3467 47.6298C92.7144 47.3569 93.0245 47.0099 93.2635 46.618C93.6621 46.0495 94.1268 45.0808 94.0123 43.8147C94.2714 43.2282 94.3918 42.6637 94.4809 42.2679C94.4965 42.1835 94.5122 42.0992 94.5354 42.0163C95.1249 39.5165 95.1249 36.8601 94.5317 34.5379C93.9936 32.4321 93.0756 30.0657 92.0156 28.0378L92.0065 28.044Z" fill="white"/>
<path d="M91.4265 41.2903C91.8746 39.3828 91.9218 37.2426 91.434 35.3365C90.9428 33.4059 90.1063 31.2845 89.1787 29.5269C88.0167 27.3215 87.4986 25.1084 86.6836 22.7848C85.5721 19.6214 82.9627 16.4107 79.7033 15.4268C78.5313 15.0751 76.3775 14.7162 75.2582 15.3655C75.0611 15.4876 74.8047 15.6304 74.5517 15.7977C74.6003 15.664 74.5145 15.656 74.3944 15.7052C74.2334 15.6754 74.1025 15.6115 74.0065 15.5303C74.0065 15.5303 73.9988 15.5289 73.9912 15.5275C73.8523 15.3352 73.7211 15.1444 73.4925 15.0942C73.0674 14.9917 72.7556 15.0054 72.3456 15.2071C71.5499 15.607 70.818 15.9631 70.2053 16.5317C68.2015 17.8895 65.6122 18.7267 63.3559 19.221C60.3724 19.8742 57.3014 19.972 54.2928 19.5183C51.4159 19.081 48.6827 17.9963 46.0636 16.7662C44.6562 16.1014 43.205 15.1588 42.1514 13.9964C41.3014 13.062 40.6814 11.956 40.1284 10.8307C39.9094 10.3858 39.5859 9.90566 39.1284 9.67826C38.8541 9.53234 38.5034 9.49915 38.2033 9.57841C38.0539 9.61421 37.9253 9.70936 37.7904 9.79541C37.647 9.92747 37.5036 10.0595 37.3492 10.1657L37.3401 10.172C37.0116 10.4046 36.7129 10.4762 36.3111 10.5049C35.9246 10.5365 35.6517 10.1688 35.3796 9.96777C35.0519 9.72474 34.6268 9.62228 34.2491 9.52067C33.3955 9.29133 32.461 9.2849 31.5759 9.31141C31.1295 9.32396 30.6803 9.35184 30.2387 9.38114C26.7412 9.59821 23.1658 11.0934 20.2281 12.9128C17.5937 14.5504 15.4004 16.5472 14.065 19.3926C13.3839 20.8446 13.3279 22.4757 13.1582 24.0778C12.9727 25.8514 13.1709 27.6088 12.9059 29.3836C12.5845 29.792 12.292 30.3009 12.431 30.7072C12.0401 32.1336 14.9446 33.7495 15.8361 34.3744C17.7254 35.6915 19.9191 36.4781 22.2115 36.6882C22.4756 36.7609 22.7482 36.7876 23.0523 36.7725C23.6069 36.7324 23.8743 36.1871 24.1281 35.7583C24.3178 35.7617 24.422 35.67 24.608 35.522C25.4246 34.8802 26.0427 33.9399 26.8649 33.2674C27.1733 33.0152 27.4754 32.7539 27.7803 32.4773C27.0355 34.4884 26.3352 36.5157 25.7164 38.5739C25.0448 40.7889 24.303 42.2692 23.8216 44.5273C23.2082 46.2139 22.0933 48.1247 21.3986 49.6931C20.7412 51.1891 19.9531 52.7482 19.2524 54.2203C18.3459 55.9477 17.3271 57.9398 16.5376 59.7206C15.1721 62.8142 13.4196 66.542 13.33 69.9827C13.3161 70.4005 13.5983 71.8324 14.2733 71.8701C14.4738 72.2006 14.7896 72.4653 15.3036 72.6873C16.5607 73.2212 18.2525 73.0348 19.5914 73.2984C23.1481 74.0042 26.8067 74.2451 30.4085 74.5786C33.9566 74.9022 37.7975 75.058 41.1994 76.1713C44.7073 77.3121 47.9981 78.9837 51.6394 79.6179C53.2523 79.9005 55.075 79.992 56.7053 80.0955C60.428 80.3324 64.2032 79.8575 67.6455 78.3535C68.5513 77.9581 69.6112 77.3296 70.3776 76.7023C71.1984 76.0374 72.4271 75.8683 72.9705 74.9459C73.6246 73.8537 73.6445 72.3746 73.4363 71.1863C73.1828 69.7279 72.4971 67.7771 72.0168 66.3878C71.0216 60.1533 70.7514 53.815 71.3799 47.5479C71.634 45.0178 71.9921 42.4832 72.3502 39.9485C73.663 42.7527 75.7413 45.1911 78.6398 46.2826C78.7275 46.3226 78.8238 46.3167 78.9138 46.3016C79.0956 46.6049 79.2419 47.3139 79.5117 47.7841C79.5878 49.7727 83.0687 48.4027 84.1298 48.0678C86.1578 47.436 88.6906 46.3902 90.4248 45.1173C90.4884 45.0736 90.5333 45.0026 90.5523 44.9426C90.8805 44.5831 90.9464 44.0561 90.5192 43.2792C91.1524 42.8572 91.2329 42.0791 91.4117 41.3272L91.4265 41.2903Z" fill="#AA3F5B"/>
<path d="M70.4947 16.7674C70.7596 16.5786 71.0091 16.3869 71.2448 16.1846C71.2735 16.1582 71.2945 16.1304 71.3078 16.1011C71.4001 16.031 71.491 15.9685 71.5909 15.8998C71.9515 15.6652 72.3726 15.4894 72.7611 15.4899C72.8128 15.4677 72.8721 15.447 72.93 15.4339C73.3634 15.3635 73.6638 15.6252 73.8495 15.9927C73.8495 15.9927 73.8495 15.9927 73.8481 16.0003C73.899 16.0256 73.9498 16.0509 74.0006 16.0761C72.8225 18.5859 71.0244 20.6321 69.3368 22.8097C67.4391 25.2656 65.3835 27.3751 62.938 29.2776C61.3726 30.4946 59.5417 31.0042 57.592 30.6989C56.2432 30.4889 55.3642 29.8822 54.4174 28.914C53.5248 27.9955 53.0516 26.5678 52.5957 25.3891C52.467 25.056 52.3482 24.4552 52.0997 24.0841C53.1731 24.2827 54.265 24.3817 55.371 24.404C57.3383 24.443 59.2566 24.0605 61.106 23.4512C62.5581 22.9746 64.3709 22.2633 65.529 21.2327C66.627 20.2702 67.7519 19.3762 68.8172 18.376C69.3922 17.8401 69.9163 17.2789 70.4884 16.7583L70.4947 16.7674Z" fill="#F9C847"/>
<path d="M41.9191 14.2227C42.8189 15.317 44.1629 16.1525 45.4079 16.7953C48.4277 18.3454 51.7615 19.3985 55.1132 19.8839C58.1261 20.3146 61.2962 20.1956 64.2507 19.4419C65.9816 19.001 67.9415 18.309 69.596 17.3385C69.1888 17.7389 68.774 18.138 68.3223 18.5222C67.1482 19.5102 66.1278 20.6536 64.7842 21.4437C62.7384 22.6431 60.617 23.4796 58.2676 23.8775C54.0111 24.5964 49.0335 23.5562 45.5342 20.9976C43.9902 19.8713 42.5128 18.1706 41.7414 16.426C41.2497 15.3121 41.1365 14.0383 40.8488 12.8511C41.1708 13.3389 41.5411 13.7801 41.9086 14.2366L41.9191 14.2227Z" fill="#F19A41"/>
<path d="M44.4794 20.6122C43.2594 19.5776 41.9916 18.2011 41.4252 16.6769C40.9639 15.4417 40.7474 14.2122 40.526 12.9659C40.2988 12.2657 40.0792 11.5669 39.7486 10.911C39.5049 10.5567 39.22 10.2105 38.9165 10.0513C38.1958 9.9179 37.4882 10.2707 37.0967 11.015C37.0003 11.9645 37.2239 13.1557 37.262 13.8923C37.3249 15.1806 37.4932 16.4567 37.6126 17.7397C37.821 19.9985 38.4329 22.3479 39.4259 24.3952C40.712 27.0438 42.9411 29.867 46.1945 27.884C47.9728 26.8016 49.1207 25.0554 50.7189 23.789C48.4409 23.2009 46.3156 22.1732 44.4717 20.6108L44.4794 20.6122Z" fill="#F9C847"/>
<path d="M17.4431 34.7746C16.3966 34.2161 15.5154 33.4504 14.5874 32.7236C13.9007 32.1921 12.9448 31.6583 12.8087 30.8085C14.1493 30.9773 15.1131 30.997 16.341 31.9459C17.569 32.8947 18.7285 33.8706 19.8514 34.9586C20.2484 35.3413 20.6551 35.7575 21.1081 36.0951C19.8433 35.7738 18.6128 35.3954 17.4445 34.7669L17.4431 34.7746Z" fill="#F19A41"/>
<path d="M20.6365 34.9137C19.565 33.8907 18.539 32.8365 17.3877 31.9019C16.5613 31.2256 15.6366 30.7373 14.6229 30.4307C14.2543 30.3228 13.8289 30.3076 13.4509 30.2931C12.6246 30.2591 13.2229 29.6403 13.3503 29.2516C15.3488 26.8936 18.5946 30.6503 19.7957 32.173C20.8314 33.4749 22.1844 35.2478 23.8763 35.7036C22.8517 36.87 21.5126 35.7499 20.6442 34.9152L20.6365 34.9137Z" fill="#F9C847"/>
<path d="M31.9047 74.205C28.4875 73.7312 25.0308 73.599 21.6164 73.1098C20.2264 72.9081 18.8642 72.5133 17.4521 72.474C16.5142 72.4431 15.6413 72.3609 14.8473 71.8095C14.7978 71.7766 14.7575 71.7374 14.7172 71.6982C14.82 71.6142 14.9179 71.5133 14.9886 71.4313C15.5871 70.7253 16.4762 70.5488 17.3172 70.3318C21.3181 69.2801 25.919 70.5994 29.7398 71.8061C33.089 72.862 36.3714 74.0642 39.6581 75.2434C37.1016 74.7465 34.5098 74.5682 31.9047 74.205Z" fill="#DE216E"/>
<path d="M85.4445 47.1768C84.414 47.5174 81.1677 49.2479 80.0683 48.2039C80.1603 48.221 80.2581 48.2073 80.3614 48.163C81.1036 47.8801 81.6621 47.2618 82.3663 46.8847C83.5015 46.278 84.9698 45.9709 86.2257 45.783C86.9032 45.6784 88.3447 45.7311 89.4328 45.4646C88.18 46.1923 86.6941 46.7658 85.4354 47.183L85.4445 47.1768Z" fill="#F19A41"/>
<path d="M86.9466 45.4012C85.8883 45.5066 84.8965 45.7671 83.8745 46.0617C83.0201 46.308 82.2392 46.671 81.4999 47.1527C80.815 47.5969 79.847 47.6001 79.5124 46.6659C79.4377 46.4697 79.3664 46.2979 79.2434 46.1483C79.2693 46.1372 79.2951 46.1262 79.3209 46.1151C80.4777 45.5203 81.4641 44.7751 82.6987 44.2741C84.1721 43.6824 85.8213 43.2977 87.4015 43.1144C88.3817 43.0024 89.2831 43.5736 90.1815 43.5178C91.2185 45.5415 88.127 45.2786 86.948 45.3935L86.9466 45.4012Z" fill="#F9C847"/>
<path d="M91.2909 37.7362C91.1865 36.3292 90.8686 34.962 90.3175 33.6547C89.1317 30.8502 87.6883 28.109 86.8829 25.1766C86.1079 22.3371 84.7406 19.3563 82.501 17.4034C81.3736 16.4256 79.8557 15.6293 78.3646 15.4168C77.3594 15.2783 75.4725 15.4049 74.4313 16.0607C74.4095 16.1359 74.3862 16.2189 74.3643 16.2941C74.349 16.2913 74.3365 16.2731 74.3288 16.2717C73.0297 18.878 71.1601 21.2678 69.3391 23.5238C67.3857 25.9377 65.2881 28.3169 62.6716 30.0292C61.7337 30.6407 60.5563 31.3902 59.4011 31.4619C58.2551 31.5273 56.3619 31.2166 55.4466 30.4208C54.5452 29.6355 53.6927 28.8433 53.2101 27.7232C52.911 27.0255 52.4759 26.3344 52.3136 25.5828C52.2318 25.2108 52.0117 24.2581 51.6729 23.9893C51.4888 23.9552 51.3048 23.9211 51.116 23.8703C51.1145 23.878 51.1208 23.8871 51.1271 23.8962C51.0385 23.9036 50.9518 23.9431 50.8965 24.028C50.8769 24.0481 50.8636 24.0774 50.8516 24.099C50.8516 24.099 48.1824 26.6103 47.8761 26.8946C47.0885 27.637 46.1325 28.4751 45.1117 28.8491C42.2742 29.8703 40.1814 27.8099 38.957 25.5136C37.5031 22.7863 37.3408 19.3783 37.0296 16.347C36.882 14.9162 36.6805 13.3485 36.8036 11.9122C36.8319 11.5447 36.85 11.104 36.9482 10.7019C36.6893 10.7729 36.411 10.777 36.1322 10.7412C36.2736 11.0053 36.3529 11.3054 36.3824 11.6598C36.3892 11.7086 36.2717 11.8296 36.237 11.7598C35.586 10.3071 34.6617 10.1598 33.2251 9.90983C31.8806 9.67685 30.2424 9.65915 28.8922 9.88506C25.5847 10.4465 22.3776 12.1368 19.6058 14.0027C16.8612 15.8499 14.7455 18.4558 13.9806 21.7319C13.4342 24.0414 13.7071 26.4233 13.4152 28.7719C14.3042 27.9532 15.2702 27.9178 16.2363 28.3107C16.1746 27.7442 16.4604 27.0993 16.5828 26.5669C16.6478 26.3014 16.7818 26.0486 16.9436 25.8169C16.934 25.9975 16.9334 26.1719 16.9405 26.3476C16.8863 26.512 16.8383 26.6856 16.8043 26.8696C16.7036 27.4139 16.6573 27.9208 16.6194 28.4688L16.6165 28.4842C18.2667 29.3367 19.8625 31.2973 20.9826 32.6147C21.1257 32.1416 21.5924 31.6333 21.892 31.3002C22.2713 30.8787 22.6583 30.4587 23.0313 30.0282C23.0157 30.1125 23.0001 30.1969 22.9859 30.2735C22.3482 31.0198 21.6813 31.7528 21.2546 32.6016C21.2413 32.6309 21.1657 32.6962 21.0931 32.7462C21.2564 32.935 21.4057 33.1133 21.5441 33.2658C21.8144 33.5616 22.7255 34.5946 23.5212 35.0511C23.9985 35.1711 24.4929 34.9851 24.9569 34.7062C25.5832 34.0212 26.2274 33.4109 26.9651 32.81C27.3021 32.5313 27.6343 32.236 27.9679 31.933C28.4306 30.7181 28.901 29.5047 29.4021 28.297C30.0641 26.6908 30.7337 25.0861 31.4988 23.5228C32.0976 22.3014 32.9848 21.1493 33.4637 19.8899C33.4694 19.8592 33.577 19.7919 33.5671 19.8455C33.2577 21.0888 32.4298 22.2202 31.9114 23.393C31.2105 24.9523 30.5758 26.5397 29.9333 28.1257C28.6499 31.29 27.4216 34.4566 26.4349 37.7313C24.2481 44.9629 23.1768 52.3375 22.4314 59.8358C22.4172 59.9125 22.2145 60.0653 22.2205 59.9475C22.367 55.4705 22.8671 51.0114 23.7199 46.6176C23.1995 47.7583 22.5593 48.861 22.0887 49.9475C21.0792 52.2744 20.0049 54.5655 18.8137 56.8033C18.8109 56.8186 18.7927 56.8311 18.7731 56.8513C16.9562 60.4561 15.1517 64.079 14.4062 68.0645C14.27 68.8005 14.2093 69.4713 14.2509 70.2323C14.1337 70.6943 14.3001 70.9947 14.7564 71.1426C14.8805 70.9435 15.1062 70.795 15.288 70.67C16.0722 70.1173 17.1938 69.8412 18.1274 69.6809C21.1726 69.166 24.3379 69.6725 27.3051 70.4358C33.9872 72.164 40.2713 75.1429 46.8864 77.1045C47.3072 77.23 47.7357 77.3569 48.1642 77.4838C51.2198 78.9691 54.7972 79.306 58.1465 79.4184C60.3529 79.4936 62.3426 79.283 64.1808 78.6478C64.0656 78.7137 63.9594 78.7734 63.8455 78.8316C65.2749 78.4776 66.66 78.0203 68.0039 77.3571C69.0168 76.8546 73.1337 74.6191 72.5715 73.0719C72.546 72.9958 72.6013 72.9109 72.6783 72.8379C72.5241 70.2005 71.4544 67.9249 70.8055 65.3467C70.1484 62.7272 69.7304 60.1441 69.5904 57.43C69.5864 57.3658 69.7514 57.2457 69.7554 57.3099C69.9752 59.9356 70.3875 62.5494 71.1502 65.0695C70.1616 59.3992 70.1808 53.511 70.7915 47.8116C71.1379 44.569 71.5205 41.3014 72.0356 38.09C72.5435 34.917 73.1471 31.6982 73.3992 28.4937C73.4105 28.4324 73.5769 28.3046 73.5752 28.3994C73.4441 31.9356 72.9811 35.4659 72.4937 38.9995C72.5857 39.0165 72.6721 39.0642 72.7135 39.1829C73.9034 42.2657 76.43 43.8673 78.7814 45.9439C79.4816 45.7166 79.9932 45.3514 80.6151 44.9907C79.3204 44.1881 78.4508 42.6315 77.8815 41.1226C77.869 40.8903 77.8642 40.6595 77.8761 40.4238C78.2249 41.2813 78.6617 42.0917 79.1473 42.8952C79.4027 43.3152 79.6819 43.692 80.0295 44.0418C80.3027 44.3223 80.6361 44.5347 80.882 44.8339C80.9093 44.8152 80.9351 44.8041 80.97 44.7868C82.043 44.2162 83.2328 43.7861 84.4013 43.4711C85.3366 43.216 86.4264 42.8546 87.4483 42.7742C87.404 42.4567 87.4037 42.1156 87.3824 41.8024C87.3531 41.3609 87.2686 40.9171 87.1982 40.4838C87.1899 40.4426 87.2913 40.3662 87.2996 40.4074C87.4996 41.1263 87.8148 41.9935 87.7448 42.7577C87.8794 42.7588 88.0063 42.7585 88.1395 42.7672C88.1625 42.7715 88.1778 42.7743 88.2008 42.7786C88.4352 41.2122 88.253 39.7115 88.0027 38.1506C87.9958 38.1018 88.1258 37.999 88.1389 38.0569C88.4745 39.586 88.8367 41.2707 88.2775 42.7928C88.9119 42.8785 89.6383 43.1953 90.2534 43.214C90.2562 43.1986 90.2729 43.1938 90.282 43.1875C90.3044 43.152 90.3255 43.1242 90.3527 43.1055C91.4104 42.3179 91.3932 38.8971 91.3 37.73L91.2909 37.7362Z" fill="#E4738D"/>
<g style="mix-blend-mode:screen">
<path d="M19.9339 15.7444C24.227 12.471 29.8913 11.6003 35.1072 12.7242C35.2299 12.7469 35.3111 12.865 35.2884 12.9877C34.7646 16.1181 35.8957 19.6896 37.4439 22.3788C37.643 22.717 37.856 23.0657 38.081 23.3928C37.4046 21.1345 37.2555 18.6408 37.0193 16.3609C36.8717 14.93 36.6702 13.3623 36.7933 11.926C36.8216 11.5586 36.8397 11.1179 36.9379 10.7158C36.679 10.7868 36.4007 10.7908 36.1219 10.7551C36.2633 11.0191 36.3426 11.3193 36.3721 11.6736C36.379 11.7225 36.2614 11.8435 36.2268 11.7736C35.5757 10.321 34.6515 10.1737 33.2149 9.92368C31.8703 9.69071 30.2321 9.67301 28.8819 9.89891C25.5744 10.4604 22.3673 12.1506 19.5955 14.0166C16.8509 15.8638 14.7352 18.4696 13.9703 21.7458C13.4239 24.0553 13.6968 26.4371 13.4049 28.7858C13.835 28.3896 14.2862 28.1797 14.7502 28.1149C14.721 23.431 16.0462 18.7123 19.9339 15.7444Z" fill="#E4738D"/>
</g>
<g style="mix-blend-mode:screen">
<path d="M17.9401 64.0954C18.745 61.1598 19.2246 58.1401 20.8537 55.5076C20.9567 55.3363 21.2901 55.3346 21.283 55.587C21.1713 59.6184 22.1905 64.6521 25.399 67.4106C25.5044 65.3843 24.9135 63.4353 24.7057 61.4302C24.4967 59.3457 24.5189 57.1692 24.5729 55.0778C24.7013 50.6134 25.4121 46.1298 26.2927 41.757C27.6785 34.8688 29.7012 28.1382 32.7346 21.8166C32.4456 22.3499 32.1398 22.888 31.8982 23.4222C31.1973 24.9815 30.5625 26.5689 29.9201 28.1549C28.6367 31.3192 27.4084 34.4858 26.4217 37.7605C24.235 44.9921 23.1636 52.3667 22.4182 59.865C22.404 59.9417 22.2013 60.0945 22.2072 59.9767C22.3538 55.4997 22.8539 51.0406 23.7067 46.6468C23.1863 47.7875 22.5461 48.8903 22.0755 49.9767C21.066 52.3036 19.9917 54.5947 18.8005 56.8325C18.7977 56.8478 18.7795 56.8603 18.7599 56.8805C16.943 60.4853 15.1385 64.1082 14.3931 68.0937C14.2568 68.8298 14.1961 69.5005 14.2377 70.2615C14.1205 70.7235 14.2869 71.0239 14.7433 71.1718C14.8673 70.9727 15.093 70.8242 15.2748 70.6992C15.6851 70.4104 16.1927 70.1951 16.7135 70.0377C16.9325 68.0403 17.3948 66.0562 17.9282 64.117L17.9401 64.0954Z" fill="#E4738D"/>
</g>
<g style="mix-blend-mode:multiply">
<path d="M72.6695 72.8441C72.5153 70.2067 71.4456 67.9312 70.7967 65.3529C70.1396 62.7334 69.7216 60.1503 69.5816 57.4362C69.5776 57.3721 69.7426 57.2519 69.7466 57.3161C69.9664 59.9418 70.3787 62.5556 71.1414 65.0757C70.1529 59.4054 70.172 53.5172 70.7827 47.8178C71.1291 44.5752 71.5117 41.3076 72.0267 38.0963C72.2665 36.5864 72.5308 35.0732 72.7643 33.5542C72.89 32.618 73.0324 31.6769 73.1337 30.7441C73.3129 28.9614 73.5049 26.8956 72.6948 25.2311C71.8348 28.5927 71.1435 31.9855 70.2758 35.3457C69.4025 38.7366 68.3096 42.071 67.4439 45.4633C66.5564 48.9308 65.7822 52.5145 65.7591 56.1103C65.743 59.4536 66.2264 62.7546 66.8333 66.0309C67.3442 68.7977 68.5741 72.221 67.6308 75.0042C67.0909 76.5933 66.014 77.742 64.6562 78.6089C65.794 78.2881 66.9153 77.8851 67.9966 77.3556C69.0094 76.8532 73.1263 74.6177 72.5641 73.0704C72.5386 72.9943 72.5939 72.9094 72.6709 72.8364L72.6695 72.8441Z" fill="#E574A3"/>
</g>
<g style="mix-blend-mode:multiply">
<path d="M91.2912 37.7363C91.1869 36.3293 90.869 34.9621 90.3179 33.6548C89.1321 30.8503 87.6887 28.1091 86.8833 25.1767C86.1083 22.3372 84.741 19.3563 82.5014 17.4035C81.374 16.4257 79.8561 15.6294 78.365 15.4169C78.1259 15.3805 77.8352 15.3664 77.5186 15.3633C77.6807 15.4726 77.8428 15.5819 78.0007 15.7142C80.4027 17.6891 81.7982 20.8179 82.8912 23.6529C83.9794 26.4711 84.8518 29.3841 85.4785 32.3389C86.0434 35.0285 86.7851 38.0046 86.0275 40.727C85.7525 41.6991 85.2574 42.5749 84.662 43.3924C85.5332 43.1413 86.5168 42.8396 87.4411 42.7728C87.3967 42.4553 87.3964 42.1143 87.3751 41.8011C87.3458 41.3595 87.2614 40.9157 87.1909 40.4824C87.1827 40.4412 87.284 40.3648 87.2923 40.406C87.4923 41.125 87.8075 41.9922 87.7375 42.7563C87.8721 42.7574 87.999 42.7571 88.1322 42.7659C88.1552 42.7702 88.1706 42.773 88.1936 42.7773C88.4279 41.2109 88.2457 39.7102 87.9954 38.1493C87.9885 38.1005 88.1186 37.9977 88.1317 38.0556C88.4672 39.5847 88.8294 41.2693 88.2702 42.7914C88.9046 42.8771 89.631 43.1939 90.2461 43.2126C90.2489 43.1973 90.2656 43.1924 90.2747 43.1862C90.2972 43.1507 90.3182 43.1229 90.3454 43.1041C91.4031 42.3166 91.3859 38.8957 91.2927 37.7286L91.2912 37.7363Z" fill="#E574A3"/>
</g>
</svg>
