<svg width="136" height="103" viewBox="0 0 136 103" fill="none" xmlns="http://www.w3.org/2000/svg">
<g style="mix-blend-mode:multiply">
<path d="M107.715 73.7829C106.044 72.9367 104.339 72.1497 102.61 71.4326C103.323 67.1992 104.002 62.7712 104.673 57.9667C104.749 57.442 104.823 56.9025 104.903 56.3651C105.616 51.5394 106.424 46.0684 104.457 40.6313C101.363 32.0758 92.4143 30.5951 85.877 29.5162C83.9264 29.1904 82.0816 28.8858 80.6092 28.4585C78.1529 27.7456 75.8046 26.4339 73.3102 25.0525C71.2284 23.8931 69.0684 22.6936 66.6714 21.7395C61.23 19.5521 55.9071 20.0345 51.678 23.0747C48.1154 25.6389 45.8116 29.208 43.7679 32.3561C43.3914 32.9358 43.0254 33.5049 42.6509 34.057C39.5347 38.7093 36.4883 43.3637 33.6598 47.7029C33.5265 47.9123 33.3953 48.1154 33.2599 48.3101C31.1676 47.7749 29.1027 47.3264 27.0908 46.9731L26.8983 46.9372C23.2509 46.2856 18.2538 45.3887 14.0819 47.5805C12.2667 48.541 11.0101 50.1108 10.5425 52.0213C10.0073 54.1982 10.5511 56.6079 12.068 58.806C14.1075 61.7636 16.9869 63.8093 20.0101 65.8043C29.8415 72.3181 40.9147 76.7988 51.4125 80.8268C56.2382 82.6821 60.8037 84.3237 65.1704 85.7792C74.5701 88.9122 83.0368 91.1631 91.1545 92.7053C94.6156 93.3653 99.8369 94.2453 105.168 94.3086C108.42 94.3488 111.849 94.1731 114.936 92.5927C118.949 90.5384 119.37 87.3079 119.366 86.0089C119.355 81.8094 115.437 77.6967 107.719 73.7914L107.715 73.7829Z" fill="white"/>
<path d="M107.39 73.1314C105.718 72.2851 104.007 71.4961 102.28 70.7725C102.993 66.5392 103.672 62.1112 104.341 57.313C104.41 56.7862 104.491 56.2488 104.571 55.7115C105.284 50.8857 106.092 45.4147 104.125 39.9776C101.031 31.4222 92.0823 29.9414 85.5451 28.8625C83.5924 28.5431 81.7497 28.2321 80.2772 27.8048C77.8209 27.0919 75.4726 25.7802 72.9782 24.3988C70.8965 23.2395 68.7364 22.0399 66.3394 21.0858C60.898 18.8984 55.5751 19.3808 51.3461 22.4211C47.7834 24.9852 45.4732 28.5522 43.436 31.7024C43.0594 32.2821 42.6934 32.8512 42.3189 33.4033C39.1964 38.0535 36.1563 42.71 33.3278 47.0492C33.1945 47.2587 33.057 47.4597 32.928 47.6564C30.8356 47.1212 28.7708 46.6727 26.7609 46.3131L26.5684 46.2771C22.9211 45.6256 17.924 44.7286 13.752 46.9205C11.9368 47.881 10.6802 49.4508 10.2127 51.3612C9.67747 53.5382 10.2212 55.9479 11.7382 58.146C13.7755 61.1099 16.657 63.1493 19.6782 65.1506C29.5095 71.6644 40.5827 76.1451 51.0805 80.1731C55.9062 82.0284 60.4717 83.67 64.8384 85.1255C74.2445 88.2607 82.7048 90.5094 90.8225 92.0516C94.2836 92.7116 99.505 93.5916 104.836 93.655C108.088 93.6951 111.517 93.5195 114.604 91.939C118.611 89.8826 119.04 86.6478 119.034 85.3552C119.023 81.1557 115.105 77.043 107.381 73.1356L107.39 73.1314Z" fill="#F1F1F1"/>
<path d="M107.064 72.4799C105.392 71.6337 103.681 70.8446 101.954 70.1211C102.667 65.8877 103.346 61.4597 104.015 56.6615C104.091 56.1368 104.165 55.5973 104.245 55.06C104.958 50.2343 105.766 44.7633 103.799 39.3262C100.705 30.7707 91.7501 29.2878 85.2192 28.2111C83.2686 27.8853 81.4216 27.587 79.9513 27.1533C77.495 26.4404 75.1446 25.1351 72.6523 23.7473C70.5706 22.588 68.4105 21.3885 66.0156 20.428C60.5742 18.2406 55.2514 18.723 51.0223 21.7632C47.4681 24.3232 45.1558 27.8965 43.1122 31.0446C42.7356 31.6243 42.3696 32.1934 41.9951 32.7455C38.8789 37.3978 35.8325 42.0522 33.004 46.3914C32.8707 46.6008 32.7332 46.8018 32.6042 46.9986C30.5118 46.4634 28.447 46.0149 26.435 45.6616L26.2425 45.6257C22.5952 44.9741 17.5981 44.0772 13.4261 46.269C11.6109 47.2296 10.3522 48.8057 9.88677 50.7098C9.35156 52.8867 9.89533 55.2964 11.4123 57.4945C13.4518 60.4521 16.3311 62.4978 19.3544 64.4928C29.1857 71.0066 40.2589 75.4873 50.7567 79.5153C55.5824 81.3706 60.148 83.0122 64.5146 84.4677C73.9207 87.6029 82.3811 89.8516 90.4987 91.3938C93.9598 92.0538 99.1812 92.9338 104.513 92.9972C107.764 93.0373 111.194 92.8616 114.28 91.2812C118.294 89.2269 118.715 85.9964 118.71 84.6974C118.7 80.4979 114.781 76.3852 107.055 72.4841L107.064 72.4799Z" fill="#E2E2E2"/>
<path d="M106.742 71.8365C105.071 70.9903 103.359 70.2012 101.631 69.4841C102.343 65.2507 103.022 60.8227 103.693 56.0181C103.763 55.4913 103.843 54.954 103.924 54.4166C104.636 49.5909 105.445 44.1199 103.477 38.6828C100.384 30.1273 91.4347 28.6465 84.8975 27.5677C82.9469 27.2419 81.102 26.9373 79.6296 26.51C77.1733 25.7971 74.825 24.4854 72.3306 23.104C70.2488 21.9446 68.0888 20.7451 65.6939 19.7847C60.2525 17.5972 54.9296 18.0797 50.7006 21.1199C47.1379 23.6841 44.8277 27.251 42.7904 30.4012C42.4139 30.9809 42.0479 31.55 41.6734 32.1022C38.5572 36.7545 35.5108 41.4089 32.6823 45.748C32.549 45.9575 32.4136 46.1521 32.2825 46.3552C30.1922 45.8137 28.1274 45.3652 26.1154 45.0119L25.9229 44.9759C22.2756 44.3244 17.2785 43.4275 13.1065 45.6193C11.2913 46.5798 10.0326 48.156 9.56718 50.06C9.03197 52.237 9.57572 54.6467 11.0926 56.8448C13.13 59.8087 16.0115 61.8481 19.0348 63.8431C28.8661 70.3569 39.9394 74.8376 50.4371 78.8656C55.2628 80.7209 59.8283 82.3625 64.195 83.818C73.6011 86.9532 82.0614 89.2019 90.1791 90.744C93.6402 91.4041 98.8616 92.2841 104.193 92.3475C107.445 92.3876 110.874 92.2119 113.961 90.6315C117.974 88.5772 118.395 85.3467 118.391 84.0477C118.38 79.8482 114.462 75.7355 106.744 71.8302L106.742 71.8365Z" fill="#D4D4D4"/>
<path d="M106.416 71.1851C104.745 70.3389 103.033 69.5498 101.307 68.8263C102.02 64.5929 102.699 60.1649 103.367 55.3667C103.437 54.8399 103.517 54.3025 103.598 53.7652C104.311 48.9394 105.119 43.4685 103.151 38.0314C100.058 29.4759 91.1089 27.9951 84.5716 26.9162C82.6189 26.5968 80.7741 26.2922 79.3037 25.8585C76.8475 25.1456 74.4991 23.834 72.0048 22.4525C69.923 21.2932 67.763 20.0937 65.3659 19.1396C59.9245 16.9521 54.6017 17.4346 50.3726 20.4748C46.81 23.039 44.4998 26.6059 42.4625 29.7561C42.0859 30.3358 41.7199 30.9049 41.3455 31.4571C38.2293 36.1094 35.1829 40.7638 32.3544 45.1029C32.2211 45.3124 32.0836 45.5134 31.9545 45.7101C29.8622 45.1749 27.7973 44.7264 25.7854 44.3732L25.5928 44.3372C21.9476 43.6793 16.9484 42.7887 12.7765 44.9806C10.9613 45.9411 9.70252 47.5172 9.23712 49.4213C8.70191 51.5983 9.24568 54.0079 10.7626 56.206C12.8 59.17 15.6815 61.2094 18.7047 63.2044C28.5361 69.7182 39.6093 74.1988 50.107 78.2268C54.9328 80.0821 59.4983 81.7238 63.8649 83.1792C73.271 86.3144 81.7314 88.5631 89.849 90.1053C93.3102 90.7653 98.5315 91.6453 103.863 91.7087C107.115 91.7488 110.544 91.5732 113.631 89.9928C117.644 87.9384 118.065 84.7079 118.061 83.4089C118.05 79.2094 114.132 75.0967 106.414 71.1914L106.416 71.1851Z" fill="#C5C5C5"/>
<path d="M106.095 70.5418C104.423 69.6956 102.718 68.9086 100.992 68.1851C101.705 63.9517 102.384 59.5237 103.052 54.7255C103.124 54.1924 103.202 53.6613 103.283 53.124C103.995 48.2983 104.804 42.8273 102.836 37.3902C99.7428 28.8347 90.7937 27.3539 84.2564 26.275C82.3037 25.9556 80.461 25.6447 78.9885 25.2173C76.5323 24.5044 74.1818 23.1991 71.6896 21.8113C69.6078 20.652 67.4478 19.4525 65.0508 18.4984C59.6094 16.3109 54.2865 16.7934 50.0574 19.8336C46.4969 22.3914 44.1846 25.9647 42.1473 29.1149C41.7729 29.6883 41.4048 30.2637 41.0303 30.8159C37.9141 35.4682 34.8677 40.1226 32.0392 44.4617C31.9059 44.6712 31.7684 44.8722 31.6393 45.0689C29.547 44.5337 27.4821 44.0852 25.4702 43.732L25.2777 43.696C21.6303 43.0445 16.6332 42.1475 12.4613 44.3394C10.6461 45.2999 9.38945 46.8697 8.92193 48.7801C8.38672 50.9571 8.93049 53.3668 10.4474 55.5649C12.4869 58.5225 15.3663 60.5682 18.3895 62.5632C28.2209 69.077 39.2941 73.5577 49.7918 77.5856C54.6176 79.4409 59.1831 81.0826 63.5498 82.538C72.9558 85.6732 81.4162 87.922 89.5338 89.4641C92.995 90.1241 98.2163 91.0041 103.548 91.0675C106.799 91.1076 110.229 90.932 113.315 89.3516C117.329 87.2972 117.752 84.0603 117.745 82.7677C117.735 78.5682 113.817 74.4555 106.099 70.5502L106.095 70.5418Z" fill="#B7B7B7"/>
<path d="M105.769 69.8903C104.097 69.0441 102.386 68.255 100.657 67.5379C101.37 63.3045 102.049 58.8765 102.72 54.072C102.79 53.5452 102.87 53.0078 102.951 52.4704C103.663 47.6447 104.471 42.1737 102.504 36.7366C99.4107 28.1811 90.4616 26.7004 83.9244 25.6215C81.9738 25.2957 80.1289 24.9911 78.6565 24.5638C76.2002 23.8509 73.8519 22.5392 71.3575 21.1578C69.2758 19.9985 67.1157 18.7989 64.7208 17.8385C59.2794 15.651 53.9566 16.1335 49.7275 19.1737C46.1648 21.7379 43.8546 25.3049 41.8174 28.455C41.4408 29.0347 41.0748 29.6038 40.7003 30.156C37.5841 34.8083 34.5377 39.4627 31.7092 43.8019C31.5759 44.0113 31.4384 44.2123 31.3094 44.409C29.217 43.8738 27.1522 43.4254 25.1423 43.0657L24.9498 43.0298C21.3025 42.3782 16.3054 41.4813 12.1334 43.6731C10.3183 44.6337 9.05949 46.2098 8.59409 48.1139C8.05888 50.2909 8.60265 52.7005 10.1196 54.8986C12.157 57.8626 15.0384 59.902 18.0617 61.8969C27.8931 68.4108 38.9663 72.8914 49.464 76.9194C54.2919 78.7683 58.8553 80.4163 63.2219 81.8718C72.628 85.007 81.0884 87.2557 89.206 88.7979C92.6672 89.4579 97.8885 90.3379 103.22 90.4013C106.472 90.4414 109.901 90.2658 112.988 88.6854C117.001 86.631 117.424 83.3941 117.418 82.1015C117.407 77.902 113.489 73.7893 105.771 69.884L105.769 69.8903Z" fill="#A8A8A8"/>
<path d="M105.449 69.2407C103.778 68.3944 102.064 67.6117 100.338 66.8882C101.051 62.6548 101.73 58.2268 102.398 53.4286C102.477 52.8976 102.548 52.3644 102.629 51.8271C103.342 47.0014 104.15 41.5304 102.182 36.0933C99.089 27.5378 90.1399 26.057 83.6027 24.9782C81.6521 24.6524 79.8072 24.3478 78.3348 23.9204C75.8785 23.2075 73.528 21.9022 71.0358 20.5144C68.954 19.3551 66.794 18.1556 64.3991 17.1951C58.9577 15.0077 53.6348 15.4901 49.4058 18.5303C45.8431 21.0945 43.5393 24.6636 41.4956 27.8117C41.1191 28.3913 40.7531 28.9605 40.3786 29.5126C37.2624 34.1649 34.216 38.8193 31.3875 43.1585C31.2542 43.3679 31.123 43.5711 30.9877 43.7657C28.8974 43.2241 26.8326 42.7756 24.8206 42.4224L24.6281 42.3864C20.9808 41.7349 15.9837 40.8379 11.8117 43.0298C9.99654 43.9903 8.73778 45.5665 8.27238 47.4705C7.73717 49.6475 8.28092 52.0572 9.79785 54.2553C11.8352 57.2192 14.7167 59.2586 17.74 61.2536C27.5714 67.7674 38.6445 72.2481 49.1423 76.276C53.968 78.1313 58.5335 79.773 62.9002 81.2284C72.3063 84.3636 80.7666 86.6124 88.8843 88.1545C92.3454 88.8145 97.5668 89.6945 102.898 89.7579C106.15 89.798 109.579 89.6224 112.666 88.042C116.679 85.9877 117.1 82.7571 117.096 81.4581C117.085 77.2586 113.167 73.1459 105.449 69.2407Z" fill="#9A9A9A"/>
<path d="M105.121 68.5954C103.45 67.7491 101.738 66.9601 100.012 66.2365C100.725 62.0032 101.404 57.5752 102.072 52.777C102.142 52.2502 102.223 51.7128 102.303 51.1755C103.016 46.3497 103.824 40.8787 101.856 35.4417C98.7632 26.8862 89.8141 25.4054 83.2768 24.3265C81.3241 24.0071 79.4793 23.7025 78.0089 23.2688C75.5527 22.5559 73.2044 21.2442 70.71 19.8628C68.6282 18.7035 66.4682 17.504 64.0733 16.5435C58.6319 14.3561 53.309 14.8385 49.08 17.8787C45.5173 20.4429 43.2071 24.0099 41.1698 27.1601C40.7954 27.7334 40.4273 28.3088 40.0528 28.861C36.9366 33.5133 33.8902 38.1677 31.0617 42.5069C30.9284 42.7163 30.7973 42.9194 30.6619 43.1141C28.5695 42.5788 26.5047 42.1304 24.4927 41.7771L24.3002 41.7411C20.6529 41.0896 15.6558 40.1927 11.4838 42.3845C9.66863 43.345 8.40986 44.9212 7.94446 46.8252C7.40925 49.0022 7.95299 51.4119 9.46992 53.61C11.5073 56.5739 14.3888 58.6133 17.4121 60.6083C27.2434 67.1221 38.3166 71.6028 48.8144 75.6307C53.6401 77.486 58.2056 79.1277 62.5723 80.5832C71.9784 83.7183 80.4387 85.9671 88.5564 87.5092C92.0175 88.1693 97.2389 89.0493 102.57 89.1126C105.822 89.1528 109.251 88.9771 112.338 87.3967C116.345 85.3403 116.772 82.1118 116.768 80.8128C116.757 76.6134 112.839 72.5007 105.121 68.5954Z" fill="#8B8B8B"/>
<path d="M104.795 67.9439C103.124 67.0977 101.413 66.3086 99.6862 65.5851C100.399 61.3517 101.078 56.9237 101.747 52.1255C101.825 51.5945 101.897 51.0614 101.977 50.524C102.69 45.6983 103.498 40.2273 101.53 34.7902C98.4373 26.2347 89.4882 24.7539 82.951 23.6751C81.0004 23.3493 79.1555 23.0447 77.6831 22.6173C75.2268 21.9044 72.8785 20.5928 70.3841 19.2113C68.3024 18.052 66.1423 16.8525 63.7453 15.8984C58.3039 13.7109 52.981 14.1934 48.752 17.2336C45.1893 19.7978 42.8855 23.3669 40.8418 26.5149C40.4653 27.0946 40.0993 27.6637 39.7248 28.2159C36.6086 32.8682 33.5622 37.5226 30.7337 41.8618C30.6004 42.0712 30.4692 42.2743 30.3338 42.469C28.2415 41.9337 26.1766 41.4853 24.1647 41.132L23.9722 41.096C20.3249 40.4445 15.3278 39.5475 11.1558 41.7394C9.34063 42.6999 8.08186 44.2761 7.61645 46.1801C7.08124 48.3571 7.62499 50.7668 9.14192 52.9649C11.1814 55.9225 14.0608 57.9682 17.0841 59.9632C26.9154 66.477 37.9886 70.9577 48.4864 74.9856C53.3121 76.8409 57.8776 78.4826 62.2443 79.938C71.6504 83.0732 80.1107 85.322 88.2284 86.8641C91.6895 87.5241 96.9109 88.4041 102.242 88.4675C105.494 88.5077 108.923 88.332 112.01 86.7516C116.023 84.6973 116.444 81.4667 116.44 80.1677C116.429 75.9682 112.511 71.8556 104.793 67.9503L104.795 67.9439Z" fill="#7D7D7D"/>
<path d="M104.474 67.3007C102.803 66.4544 101.091 65.6654 99.3648 64.9418C100.078 60.7085 100.757 56.2805 101.425 51.4823C101.495 50.9555 101.575 50.4181 101.656 49.8808C102.369 45.055 103.177 39.584 101.209 34.1469C98.1159 25.5915 89.1668 24.1107 82.6295 23.0318C80.6789 22.706 78.8341 22.4014 77.3616 21.9741C74.9054 21.2612 72.5571 19.9495 70.0627 18.5681C67.9809 17.4088 65.8209 16.2093 63.4239 15.2552C57.9825 13.0677 52.6596 13.5502 48.4305 16.5904C44.8679 19.1545 42.5577 22.7215 40.5204 25.8717C40.1439 26.4514 39.7779 27.0205 39.4034 27.5727C36.2872 32.225 33.2408 36.8794 30.4123 41.2185C30.279 41.428 30.1436 41.6226 30.0124 41.8257C27.9201 41.2905 25.8552 40.842 23.8454 40.4824L23.6529 40.4464C20.0056 39.7949 15.0085 38.898 10.8365 41.0898C9.02345 42.044 7.76256 43.6265 7.29716 45.5305C6.76195 47.7075 7.30569 50.1172 8.82262 52.3153C10.86 55.2792 13.7415 57.3186 16.7626 59.3199C26.594 65.8338 37.6672 70.3144 48.1671 74.336C52.9928 76.1913 57.5583 77.833 61.925 79.2885C71.3311 82.4236 79.7914 84.6724 87.9091 86.2145C91.3702 86.8746 96.5895 87.7609 101.923 87.8179C105.175 87.8581 108.604 87.6824 111.691 86.102C115.698 84.0456 116.127 80.8108 116.121 79.5181C116.11 75.3186 112.192 71.206 104.474 67.3007Z" fill="#6E6E6E"/>
<path d="M104.148 66.6492C102.477 65.803 100.765 65.0139 99.0389 64.2904C99.7518 60.057 100.431 55.629 101.099 50.8308C101.175 50.3061 101.249 49.7666 101.33 49.2293C102.043 44.4036 102.851 38.9326 100.883 33.4955C97.79 24.94 88.841 23.4592 82.3037 22.3804C80.3531 22.0546 78.5062 21.7563 77.0358 21.3226C74.5796 20.6097 72.2291 19.3044 69.7369 17.9166C67.6551 16.7573 65.495 15.5578 63.1001 14.5973C57.6588 12.4099 52.3359 12.8923 48.1068 15.9325C44.5442 18.4967 42.2403 22.0658 40.1967 25.2139C39.8222 25.7872 39.4541 26.3627 39.0797 26.9148C35.9571 31.565 32.917 36.2215 30.0885 40.5607C29.9553 40.7702 29.8178 40.9711 29.6887 41.1679C27.5964 40.6327 25.5315 40.1842 23.5195 39.8309L23.327 39.795C19.6797 39.1434 14.6826 38.2465 10.5106 40.4383C8.69547 41.3988 7.43671 42.975 6.97131 44.8791C6.4361 47.056 6.97985 49.4657 8.49678 51.6638C10.5342 54.6277 13.4157 56.6672 16.4389 58.6621C26.2703 65.1759 37.3435 69.6566 47.8412 73.6846C52.667 75.5399 57.2325 77.1815 61.5991 78.637C71.0052 81.7721 79.4656 84.0209 87.5832 85.5631C91.0444 86.2231 96.2657 87.1031 101.597 87.1664C104.849 87.2066 108.278 87.0309 111.365 85.4505C115.378 83.3962 115.799 80.1657 115.795 78.8667C115.784 74.6672 111.866 70.5545 104.148 66.6492Z" fill="#606060"/>
</g>
<path d="M104.148 66.6492C102.477 65.803 100.765 65.0139 99.0389 64.2904C99.7518 60.057 100.431 55.629 101.099 50.8308C101.175 50.3061 101.249 49.7666 101.33 49.2293C102.043 44.4036 102.851 38.9326 100.883 33.4955C97.79 24.94 88.841 23.4592 82.3037 22.3804C80.3531 22.0546 78.5062 21.7563 77.0358 21.3226C74.5796 20.6097 72.2291 19.3044 69.7369 17.9166C67.6551 16.7573 65.495 15.5578 63.1001 14.5973C57.6588 12.4099 52.3359 12.8923 48.1068 15.9325C44.5442 18.4967 42.2403 22.0658 40.1967 25.2139C39.8222 25.7872 39.4541 26.3627 39.0797 26.9148C35.9571 31.565 32.917 36.2215 30.0885 40.5607C29.9553 40.7702 29.8178 40.9711 29.6887 41.1679C27.5964 40.6327 25.5315 40.1842 23.5195 39.8309L23.327 39.795C19.6797 39.1434 14.6826 38.2465 10.5106 40.4383C8.69547 41.3988 7.43671 42.975 6.97131 44.8791C6.4361 47.056 6.97985 49.4657 8.49678 51.6638C10.5342 54.6277 13.4157 56.6672 16.4389 58.6621C26.2703 65.1759 37.3435 69.6566 47.8412 73.6846C52.667 75.5399 57.2325 77.1815 61.5991 78.637C71.0052 81.7721 79.4656 84.0209 87.5832 85.5631C91.0444 86.2231 96.2657 87.1031 101.597 87.1664C104.849 87.2066 108.278 87.0309 111.365 85.4505C115.378 83.3962 115.799 80.1657 115.795 78.8667C115.784 74.6672 111.866 70.5545 104.148 66.6492Z" fill="white"/>
<path d="M93.4412 67.311L93.2614 71.8067C93.2614 71.8067 82.988 72.8393 58.8064 64.7792C34.6248 56.7191 30.3406 48.9443 30.3406 48.9443L31.9653 46.8202C29.3187 46.0227 13.3669 41.4321 11.8501 45.9828C10.1894 50.9651 27.8338 61.5852 57.8482 72.2029C87.8562 82.8186 108.797 84.7984 110.588 79.4226C112.38 74.0468 93.4412 67.311 93.4412 67.311Z" fill="#EFD9C2"/>
<path d="M93.1767 67.2372C93.1217 68.6293 93.0625 70.0129 93.0096 71.3987C92.9906 71.7943 93.1302 71.6927 92.5527 71.7118C90.5323 71.7859 88.4716 71.5997 86.4597 71.3734C81.9619 70.8615 77.4895 69.9349 73.089 68.856C66.1942 67.1573 59.3628 65.0355 52.7282 62.4926C46.0555 59.937 39.1839 56.8357 33.7023 52.2512C32.7058 51.4114 31.739 50.5038 30.9541 49.4735C30.842 49.3233 30.7256 49.1646 30.6283 48.9911C30.5479 48.8515 31.9992 47.2055 32.2319 46.9093C32.308 46.8078 32.0647 46.7337 32.0076 46.7147C28.9569 45.7966 25.8385 45.0392 22.7095 44.4829C19.6757 43.9371 15.529 43.1544 12.7428 44.6163C10.9192 45.5811 11.4333 47.5507 12.4192 48.9724C14.0398 51.3249 16.6822 53.1295 19.075 54.7098C28.3923 60.883 39.1227 65.2495 49.557 69.2563C62.1852 74.1072 75.1899 78.3784 88.4866 80.9063C92.83 81.7334 97.2643 82.3723 101.675 82.4251C104.197 82.4547 107.007 82.3615 109.224 81.2317C115.321 78.109 104.69 72.2172 102.028 70.8717C99.2951 69.4881 96.4453 68.2632 93.5512 67.2351C93.329 67.1611 93.0053 67.2647 93.365 67.3917C95.4954 68.1511 97.5899 69.0397 99.6505 69.9874C102.983 71.5212 106.655 73.2813 109.152 75.9681C110.8 77.7304 110.895 79.8777 108.72 81.0498C106.273 82.3637 102.888 82.2579 100.123 82.1543C95.2312 81.9767 90.3251 81.1242 85.529 80.1109C79.0107 78.7422 72.5771 76.9292 66.226 74.911C53.1155 70.7456 40.0409 65.7741 27.8231 59.4804C23.9473 57.4833 20.0947 55.3106 16.6484 52.6598C14.8818 51.2953 12.5757 49.4547 12.0849 47.2461C11.393 44.1382 16.0749 44.0557 18.2053 44.1593C22.1679 44.3517 26.1558 45.3143 29.9957 46.3614C30.6557 46.5391 31.3052 46.7274 31.9526 46.922C31.8764 46.8543 31.8003 46.7866 31.7284 46.7274C31.1889 47.4361 30.6431 48.1428 30.1015 48.8578C30.0846 48.8663 30.0782 48.8854 30.0846 48.9086C30.4802 49.6258 31.1085 50.2584 31.6882 50.8465C33.5881 52.7632 35.8666 54.3478 38.1748 55.78C42.4547 58.4266 47.09 60.5146 51.7783 62.3593C58.2415 64.9085 64.9248 66.9669 71.6482 68.7143C77.0325 70.0999 82.5246 71.2465 88.0422 71.7668C89.8129 71.9339 91.6747 72.1032 93.437 71.936C93.4666 71.9318 93.5322 71.9254 93.5259 71.881C93.5872 70.3853 93.6548 68.8916 93.7119 67.3874C93.7225 67.2288 93.1725 67.123 93.1746 67.2436L93.1767 67.2372Z" fill="#A38871"/>
<path d="M93.7772 65.4133C94.3484 62.1341 95.552 54.905 96.6858 46.1718C98.2491 34.1825 95.1708 29.7292 85.5701 27.9819C75.9631 26.2324 74.808 26.5033 64.8433 20.8124C54.885 15.1237 50.5227 19.0715 45.805 25.9262C42.5809 30.606 37.3195 38.6475 34.3027 43.2765C36.6172 46.1495 43.6729 52.8241 62.6818 59.1601C81.6907 65.496 90.3668 65.6799 93.7751 65.4197L93.7772 65.4133Z" fill="#EFD9C2"/>
<path d="M94.027 65.5321C94.9155 60.4334 95.7003 55.3073 96.4153 50.179C97.0922 45.3342 98.1922 39.9606 96.4404 35.1032C93.5546 27.1316 82.5767 27.8659 75.7199 25.8625C70.5324 24.352 66.299 20.9735 61.3463 18.9912C57.7011 17.5294 53.9692 17.5548 50.8804 19.7763C47.4574 22.2389 45.2826 26.1825 43.0232 29.5548C39.9979 34.0611 37.0256 38.5991 34.0638 43.1478C34.0511 43.1858 34.087 43.2261 34.1082 43.2472C38.3289 48.4621 44.989 51.9655 51.0756 54.7558C57.2871 57.5949 63.8011 59.7591 70.3596 61.663C75.2974 63.0973 80.3136 64.3179 85.3953 65.0668C88.2239 65.4877 91.1392 65.7754 93.972 65.5701C94.1751 65.5532 93.7393 65.2528 93.5933 65.2676C91.1519 65.4411 88.6618 65.2317 86.214 64.9165C81.1873 64.2777 76.2198 63.0804 71.3391 61.7074C60.1221 58.568 48.1793 54.6015 38.8896 47.436C37.8064 46.6025 36.7739 45.7013 35.8134 44.7323C35.4918 44.4065 35.1787 44.0765 34.8847 43.7317C34.6858 43.5032 34.5313 43.4376 34.7027 43.1774C35.0644 42.621 35.4262 42.0646 35.7859 41.5145C38.864 36.8072 41.9421 32.0999 45.1007 27.4476C47.3326 24.1578 49.738 20.2418 53.7893 18.729C59.127 16.7424 64.6129 20.9122 69.1319 23.2858C73.031 25.34 76.9195 26.5585 81.2375 27.3349C85.7141 28.143 91.1534 28.5385 94.3353 32.1731C97.3268 35.5749 97.0054 40.6862 96.6013 44.6699C95.9922 50.7502 94.9471 56.8051 93.955 62.8283C93.8133 63.6555 93.6737 64.4764 93.534 65.2972C93.5065 65.4644 94.0122 65.6611 94.0312 65.5405L94.027 65.5321Z" fill="#A38871"/>
<path d="M93.7774 65.4135C90.3692 65.6738 81.3376 65.3714 62.6842 59.154C44.0307 52.9365 36.6196 46.1434 34.3051 43.2704C33.4102 44.6434 32.7142 45.7161 32.3334 46.3085C32.1218 46.647 30.3405 48.9445 30.3405 48.9445C30.3405 48.9445 34.6311 56.7215 58.8064 64.7794C82.9816 72.8374 93.2613 71.8069 93.2613 71.8069L93.4411 67.3112C93.4411 67.3112 93.5617 66.6321 93.7774 65.4135Z" fill="#422A05"/>
<path d="M93.6062 65.2506C91.1584 65.422 88.6684 65.2126 86.2269 64.8996C81.2066 64.2628 76.2327 63.0634 71.3499 61.6968C60.1646 58.568 48.2853 54.6226 39.0019 47.5227C37.3665 46.2724 35.8094 44.893 34.5252 43.3085C34.4765 43.2429 34.1698 42.9996 34.0809 43.1181C32.8116 45.0645 31.5338 46.9516 30.1163 48.7922C30.1079 48.8176 30.1016 48.8366 30.1143 48.862C30.5141 49.5665 31.1298 50.1949 31.6989 50.7724C33.5247 52.6362 35.7165 54.1848 37.9421 55.5896C42.1099 58.2128 46.6437 60.2882 51.2198 62.1308C57.6831 64.7223 64.379 66.8061 71.1025 68.5746C76.6327 70.0301 82.2708 71.2253 87.9449 71.7837C89.7559 71.9572 91.6536 72.1454 93.4497 71.9613C93.4942 71.955 93.5111 71.9465 93.5153 71.9127C93.6105 69.7442 93.6676 67.6476 94.0314 65.5193C94.0505 65.3775 93.5766 65.1279 93.5448 65.2866C93.2889 66.7739 93.1683 68.1511 93.1112 69.6553C93.0879 70.3175 93.0605 70.9712 93.033 71.625C93.0351 71.6398 93.1366 71.6313 92.9208 71.644C91.3765 71.7498 89.8003 71.6335 88.2496 71.5045C77.6482 70.6224 67.0489 67.4915 57.0039 64.0305C48.8186 61.2106 40.0599 57.72 33.4485 52.082C32.4499 51.2273 31.464 50.2922 30.7278 49.2217C30.4675 48.8599 30.9288 48.661 31.2355 48.2485C32.435 46.6808 33.4907 45.0581 34.5633 43.4058C34.4152 43.3423 34.265 43.2852 34.1169 43.2217C38.2826 48.369 44.8136 51.8575 50.822 54.6289C57.1033 57.5335 63.7125 59.7294 70.3619 61.6566C75.2998 63.0909 80.3138 64.3179 85.3976 65.0603C88.2262 65.4813 91.1394 65.7753 93.9807 65.5658C94.1901 65.551 93.7733 65.2146 93.6274 65.2295L93.6062 65.2506Z" fill="#1C1203"/>
<path d="M67.3063 22.1837C67.3063 22.1837 67.4883 22.2937 67.812 22.4862C67.9707 22.5814 68.1632 22.702 68.3832 22.8459C68.6075 22.977 68.8486 23.1421 69.1279 23.2986C69.678 23.616 70.2978 24.02 70.9939 24.4072C71.3366 24.606 71.6857 24.807 72.0454 25.0186C72.405 25.2301 72.788 25.4142 73.1582 25.6151C73.5263 25.8225 73.8965 26.0234 74.2816 26.2011C74.6582 26.3831 75.0178 26.5735 75.3754 26.7491C75.7393 26.9056 76.0947 27.0664 76.4268 27.2124C76.7569 27.3647 77.0763 27.4853 77.3789 27.5932C77.6793 27.7074 77.9501 27.8047 78.1934 27.8999C78.4451 27.9697 78.6652 28.029 78.8408 28.0734C79.1983 28.1644 79.4099 28.2278 79.4099 28.2278C79.4099 28.2278 79.2025 28.2151 78.8323 28.1622C78.644 28.1347 78.4198 28.1094 78.149 28.0755C77.8951 28.0121 77.6074 27.9444 77.2921 27.8534C76.9727 27.7751 76.6278 27.6884 76.2872 27.5466C75.936 27.4155 75.5637 27.2843 75.1892 27.1384C74.8211 26.9733 74.4339 26.802 74.0489 26.6243C73.6554 26.4508 73.2809 26.2414 72.9043 26.0383C72.5235 25.8267 72.1448 25.63 71.7873 25.4121C71.4255 25.1857 71.0743 24.9699 70.7358 24.7584C70.0524 24.3331 69.4558 23.8804 68.9375 23.5102C68.673 23.3304 68.4615 23.14 68.2626 22.9749C68.0616 22.8163 67.8903 22.6745 67.7464 22.5561C67.465 22.3212 67.3063 22.1837 67.3063 22.1837Z" fill="#A38871"/>
<g style="mix-blend-mode:multiply" opacity="0.7">
<path d="M96.6884 46.1657C98.2516 34.1765 95.1733 29.7232 85.5726 27.9758C75.9656 26.2264 74.8105 26.4972 64.8458 20.8064C55.023 15.198 50.6522 18.9597 46 25.6387C46.0783 25.552 52.3912 18.2276 57.0413 19.1288C65.8952 20.8317 69.0856 27.7836 79.5072 29.2897C82.0628 29.662 82.835 29.0379 80.5819 28.3292C78.3415 27.6248 81.9909 27.6141 86.2475 28.6803C90.5042 29.7465 95.1522 32.0503 92.8442 38.0862C90.5319 44.1136 79.0972 58.0663 59.1723 54.7113C37.8194 51.113 35.9617 40.5646 40.9798 33.1048C38.5554 36.7607 36.059 40.5899 34.3052 43.2705C36.6198 46.1434 43.6754 52.8181 62.6843 59.154C81.6932 65.49 90.3694 65.6739 93.7776 65.4136C94.3488 62.1344 95.5524 54.9053 96.6862 46.172L96.6884 46.1657Z" fill="#E5C5A8"/>
</g>
<g style="mix-blend-mode:multiply" opacity="0.7">
<path d="M93.441 67.3114L93.2612 71.8071C93.2612 71.8071 82.9878 72.8397 58.8062 64.7796C34.6246 56.7195 30.3404 48.9447 30.3404 48.9447L31.9651 46.8206C30.6704 46.4314 26.1874 45.1346 21.77 44.445C22.1127 44.5169 30.3298 46.205 27.5414 47.4406C24.6875 48.7037 30.057 55.6343 53.4156 64.3439C76.7806 73.0556 86.6606 73.7324 90.255 74.1407C93.8494 74.5489 88.3215 82.9882 52.8995 69.5102C21.6538 57.6147 8.14545 46.6454 14.3717 44.2357C13.0811 44.5107 12.1651 45.0587 11.8541 45.9917C10.1934 50.9739 27.8378 61.594 57.8522 72.2118C87.8603 82.8274 108.801 84.8073 110.592 79.4315C112.384 74.0557 93.4452 67.3199 93.4452 67.3199L93.441 67.3114Z" fill="#E5C5A8"/>
</g>
<g style="mix-blend-mode:multiply" opacity="0.6">
<path d="M93.4411 67.3114C93.4411 67.3114 93.5617 66.6323 93.7774 65.4137C90.3692 65.6739 81.3376 65.3716 62.6842 59.1541C44.0307 52.9366 36.6196 46.1435 34.3051 43.2705C33.7973 44.0533 33.3509 44.7367 32.9955 45.2952C34.4743 44.4553 36.097 46.0822 39.0589 48.5997C42.4567 51.5023 56.9889 58.9553 69.1072 61.8662C81.1663 64.7644 74.6904 69.0655 56.8113 63.1696C38.9385 57.2758 30.2178 49.4609 31.9737 46.8163C31.3814 47.5991 30.349 48.9405 30.349 48.9405C30.349 48.9405 34.6395 56.7174 58.8148 64.7753C82.99 72.8333 93.2698 71.8028 93.2698 71.8028L93.4496 67.3071L93.4411 67.3114Z" fill="#2D1D01"/>
</g>
<g style="mix-blend-mode:screen">
<path d="M23.579 45.1747C23.579 45.1747 15.216 43.4379 14.5327 45.8476C13.8642 48.2551 21.7302 56.8783 53.4308 68.9536C53.4308 68.9536 29.1074 58.8859 21.9692 50.7874C15.9903 44.0133 23.5748 45.1662 23.5748 45.1662L23.579 45.1747Z" fill="#E5C5A8"/>
</g>
<g style="mix-blend-mode:screen">
<path d="M42.5559 32.6288C45.3294 28.5604 53.0808 17.4914 59.8784 20.8149C66.6759 24.1384 72.1342 28.2849 78.2547 29.7044C78.2547 29.7044 73.5369 30.0218 65.6879 26.0446C57.841 22.061 54.6274 22.8798 48.7905 28.2261C42.9558 33.566 40.508 35.6414 42.5559 32.6288Z" fill="#E5C5A8"/>
</g>
<g style="mix-blend-mode:multiply" opacity="0.7">
<path d="M96.8469 44.7801C95.3491 51.1143 92.47 61.3179 81.5809 61.151C68.6143 60.9544 53.3374 55.5874 52.7365 55.3801C55.6222 56.624 58.9142 57.8976 62.6779 59.152C81.3313 65.3695 90.3629 65.6719 93.7712 65.4116C94.3423 62.1324 95.546 54.9033 96.6798 46.1701C96.7411 45.6898 96.794 45.235 96.8384 44.7843L96.8469 44.7801Z" fill="#E5C5A8"/>
</g>
<g style="mix-blend-mode:multiply" opacity="0.7">
<path d="M110.595 79.4252C112.387 74.0494 93.4475 67.3136 93.4475 67.3136L93.4347 67.4998C103.787 72.2407 108.976 78.2299 100.182 79.7342C91.2072 81.2703 73.18 77.0669 72.0291 76.7961C94.3024 83.2822 109.105 83.9145 110.599 79.4336L110.595 79.4252Z" fill="#E5C5A8"/>
</g>
</svg>
