<svg width="121" height="49" viewBox="0 0 121 49" fill="none" xmlns="http://www.w3.org/2000/svg">
<g style="mix-blend-mode:multiply">
<path d="M4.84919 17.129C4.88379 17.2778 4.90911 17.4265 4.939 17.5799C5.12212 18.5513 5.42402 20.1826 6.717 21.5616C7.42275 22.3101 8.21317 22.7031 8.89973 22.9323C9.10793 23.7882 9.32585 24.6166 9.53551 25.3846C9.68825 25.9524 9.83667 26.5016 9.96695 27.0273C10.0541 27.3623 10.1364 27.7066 10.2233 28.0509C11.5648 33.4895 13.2318 40.254 19.3788 43.6874C25.8382 47.2881 33.4028 47.1032 38.5349 46.6462C43.9686 46.1618 50.6818 44.7952 54.3723 38.5088C55.7215 36.2191 56.5208 33.8416 57.2956 31.5424C57.4224 31.1646 57.5491 30.7867 57.6804 30.4136C58.0162 29.4462 58.3843 28.4839 58.7764 27.4665C59.3091 26.0807 59.8561 24.6673 60.3208 23.1877C62.1471 22.8613 63.3038 22.9592 64.328 23.509C64.7263 24.9103 65.1951 26.2571 65.6552 27.5713C66.0134 28.6012 66.3539 29.5799 66.6573 30.5626C66.776 30.9491 66.8947 31.3356 67.0088 31.7221C67.7071 34.0364 68.4271 36.4346 69.6952 38.7584C73.1797 45.1685 79.8439 46.7524 85.2631 47.4169C86.9509 47.621 88.903 47.8109 91.0014 47.8457C95.2582 47.9163 100.1 47.3619 104.512 45.0906C110.764 41.863 112.655 35.1575 114.176 29.771C114.274 29.4298 114.368 29.0931 114.471 28.7334C114.594 28.3046 114.732 27.8389 114.879 27.3502C116.068 27.1336 117.033 26.5334 117.763 25.5586C118.312 24.8217 118.509 24.3987 118.832 23.6489L118.996 23.267C119.42 22.2733 119.957 20.9478 120.3 19.5357C120.791 17.5376 120.297 15.5046 118.955 13.9858C118.714 13.7084 118.445 13.4491 118.157 13.2173C115.918 11.3685 113.424 9.48308 110.392 8.2003C107.852 7.12493 104.955 6.3726 101.764 5.96753C100.363 5.79139 98.8272 5.6686 97.0723 5.59778C96.1602 5.55948 95.2433 5.53037 94.3264 5.50125C93.7383 5.48223 93.1501 5.46784 92.5713 5.44433C85.8758 5.18498 80.5958 5.34294 75.7482 5.97141C75.4888 5.9671 75.2244 5.98588 74.9503 6.02767C74.8574 6.04466 74.7227 6.06559 74.5229 6.09934C74.1558 6.16275 73.5703 6.26424 72.706 6.4167C72.6874 6.41639 72.6688 6.42535 72.6502 6.42967C72.2829 6.50235 72.0273 6.54907 71.8646 6.58344C71.4554 6.66932 71.0873 6.79294 70.7697 6.94521C69.0362 7.54658 67.5612 8.48121 66.3917 9.70817C63.6213 9.12937 60.9634 9.0343 58.515 9.43384C57.4043 8.23855 56.0067 7.3026 54.3584 6.66828C54.0461 6.50557 53.6869 6.36987 53.2855 6.27055C53.124 6.2308 52.8748 6.17107 52.5101 6.09088C52.4915 6.09057 52.4685 6.08093 52.4501 6.07599C51.5913 5.89494 51.0095 5.77409 50.6447 5.69853C50.4508 5.65825 50.3123 5.62815 50.2199 5.61272C49.9428 5.55715 49.6791 5.52961 49.4243 5.53002C44.5956 4.741 39.3238 4.40333 32.6279 4.44514C27.5586 4.47223 21.252 4.51122 15.3042 6.3817C14.3028 6.69869 13.3287 7.04393 12.3826 7.38036C11.8093 7.58398 11.236 7.7876 10.6535 7.98644C10.4904 8.04397 10.3275 8.09223 10.1643 8.14976C8.69693 8.62581 6.47963 9.33962 5.10578 11.7169C3.97054 13.6765 4.49727 15.7193 4.78485 16.8175C4.81551 16.9246 4.84154 17.0316 4.86316 17.1246L4.84919 17.129Z" fill="white"/>
<path d="M4.50292 16.7712C4.53751 16.9201 4.56285 17.0687 4.59274 17.2221C4.77578 18.1982 5.06833 19.834 6.37074 21.2039C7.07656 21.9476 7.8669 22.3453 8.55346 22.5745C8.75702 23.4304 8.97958 24.2588 9.18924 25.0268C9.34199 25.5946 9.49041 26.1438 9.62069 26.6695C9.70316 27.0045 9.79011 27.3488 9.87243 27.693C11.214 33.127 12.8809 39.8962 19.0279 43.3295C25.4873 46.9302 33.0566 46.7454 38.1886 46.2884C43.6223 45.804 50.3355 44.4374 54.0259 38.1556C55.3752 35.8613 56.1745 33.4884 56.9493 31.1892C57.076 30.8114 57.2028 30.4336 57.3341 30.0605C57.6698 29.093 58.0379 28.1308 58.4301 27.1133C58.9627 25.7275 59.5051 24.3141 59.9745 22.8346C61.8008 22.5081 62.9575 22.6061 63.9816 23.1559C64.38 24.5571 64.8488 25.9039 65.3088 27.2182C65.667 28.2527 66.0076 29.2267 66.311 30.2094C66.4297 30.5959 66.5484 30.9825 66.6624 31.3689C67.3607 33.6833 68.0808 36.0814 69.3442 38.4051C72.8287 44.8152 79.4929 46.3992 84.9122 47.0637C86.5999 47.2724 88.5521 47.4576 90.6457 47.4924C94.9026 47.563 99.7444 47.0086 104.156 44.7419C110.409 41.5143 112.299 34.8088 113.82 29.4177C113.919 29.0765 114.012 28.7398 114.116 28.3801C114.239 27.9512 114.376 27.4856 114.523 26.9969C115.713 26.7803 116.677 26.1801 117.407 25.2053C117.957 24.4684 118.154 24.0454 118.477 23.2909L118.64 22.9091C119.065 21.9153 119.601 20.5898 119.944 19.1777C120.436 17.175 119.937 15.1512 118.6 13.6279C118.354 13.3504 118.09 13.0912 117.802 12.8594C115.553 11.0243 113.068 9.12514 110.036 7.84237C107.496 6.767 104.599 6.01466 101.409 5.60959C100.008 5.43345 98.4717 5.31066 96.7168 5.23984C95.8047 5.20154 94.8878 5.17243 93.9709 5.14332C93.3827 5.12429 92.79 5.10519 92.2158 5.0864C85.5203 4.82704 80.2402 4.98964 75.3927 5.61347C75.1333 5.60917 74.8689 5.62795 74.5948 5.66973C74.5065 5.6868 74.3671 5.70766 74.1673 5.74141C73.8003 5.80482 73.2148 5.9063 72.3504 6.05876C72.3319 6.05846 72.3132 6.06741 72.2946 6.07174C71.9274 6.14441 71.6717 6.19577 71.509 6.2255C71.0999 6.31138 70.7364 6.43508 70.4142 6.58727C68.6806 7.18864 67.2056 8.12326 66.0362 9.35023C63.2658 8.77143 60.6079 8.67636 58.1595 9.07591C57.0488 7.87598 55.6511 6.94466 54.0029 6.31034C53.6906 6.14763 53.3314 6.01194 52.9299 5.91261C52.7684 5.87286 52.5192 5.81313 52.1545 5.73294C52.136 5.73264 52.113 5.72299 52.0945 5.71805C51.2357 5.537 50.654 5.41615 50.2892 5.34059C50.0952 5.30031 49.9567 5.27021 49.8643 5.25478C49.5873 5.19922 49.3236 5.17167 49.0688 5.17208C44.2447 4.38314 38.9729 4.04547 32.2724 4.0872C27.2031 4.11429 20.8965 4.15328 14.9488 6.01913C13.9473 6.33612 12.9733 6.68136 12.0271 7.01779C11.4538 7.22141 10.8806 7.42503 10.2981 7.62387C10.135 7.6814 9.972 7.72966 9.80888 7.78718C8.34148 8.26324 6.11953 8.97697 4.75032 11.3543C3.61508 13.3139 4.14645 15.3568 4.4294 16.4549C4.45535 16.5666 4.48608 16.669 4.50771 16.762L4.50292 16.7712Z" fill="#F1F1F1"/>
<path d="M4.15685 16.4133C4.19144 16.5622 4.21677 16.7109 4.24666 16.8643C4.42978 17.8357 4.72226 19.4761 6.02467 20.846C6.73512 21.5898 7.52082 21.9874 8.20739 22.2166C8.41559 23.0726 8.63359 23.8963 8.84325 24.6643C8.99599 25.2321 9.14441 25.7813 9.27469 26.307C9.36179 26.642 9.44412 26.9863 9.52644 27.3305C10.8679 32.7691 12.5395 39.5337 18.6819 42.967C25.1413 46.5677 32.7106 46.3829 37.8426 45.9259C43.2763 45.4415 49.9895 44.0749 53.68 37.7885C55.0292 35.4988 55.8285 33.1213 56.6034 30.8221C56.7301 30.4443 56.8568 30.0664 56.9881 29.6933C57.3193 28.7258 57.692 27.7636 58.0842 26.7462C58.6168 25.3604 59.1638 23.947 59.6286 22.4674C61.4549 22.141 62.6116 22.2389 63.6357 22.7887C64.0341 24.19 64.5029 25.5368 64.9629 26.851C65.3211 27.8809 65.6617 28.8596 65.9651 29.8423C66.0837 30.2288 66.2024 30.6153 66.3165 31.0018C67.0148 33.3161 67.7349 35.7143 69.0029 38.0381C72.4874 44.4482 79.1516 46.0321 84.5709 46.6966C86.2586 46.9007 88.2108 47.0906 90.3091 47.1254C94.5659 47.196 99.4077 46.6416 103.819 44.375C110.067 41.1473 111.963 34.4418 113.484 29.0507C113.582 28.7095 113.676 28.3728 113.779 28.0131C113.902 27.5843 114.039 27.1186 114.186 26.6299C115.376 26.4133 116.341 25.8131 117.07 24.8383C117.62 24.1014 117.817 23.6784 118.14 22.9286L118.304 22.5467C118.733 21.553 119.264 20.2275 119.607 18.8154C120.099 16.8127 119.6 14.7889 118.263 13.2655C118.022 12.9881 117.753 12.7288 117.465 12.497C115.216 10.662 112.732 8.76278 109.699 7.48C107.16 6.40463 104.262 5.65229 101.072 5.24723C99.6712 5.07108 98.1349 4.9483 96.3801 4.87748C95.468 4.83918 94.551 4.81007 93.6341 4.78095C93.046 4.76193 92.4532 4.74746 91.879 4.72403C85.1835 4.46468 79.9035 4.62727 75.0559 5.25111C74.7965 5.2468 74.5321 5.26559 74.258 5.312C74.165 5.32899 74.0303 5.34993 73.8305 5.38368C73.4635 5.44709 72.878 5.54857 72.0136 5.70103C71.9951 5.70072 71.9764 5.70968 71.9578 5.714C71.5906 5.78668 71.335 5.8334 71.1722 5.86777C70.7631 5.95365 70.3996 6.07735 70.0774 6.22954C68.3438 6.83091 66.8688 7.76554 65.6994 8.9925C62.929 8.4137 60.271 8.31863 57.8226 8.71817C56.712 7.51825 55.3143 6.58692 53.6661 5.95261C53.3537 5.7899 52.9992 5.65428 52.5931 5.55488C52.4316 5.51513 52.1824 5.45539 51.8177 5.37521C51.7992 5.3749 51.7762 5.36526 51.7577 5.36032C50.8989 5.17927 50.3171 5.05841 49.9524 4.98286C49.7584 4.94258 49.6199 4.91711 49.5275 4.89705C49.2505 4.84148 48.9868 4.81394 48.732 4.80971C43.9033 4.0207 38.6315 3.68303 31.9357 3.72483C26.8664 3.75193 20.5598 3.79092 14.612 5.65677C13.6106 5.97375 12.6365 6.31899 11.6904 6.65543C11.1171 6.85905 10.5438 7.06267 9.96135 7.2615C9.79831 7.3144 9.63526 7.36729 9.47222 7.42019C8.00482 7.89624 5.78744 8.61469 4.41367 10.9873C3.27843 12.9469 3.80979 14.9898 4.09274 16.0879C4.1234 16.195 4.14943 16.302 4.17105 16.395L4.15685 16.4133Z" fill="#E2E2E2"/>
<path d="M3.81064 16.0553C3.84523 16.2042 3.87057 16.3529 3.90046 16.5063C4.0835 17.4823 4.37606 19.1181 5.67846 20.488C6.38892 21.2319 7.17455 21.6341 7.86119 21.8586C8.06938 22.7146 8.2873 23.543 8.49696 24.3109C8.64971 24.8787 8.79813 25.4279 8.92841 25.9537C9.01088 26.2886 9.09784 26.6329 9.18016 26.9772C10.5217 32.4112 12.1887 39.1757 18.3357 42.6137C24.795 46.2144 32.3597 46.0294 37.4963 45.5726C42.93 45.0882 49.6386 43.7215 53.3337 37.4351C54.6829 35.1455 55.4823 32.7679 56.2571 30.4688C56.3838 30.0909 56.5106 29.7131 56.6418 29.34C56.973 28.3725 57.3457 27.4103 57.7379 26.3928C58.2705 25.007 58.8176 23.5937 59.2823 22.1141C61.1086 21.7876 62.2699 21.8857 63.2894 22.4354C63.6878 23.8366 64.1566 25.1835 64.6166 26.4977C64.9748 27.5322 65.3154 28.5062 65.6188 29.4889C65.7375 29.8754 65.8561 30.262 65.9702 30.6484C66.6685 32.9628 67.3886 35.3609 68.652 37.6846C72.1365 44.0947 78.8007 45.6787 84.2199 46.3432C85.9077 46.5472 87.8598 46.7372 89.9535 46.7719C94.2104 46.8425 99.0522 46.2881 103.464 44.0215C109.717 40.7938 111.607 34.0883 113.128 28.7018C113.222 28.3605 113.32 28.0239 113.423 27.6642C113.546 27.2308 113.684 26.7697 113.831 26.281C115.021 26.0644 115.99 25.4643 116.715 24.4894C117.264 23.7526 117.461 23.3296 117.784 22.5797L117.948 22.1979C118.372 21.2041 118.909 19.8786 119.252 18.4665C119.744 16.4638 119.244 14.44 117.907 12.9166C117.667 12.6393 117.397 12.38 117.114 12.1482C114.865 10.3132 112.381 8.41399 109.348 7.13121C106.809 6.05584 103.907 5.30343 100.721 4.89844C99.3202 4.7223 97.7839 4.59951 96.0291 4.52869C95.1123 4.49031 94.2 4.46128 93.2831 4.43216C92.695 4.41314 92.1068 4.39875 91.528 4.37525C84.8325 4.11589 79.5525 4.27848 74.7049 4.90695C74.4455 4.90265 74.1811 4.92143 73.907 4.96321C73.8187 4.98028 73.6793 5.00114 73.4795 5.03489C73.1124 5.0983 72.527 5.19978 71.6626 5.35224C71.6441 5.35194 71.6254 5.36089 71.6068 5.36522C71.2396 5.43789 70.9839 5.48925 70.8212 5.51898C70.4121 5.60486 70.0486 5.72856 69.7264 5.88075C67.9927 6.48675 66.5178 7.41674 65.3484 8.64371C62.5781 8.06028 59.9201 7.96984 57.4717 8.36939C56.361 7.16946 54.9633 6.23814 53.3151 5.60382C53.0027 5.44111 52.6436 5.30542 52.2422 5.20609C52.0806 5.16634 51.8314 5.10661 51.4668 5.02179C51.4437 5.02141 51.4253 5.01183 51.4068 5.00689C50.548 4.82585 49.9662 4.70499 49.6015 4.62944C49.4075 4.58916 49.269 4.55906 49.1766 4.54363C48.8995 4.48806 48.6359 4.46052 48.381 4.46093C43.5523 3.67191 38.2806 3.33424 31.5848 3.37141C26.5155 3.3985 20.2089 3.4375 14.2611 5.30798C13.2596 5.62497 12.2855 5.9702 11.3394 6.30664C10.7661 6.51026 10.1928 6.71388 9.61036 6.91272C9.44732 6.96561 9.28428 7.01851 9.12116 7.07603C7.65376 7.55209 5.43645 8.2659 4.0626 10.6432C2.92736 12.6028 3.4541 14.6455 3.74168 15.7438C3.77234 15.8508 3.79836 15.9578 3.81998 16.0509L3.81064 16.0553Z" fill="#D4D4D4"/>
<path d="M3.4644 15.7022C3.499 15.8511 3.52434 15.9997 3.55423 16.1531C3.73726 17.1292 4.02982 18.765 5.33222 20.1349C6.04268 20.8787 6.82838 21.2763 7.51495 21.5055C7.71851 22.3614 7.94115 23.1852 8.1508 23.9532C8.30355 24.521 8.45197 25.0702 8.58225 25.5959C8.66936 25.9309 8.75167 26.2752 8.834 26.6194C10.1755 32.058 11.8471 38.8226 17.9895 42.2559C24.4488 45.8612 32.0181 45.6718 37.1502 45.2148C42.5838 44.7304 49.2971 43.3638 52.9876 37.0773C54.3368 34.7877 55.1361 32.4102 55.9109 30.111C56.0377 29.7332 56.1644 29.3553 56.2957 28.9822C56.6315 28.0148 56.9995 27.0525 57.3917 26.0351C57.9244 24.6493 58.4714 23.2359 58.9361 21.7563C60.7624 21.4298 61.9191 21.5278 62.9432 22.0776C63.3416 23.4789 63.8104 24.8257 64.2705 26.1399C64.6287 27.1698 64.9693 28.1438 65.2726 29.1311C65.3913 29.5177 65.51 29.9042 65.6241 30.2907C66.3223 32.605 67.0424 35.0031 68.3105 37.3269C71.7949 43.7371 78.4592 45.321 83.8784 45.9901C85.5661 46.1942 87.5183 46.3841 89.6119 46.4188C93.8688 46.4895 98.7152 45.9351 103.122 43.6684C109.375 40.4408 111.265 33.7353 112.787 28.3442C112.885 28.0029 112.979 27.6662 113.082 27.3066C113.205 26.8777 113.342 26.412 113.489 25.9233C114.679 25.7068 115.644 25.1019 116.373 24.1317C116.923 23.3949 117.12 22.9719 117.443 22.2174L117.607 21.8402C118.035 20.8465 118.567 19.5209 118.91 18.1088C119.402 16.1061 118.903 14.0823 117.566 12.5589C117.32 12.2815 117.056 12.0223 116.768 11.7905C114.519 9.9554 112.034 8.05622 109.002 6.77345C106.463 5.69807 103.565 4.94574 100.375 4.54067C98.974 4.36453 97.4378 4.24174 95.6829 4.17092C94.7708 4.13262 93.8539 4.10351 92.937 4.07439C92.3488 4.05537 91.756 4.0409 91.1773 4.0174C84.4818 3.75804 79.2017 3.92064 74.3541 4.54447C74.0947 4.54017 73.8303 4.55895 73.5562 4.60537C73.4679 4.62244 73.3286 4.64329 73.1288 4.67704C72.7617 4.74045 72.1762 4.84194 71.3119 4.9944C71.2933 4.99409 71.2746 5.00305 71.256 5.00737C70.8888 5.08004 70.6332 5.12677 70.4705 5.16114C70.0613 5.24701 69.6978 5.37072 69.3756 5.5229C67.642 6.12891 66.167 7.0589 64.9976 8.28586C62.2273 7.70243 59.5693 7.612 57.1209 8.01154C56.0102 6.81625 54.6125 5.88029 52.9643 5.24598C52.652 5.08326 52.2928 4.94757 51.8914 4.84824C51.7298 4.8085 51.4806 4.74876 51.1159 4.66858C51.0974 4.66827 51.0744 4.65862 51.056 4.65368C50.1972 4.47263 49.6154 4.35178 49.2506 4.27623C49.0566 4.23594 48.9181 4.21048 48.8257 4.19041C48.5487 4.13485 48.285 4.10731 48.0303 4.10308C43.2015 3.31406 37.9298 2.9764 31.2339 3.0182C26.1646 3.04529 19.858 3.08429 13.9103 4.95014C12.9088 5.26712 11.9347 5.61236 10.9886 5.94879C10.4153 6.15242 9.84204 6.35603 9.25957 6.55487C9.09653 6.60777 8.93341 6.66529 8.77036 6.71819C7.30297 7.19424 5.08094 7.91261 3.71181 10.2853C2.57657 12.2449 3.10794 14.2878 3.39089 15.3859C3.42154 15.493 3.44756 15.6 3.46919 15.693L3.4644 15.7022Z" fill="#C5C5C5"/>
<path d="M3.11817 15.3443C3.15276 15.4932 3.17809 15.6419 3.20798 15.7953C3.39102 16.7713 3.68358 18.4071 4.98599 19.777C5.69644 20.5208 6.48207 20.9231 7.16871 21.1476C7.37691 22.0036 7.59483 22.8319 7.80449 23.5999C7.95724 24.1677 8.10565 24.7169 8.23593 25.2426C8.32304 25.5777 8.40536 25.9219 8.48768 26.2662C9.82914 31.7048 11.5007 38.4694 17.6432 41.9027C24.1025 45.5034 31.6672 45.3184 36.8039 44.8616C42.2375 44.3772 48.9507 43.0105 52.6412 36.7241C53.9905 34.4345 54.7898 32.0569 55.5646 29.7577C55.6914 29.3799 55.8181 29.0021 55.9494 28.629C56.2805 27.6615 56.6532 26.6993 57.0454 25.6818C57.5781 24.296 58.1252 22.878 58.5898 21.4031C60.4161 21.0766 61.5728 21.1746 62.5969 21.7244C62.9953 23.1256 63.4641 24.4724 63.9242 25.7867C64.2824 26.8166 64.6229 27.7952 64.9263 28.7779C65.045 29.1644 65.159 29.5509 65.2777 29.9374C65.976 32.2518 66.6961 34.6499 67.9642 36.9737C71.4486 43.3838 78.1129 44.9678 83.5321 45.6322C85.2199 45.8363 87.172 46.0262 89.2703 46.061C93.5272 46.1317 98.369 45.5772 102.78 43.3106C109.033 40.083 110.924 33.3775 112.445 27.991C112.543 27.6498 112.637 27.3084 112.74 26.9534C112.863 26.5199 113.001 26.0588 113.148 25.5702C114.337 25.3536 115.302 24.7534 116.031 23.7786C116.581 23.0417 116.778 22.6187 117.101 21.8688L117.265 21.4916C117.689 20.4979 118.225 19.1724 118.564 17.7602C119.056 15.7575 118.557 13.7337 117.22 12.2103C116.979 11.933 116.71 11.6737 116.422 11.4418C114.172 9.6068 111.688 7.70298 108.656 6.42484C106.116 5.34946 103.219 4.59713 100.029 4.19206C98.6323 4.01599 97.0914 3.89313 95.3365 3.82231C94.4244 3.78401 93.5075 3.7549 92.5906 3.72579C92.0025 3.70676 91.4096 3.69229 90.8355 3.66887C84.14 3.40951 78.8599 3.5721 74.0123 4.20057C73.7529 4.19627 73.4885 4.21505 73.2144 4.25683C73.1261 4.2739 72.9868 4.29476 72.787 4.32851C72.4199 4.39192 71.8344 4.4934 70.9701 4.64586C70.9516 4.64556 70.9329 4.65451 70.9143 4.65884C70.547 4.73151 70.2914 4.77824 70.1287 4.8126C69.7195 4.89848 69.3561 5.02218 69.0339 5.17437C67.3002 5.78037 65.8253 6.71036 64.6558 7.93733C61.8855 7.3539 59.2275 7.26346 56.7791 7.66301C55.6685 6.46308 54.2708 5.53176 52.6226 4.89744C52.3102 4.73473 51.951 4.59904 51.5496 4.49971C51.3881 4.45996 51.1389 4.40023 50.7742 4.32004C50.7556 4.31974 50.7326 4.31009 50.7142 4.30515C49.8554 4.1241 49.2736 4.00325 48.9088 3.92769C48.7103 3.88733 48.5764 3.85731 48.484 3.84188C48.2069 3.78632 47.9433 3.75877 47.6884 3.75918C42.8597 2.97016 37.5879 2.63249 30.8921 2.66967C25.8228 2.69676 19.5162 2.73575 13.5685 4.6016C12.5671 4.91859 11.593 5.26382 10.6468 5.60026C10.0736 5.80388 9.50028 6.0075 8.91781 6.20634C8.75469 6.26386 8.59165 6.31676 8.4286 6.36966C6.9612 6.84571 4.74389 7.55952 3.37005 9.93679C2.2348 11.8964 2.76618 13.9392 3.0492 15.0328C3.07978 15.1445 3.10588 15.2468 3.1275 15.3399L3.11817 15.3443Z" fill="#B7B7B7"/>
<path d="M2.77192 14.9863C2.80651 15.1352 2.83185 15.2839 2.86174 15.4373C3.04478 16.4133 3.33733 18.0491 4.63974 19.419C5.35019 20.1628 6.1359 20.5604 6.82247 20.7896C7.02603 21.6455 7.24866 22.4693 7.45832 23.2373C7.61106 23.8051 7.75949 24.3543 7.88976 24.88C7.97216 25.2196 8.05919 25.5593 8.14151 25.9035C9.48298 31.3421 11.1499 38.1067 17.297 41.54C23.7563 45.1453 31.321 44.9558 36.4576 44.5036C41.8913 44.0192 48.6045 42.6525 52.295 36.3661C53.6443 34.0718 54.4435 31.6989 55.2184 29.3997C55.3451 29.0219 55.4718 28.6441 55.6031 28.271C55.9389 27.3035 56.307 26.3413 56.6992 25.3238C57.2318 23.938 57.7788 22.5247 58.2436 21.0404C60.0699 20.714 61.2267 20.8119 62.2508 21.3618C62.6492 22.763 63.1179 24.1098 63.578 25.424C63.9362 26.4539 64.2768 27.428 64.5801 28.4153C64.6988 28.8018 64.8175 29.1883 64.9316 29.5748C65.6299 31.8891 66.3499 34.2873 67.6133 36.611C71.0978 43.0211 77.7621 44.6051 83.1812 45.2741C84.869 45.4782 86.8211 45.6681 88.9148 45.7029C93.1717 45.7735 98.0134 45.2191 102.425 42.9524C108.678 39.7248 110.568 33.0193 112.089 27.6282C112.188 27.287 112.281 26.9503 112.385 26.5906C112.508 26.1617 112.645 25.696 112.792 25.2074C113.982 24.9908 114.946 24.3906 115.676 23.4158C116.226 22.6789 116.423 22.2559 116.746 21.5014L116.909 21.1242C117.334 20.1304 117.87 18.8049 118.213 17.3928C118.705 15.3901 118.206 13.3664 116.869 11.843C116.623 11.5655 116.359 11.3063 116.071 11.0745C113.822 9.23482 111.337 7.34026 108.305 6.05749C105.765 4.98212 102.864 4.2297 99.6779 3.82472C98.2769 3.64857 96.7407 3.52578 94.9858 3.45497C94.0737 3.41667 93.1568 3.38755 92.2399 3.35844C91.6517 3.33942 91.0635 3.32502 90.4848 3.30152C83.7893 3.04216 78.5092 3.20476 73.6617 3.8286C73.4023 3.82429 73.1379 3.84307 72.8637 3.88949C72.7754 3.90656 72.6361 3.92741 72.4363 3.96116C72.0692 4.02457 71.4837 4.12606 70.6194 4.27852C70.6008 4.27821 70.5822 4.28717 70.5635 4.29149C70.1963 4.36417 69.9406 4.41552 69.778 4.44525C69.3688 4.53113 69.0054 4.65484 68.6831 4.80703C66.9496 5.4084 65.4746 6.34302 64.3051 7.56998C61.5348 6.98655 58.8768 6.89612 56.4284 7.29566C55.3178 6.09574 53.92 5.16441 52.2718 4.5301C51.9595 4.36738 51.6003 4.23169 51.1988 4.13699C51.0373 4.09725 50.7881 4.03752 50.4234 3.95733C50.4049 3.95702 50.3818 3.94737 50.3634 3.94243C49.5046 3.76138 48.9228 3.64053 48.558 3.56498C48.3641 3.52469 48.2255 3.49923 48.1332 3.47916C47.8561 3.4236 47.5925 3.39606 47.3377 3.39183C42.509 2.60282 37.2418 2.26522 30.5413 2.30695C25.472 2.33404 19.1654 2.37304 13.2176 4.24352C12.2162 4.5605 11.2421 4.90574 10.2959 5.24218C9.72267 5.4458 9.1494 5.64942 8.56693 5.84826C8.40389 5.90115 8.24077 5.95868 8.07772 6.01157C6.61032 6.48763 4.39302 7.20144 3.01918 9.57871C1.88393 11.5383 2.41067 13.5811 2.69824 14.6793C2.72419 14.7909 2.75493 14.8934 2.77655 14.9864L2.77192 14.9863Z" fill="#A8A8A8"/>
<path d="M2.4257 14.6285C2.46029 14.7773 2.48563 14.926 2.51552 15.0794C2.69856 16.0554 2.99112 17.6912 4.29352 19.0611C5.00398 19.805 5.7896 20.2072 6.47624 20.4317C6.68444 21.2877 6.90236 22.1161 7.11202 22.884C7.26477 23.4519 7.41318 24.001 7.54346 24.5268C7.63057 24.8618 7.71289 25.206 7.79521 25.5503C9.13675 30.9843 10.8036 37.7534 16.9507 41.1868C23.4101 44.7875 30.9747 44.6026 36.1068 44.1456C41.5404 43.6612 48.2536 42.2946 51.9441 36.0082C53.2934 33.7185 54.0927 31.341 54.8675 29.0418C54.9943 28.664 55.121 28.2861 55.2523 27.913C55.588 26.9456 55.9561 25.9833 56.3482 24.9705C56.8809 23.5847 57.4234 22.1666 57.8927 20.6871C59.719 20.3607 60.8757 20.4586 61.8998 21.0084C62.2982 22.4097 62.767 23.7565 63.2271 25.0707C63.5853 26.1006 63.9258 27.0793 64.2292 28.062C64.3479 28.4485 64.4666 28.835 64.5806 29.2215C65.2789 31.5358 65.999 33.9339 67.2624 36.2577C70.7469 42.6678 77.4111 44.2518 82.8304 44.9162C84.5182 45.1203 86.4704 45.3056 88.5687 45.3404C92.8255 45.411 97.6672 44.8612 102.079 42.5899C108.332 39.3623 110.222 32.6568 111.743 27.2703C111.842 26.9291 111.935 26.5878 112.038 26.2327C112.161 25.8039 112.299 25.3382 112.446 24.8495C113.636 24.6329 114.6 24.0327 115.33 23.0579C115.88 22.3211 116.077 21.8981 116.399 21.1482L116.563 20.771C116.987 19.7772 117.524 18.4517 117.867 17.0396C118.359 15.0369 117.859 13.0131 116.523 11.4897C116.277 11.2123 116.013 10.9531 115.724 10.7213C113.475 8.88158 110.991 6.9824 107.959 5.70425C105.419 4.62888 102.522 3.87655 99.3316 3.47148C97.9352 3.29541 96.3944 3.17255 94.6395 3.10173C93.7274 3.06343 92.8105 3.03432 91.8936 3.0052C91.3054 2.98618 90.7126 2.97171 90.1385 2.94828C83.443 2.68893 78.1629 2.85152 73.3153 3.47999C73.0559 3.47568 72.7915 3.49446 72.5174 3.53625C72.4291 3.55332 72.2898 3.57417 72.09 3.60792C71.7229 3.67133 71.1374 3.77282 70.2731 3.92528C70.2545 3.92497 70.2359 3.93393 70.2173 3.93826C69.85 4.01093 69.5943 4.06228 69.4317 4.09202C69.0225 4.1779 68.6591 4.3016 68.3368 4.45379C66.6033 5.05516 65.1283 5.98978 63.9588 7.21675C61.1885 6.63332 58.5305 6.54288 56.0821 6.94243C54.9715 5.7425 53.5738 4.81118 51.9255 4.17686C51.6132 4.01415 51.254 3.87846 50.8526 3.77913C50.6911 3.73938 50.4419 3.67965 50.0772 3.59946C50.0586 3.59915 50.0356 3.58951 50.0172 3.58457C49.1584 3.40352 48.5766 3.28267 48.2118 3.20711C48.0179 3.16683 47.8794 3.13673 47.787 3.1213C47.5099 3.06573 47.2462 3.03819 46.9914 3.0386C42.1673 2.24966 36.8955 1.91199 30.1951 1.94909C25.1258 1.97618 18.8192 2.01517 12.8715 3.88102C11.8701 4.19801 10.896 4.54324 9.94981 4.87968C9.37653 5.0833 8.80326 5.28692 8.22079 5.48576C8.05767 5.54328 7.89462 5.59618 7.73158 5.64907C6.26418 6.12513 4.04687 6.83893 2.67303 9.2162C1.53778 11.1758 2.06916 13.2186 2.3521 14.3168C2.37805 14.4284 2.40878 14.5309 2.4304 14.6239L2.4257 14.6285Z" fill="#9A9A9A"/>
<path d="M2.07954 14.2706C2.11413 14.4194 2.13946 14.5681 2.16935 14.7215C2.35239 15.6975 2.64495 17.3333 3.94736 18.7032C4.65782 19.4471 5.44344 19.8493 6.13008 20.0738C6.33828 20.9298 6.5562 21.7582 6.76585 22.5262C6.9186 23.094 7.06702 23.6431 7.1973 24.1689C7.28433 24.5086 7.36673 24.8482 7.44905 25.1924C8.79052 30.631 10.4621 37.3956 16.6045 40.8289C23.0638 44.4342 30.6286 44.2447 35.7652 43.7878C41.1989 43.3034 47.9121 41.9368 51.6026 35.6503C52.9518 33.3607 53.7511 30.9831 54.526 28.684C54.6527 28.3061 54.7795 27.9283 54.9108 27.5552C55.2419 26.5877 55.6146 25.6255 56.0068 24.6081C56.5394 23.2223 57.0865 21.8089 57.5512 20.3293C59.3775 20.0028 60.5342 20.1008 61.5583 20.6506C61.9567 22.0519 62.4255 23.3987 62.8855 24.7129C63.2437 25.7428 63.5843 26.7215 63.8877 27.7041C64.0064 28.0907 64.125 28.4772 64.2391 28.8637C64.9374 31.178 65.6575 33.5761 66.9209 35.8999C70.4054 42.31 77.0696 43.8939 82.4889 44.5584C84.1766 44.7625 86.1287 44.9524 88.2271 44.9872C92.4839 45.0578 97.3257 44.5034 101.737 42.2367C107.99 39.0091 109.881 32.3036 111.402 26.9125C111.5 26.5713 111.594 26.2346 111.697 25.8749C111.82 25.446 111.957 24.9804 112.104 24.4917C113.294 24.2751 114.259 23.6749 114.988 22.7001C115.538 21.9632 115.735 21.5402 116.058 20.7857L116.222 20.4085C116.651 19.4148 117.182 18.0893 117.525 16.6772C118.017 14.6745 117.518 12.6507 116.181 11.1273C115.94 10.8499 115.671 10.5906 115.383 10.3588C113.134 8.52377 110.649 6.62458 107.617 5.3418C105.078 4.26643 102.176 3.51402 98.9901 3.10903C97.5892 2.93289 96.0529 2.8101 94.2981 2.73928C93.3859 2.70098 92.469 2.67187 91.5521 2.64275C90.964 2.62373 90.3712 2.60926 89.797 2.58584C83.1015 2.32648 77.8214 2.48907 72.9739 3.11291C72.7145 3.10861 72.4501 3.12739 72.176 3.17381C72.0876 3.19087 71.9483 3.21173 71.7485 3.24548C71.3814 3.30889 70.7959 3.41037 69.9316 3.56283C69.9131 3.56253 69.8944 3.57148 69.8759 3.57117C69.5086 3.64385 69.253 3.6952 69.0903 3.72494C68.6811 3.81082 68.3177 3.93452 67.9955 4.08671C66.2619 4.68808 64.7869 5.6227 63.6174 6.84967C60.8471 6.26624 58.1891 6.1758 55.7407 6.57535C54.6301 5.37542 53.2324 4.4441 51.5842 3.80978C51.2718 3.64707 50.9127 3.51137 50.5065 3.4166C50.345 3.37686 50.0958 3.31712 49.7311 3.23694C49.7125 3.23663 49.6895 3.22698 49.6711 3.22204C48.8123 3.04099 48.2305 2.92014 47.8657 2.84459C47.6718 2.8043 47.5332 2.77884 47.4409 2.75877C47.1638 2.70321 46.9001 2.67567 46.6453 2.67607C41.8166 1.88706 36.5448 1.54939 29.8489 1.59119C24.7796 1.62292 18.473 1.65728 12.5253 3.52313C11.5239 3.84011 10.5498 4.18535 9.60365 4.52179C9.03037 4.72541 8.45709 4.92903 7.87462 5.12786C7.71158 5.18076 7.54846 5.23828 7.38549 5.28655C5.91809 5.7626 3.70071 6.48105 2.32694 8.85368C1.1917 10.8133 1.71844 12.856 2.00602 13.9543C2.03197 14.0659 2.0627 14.1684 2.08432 14.2614L2.07954 14.2706Z" fill="#8B8B8B"/>
<path d="M1.73786 13.9128C1.77245 14.0616 1.79778 14.2103 1.82767 14.3637C2.01079 15.3351 2.30327 16.9755 3.60568 18.3454C4.31613 19.0893 5.10176 19.4915 5.7884 19.716C5.9966 20.572 6.21915 21.4004 6.42417 22.1683C6.57692 22.7361 6.72534 23.2853 6.85562 23.8111C6.93809 24.146 7.02505 24.4903 7.10737 24.8346C8.44883 30.2732 10.1158 37.0377 16.2629 40.4711C22.7222 44.0718 30.2915 43.8869 35.4236 43.43C40.8572 42.9456 47.5704 41.579 51.2609 35.2925C52.6101 33.0029 53.4095 30.6253 54.1843 28.3262C54.311 27.9483 54.4378 27.5705 54.5691 27.1974C54.9048 26.23 55.2729 25.2677 55.6651 24.2502C56.1978 22.8644 56.7448 21.4511 57.2095 19.9715C59.0358 19.645 60.1925 19.743 61.2166 20.2928C61.615 21.6941 62.0838 23.0409 62.5438 24.3551C62.9021 25.385 63.2426 26.3637 63.546 27.3463C63.6647 27.7329 63.7834 28.1194 63.8974 28.5059C64.5957 30.8202 65.3158 33.2183 66.5792 35.5421C70.0637 41.9522 76.7279 43.5361 82.1472 44.2006C83.835 44.4046 85.7871 44.5899 87.8855 44.6248C92.1377 44.6953 96.984 44.1456 101.396 41.8743C107.649 38.6467 109.539 31.9412 111.06 26.5547C111.158 26.2135 111.252 25.8722 111.355 25.5171C111.478 25.0882 111.616 24.6226 111.763 24.1339C112.952 23.9173 113.917 23.3171 114.647 22.3423C115.196 21.6054 115.393 21.1824 115.716 20.4279L115.88 20.0507C116.304 19.0569 116.841 17.7315 117.184 16.3193C117.676 14.3166 117.176 12.2929 115.839 10.7695C115.594 10.492 115.329 10.2328 115.041 10.001C112.792 8.16132 110.308 6.26677 107.276 4.984C104.736 3.90863 101.834 3.15621 98.6484 2.75122C97.2475 2.57508 95.7112 2.45229 93.9564 2.38147C93.0443 2.34317 92.1273 2.31406 91.2104 2.28495C90.6223 2.26592 90.0295 2.25145 89.4553 2.22803C82.7598 1.96867 77.4798 2.12663 72.6322 2.7551C72.3728 2.7508 72.1084 2.76958 71.8344 2.81136C71.746 2.82843 71.6067 2.84929 71.4069 2.88304C71.0398 2.94645 70.4543 3.04793 69.59 3.20039C69.5715 3.20009 69.5528 3.20904 69.5342 3.21337C69.167 3.28604 68.9113 3.3374 68.7486 3.36713C68.3395 3.45301 67.976 3.57671 67.6538 3.7289C65.9201 4.3349 64.4452 5.26489 63.2758 6.49186C60.5054 5.90843 57.8474 5.81799 55.399 6.21754C54.2884 5.01761 52.8907 4.08629 51.2425 3.45197C50.9301 3.28926 50.571 3.15357 50.1695 3.05424C50.008 3.01449 49.7588 2.95476 49.3941 2.87457C49.3756 2.87427 49.3526 2.86462 49.3341 2.85968C48.4753 2.67863 47.8935 2.55778 47.5287 2.48222C47.3348 2.44194 47.1963 2.41184 47.1039 2.39641C46.8268 2.34085 46.5632 2.3133 46.3083 2.31371C41.4796 1.52469 36.2125 1.1871 29.512 1.22883C24.4427 1.25592 18.1361 1.29491 12.1883 3.16076C11.1869 3.47775 10.2128 3.82299 9.26667 4.15942C8.69339 4.36304 8.12012 4.56666 7.53766 4.7655C7.37453 4.82303 7.21149 4.87592 7.04844 4.92881C5.58105 5.40487 3.36373 6.11868 1.98989 8.49595C0.854646 10.4555 1.38139 12.4983 1.66897 13.5966C1.69491 13.7082 1.72564 13.8106 1.74727 13.9037L1.73786 13.9128Z" fill="#7D7D7D"/>
<path d="M1.39167 13.555C1.42626 13.7038 1.4516 13.8525 1.48149 14.0059C1.66453 14.9819 1.95708 16.6177 3.25949 17.9876C3.96994 18.7315 4.75565 19.1291 5.44222 19.3583C5.65041 20.2142 5.86841 21.038 6.07799 21.8106C6.23074 22.3784 6.37916 22.9276 6.50944 23.4533C6.59654 23.7883 6.67887 24.1326 6.76119 24.4768C8.10265 29.9154 9.77425 36.68 15.9167 40.1133C22.376 43.714 29.9407 43.5291 35.0774 43.0722C40.511 42.5878 47.2242 41.2212 50.9147 34.9348C52.264 32.6451 53.0633 30.2676 53.8381 27.9684C53.9649 27.5906 54.0916 27.2127 54.223 26.835C54.5587 25.8675 54.9268 24.9053 55.3189 23.8925C55.8516 22.5067 56.3986 21.0933 56.8633 19.6137C58.6896 19.2873 59.8463 19.3852 60.8704 19.935C61.2688 21.3363 61.7376 22.6831 62.1977 23.9973C62.5559 25.0272 62.8964 26.0059 63.1998 26.9885C63.3185 27.3751 63.4372 27.7616 63.5512 28.1481C64.2495 30.4624 64.9696 32.8605 66.2377 35.1843C69.7221 41.5945 76.3864 43.1784 81.8056 43.8429C83.4934 44.047 85.4455 44.2369 87.5438 44.2717C91.7961 44.3422 96.6425 43.7879 101.054 41.5212C107.307 38.2936 109.197 31.5881 110.718 26.197C110.817 25.8558 110.91 25.5191 111.014 25.1594C111.137 24.7305 111.274 24.2649 111.421 23.7762C112.611 23.5596 113.575 22.9594 114.305 21.9846C114.855 21.2477 115.052 20.8247 115.375 20.0702L115.538 19.693C115.967 18.6993 116.499 17.3738 116.842 15.9616C117.334 13.9589 116.835 11.9352 115.498 10.4118C115.252 10.1343 114.988 9.87512 114.7 9.64331C112.451 7.80826 109.966 5.90907 106.934 4.6263C104.394 3.55093 101.497 2.79859 98.3069 2.39352C96.9105 2.21746 95.3697 2.09459 93.6148 2.02378C92.7027 1.98548 91.7858 1.95636 90.8689 1.92725C90.2807 1.90822 89.6879 1.89375 89.1138 1.87033C82.4183 1.61097 77.1382 1.77357 72.2907 2.3974C72.0313 2.3931 71.7669 2.41188 71.4928 2.45367C71.4045 2.47073 71.2652 2.49159 71.0654 2.52534C70.6983 2.58875 70.1128 2.69023 69.2485 2.84269C69.2299 2.84239 69.2112 2.85134 69.1927 2.85103C68.8255 2.92371 68.5698 2.97507 68.4071 3.0048C67.998 3.09068 67.6345 3.21438 67.3123 3.36657C65.5786 3.97257 64.1037 4.90257 62.9343 6.12953C60.1639 5.55073 57.506 5.45566 55.0576 5.85521C53.9469 4.65991 52.5492 3.72395 50.901 3.08964C50.5886 2.92693 50.2295 2.79123 49.828 2.69654C49.6665 2.65679 49.4172 2.59706 49.0525 2.51687C49.034 2.51657 49.011 2.50692 48.9926 2.50198C48.1338 2.32093 47.552 2.20008 47.1872 2.12452C46.9933 2.08424 46.8547 2.05878 46.7623 2.03871C46.4853 1.98315 46.2216 1.9556 45.9668 1.95601C41.138 1.16699 35.8663 0.829326 29.1704 0.87113C24.1011 0.898221 17.7945 0.937215 11.8467 2.8077C10.8453 3.12468 9.87119 3.46992 8.92504 3.80635C8.35176 4.00998 7.77849 4.2136 7.19603 4.41243C7.03291 4.46996 6.86986 4.52285 6.70681 4.57575C5.23942 5.0518 3.0221 5.76561 1.64826 8.14288C0.513017 10.1025 1.03976 12.1453 1.32734 13.2435C1.35792 13.3552 1.38402 13.4576 1.40564 13.5506L1.39167 13.555Z" fill="#6E6E6E"/>
<path d="M1.04557 13.1971C1.08017 13.3459 1.1055 13.4946 1.13539 13.648C1.31851 14.6194 1.62041 16.2507 2.91339 17.6298C3.61914 18.3782 4.40955 18.7712 5.09611 19.0004C5.30431 19.8564 5.52224 20.6847 5.73189 21.4527C5.88464 22.0205 6.03306 22.5697 6.16333 23.0954C6.25044 23.4305 6.33276 23.7747 6.41509 24.1189C7.75655 29.5575 9.42815 36.3221 15.5706 39.7554C22.0299 43.3561 29.5946 43.1712 34.7266 42.7142C40.1603 42.2299 46.8735 40.8632 50.564 34.5768C51.9132 32.2871 52.7125 29.9096 53.4874 27.6104C53.6141 27.2326 53.7409 26.8548 53.8722 26.477C54.2034 25.5095 54.5761 24.5473 54.9683 23.5299C55.5009 22.1441 56.0479 20.7307 56.5127 19.2511C58.339 18.9247 59.4957 19.0226 60.5198 19.5725C60.9182 20.9737 61.3869 22.3205 61.847 23.6347C62.2052 24.6646 62.5458 25.6433 62.8492 26.626C62.9678 27.0125 63.0819 27.399 63.2006 27.7855C63.8989 30.0998 64.6189 32.498 65.8869 34.8264C69.3714 41.2365 76.0356 42.8205 81.4549 43.4849C83.1427 43.689 85.0949 43.8743 87.1885 43.909C91.4454 43.9796 96.2872 43.4252 100.699 41.1586C106.952 37.931 108.842 31.2255 110.363 25.8343C110.462 25.4931 110.555 25.1564 110.658 24.7967C110.781 24.3679 110.919 23.9022 111.066 23.4135C112.256 23.1969 113.22 22.5967 113.95 21.6219C114.499 20.8851 114.696 20.4621 115.019 19.7076L115.183 19.3303C115.607 18.3366 116.144 17.0111 116.487 15.599C116.979 13.5963 116.484 11.5679 115.143 10.0491C114.902 9.77175 114.633 9.51245 114.345 9.28064C112.105 7.43185 109.611 5.5464 106.579 4.26363C104.044 3.18833 101.142 2.43592 97.9516 2.03086C96.5552 1.85479 95.0144 1.73192 93.2595 1.6611C92.3474 1.6228 91.4305 1.59369 90.5136 1.56458C89.9255 1.54555 89.3326 1.53108 88.7585 1.50766C82.063 1.2483 76.783 1.40626 71.9354 2.03473C71.676 2.03043 71.4116 2.04921 71.1375 2.091C71.0492 2.10806 70.9099 2.12892 70.7101 2.16267C70.343 2.22608 69.7575 2.32756 68.8932 2.48002C68.8746 2.47972 68.856 2.48868 68.8374 2.493C68.4701 2.56567 68.2145 2.6124 68.0518 2.64676C67.6426 2.73264 67.2792 2.85634 66.9569 3.00853C65.2233 3.61453 63.7483 4.54453 62.5789 5.77149C59.8086 5.18806 57.1506 5.09763 54.7022 5.49717C53.5916 4.29724 52.1939 3.36592 50.5456 2.73161C50.2333 2.56889 49.8741 2.4332 49.4727 2.33387C49.3112 2.29413 49.062 2.23439 48.6973 2.15421C48.6787 2.1539 48.6557 2.14425 48.6373 2.13931C47.7785 1.95826 47.1967 1.83741 46.8319 1.76186C46.6333 1.7215 46.4995 1.69147 46.4071 1.67604C46.13 1.62048 45.8663 1.59294 45.6115 1.59334C40.7828 0.804325 35.511 0.466655 28.8151 0.508459C23.7458 0.53555 17.4392 0.574546 11.4915 2.44039C10.4901 2.75738 9.51598 3.10262 8.56983 3.43905C7.99656 3.64267 7.42328 3.8463 6.84081 4.04513C6.67769 4.10266 6.51465 4.15555 6.35161 4.20845C4.88421 4.6845 2.6669 5.39831 1.29305 7.77558C0.157808 9.73518 0.68455 11.7779 0.972128 12.8762C1.00279 12.9833 1.02881 13.0903 1.05043 13.1833L1.04557 13.1971Z" fill="#606060"/>
</g>
<path d="M1.04557 13.1971C1.08017 13.3459 1.1055 13.4946 1.13539 13.648C1.31851 14.6194 1.62041 16.2507 2.91339 17.6298C3.61914 18.3782 4.40955 18.7712 5.09611 19.0004C5.30431 19.8564 5.52224 20.6847 5.73189 21.4527C5.88464 22.0205 6.03306 22.5697 6.16333 23.0954C6.25044 23.4305 6.33276 23.7747 6.41509 24.1189C7.75655 29.5575 9.42815 36.3221 15.5706 39.7554C22.0299 43.3561 29.5946 43.1712 34.7266 42.7142C40.1603 42.2299 46.8735 40.8632 50.564 34.5768C51.9132 32.2871 52.7125 29.9096 53.4874 27.6104C53.6141 27.2326 53.7409 26.8548 53.8722 26.477C54.2034 25.5095 54.5761 24.5473 54.9683 23.5299C55.5009 22.1441 56.0479 20.7307 56.5127 19.2511C58.339 18.9247 59.4957 19.0226 60.5198 19.5725C60.9182 20.9737 61.3869 22.3205 61.847 23.6347C62.2052 24.6646 62.5458 25.6433 62.8492 26.626C62.9678 27.0125 63.0819 27.399 63.2006 27.7855C63.8989 30.0998 64.6189 32.498 65.8869 34.8264C69.3714 41.2365 76.0356 42.8205 81.4549 43.4849C83.1427 43.689 85.0949 43.8743 87.1885 43.909C91.4454 43.9796 96.2872 43.4252 100.699 41.1586C106.952 37.931 108.842 31.2255 110.363 25.8343C110.462 25.4931 110.555 25.1564 110.658 24.7967C110.781 24.3679 110.919 23.9022 111.066 23.4135C112.256 23.1969 113.22 22.5967 113.95 21.6219C114.499 20.8851 114.696 20.4621 115.019 19.7076L115.183 19.3303C115.607 18.3366 116.144 17.0111 116.487 15.599C116.979 13.5963 116.484 11.5679 115.143 10.0491C114.902 9.77175 114.633 9.51245 114.345 9.28064C112.105 7.43185 109.611 5.5464 106.579 4.26363C104.044 3.18833 101.142 2.43592 97.9516 2.03086C96.5552 1.85479 95.0144 1.73192 93.2595 1.6611C92.3474 1.6228 91.4305 1.59369 90.5136 1.56458C89.9255 1.54555 89.3326 1.53108 88.7585 1.50766C82.063 1.2483 76.783 1.40626 71.9354 2.03473C71.676 2.03043 71.4116 2.04921 71.1375 2.091C71.0492 2.10806 70.9099 2.12892 70.7101 2.16267C70.343 2.22608 69.7575 2.32756 68.8932 2.48002C68.8746 2.47972 68.856 2.48868 68.8374 2.493C68.4701 2.56567 68.2145 2.6124 68.0518 2.64676C67.6426 2.73264 67.2792 2.85634 66.9569 3.00853C65.2233 3.61453 63.7483 4.54453 62.5789 5.77149C59.8086 5.18806 57.1506 5.09763 54.7022 5.49717C53.5916 4.29724 52.1939 3.36592 50.5456 2.73161C50.2333 2.56889 49.8741 2.4332 49.4727 2.33387C49.3112 2.29413 49.062 2.23439 48.6973 2.15421C48.6787 2.1539 48.6557 2.14425 48.6373 2.13931C47.7785 1.95826 47.1967 1.83741 46.8319 1.76186C46.6333 1.7215 46.4995 1.69147 46.4071 1.67604C46.13 1.62048 45.8663 1.59294 45.6115 1.59334C40.7828 0.804325 35.511 0.466655 28.8151 0.508459C23.7458 0.53555 17.4392 0.574546 11.4915 2.44039C10.4901 2.75738 9.51598 3.10262 8.56983 3.43905C7.99656 3.64267 7.42328 3.8463 6.84081 4.04513C6.67769 4.10266 6.51465 4.15555 6.35161 4.20845C4.88421 4.6845 2.6669 5.39831 1.29305 7.77558C0.157808 9.73518 0.68455 11.7779 0.972128 12.8762C1.00279 12.9833 1.02881 13.0903 1.05043 13.1833L1.04557 13.1971Z" fill="white"/>
<path style="mix-blend-mode:multiply" d="M42.5618 10.04C38.6531 9.65084 22.3853 9.38093 17.7722 10.1199C14.9941 10.5649 13.3365 12.1683 13.6183 14.4526C13.9092 16.7463 15.5802 24.1086 17.2989 28.8677C19.0085 33.6267 23.2488 33.8546 30.4192 33.9736C37.5896 34.0925 40.3885 32.6749 41.8866 30.9066C43.3848 29.1337 46.1144 21.8398 47.6674 16.4863C49.2249 11.1328 46.4659 10.4291 42.5572 10.0399L42.5618 10.04Z" fill="url(#paint0_radial_1_268)"/>
<path style="mix-blend-mode:multiply" d="M74.6989 10.5732C78.6184 10.3139 94.8862 10.5838 99.4676 11.4753C102.229 12.0123 103.838 13.6699 103.475 15.9435C103.109 18.2262 101.19 25.529 99.3233 30.2286C97.4476 34.9281 93.2066 35.0153 86.0316 34.8963C78.8565 34.7772 76.1155 33.2676 74.6769 31.4506C73.2383 29.629 70.7522 22.2486 69.3731 16.8464C67.9986 11.4443 70.7795 10.8325 74.6989 10.5732Z" fill="url(#paint1_radial_1_268)"/>
<path style="mix-blend-mode:multiply" d="M42.5618 10.04C38.6531 9.65084 22.3853 9.38093 17.7722 10.1199C14.9941 10.5649 13.3365 12.1683 13.6183 14.4526C13.9092 16.7463 15.5802 24.1086 17.2989 28.8677C19.0085 33.6267 23.2488 33.8546 30.4192 33.9736C37.5896 34.0925 40.3885 32.6749 41.8866 30.9066C43.3848 29.1337 46.1144 21.8398 47.6674 16.4863C49.2249 11.1328 46.4659 10.4291 42.5572 10.0399L42.5618 10.04ZM45.2612 17.4147C43.9023 22.2387 41.5138 28.8015 40.2087 30.3876C38.9035 31.9784 36.4637 33.2584 30.2011 33.1545C23.9386 33.0506 20.2492 32.8457 18.7542 28.5629C17.2639 24.2801 15.8075 17.6674 15.5545 15.6014C15.3059 13.5493 16.7477 12.1045 19.1777 11.7C23.2011 11.0393 37.3938 11.2701 40.8028 11.6186C44.2117 11.9717 46.6198 12.6001 45.2566 17.41L45.2612 17.4147Z" fill="url(#paint2_radial_1_268)"/>
<path style="mix-blend-mode:multiply" d="M99.4678 11.4755C94.8863 10.584 78.6185 10.3141 74.6991 10.5734C70.7795 10.8373 67.9987 11.4445 69.3732 16.8466C70.757 22.2489 73.2384 29.6292 74.677 31.4508C76.1157 33.2632 78.8613 34.7775 86.0317 34.8964C93.2021 35.0154 97.4478 34.9237 99.3234 30.2288C101.194 25.5292 103.109 18.2264 103.476 15.9437C103.838 13.6701 102.23 12.0124 99.4678 11.4755ZM101.669 17.0303C101.348 19.0822 99.6682 25.6475 98.018 29.8782C96.3771 34.109 92.6552 34.1909 86.3649 34.0865C80.0745 33.9821 77.66 32.6216 76.4036 30.9883C75.1472 29.3597 72.9639 22.721 71.7566 17.8545C70.549 13.0019 72.9906 12.454 76.4278 12.2145C79.8651 11.975 94.1363 12.221 98.1588 13.0152C100.583 13.5002 101.986 14.9923 101.669 17.0349L101.669 17.0303Z" fill="url(#paint3_radial_1_268)"/>
<path d="M112.35 12.4863C112.245 12.3687 112.131 12.2602 112.008 12.1562C109.887 10.4067 107.681 8.7531 105.137 7.67765C102.708 6.65044 100.095 6.04183 97.4875 5.70666C96.0311 5.52033 94.5593 5.42178 93.0961 5.36507C91.6007 5.29856 90.1046 5.2691 88.6135 5.21656C82.659 4.9834 76.6486 5.03658 70.7491 5.95339C72.0226 5.71506 72.8174 5.56145 69.5367 6.14178C68.2677 6.38946 68.4255 6.37354 69.0528 6.26348C66.6197 6.85788 64.9848 8.21149 64.0884 10.0221C64.0745 10.0173 64.0655 10.0032 64.0471 9.99829C60.5485 8.90701 56.6355 8.49459 53.117 9.71965C52.2663 7.9356 50.6949 6.57976 48.3382 5.91979C48.9616 6.0506 49.1234 6.07182 47.8633 5.78218C44.6036 5.09333 45.3929 5.27322 46.6578 5.55368C40.792 4.43702 34.7867 4.18912 28.8276 4.22461C23.3737 4.25459 17.8494 4.33436 12.6003 5.98477C11.0679 6.46901 9.56173 7.04635 8.03806 7.56317C6.67272 8.03165 5.25942 8.31863 4.49145 9.64492C4.04313 10.4159 4.4777 11.5907 4.65463 12.3767C4.86607 13.3161 4.91842 14.3502 5.61042 15.0891C6.26151 15.781 7.46157 15.4998 8.19734 16.1143C8.22019 16.1332 8.24328 16.1382 8.27092 16.148C8.65253 18.281 9.30318 20.3953 9.75077 22.1819C11.0588 27.4022 12.303 33.6732 17.3712 36.5095C22.49 39.3652 28.7007 39.5192 34.3988 39.0161C39.4659 38.5627 44.6143 37.3971 47.3798 32.6892C48.7386 30.3765 49.5091 27.7854 50.3756 25.2653C51.427 22.2155 52.8011 19.2637 53.5391 16.116C57.2244 15.1671 60.5549 14.6617 63.7542 17.3141C64.426 20.1099 65.5446 22.7833 66.384 25.5309C67.1711 28.0784 67.8505 30.6936 69.1365 33.0502C71.7443 37.8472 76.8512 39.1829 81.9051 39.8043C87.5741 40.496 93.7912 40.5482 99.0019 37.8639C104.161 35.1973 105.613 28.9711 107.093 23.797C107.32 22.9807 107.604 22.0958 107.878 21.1783C108.205 19.9327 108.675 19.8154 109.185 19.7868C109.871 19.7334 110.515 20.0406 110.989 19.4044C111.363 18.9102 111.379 18.7993 111.788 17.8701C112.227 16.8488 112.638 15.7946 112.897 14.7193C113.11 13.8564 112.9 13.0977 112.359 12.4818L112.35 12.4863ZM47.6717 16.4913C46.1187 21.8448 43.3845 29.1386 41.891 30.9116C40.3929 32.6752 37.5986 34.0976 30.4236 33.9785C23.2485 33.8595 19.0129 33.627 17.3033 28.8727C15.5845 24.1135 13.9136 16.7513 13.6227 14.4576C13.3362 12.1732 14.9984 10.5699 17.7765 10.1248C22.385 9.38582 38.6574 9.6558 42.5662 10.045C46.4748 10.4388 49.2339 11.1379 47.6763 16.4913L47.6717 16.4913ZM103.48 15.9438C103.113 18.2266 101.194 25.5293 99.3278 30.229C97.4521 34.9285 93.2111 35.0157 86.0361 34.8966C78.861 34.7776 76.12 33.268 74.6814 31.451C73.2428 29.6294 70.7567 22.2489 69.3776 16.8468C68.0031 11.4447 70.784 10.8329 74.7034 10.5736C78.6229 10.3143 94.8907 10.5842 99.4722 11.4757C102.234 12.0126 103.842 13.6702 103.48 15.9438Z" fill="#A20012"/>
<g style="mix-blend-mode:screen">
<path d="M18.4667 35.2718C23.1218 38.1522 29.4069 37.1722 35.2053 37.046C40.5866 36.9268 44.4271 35.0029 45.1038 29.1251C45.1201 28.9818 45.1271 28.8382 45.1388 28.6902C44.6604 29.8776 44.0761 31.0263 43.3219 32.0794C40.941 35.3944 36.0561 35.7582 32.3127 35.7332C28.4443 35.7107 22.951 36.157 19.5111 34.0427C16.5573 32.233 14.1104 28.9121 13.1027 25.6983C14.1235 29.5146 15.3069 33.3104 18.4621 35.2717L18.4667 35.2718Z" fill="#DD1936"/>
</g>
<g style="mix-blend-mode:screen">
<path d="M12.0761 9.3767C16.8986 6.35701 21.9738 7.08988 27.493 7.03782C32.0992 6.99378 36.7385 6.91322 41.3379 7.28607C43.9244 7.49578 46.9042 7.73983 49.1505 9.19026C51.1309 10.4695 52.2794 12.1797 52.9377 14.1088C53.6687 8.58876 50.5898 6.77701 48.009 6.21989C44.759 5.50803 31.4152 3.81787 18.9974 5.24277C10.7621 6.19496 7.16904 10.5185 10.8713 18.3222C9.71748 14.1423 10.9946 10.0537 12.0809 9.37214L12.0761 9.3767Z" fill="#DD1936"/>
</g>
<g style="mix-blend-mode:screen">
<path d="M69.3392 8.27422C71.56 7.35197 74.1549 7.33942 76.523 7.30921C80.2305 7.25953 83.9305 7.38578 87.6356 7.47969C92.86 7.59881 101.317 6.6642 105.554 10.4921C108.206 12.8806 107.227 15.7555 107.468 18.8268C108.804 13.4233 109.89 8.27057 98.414 6.56042C86.0503 4.72899 72.6532 5.97084 69.386 6.57456C66.4674 7.10531 62.8792 9.18637 64.5695 16.498C64.6729 13.0572 65.2991 9.94469 69.344 8.26967L69.3392 8.27422Z" fill="#DD1936"/>
</g>
<g style="mix-blend-mode:screen">
<path d="M99.7497 33.0112C96.7527 36.872 93.1943 37.1512 88.4281 37.0628C83.2081 36.9531 78.8376 37.0334 74.6204 33.734C72.4708 32.0443 70.5207 28.3794 69.0439 26.0707C70.3304 30.0767 71.9829 34.3621 75.4273 35.9251C79.0281 37.5555 83.4486 38.0968 87.3742 38.3056C91.0498 38.501 96.2728 38.7081 99.2403 36.0607C101.719 33.8408 102.738 29.9425 103.225 26.2995C102.362 28.3424 100.867 31.5702 99.7449 33.0157L99.7497 33.0112Z" fill="#DD1936"/>
</g>
<g style="mix-blend-mode:multiply" opacity="0.6">
<path d="M66.9519 23.154C65.5581 18.9099 68.0365 26.4756 66.9519 23.154V23.154Z" fill="#7A2C00"/>
<path d="M49.8873 22.8709C48.6884 26.1545 51.421 18.6753 49.8873 22.8709V22.8709Z" fill="#7A2C00"/>
<path d="M48.772 12.1864C48.8257 12.3031 48.8618 12.3639 48.8751 12.3966C48.772 12.1864 48.1716 10.9532 48.772 12.1864Z" fill="#7A2C00"/>
<path d="M48.8751 12.3966C48.893 12.434 48.893 12.4386 48.8751 12.3966V12.3966Z" fill="#7A2C00"/>
<path d="M38.1531 9.34139C32.9027 9.11527 27.6348 9.10201 22.3821 9.28822C19.2631 9.33377 13.1695 9.10294 12.6867 13.3483C12.3992 15.0394 13.033 17.0515 13.3999 18.6746C13.965 21.1999 14.6178 23.7405 15.4062 26.2092C16.5877 30.3988 18.5742 33.2628 23.1075 33.9866C27.516 34.6946 32.4524 34.8552 36.8619 34.1036C41.8382 33.2595 43.8859 30.2031 45.5726 25.7229C46.44 23.4345 47.2705 21.1316 47.995 18.7945C48.5919 16.8862 49.7215 14.1528 48.7718 12.1864C47.1861 8.90283 41.1349 9.465 38.1532 9.33676L38.1531 9.34139ZM45.5879 22.0118C44.3376 25.3178 43.0606 29.9577 39.6549 31.926C35.889 34.0968 30.7396 33.6499 26.5269 33.4271C22.7123 33.2295 18.7622 32.5431 17.2213 28.7923C15.5871 24.8037 14.6324 20.6271 13.659 16.4641C12.716 12.4221 14.5773 10.8221 18.8196 10.3735C23.4238 9.89857 28.1255 9.96731 32.7566 10.0997C36.7441 10.2076 42.8281 9.34482 46.4437 11.2025C50.0639 13.0603 46.5474 19.4748 45.588 22.0072L45.5879 22.0118Z" fill="#7A2C00"/>
<path d="M17.511 29.4922C17.5331 29.5574 17.5377 29.5621 17.511 29.4922V29.4922Z" fill="#7A2C00"/>
<path d="M112.35 12.4863C112.245 12.3687 112.131 12.2602 112.008 12.1562C109.887 10.4067 107.681 8.7531 105.137 7.67765C102.708 6.65044 100.095 6.04183 97.4875 5.70666C96.0311 5.52033 94.5593 5.42178 93.0961 5.36507C91.6007 5.29856 90.1046 5.2691 88.6135 5.21656C82.659 4.9834 76.6486 5.03658 70.7491 5.95339C72.0226 5.71506 72.8174 5.56145 69.5367 6.14178C68.2677 6.38946 68.4255 6.37354 69.0528 6.26348C66.6197 6.85788 64.9848 8.21149 64.0884 10.0221C64.0745 10.0173 64.0655 10.0032 64.0471 9.99829C60.5485 8.90701 56.6355 8.49459 53.117 9.71965C52.2663 7.9356 50.6949 6.57976 48.3382 5.91979C48.9616 6.0506 49.1234 6.07182 47.8633 5.78218C44.6036 5.09333 45.3929 5.27322 46.6578 5.55368C40.792 4.43702 34.7867 4.18912 28.8276 4.22461C23.3737 4.25459 17.8494 4.33436 12.6003 5.98477C11.0679 6.46901 9.56173 7.04635 8.03806 7.56317C6.67272 8.03165 5.25942 8.31863 4.49145 9.64492C4.04313 10.4159 4.4777 11.5907 4.65463 12.3767C4.86607 13.3161 4.91842 14.3502 5.61042 15.0891C6.26151 15.781 7.46157 15.4998 8.19734 16.1143C8.22019 16.1332 8.24328 16.1382 8.27092 16.148C8.65253 18.281 9.30318 20.3953 9.75077 22.1819C11.0588 27.4022 12.303 33.6732 17.3712 36.5095C22.49 39.3652 28.7007 39.5192 34.3988 39.0161C39.4659 38.5627 44.6143 37.3971 47.3798 32.6892C48.7386 30.3765 49.5091 27.7854 50.3756 25.2653C51.427 22.2155 52.8011 19.2637 53.5391 16.116C57.2244 15.1671 60.5549 14.6617 63.7542 17.3141C64.426 20.1099 65.5446 22.7833 66.384 25.5309C67.1711 28.0784 67.8505 30.6936 69.1365 33.0502C71.7443 37.8472 76.8512 39.1829 81.9051 39.8043C87.5741 40.496 93.7912 40.5482 99.0019 37.8639C104.161 35.1973 105.613 28.9711 107.093 23.797C107.32 22.9807 107.604 22.0958 107.878 21.1783C108.205 19.9327 108.675 19.8154 109.185 19.7868C109.871 19.7334 110.515 20.0406 110.989 19.4044C111.363 18.9102 111.379 18.7993 111.788 17.8701C112.227 16.8488 112.638 15.7946 112.897 14.7193C113.11 13.8564 112.9 13.0977 112.359 12.4818L112.35 12.4863ZM49.8872 22.8664C48.033 27.9462 46.64 34.2708 40.9167 36.5712C35.8043 38.6363 29.1422 38.8779 23.7364 37.9634C18.2936 37.0438 14.9822 34.7231 13.0865 29.7387C11.8523 26.4887 10.8046 23.1724 10.0359 19.7959C9.82873 18.8797 9.57506 17.972 9.35852 17.0602C9.24577 16.595 9.17486 16.1213 9.07146 15.6516C8.90264 14.9352 8.97025 14.7696 8.25638 14.7902C6.16069 14.8758 6.00318 14.5952 5.87375 14.0186C5.76146 13.5256 5.57397 12.8182 5.50801 12.326C5.35468 11.2346 4.88466 9.96189 5.75808 9.54084C6.91165 8.99008 7.86652 8.68623 9.04249 8.18217C13.5645 6.23243 18.4591 5.56768 23.3372 5.33355C30.3854 5.00106 37.5421 5.11053 44.5518 5.98207C49.0139 6.5287 53.1753 7.32518 52.9608 12.4322C52.8029 16.0853 51.125 19.4768 49.8825 22.871L49.8872 22.8664ZM63.4153 15.6822C60.7361 13.7937 56.4987 13.6678 53.6957 15.3309C54.0281 13.4507 53.914 11.6696 53.3184 10.1493C56.8225 9.23439 60.3504 9.67286 63.7265 10.8872C63.2395 12.3108 63.1429 13.9448 63.4153 15.6822ZM111.751 15.3582C111.678 15.5563 111.587 15.754 111.51 15.938C111.057 16.973 111.066 16.9639 110.673 18.0231C110.378 18.8244 108.762 18.4825 108.134 18.6342C107.315 18.8338 107.076 20.6322 106.869 21.4071C105.993 24.7564 104.836 28.0361 103.495 31.2433C101.44 36.1576 98.053 38.3671 92.5779 39.1103C87.1494 39.8449 80.499 39.3825 75.4579 37.149C69.8188 34.6553 68.6363 28.2927 66.9516 23.1542C65.8271 19.7208 64.2579 16.2799 64.2213 12.619C64.1671 7.50755 68.3573 6.84964 72.8397 6.45141C79.8744 5.81753 87.0308 5.9409 94.0641 6.50703C96.0445 6.66499 98.0257 6.78126 99.9796 7.14265C101.966 7.5092 103.81 8.09116 105.592 9.01959C107.677 10.106 108.638 10.854 110.464 11.9499C110.996 12.2738 111.601 12.6453 111.916 13.2065C112.272 13.8518 112.007 14.7138 111.76 15.3584L111.751 15.3582Z" fill="#7A2C00"/>
<path d="M68.4164 12.5122C67.4067 14.4414 68.4449 17.2155 68.9736 19.1425C69.6248 21.5024 70.3784 23.8315 71.1648 26.1473C72.702 30.6765 74.6517 33.8039 79.5973 34.8126C83.9794 35.71 88.9139 35.7131 93.3434 35.1519C97.9028 34.5788 99.9833 31.7778 101.308 27.6344C102.173 25.1931 102.914 22.6756 103.563 20.1704C103.983 18.5604 104.679 16.5749 104.448 14.8707C104.111 10.6071 98.0081 10.6402 94.8923 10.4912C89.6487 10.1354 84.3833 9.96931 79.1283 10.0211C76.1486 10.0504 70.1193 9.28784 68.4163 12.5168C67.8899 13.5274 69.2537 10.9183 68.4163 12.5168L68.4164 12.5122ZM99.4033 30.1557C97.7434 33.8534 93.7728 34.4037 89.949 34.4793C85.7313 34.5622 80.5699 34.838 76.8781 32.5435C73.5396 30.4587 72.4218 25.7836 71.2773 22.4379C70.3978 19.875 67.0959 13.3521 70.7804 11.6108C74.4558 9.86946 80.5078 10.9336 84.4966 10.9627C89.1295 10.9886 93.8217 11.0711 98.4168 11.6987C102.637 12.2877 104.449 13.9487 103.373 17.9572C102.266 22.0856 101.169 26.2235 99.4078 30.1604C98.1375 32.9981 101.025 26.5455 99.4078 30.1604L99.4033 30.1557Z" fill="#7A2C00"/>
</g>
<path d="M62.431 12.1766C61.1162 9.60185 56.068 10.0324 54.2781 11.7958C54.1887 11.8777 54.2977 12.0093 54.4051 11.9601C56.7588 10.8408 59.7823 11.5257 62.0166 12.5821C62.2832 12.707 62.5793 12.4571 62.4356 12.1813L62.431 12.1766Z" fill="#DD1936"/>
<path d="M49.6264 8.165C45.0136 5.80887 39.126 5.72508 34.0499 5.6038C28.0845 5.46312 22.0852 5.97055 16.1828 6.78075C16.127 6.79372 16.1393 6.88659 16.195 6.88288C21.7384 6.48372 27.2704 6.21874 32.8293 6.28317C35.6181 6.31091 38.4046 6.47761 41.1751 6.77378C43.8994 7.05991 47.0683 7.07543 49.5787 8.24298C49.6293 8.26698 49.6815 8.19371 49.6263 8.16963L49.6264 8.165Z" fill="#FFD2DD"/>
<path d="M97.237 7.12927C91.2735 6.59016 85.2554 5.99918 79.2667 5.86738C74.7091 5.7686 68.9614 5.91416 65.667 9.55227C65.5915 9.63441 65.7009 9.74279 65.7808 9.66999C69.5426 6.35007 75.4029 6.40097 80.1172 6.54869C85.8085 6.73115 91.5502 7.50752 97.2346 7.27287C97.3273 7.26977 97.3295 7.14007 97.2369 7.13391L97.237 7.12927Z" fill="#FFD2DD"/>
<path d="M44.4165 16.1081C44.4165 16.1081 41.814 25.5169 34.274 27.8428C26.7342 30.1641 21.1707 31.2116 19.4275 27.9254C19.4275 27.9254 19.8562 31.6855 23.2739 32.0666C26.6916 32.4476 34.8413 32.7496 36.9744 31.8074C39.1121 30.8652 39.9436 29.8968 41.6371 25.8475C43.3352 21.7984 45.0488 17.0962 44.4072 16.1079L44.4165 16.1081Z" fill="white"/>
<path d="M75.8602 27.7174C75.8602 27.7174 77.2799 30.6739 81.3452 31.3946C85.4013 32.1152 96.6276 24.3136 98.6438 20.923C100.651 17.5323 100.839 16.2288 100.686 15.4155C100.686 15.4155 101.814 16.4118 99.0733 24.3588C96.3329 32.3012 94.8383 33.583 90.762 33.5154C86.6858 33.4478 77.2048 34.9214 75.8554 27.7266L75.8602 27.7174Z" fill="white"/>
<defs>
<radialGradient id="paint0_radial_1_268" cx="0" cy="0" r="1" gradientUnits="userSpaceOnUse" gradientTransform="translate(28.2926 34.8043) rotate(0.95055) scale(23.5167 23.5167)">
<stop offset="0.38" stop-color="#FBF7ED"/>
<stop offset="0.66" stop-color="#F2E1BE"/>
<stop offset="0.92" stop-color="#D19877"/>
</radialGradient>
<radialGradient id="paint1_radial_1_268" cx="0" cy="0" r="1" gradientUnits="userSpaceOnUse" gradientTransform="translate(84.175 42.9131) rotate(0.95055) scale(32.3346 32.3346)">
<stop offset="0.38" stop-color="#FBF7ED"/>
<stop offset="0.66" stop-color="#F2E1BE"/>
<stop offset="0.92" stop-color="#D19877"/>
</radialGradient>
<radialGradient id="paint2_radial_1_268" cx="0" cy="0" r="1" gradientUnits="userSpaceOnUse" gradientTransform="translate(28.2926 34.8043) rotate(0.95055) scale(23.5167 23.5167)">
<stop stop-color="#F2E1BE"/>
<stop offset="0.92" stop-color="#D19877"/>
</radialGradient>
<radialGradient id="paint3_radial_1_268" cx="0" cy="0" r="1" gradientUnits="userSpaceOnUse" gradientTransform="translate(84.1751 42.9133) rotate(0.95055) scale(32.3346 32.3346)">
<stop stop-color="#F2E1BE"/>
<stop offset="0.92" stop-color="#D19877"/>
</radialGradient>
</defs>
</svg>
