<svg width="100" height="118" viewBox="0 0 100 118" fill="none" xmlns="http://www.w3.org/2000/svg">
<g style="mix-blend-mode:multiply">
<path d="M12.6667 80.5951C12.625 80.797 12.5967 80.9942 12.5954 81.2045C12.4256 82.1105 12.2336 83.0169 12.0548 83.9186C11.5477 86.4711 11.0148 89.1001 10.6211 91.7628C10.5118 92.5204 10.6754 93.2872 11.0786 93.9252C12.0867 95.5201 13.6062 96.6288 15.2641 97.4268C17.1834 98.3505 19.2932 98.8554 21.0155 99.1738C24.8415 99.8944 28.0504 99.7297 30.825 98.6457C31.821 98.2595 32.555 97.4031 32.7808 96.3575C32.8308 96.1153 32.8948 95.913 32.9642 95.7689C33.0466 95.5976 33.0977 95.4225 33.153 95.2382C34.3169 90.5602 35.5011 85.448 36.7597 79.628C38.2953 72.6096 40.0878 67.202 42.421 62.6539C42.456 62.6042 42.5001 62.5588 42.5351 62.5091C43.1077 61.919 43.788 61.3586 44.5037 60.7708C44.9631 60.3927 45.4313 59.9965 45.9081 59.5823C48.7149 57.3707 52.0031 54.7583 55.2643 52.1329C55.3131 52.1009 55.3571 52.0555 55.4058 52.0234C54.9057 52.9702 54.4057 53.917 53.9099 54.8548C53.3228 55.9595 52.7403 57.0775 52.1531 58.1821C49.8142 62.6498 47.6726 67.7451 45.6076 73.7651C45.4448 74.2417 45.2777 74.7272 45.1196 75.2171C44.5852 76.5581 44.1866 77.7091 43.8547 78.8367C43.0122 81.694 42.2182 84.7966 41.4215 88.3196C40.9473 90.3886 40.5225 92.4704 40.1554 94.5244C40.1517 94.5781 40.1347 94.6365 40.131 94.6902C39.8914 96.5947 39.7192 98.5205 39.5459 100.379C39.434 101.557 39.3184 102.789 39.1978 103.985C39.1071 104.796 39.3385 105.606 39.8448 106.261C41.2453 108.078 43.5209 110.083 49.7723 111.183C53.342 111.814 56.1765 111.735 58.4369 110.959C59.3936 110.631 60.1423 109.859 60.4318 108.889C60.8577 107.474 61.2836 106.058 61.7096 104.643C62.2969 102.662 62.9099 100.604 63.5373 98.6087C63.559 98.5636 63.567 98.5009 63.5797 98.4515C63.7148 97.9172 63.8498 97.3829 63.9982 96.8439C64.3635 95.8545 64.6166 94.8443 64.8401 93.9419C64.9411 93.5245 65.0468 93.1203 65.1402 92.7879C65.2296 92.4869 65.3056 92.1906 65.3817 91.8942L65.4454 91.6697C66.493 88.1786 67.4018 84.6762 68.2766 81.2907L68.361 80.9539C68.7375 79.526 69.1357 78.0529 69.566 76.6286C69.6344 76.4174 69.7765 76.0529 69.9142 75.6975C70.2675 74.8021 70.6855 73.7493 70.8788 72.6326C73.9135 68.0337 77.1991 63.4668 80.3797 59.0491L81.6108 57.3443C83.398 54.853 85.1035 52.2778 86.7477 49.7841C87.4559 48.7045 88.1776 47.6202 88.8949 46.5449C91.2133 43.0883 92.8452 39.7898 93.8822 36.4823C94.0317 36.31 94.1721 36.1335 94.2899 35.9349C95.2127 34.8476 96.0131 33.6458 96.1397 32.2529C96.232 31.2541 95.9178 30.2927 95.2623 29.5333C94.0878 28.169 92.3332 28.0792 91.3931 28.0262C91.3484 28.0269 91.308 28.0186 91.2767 28.0146C87.3178 27.3855 83.4384 26.6836 79.4771 24.999C77.3389 24.092 75.206 22.9434 72.5648 21.306C72.3929 21.1789 72.2077 21.0564 72.0005 20.9567C71.3097 20.5243 70.5824 20.0522 69.7241 19.4837C68.3597 18.5829 67.0114 17.5567 65.5226 16.4073C64.9976 15.9993 64.4716 15.5241 63.9049 15.0183C63.0298 14.2309 62.1277 13.4305 61.0477 12.6999C60.492 12.3325 59.8496 12.1454 59.1879 12.1599C58.2612 12.1023 56.9498 12.3368 55.6916 13.7288C55.1461 14.3319 54.7404 15.0134 54.4348 15.51L54.3344 15.6725C54.2603 15.8034 54.1906 15.9252 54.1255 16.0603C51.8819 19.7304 48.7389 22.779 45.4107 26.0047C45.036 26.3682 44.6613 26.7316 44.2866 27.0951C43.6563 27.7129 43.0304 28.3217 42.3911 28.9351C39.3629 31.8835 36.2242 34.923 33.216 38.0143C32.4839 38.7052 31.6508 39.5139 30.832 40.3849C30.7746 40.435 30.7263 40.4894 30.6689 40.5395C29.8411 41.4062 29.0187 42.3311 28.2326 43.2956C27.8719 43.6991 27.5022 44.0983 27.1369 44.4884C27.0004 44.6336 26.8776 44.7965 26.7729 44.968C24.2143 49.108 21.846 53.4061 19.729 57.7586C19.69 57.8397 19.6466 57.9298 19.6076 58.0109C18.6138 60.3293 17.6585 62.8216 16.7719 65.4246C15.2853 69.7587 13.9939 74.5862 12.698 80.5991L12.6667 80.5951Z" fill="white"/>
<path d="M12.5121 80.1323C12.4704 80.3342 12.4511 80.5357 12.4451 80.7326C12.2754 81.6387 12.0833 82.545 11.9046 83.4467C11.3974 85.9993 10.8646 88.6283 10.4709 91.291C10.3615 92.0485 10.5252 92.8153 10.9284 93.4533C11.9454 95.0526 13.465 96.1613 15.1139 96.9549C17.0332 97.8787 19.1339 98.3792 20.8652 98.702C24.6913 99.4225 27.9045 99.2488 30.6747 98.1739C31.6708 97.7876 32.4048 96.9312 32.6305 95.8857C32.6806 95.6434 32.7446 95.4412 32.814 95.297C32.8964 95.1258 32.9474 94.9506 32.9938 94.7621C34.1577 90.084 35.3419 84.9718 36.6004 79.1518C38.136 72.1335 39.9285 66.7258 42.2618 62.1777C42.2968 62.128 42.3408 62.0826 42.3759 62.0329C42.9484 61.4428 43.6287 60.8824 44.3444 60.2947C44.8039 59.9165 45.272 59.5203 45.7488 59.1061C48.5466 56.8902 51.8439 54.2822 55.0961 51.6524C55.1448 51.6204 55.1888 51.575 55.2375 51.5429C54.7375 52.4897 54.2374 53.4365 53.7416 54.3743C53.1545 55.479 52.572 56.597 51.9849 57.7016C49.646 62.1693 47.5044 67.2646 45.4393 73.2846C45.2765 73.7612 45.1094 74.2467 44.9513 74.7366C44.4169 76.0775 44.0183 77.2285 43.6865 78.3562C42.844 81.2135 42.0499 84.3161 41.2442 87.8348C40.77 89.9038 40.3452 91.9855 39.9781 94.0395C39.9701 94.1023 39.9574 94.1517 39.9538 94.2054C39.7141 96.1099 39.5419 98.0357 39.3687 99.8945C39.2524 101.081 39.1411 102.304 39.0205 103.5C38.9299 104.311 39.1702 105.126 39.6676 105.776C41.0681 107.593 43.3479 109.589 49.595 110.698C53.1647 111.329 55.9992 111.25 58.2596 110.474C59.2163 110.146 59.965 109.375 60.2545 108.404C60.6804 106.989 61.1064 105.573 61.5323 104.158C62.1196 102.177 62.7327 100.119 63.3601 98.1238C63.3817 98.0787 63.3897 98.016 63.4024 97.9666C63.5375 97.4323 63.6725 96.8981 63.8166 96.3681C64.1909 95.383 64.4393 94.3594 64.6584 93.4661C64.7595 93.0486 64.8652 92.6445 64.9586 92.3121C65.048 92.0111 65.124 91.7147 65.2001 91.4184L65.2638 91.1938C66.3114 87.7028 67.2202 84.2004 68.095 80.8148L68.1884 80.4825C68.5649 79.0545 68.9631 77.5814 69.3934 76.1571C69.4528 75.9415 69.6039 75.5815 69.7416 75.226C70.0949 74.3307 70.5129 73.2777 70.6972 72.1568C73.7319 67.5579 77.0175 62.991 80.198 58.5732L81.4335 56.8595C83.2208 54.3681 84.9262 51.793 86.5704 49.2993C87.2786 48.2196 88.0003 47.1353 88.7176 46.06C91.036 42.6035 92.6679 39.3049 93.7049 35.9974C93.8544 35.8252 93.9948 35.6486 94.1083 35.4591C95.0311 34.3717 95.8405 33.1743 95.9581 31.777C96.0504 30.7782 95.7362 29.8169 95.0807 29.0575C93.8972 27.6888 92.1516 27.6033 91.2115 27.5504C91.1668 27.5511 91.1264 27.5427 91.0907 27.5477C87.1319 26.9187 83.2525 26.2168 79.2911 24.5322C77.1529 23.6252 75.0201 22.4766 72.3789 20.8392C72.207 20.712 72.0218 20.5896 71.8145 20.4899C71.1237 20.0575 70.3965 19.5854 69.5471 19.0212C68.1828 18.1205 66.8345 17.0942 65.3456 15.9448C64.8207 15.5368 64.2947 15.0616 63.728 14.5558C62.8529 13.7684 61.9551 12.959 60.8708 12.2374C60.3151 11.87 59.6727 11.6829 59.011 11.6974C58.0886 11.6308 56.7728 11.8743 55.5146 13.2663C54.9691 13.8694 54.5634 14.5509 54.2578 15.0475L54.1574 15.21C54.0834 15.3409 54.0136 15.4627 53.9486 15.5978C51.705 19.2679 48.562 22.3165 45.2338 25.5422C44.8591 25.9057 44.4844 26.2692 44.1053 26.6416C43.4751 27.2594 42.8491 27.8682 42.2098 28.4816C39.1816 31.43 36.0519 34.4739 33.0347 37.5608C32.3027 38.2517 31.4695 39.0604 30.6508 39.9315C30.5934 39.9815 30.545 40.0359 30.4876 40.086C29.6598 40.9528 28.8374 41.8776 28.0513 42.8421C27.6906 43.2456 27.321 43.6448 26.9556 44.0349C26.8191 44.1801 26.6964 44.343 26.5916 44.5145C24.0331 48.6545 21.6648 52.9527 19.5477 57.3052C19.5087 57.3862 19.4654 57.4764 19.4263 57.5575C18.4326 59.8758 17.4772 62.3681 16.5906 64.9711C15.104 69.3052 13.8126 74.1327 12.5168 80.1456L12.5121 80.1323Z" fill="#F1F1F1"/>
<path d="M12.3532 79.6785C12.3115 79.8804 12.2832 80.0776 12.2819 80.2878C12.1122 81.1938 11.9201 82.1002 11.7414 83.0019C11.2342 85.5545 10.7013 88.1835 10.312 90.8372C10.2027 91.5947 10.3663 92.3615 10.7695 92.9995C11.7775 94.5945 13.3061 95.7075 14.955 96.5011C16.8743 97.4248 18.9884 97.9207 20.7063 98.2482C24.5324 98.9687 27.7412 98.804 30.5158 97.7201C31.5119 97.3338 32.2459 96.4774 32.4717 95.4319C32.5217 95.1896 32.5814 94.9964 32.6551 94.8432C32.7375 94.672 32.7885 94.4968 32.8439 94.3126C34.0078 89.6345 35.192 84.5223 36.4505 78.7023C37.9771 71.6796 39.7786 66.2764 42.1119 61.7283C42.1469 61.6785 42.1909 61.6332 42.226 61.5834C42.7985 60.9933 43.4789 60.433 44.1946 59.8452C44.654 59.467 45.1221 59.0709 45.5989 58.6567C48.4057 56.4451 51.694 53.8327 54.9552 51.2073C55.0039 51.1752 55.048 51.1298 55.0967 51.0978C54.5966 52.0446 54.0965 52.9914 53.6008 53.9292C53.0136 55.0338 52.4312 56.1518 51.844 57.2565C49.5051 61.7241 47.3635 66.8195 45.2985 72.8395C45.1357 73.316 44.9686 73.8016 44.8105 74.2915C44.2761 75.6324 43.8775 76.7834 43.5456 77.911C42.7031 80.7683 41.909 83.8709 41.1124 87.394C40.6382 89.463 40.209 91.5537 39.8462 93.5987C39.8426 93.6524 39.8256 93.7108 39.8219 93.7646C39.5823 95.6691 39.41 97.5949 39.2368 99.4536C39.1339 100.636 39.0092 101.863 38.8886 103.059C38.798 103.87 39.0294 104.681 39.5357 105.335C40.9362 107.152 43.2117 109.157 49.4632 110.257C53.0329 110.888 55.8674 110.809 58.1278 110.033C59.0845 109.705 59.8332 108.934 60.1227 107.963C60.5486 106.548 60.9745 105.133 61.4004 103.717C61.9878 101.736 62.6008 99.6783 63.2282 97.683C63.2499 97.6379 63.2579 97.5752 63.2706 97.5258C63.4056 96.9915 63.5407 96.4573 63.6891 95.9183C64.0544 94.9288 64.3075 93.9186 64.5309 93.0163C64.632 92.5988 64.7377 92.1947 64.8311 91.8623C64.9205 91.5613 64.9965 91.2649 65.0726 90.9686L65.1362 90.744C66.1839 87.2529 67.0927 83.7506 67.9675 80.365L68.0519 80.0283C68.4284 78.6003 68.8266 77.1273 69.2569 75.703C69.3252 75.4917 69.4673 75.1273 69.6051 74.7719C69.9584 73.8765 70.3763 72.8236 70.5607 71.7027C73.5954 67.1037 76.881 62.5368 80.0615 58.1191L81.297 56.4053C83.0842 53.914 84.7897 51.3388 86.4338 48.8451C87.1465 47.7565 87.8638 46.6812 88.5811 45.6059C90.8994 42.1493 92.5314 38.8508 93.5684 35.5433C93.7179 35.371 93.8583 35.1945 93.9761 34.9959C94.8989 33.9086 95.6993 32.7068 95.8259 31.3139C95.9182 30.3151 95.604 29.3537 94.9485 28.5943C93.774 27.23 92.0194 27.1402 91.0793 27.0872C91.0346 27.0879 90.9942 27.0796 90.9585 27.0846C86.9997 26.4555 83.1203 25.7536 79.1589 24.069C77.0207 23.162 74.8879 22.0134 72.2467 20.376C72.0748 20.2489 71.8896 20.1264 71.6823 20.0267C70.9915 19.5943 70.2643 19.1222 69.4059 18.5537C68.0416 17.653 66.6933 16.6267 65.2044 15.4773C64.6795 15.0693 64.1535 14.5942 63.5868 14.0883C62.7117 13.3009 61.8139 12.4915 60.7296 11.7699C60.1739 11.4025 59.5315 11.2154 58.8697 11.2299C57.943 11.1723 56.6316 11.4068 55.3734 12.7988C54.8279 13.4019 54.4179 14.0924 54.1166 14.58L54.0162 14.7425C53.9422 14.8734 53.8724 14.9952 53.8074 15.1303C51.5638 18.8004 48.4208 21.849 45.0925 25.0747C44.7179 25.4382 44.3432 25.8017 43.9641 26.1741C43.3339 26.7919 42.7079 27.4007 42.0686 28.0141C39.0404 30.9625 35.9017 34.0021 32.8935 37.0933C32.1615 37.7842 31.3283 38.5929 30.5096 39.464C30.4522 39.514 30.4038 39.5684 30.3464 39.6185C29.5186 40.4853 28.6962 41.4101 27.9101 42.3746C27.5494 42.7781 27.1797 43.1773 26.8144 43.5674C26.6779 43.7126 26.5552 43.8755 26.4504 44.047C23.8919 48.187 21.5236 52.4852 19.4155 56.842C19.3765 56.9231 19.3331 57.0132 19.2941 57.0943C18.3004 59.4127 17.345 61.9049 16.4584 64.508C14.9718 68.842 13.6804 73.6696 12.3846 79.6825L12.3532 79.6785Z" fill="#E2E2E2"/>
<path d="M12.1853 79.2203C12.1436 79.4222 12.1153 79.6194 12.114 79.8297C11.9443 80.7357 11.7522 81.6421 11.5735 82.5438C11.0663 85.0963 10.5334 87.7254 10.1397 90.388C10.0304 91.1456 10.194 91.9124 10.5973 92.5504C11.6143 94.1497 13.1338 95.2583 14.7828 96.052C16.702 96.9757 18.8028 97.4763 20.5341 97.799C24.3601 98.5196 27.5733 98.3459 30.3436 97.2709C31.3396 96.8847 32.0737 96.0283 32.2994 94.9827C32.3494 94.7405 32.4135 94.5382 32.4829 94.3941C32.5653 94.2229 32.6163 94.0477 32.6626 93.8591C33.8266 89.1811 35.0107 84.0689 36.2693 78.2489C37.7959 71.2262 39.5974 65.8229 41.9306 61.2748C41.9656 61.2251 42.0097 61.1797 42.0447 61.1299C42.6173 60.5399 43.2976 59.9795 44.0133 59.3917C44.4728 59.0136 44.9409 58.6174 45.4177 58.2032C48.2155 55.9873 51.5127 53.3792 54.7649 50.7495C54.8136 50.7174 54.8577 50.672 54.9064 50.64C54.4063 51.5868 53.9062 52.5336 53.4105 53.4714C52.8234 54.576 52.2409 55.694 51.6537 56.7987C49.3148 61.2663 47.1732 66.3616 45.1082 72.3817C44.9454 72.8582 44.7783 73.3438 44.6202 73.8337C44.0858 75.1746 43.6872 76.3256 43.3554 77.4532C42.5129 80.3105 41.7188 83.4131 40.9221 86.9361C40.4479 89.0052 40.0231 91.0869 39.656 93.1409C39.648 93.2036 39.6353 93.253 39.6316 93.3068C39.392 95.2112 39.2198 97.1371 39.0465 98.9958C38.9302 100.183 38.819 101.406 38.6984 102.602C38.6077 103.412 38.8481 104.227 39.3454 104.877C40.7459 106.694 43.0258 108.691 49.2729 109.8C52.8426 110.43 55.6771 110.352 57.9375 109.575C58.8942 109.248 59.6429 108.476 59.9324 107.505C60.3583 106.09 60.7842 104.675 61.2102 103.26C61.8019 101.269 62.4105 99.2205 63.0379 97.2252C63.0596 97.1801 63.0676 97.1174 63.0803 97.068C63.2154 96.5337 63.3504 95.9994 63.4945 95.4695C63.8688 94.4843 64.1172 93.4608 64.3363 92.5675C64.4374 92.15 64.5431 91.7459 64.6365 91.4135C64.7259 91.1125 64.8019 90.8161 64.878 90.5198L64.9416 90.2952C65.9893 86.8041 66.8981 83.3018 67.7729 79.9162L67.8662 79.5838C68.2428 78.1558 68.641 76.6828 69.0713 75.2585C69.1306 75.0429 69.2818 74.6828 69.4195 74.3274C69.7728 73.432 70.1907 72.3791 70.3751 71.2582C73.4098 66.6593 76.6954 62.0924 79.8759 57.6746L81.1113 55.9609C82.8986 53.4695 84.6041 50.8944 86.2482 48.4007C86.9565 47.321 87.6782 46.2367 88.3955 45.1614C90.7138 41.7049 92.3458 38.4063 93.3828 35.0988C93.5323 34.9266 93.6727 34.75 93.7905 34.5515C94.7134 33.4641 95.5137 32.2623 95.6403 30.8694C95.7326 29.8706 95.4184 28.9093 94.7629 28.1499C93.5794 26.7812 91.8338 26.6957 90.8937 26.6428C90.849 26.6434 90.8086 26.6351 90.7729 26.6401C86.8141 26.011 82.9347 25.3092 78.9733 23.6246C76.8352 22.7176 74.7023 21.569 72.0611 19.9315C71.8892 19.8044 71.704 19.682 71.4967 19.5822C70.8059 19.1499 70.0787 18.6778 69.2293 18.1136C67.865 17.2128 66.5167 16.1866 65.0279 15.0372C64.5029 14.6291 63.9769 14.154 63.4102 13.6482C62.5351 12.8608 61.6373 12.0514 60.553 11.3297C59.9973 10.9624 59.3549 10.7753 58.6932 10.7898C57.7708 10.7232 56.455 10.9666 55.1968 12.3587C54.6513 12.9618 54.2456 13.6433 53.94 14.1399L53.8396 14.3024C53.7656 14.4332 53.6958 14.555 53.6308 14.6902C51.3872 18.3603 48.2442 21.4088 44.916 24.6346C44.5413 24.9981 44.1666 25.3615 43.7875 25.734C43.1573 26.3518 42.5313 26.9605 41.8921 27.574C38.8638 30.5224 35.7341 33.5663 32.7169 36.6532C31.9849 37.344 31.1517 38.1527 30.333 39.0238C30.2756 39.0739 30.2272 39.1283 30.1698 39.1784C29.342 40.0451 28.5196 40.9699 27.7335 41.9345C27.3728 42.338 27.0075 42.7281 26.6378 43.1273C26.5014 43.2725 26.3786 43.4353 26.2738 43.6069C23.7153 47.7469 21.347 52.045 19.239 56.4019C19.1999 56.483 19.1566 56.5731 19.1175 56.6542C18.1238 58.9726 17.1684 61.4648 16.2819 64.0678C14.8042 68.4062 13.5038 73.2294 12.208 79.2423L12.1853 79.2203Z" fill="#D4D4D4"/>
<path d="M12.0264 78.7665C11.9847 78.9684 11.9564 79.1656 11.9551 79.3758C11.7853 80.2819 11.5933 81.1883 11.4145 82.09C10.9074 84.6425 10.3745 87.2715 9.98082 89.9342C9.87148 90.6918 10.0351 91.4586 10.4383 92.0966C11.4464 93.6915 12.9749 94.8045 14.6239 95.5981C16.5431 96.5219 18.6529 97.0268 20.3752 97.3452C24.2012 98.0657 27.4101 97.9011 30.1847 96.8171C31.1807 96.4309 31.9147 95.5745 32.1315 94.5246C32.1815 94.2823 32.2412 94.0891 32.3149 93.9359C32.3973 93.7647 32.4484 93.5895 32.4904 93.41C33.6543 88.7319 34.8385 83.6197 36.097 77.7997C37.6326 70.7813 39.4251 65.3737 41.7583 60.8256C41.7934 60.7759 41.8374 60.7305 41.8725 60.6808C42.445 60.0907 43.1253 59.5303 43.841 58.9426C44.3005 58.5644 44.7686 58.1682 45.2454 57.754C48.0522 55.5425 51.3404 52.9301 54.6017 50.3046C54.6504 50.2726 54.6944 50.2272 54.7431 50.1952C54.2431 51.142 53.743 52.0888 53.2473 53.0265C52.6601 54.1312 52.0776 55.2492 51.4905 56.3538C49.1516 60.8215 47.01 65.9168 44.9449 71.9368C44.7822 72.4134 44.615 72.899 44.4569 73.3889C43.9226 74.7298 43.5239 75.8808 43.1921 77.0084C42.3496 79.8657 41.5555 82.9683 40.7588 86.4913C40.2846 88.5604 39.8598 90.6421 39.4927 92.6961C39.4891 92.7498 39.472 92.8082 39.464 92.871C39.2244 94.7755 39.0522 96.7013 38.8789 98.56C38.7627 99.747 38.6514 100.97 38.5308 102.166C38.4401 102.977 38.6715 103.787 39.1778 104.442C40.5783 106.259 42.8538 108.264 49.1053 109.364C52.675 109.994 55.5095 109.916 57.7699 109.139C58.7266 108.812 59.4753 108.04 59.7648 107.07C60.1907 105.654 60.6167 104.239 61.0426 102.824C61.6343 100.833 62.243 98.7847 62.8703 96.7894C62.892 96.7443 62.9 96.6816 62.9127 96.6322C63.0478 96.0979 63.1828 95.5636 63.3312 95.0247C63.6965 94.0352 63.9496 93.025 64.1731 92.1227C64.2741 91.7052 64.3798 91.301 64.4732 90.9687C64.5626 90.6677 64.6387 90.3713 64.7147 90.075L64.7784 89.8504C65.826 86.3593 66.7348 82.857 67.6096 79.4714L67.694 79.1347C68.0705 77.7067 68.4687 76.2337 68.899 74.8094C68.9584 74.5938 69.1095 74.2337 69.2472 73.8783C69.6005 72.9829 70.0185 71.93 70.2028 70.809C73.2375 66.2101 76.5231 61.6432 79.7036 57.2255L80.9391 55.5117C82.7264 53.0203 84.4318 50.4452 86.076 47.9515C86.7886 46.8629 87.5059 45.7876 88.2232 44.7123C90.5416 41.2557 92.1735 37.9571 93.2105 34.6496C93.36 34.4774 93.5005 34.3009 93.6182 34.1023C94.5411 33.015 95.3415 31.8132 95.4681 30.4203C95.5603 29.4215 95.2462 28.4601 94.5907 27.7007C93.4071 26.332 91.6615 26.2465 90.7214 26.1936C90.6767 26.1943 90.6364 26.186 90.605 26.182C86.6462 25.5529 82.7667 24.851 78.8054 23.1664C76.6672 22.2594 74.5343 21.1108 71.8932 19.4734C71.7213 19.3463 71.5361 19.2238 71.3288 19.1241C70.638 18.6917 69.9108 18.2196 69.0614 17.6555C67.6971 16.7547 66.3487 15.7284 64.8599 14.579C64.3349 14.171 63.8089 13.6959 63.2422 13.1901C62.3671 12.4026 61.4694 11.5932 60.385 10.8716C59.8294 10.5043 59.187 10.3172 58.5252 10.3316C57.6029 10.265 56.2871 10.5085 55.0289 11.9005C54.4834 12.5036 54.0734 13.1941 53.7721 13.6817L53.6717 13.8443C53.5976 13.9751 53.5279 14.0969 53.4629 14.232C51.2193 17.9021 48.0762 20.9507 44.748 24.1764C44.3733 24.5399 43.9986 24.9034 43.6196 25.2758C42.9893 25.8936 42.3634 26.5024 41.7241 27.1158C38.6959 30.0643 35.5662 33.1081 32.549 36.195C31.8169 36.8859 30.9838 37.6946 30.165 38.5657C30.1077 38.6157 30.0593 38.6701 30.0019 38.7202C29.1741 39.587 28.3517 40.5118 27.5656 41.4763C27.2049 41.8798 26.8352 42.279 26.4699 42.6691C26.3334 42.8143 26.2106 42.9772 26.1059 43.1487C23.5473 47.2887 21.1791 51.5869 19.062 55.9394C19.023 56.0205 18.9796 56.1106 18.9406 56.1917C17.9469 58.5101 16.9915 61.0023 16.1049 63.6053C14.6183 67.9394 13.3269 72.767 12.031 78.7798L12.0264 78.7665Z" fill="#C5C5C5"/>
<path d="M11.8718 78.3037C11.8301 78.5056 11.8018 78.7028 11.8005 78.913C11.6308 79.8191 11.4387 80.7254 11.26 81.6271C10.7528 84.1797 10.2199 86.8087 9.82625 89.4714C9.71691 90.2289 9.88054 90.9957 10.2837 91.6337C11.3008 93.233 12.8203 94.3417 14.4693 95.1353C16.3886 96.059 18.4983 96.5639 20.2206 96.8824C24.0466 97.6029 27.2598 97.4292 30.0301 96.3543C31.0261 95.968 31.7602 95.1116 31.9859 94.0661C32.0359 93.8238 32.1 93.6216 32.1694 93.4774C32.2518 93.3062 32.3028 93.131 32.3491 92.9425C33.5131 88.2644 34.6973 83.1522 35.9558 77.3322C37.4824 70.3095 39.2839 64.9062 41.6171 60.3581C41.6521 60.3084 41.6962 60.263 41.7312 60.2133C42.3038 59.6232 42.9841 59.0628 43.6998 58.4751C44.1593 58.0969 44.6274 57.7007 45.1042 57.2865C47.9019 55.0706 51.1992 52.4626 54.4514 49.8328C54.5001 49.8008 54.5442 49.7554 54.5929 49.7233C54.0928 50.6701 53.5928 51.6169 53.097 52.5547C52.5099 53.6594 51.9274 54.7774 51.3402 55.882C49.0013 60.3497 46.8597 65.445 44.7947 71.465C44.6319 71.9416 44.4648 72.4271 44.3067 72.917C43.7723 74.2579 43.3737 75.4089 43.0418 76.5366C42.1993 79.3939 41.4053 82.4965 40.6086 86.0195C40.1344 88.0885 39.7096 90.1702 39.3425 92.2242C39.3345 92.287 39.3218 92.3364 39.3181 92.3901C39.0785 94.2946 38.9063 96.2204 38.733 98.0792C38.6168 99.2662 38.5055 100.489 38.3849 101.685C38.2942 102.496 38.5346 103.311 39.0319 103.961C40.4324 105.778 42.7123 107.774 48.9594 108.883C52.5291 109.513 55.3636 109.435 57.624 108.658C58.5807 108.331 59.3294 107.559 59.6189 106.589C60.0448 105.173 60.4708 103.758 60.8967 102.343C61.4884 100.353 62.0971 98.3039 62.7244 96.3085C62.7461 96.2635 62.7541 96.2008 62.7668 96.1514C62.9019 95.6171 63.0369 95.0828 63.181 94.5528C63.5463 93.5634 63.8037 92.5442 64.0228 91.6508C64.1239 91.2333 64.2296 90.8292 64.323 90.4968C64.4124 90.1958 64.4884 89.8995 64.5645 89.6031L64.6282 89.3785C65.6758 85.8875 66.5846 82.3851 67.4594 78.9996L67.5528 78.6672C67.9293 77.2392 68.3275 75.7662 68.7578 74.3418C68.8171 74.1263 68.9682 73.7662 69.106 73.4108C69.4593 72.5154 69.8772 71.4625 70.0616 70.3415C73.0963 65.7426 76.3819 61.1757 79.5624 56.758L80.7979 55.0442C82.5851 52.5528 84.2906 49.9777 85.9347 47.484C86.643 46.4044 87.3647 45.3201 88.082 44.2448C90.4003 40.7882 92.0323 37.4896 93.0693 34.1821C93.2188 34.0099 93.3592 33.8334 93.477 33.6348C94.3999 32.5475 95.2002 31.3457 95.3268 29.9527C95.4191 28.954 95.1049 27.9926 94.4494 27.2332C93.2659 25.8645 91.5203 25.779 90.5802 25.7261C90.5355 25.7268 90.4951 25.7184 90.4594 25.7235C86.5006 25.0944 82.6212 24.3925 78.6598 22.7079C76.5217 21.8009 74.3888 20.6523 71.7476 19.0149C71.5757 18.8878 71.3905 18.7653 71.1832 18.6656C70.4924 18.2332 69.7652 17.7611 68.9158 17.197C67.5515 16.2962 66.2032 15.2699 64.7144 14.1205C64.1894 13.7125 63.6634 13.2374 63.0967 12.7316C62.2216 11.9441 61.3238 11.1347 60.2395 10.4131C59.6838 10.0458 59.0414 9.85866 58.3797 9.87311C57.4573 9.80651 56.1415 10.05 54.8833 11.4421C54.3378 12.0451 53.9322 12.7266 53.6266 13.2232L53.5261 13.3858C53.4521 13.5166 53.3823 13.6384 53.3173 13.7735C51.0737 17.4436 47.9307 20.4922 44.6025 23.7179C44.2278 24.0814 43.8531 24.4449 43.4741 24.8173C42.8438 25.4351 42.2178 26.0439 41.5786 26.6573C38.5503 29.6058 35.4206 32.6496 32.4034 35.7365C31.6714 36.4274 30.8382 37.2361 30.0195 38.1072C29.9621 38.1572 29.9137 38.2116 29.8563 38.2617C29.0285 39.1285 28.2061 40.0533 27.42 41.0178C27.0594 41.4213 26.694 41.8115 26.3243 42.2106C26.1879 42.3558 26.0651 42.5187 25.9603 42.6902C23.4018 46.8302 21.0335 51.1284 18.9165 55.4809C18.8774 55.562 18.8341 55.6521 18.795 55.7332C17.8013 58.0516 16.8459 60.5438 15.9593 63.1468C14.4727 67.4809 13.1813 72.3085 11.8855 78.3213L11.8718 78.3037Z" fill="#B7B7B7"/>
<path d="M11.7039 77.8455C11.6622 78.0474 11.6338 78.2446 11.6325 78.4549C11.4538 79.3566 11.2707 80.2673 11.092 81.169C10.5848 83.7215 10.052 86.3506 9.6583 89.0132C9.53995 89.7664 9.70359 90.5333 10.1158 91.1756C11.1329 92.7749 12.6524 93.8835 14.3013 94.6772C16.2206 95.6009 18.3214 96.1015 20.0527 96.4242C23.8787 97.1448 27.0876 96.9801 29.8622 95.8961C30.8582 95.5099 31.5922 94.6535 31.809 93.6036C31.859 93.3613 31.9187 93.1681 31.9924 93.0149C32.0748 92.8437 32.1258 92.6685 32.1722 92.48C33.3361 87.8019 34.5203 82.6897 35.7788 76.8697C37.3054 69.847 39.1069 64.4437 41.4402 59.8957C41.4752 59.8459 41.5192 59.8005 41.5543 59.7508C42.1268 59.1607 42.8071 58.6003 43.5228 58.0126C43.9823 57.6344 44.4504 57.2382 44.9272 56.824C47.725 54.6081 51.0223 52.0001 54.2745 49.3703C54.3232 49.3383 54.3672 49.2929 54.4159 49.2608C53.9159 50.2076 53.4158 51.1544 52.9201 52.0922C52.3329 53.1969 51.7504 54.3149 51.1633 55.4195C48.8244 59.8872 46.6828 64.9825 44.6177 71.0025C44.455 71.4791 44.2879 71.9646 44.1298 72.4545C43.5954 73.7954 43.1968 74.9465 42.8649 76.0741C42.0224 78.9314 41.2283 82.034 40.4316 85.557C39.9574 87.626 39.5283 89.7168 39.1655 91.7618C39.1575 91.8245 39.1449 91.8739 39.1412 91.9276C38.9016 93.8321 38.7293 95.7579 38.5561 97.6167C38.4488 98.8081 38.3285 100.026 38.2079 101.222C38.1173 102.033 38.3486 102.844 38.855 103.498C40.2555 105.315 42.531 107.321 48.7825 108.42C52.3522 109.051 55.1823 108.981 57.447 108.196C58.4037 107.868 59.1524 107.097 59.4419 106.126C59.8679 104.711 60.2938 103.296 60.7197 101.88C61.3071 99.8991 61.9201 97.8414 62.5475 95.846C62.5692 95.801 62.5772 95.7383 62.5898 95.6889C62.7249 95.1546 62.86 94.6203 63.004 94.0904C63.3693 93.1009 63.6268 92.0817 63.8459 91.1883C63.9469 90.7709 64.0527 90.3667 64.146 90.0343C64.2311 89.7423 64.3115 89.437 64.3875 89.1406L64.4512 88.916C65.4988 85.425 66.4076 81.9226 67.2824 78.5371L67.3668 78.2004C67.7433 76.7724 68.1415 75.2993 68.5718 73.875C68.6312 73.6594 68.7823 73.2994 68.92 72.9439C69.2733 72.0486 69.6913 70.9957 69.8756 69.8747C72.9103 65.2758 76.1959 60.7089 79.3765 56.2912L80.6119 54.5774C82.3992 52.086 84.1047 49.5109 85.7488 47.0172C86.4614 45.9285 87.1787 44.8532 87.896 43.7779C90.2144 40.3214 91.8464 37.0228 92.8833 33.7153C93.0328 33.5431 93.1733 33.3665 93.291 33.168C94.2139 32.0806 95.0233 30.8832 95.1409 29.4859C95.2331 28.4871 94.919 27.5258 94.2635 26.7664C93.0799 25.3977 91.3343 25.3122 90.3943 25.2593C90.3496 25.26 90.3092 25.2516 90.2735 25.2566C86.3146 24.6275 82.4352 23.9257 78.4739 22.2411C76.3357 21.3341 74.2028 20.1855 71.5616 18.5481C71.3898 18.4209 71.2045 18.2985 70.9973 18.1988C70.3064 17.7664 69.5792 17.2943 68.7299 16.7301C67.3656 15.8293 66.0172 14.8031 64.5284 13.6537C64.0034 13.2457 63.4774 12.7705 62.9107 12.2647C62.0356 11.4773 61.1378 10.6679 60.0535 9.94626C59.4978 9.57894 58.8554 9.39183 58.1937 9.40628C57.2713 9.33968 55.9556 9.58316 54.6974 10.9752C54.1519 11.5783 53.7419 12.2688 53.4406 12.7564L53.3402 12.9189C53.2661 13.0498 53.1964 13.1716 53.1313 13.3067C50.8877 16.9768 47.7447 20.0254 44.4165 23.2511C44.0418 23.6146 43.6671 23.978 43.2881 24.3505C42.6578 24.9683 42.0319 25.5771 41.3926 26.1905C38.3644 29.1389 35.2347 32.1828 32.2175 35.2697C31.4854 35.9606 30.6523 36.7693 29.8245 37.636C29.7671 37.6861 29.7187 37.7405 29.6613 37.7906C28.8335 38.6573 28.0111 39.5821 27.225 40.5467C26.8644 40.9502 26.4947 41.3493 26.1293 41.7395C25.9929 41.8847 25.8701 42.0475 25.7654 42.2191C23.2068 46.3591 20.8385 50.6572 18.7305 55.014C18.6871 55.1042 18.6481 55.1852 18.6091 55.2663C17.6153 57.5847 16.66 60.077 15.7734 62.68C14.2867 67.0141 12.9954 71.8416 11.6995 77.8545L11.7039 77.8455Z" fill="#A8A8A8"/>
<path d="M11.5449 77.3917C11.5033 77.5936 11.4749 77.7908 11.4736 78.001C11.3039 78.9071 11.1118 79.8134 10.9331 80.7151C10.4259 83.2677 9.89309 85.8967 9.49939 88.5594C9.39005 89.3169 9.55368 90.0838 9.95689 90.7217C10.9739 92.321 12.4935 93.4297 14.1424 94.2233C16.0617 95.1471 18.1715 95.652 19.8938 95.9704C23.7198 96.6909 26.933 96.5173 29.7032 95.4423C30.6993 95.0561 31.4333 94.1997 31.6591 93.1541C31.7091 92.9118 31.7731 92.7096 31.8425 92.5654C31.9249 92.3942 31.9759 92.219 32.0179 92.0395C33.1819 87.3614 34.3661 82.2493 35.6246 76.4293C37.1512 69.4065 38.9527 64.0033 41.2859 59.4552C41.3209 59.4054 41.365 59.3601 41.4 59.3103C41.9726 58.7203 42.6529 58.1599 43.3686 57.5721C43.8281 57.1939 44.2962 56.7978 44.773 56.3836C47.5708 54.1677 50.868 51.5596 54.1202 48.9298C54.1689 48.8978 54.213 48.8524 54.2617 48.8204C53.7616 49.7672 53.2616 50.714 52.7658 51.6517C52.1787 52.7564 51.5962 53.8744 51.009 54.979C48.6701 59.4467 46.5285 64.542 44.4635 70.562C44.3007 71.0386 44.1336 71.5242 43.9755 72.0141C43.4411 73.355 43.0425 74.506 42.7107 75.6336C41.8682 78.4909 41.0741 81.5935 40.2774 85.1165C39.8032 87.1856 39.3784 89.2673 39.0113 91.3213C39.0076 91.375 38.9906 91.4334 38.987 91.4871C38.7473 93.3916 38.5751 95.3175 38.4018 97.1762C38.2899 98.3542 38.1743 99.5859 38.0537 100.782C37.963 101.593 38.2034 102.408 38.7007 103.058C40.1012 104.875 42.3767 106.88 48.6282 107.98C52.1979 108.61 55.0324 108.532 57.2928 107.755C58.2495 107.428 58.9982 106.656 59.2877 105.686C59.7136 104.271 60.1396 102.855 60.5655 101.44C61.1572 99.4496 61.7659 97.4009 62.3933 95.4056C62.4149 95.3605 62.4229 95.2978 62.4356 95.2484C62.5707 94.7141 62.7057 94.1798 62.8498 93.6499C63.2151 92.6604 63.4725 91.6412 63.6916 90.7479C63.7927 90.3304 63.8984 89.9262 63.9918 89.5939C64.0812 89.2928 64.1572 88.9965 64.2333 88.7002L64.297 88.4756C65.3446 84.9845 66.2534 81.4822 67.1282 78.0966L67.2216 77.7642C67.5981 76.3362 67.9963 74.8632 68.4266 73.4389C68.486 73.2233 68.637 72.8632 68.7748 72.5078C69.1281 71.6124 69.546 70.5595 69.7394 69.4429C72.7741 64.844 76.0597 60.2771 79.2402 55.8594L80.4757 54.1456C82.2629 51.6542 83.9685 49.0791 85.6126 46.5854C86.3209 45.5058 87.0425 44.4214 87.7598 43.3461C90.0782 39.8896 91.7101 36.591 92.7471 33.2835C92.8966 33.1113 93.037 32.9347 93.1548 32.7362C94.0777 31.6488 94.8871 30.4514 95.0046 29.0541C95.0969 28.0553 94.7827 27.094 94.1272 26.3346C92.9437 24.9659 91.1981 24.8804 90.2581 24.8275C90.2133 24.8282 90.1729 24.8198 90.1372 24.8248C86.1784 24.1957 82.299 23.4939 78.3377 21.8093C76.1995 20.9023 74.0666 19.7537 71.4254 18.1163C71.2535 17.9891 71.0683 17.8667 70.8611 17.767C70.1702 17.3346 69.443 16.8625 68.5936 16.2983C67.2293 15.3975 65.881 14.3713 64.3922 13.2219C63.8672 12.8139 63.3369 12.3478 62.7745 11.8329C61.8994 11.0455 61.0016 10.2361 59.9173 9.51446C59.3616 9.14714 58.7192 8.96003 58.0575 8.97448C57.1351 8.90788 55.8193 9.15135 54.5612 10.5434C54.0156 11.1465 53.61 11.828 53.3044 12.3246L53.204 12.4871C53.1299 12.618 53.0602 12.7398 52.9951 12.8749C50.7515 16.545 47.6085 19.5936 44.2803 22.8193C43.9056 23.1828 43.5309 23.5462 43.1519 23.9187C42.5216 24.5365 41.8957 25.1453 41.2564 25.7587C38.2281 28.7071 35.0984 31.751 32.0812 34.8379C31.3492 35.5288 30.5161 36.3375 29.6973 37.2086C29.6399 37.2586 29.5915 37.313 29.5341 37.3631C28.7063 38.2298 27.8839 39.1547 27.0978 40.1192C26.7372 40.5227 26.3718 40.9129 26.0021 41.312C25.8657 41.4572 25.7429 41.6201 25.6381 41.7916C23.0796 45.9316 20.7113 50.2298 18.6033 54.5866C18.5643 54.6677 18.5209 54.7578 18.4819 54.8389C17.4881 57.1573 16.5328 59.6495 15.6462 62.2526C14.1595 66.5866 12.8682 71.4142 11.5723 77.4271L11.5449 77.3917Z" fill="#9A9A9A"/>
<path d="M11.3904 76.9289C11.3487 77.1308 11.3294 77.3323 11.3191 77.5382C11.1404 78.4399 10.9573 79.3506 10.7786 80.2523C10.2714 82.8049 9.73853 85.4339 9.34484 88.0966C9.2355 88.8541 9.39914 89.621 9.80235 90.2589C10.8194 91.8582 12.3389 92.9669 13.9879 93.7605C15.9071 94.6843 18.0079 95.1848 19.7392 95.5076C23.5652 96.2281 26.7741 96.0635 29.5487 94.9795C30.5447 94.5932 31.2788 93.7368 31.4955 92.687C31.5455 92.4447 31.6052 92.2515 31.679 92.0983C31.7614 91.9271 31.8124 91.7519 31.8587 91.5633C33.0227 86.8853 34.2068 81.7731 35.4653 75.9531C36.992 68.9304 38.7935 63.5271 41.1267 58.979C41.1617 58.9293 41.2058 58.8839 41.2408 58.8342C41.8134 58.2441 42.4937 57.6837 43.2094 57.0959C43.6689 56.7178 44.137 56.3216 44.6138 55.9074C47.4115 53.6915 50.7088 51.0834 53.961 48.4537C54.0097 48.4216 54.0538 48.3762 54.1025 48.3442C53.6024 49.291 53.1023 50.2378 52.6066 51.1756C52.0195 52.2802 51.437 53.3982 50.8498 54.5029C48.5109 58.9705 46.3693 64.0659 44.3043 70.0859C44.1415 70.5624 43.9744 71.048 43.8163 71.5379C43.2819 72.8788 42.8833 74.0298 42.5514 75.1575C41.7089 78.0148 40.9149 81.1173 40.1182 84.6404C39.644 86.7094 39.2148 88.8001 38.8521 90.8451C38.8441 90.9079 38.8314 90.9573 38.8234 91.02C38.5838 92.9245 38.4115 94.8503 38.2383 96.7091C38.122 97.8961 38.0107 99.1188 37.8901 100.315C37.7995 101.126 38.0309 101.936 38.5372 102.591C39.9377 104.408 42.2175 106.404 48.4646 107.513C52.0344 108.143 54.8689 108.065 57.1293 107.288C58.0859 106.961 58.8346 106.189 59.1242 105.219C59.5501 103.803 59.976 102.388 60.4019 100.973C60.9936 98.9824 61.6023 96.9337 62.2297 94.9384C62.2514 94.8934 62.2594 94.8306 62.2721 94.7812C62.4071 94.247 62.5422 93.7127 62.6863 93.1827C63.0515 92.1932 63.309 91.1741 63.5281 90.2807C63.6291 89.8632 63.7348 89.4591 63.8282 89.1267C63.9133 88.8347 63.9937 88.5294 64.0697 88.233L64.1334 88.0084C65.181 84.5174 66.0899 81.015 66.9646 77.6295L67.049 77.2927C67.4255 75.8648 67.8238 74.3917 68.254 72.9674C68.3224 72.7562 68.4645 72.3917 68.6023 72.0363C68.9555 71.1409 69.3735 70.088 69.5578 68.9671C72.5925 64.3682 75.8781 59.8013 79.0587 55.3835L80.2941 53.6698C82.0814 51.1784 83.7869 48.6033 85.431 46.1096C86.1436 45.0209 86.8609 43.9456 87.5782 42.8703C89.8966 39.4138 91.5286 36.1152 92.5655 32.8077C92.715 32.6355 92.8555 32.4589 92.9732 32.2603C93.8961 31.173 94.6965 29.9712 94.8231 28.5783C94.9154 27.5795 94.6012 26.6182 93.9457 25.8587C92.7621 24.4901 91.0165 24.4046 90.0765 24.3517C90.0318 24.3523 89.9914 24.344 89.9557 24.349C85.9968 23.7199 82.1174 23.0181 78.1561 21.3335C76.0179 20.4265 73.885 19.2778 71.2438 17.6404C71.072 17.5133 70.8867 17.3909 70.6795 17.2911C69.9887 16.8588 69.2614 16.3867 68.4121 15.8225C67.0478 14.9217 65.6994 13.8955 64.2106 12.7461C63.6856 12.338 63.1596 11.8629 62.5929 11.3571C61.7178 10.5697 60.811 9.75594 59.7357 9.03864C59.1801 8.67131 58.5376 8.4842 57.8759 8.49865C56.9535 8.43206 55.6378 8.67553 54.3796 10.0676C53.8341 10.6707 53.4151 11.3569 53.1228 11.8488L53.0224 12.0113C52.9483 12.1421 52.8786 12.2639 52.8135 12.3991C50.57 16.0692 47.4269 19.1177 44.0987 22.3435C43.724 22.707 43.3493 23.0704 42.9703 23.4429C42.34 24.0607 41.7141 24.6694 41.0748 25.2829C38.0466 28.2313 34.9169 31.2752 31.8997 34.3621C31.1676 35.0529 30.3345 35.8616 29.5157 36.7327C29.4583 36.7828 29.4099 36.8372 29.3526 36.8873C28.5248 37.754 27.7023 38.6788 26.9163 39.6434C26.5556 40.0469 26.1859 40.446 25.8206 40.8362C25.6841 40.9814 25.5613 41.1442 25.4566 41.3158C22.898 45.4558 20.5297 49.7539 18.4217 54.1108C18.3827 54.1919 18.3393 54.282 18.3003 54.3631C17.3065 56.6815 16.3512 59.1737 15.4646 61.7767C13.9779 66.1108 12.6866 70.9383 11.3907 76.9512L11.3904 76.9289Z" fill="#8B8B8B"/>
<path d="M11.2315 76.4751C11.1898 76.677 11.1615 76.8742 11.1602 77.0844C10.9905 77.9905 10.7984 78.8968 10.6197 79.7985C10.1125 82.3511 9.57963 84.9801 9.18593 87.6428C9.07659 88.4003 9.24023 89.1672 9.64345 89.8051C10.6605 91.4044 12.18 92.5131 13.838 93.3111C15.7573 94.2348 17.867 94.7397 19.5893 95.0581C23.4153 95.7787 26.6285 95.605 29.3988 94.53C30.3948 94.1438 31.1289 93.2874 31.3546 92.2418C31.4046 91.9996 31.4687 91.7973 31.5381 91.6532C31.6205 91.482 31.6715 91.3068 31.7178 91.1182C32.8818 86.4402 34.066 81.328 35.3245 75.508C36.8511 68.4853 38.6526 63.082 40.9858 58.5339C41.0208 58.4842 41.0649 58.4388 41.0999 58.389C41.6725 57.799 42.3528 57.2386 43.0685 56.6508C43.528 56.2726 43.9961 55.8765 44.4729 55.4623C47.2707 53.2464 50.5679 50.6383 53.8201 48.0085C53.8689 47.9765 53.9129 47.9311 53.9616 47.8991C53.4615 48.8459 52.9615 49.7927 52.4657 50.7305C51.8786 51.8351 51.2961 52.9531 50.7089 54.0578C48.37 58.5254 46.2284 63.6207 44.1634 69.6408C44.0006 70.1173 43.8335 70.6029 43.6754 71.0928C43.141 72.4337 42.7424 73.5847 42.4106 74.7123C41.5681 77.5696 40.774 80.6722 39.9773 84.1952C39.5031 86.2643 39.0739 88.355 38.7069 90.409C38.7032 90.4627 38.6862 90.5211 38.6825 90.5749C38.4429 92.4794 38.2706 94.4052 38.0974 96.2639C37.9855 97.4419 37.8699 98.6737 37.7492 99.8697C37.6586 100.681 37.899 101.495 38.3963 102.145C39.7968 103.963 42.0767 105.959 48.3238 107.068C51.8935 107.698 54.728 107.62 56.9884 106.843C57.9451 106.516 58.6938 105.744 58.9833 104.774C59.4092 103.358 59.8351 101.943 60.261 100.528C60.8527 98.5373 61.4614 96.4886 62.0888 94.4933C62.1105 94.4482 62.1185 94.3855 62.1312 94.3361C62.2662 93.8018 62.4013 93.2675 62.5454 92.7376C62.9106 91.7481 63.1681 90.7289 63.3872 89.8356C63.4882 89.4181 63.594 89.014 63.6874 88.6816C63.7768 88.3806 63.8528 88.0842 63.9288 87.7879L63.9925 87.5633C65.0401 84.0722 65.949 80.5699 66.8237 77.1843L66.9171 76.8519C67.2937 75.424 67.6919 73.9509 68.1221 72.5266C68.1815 72.311 68.3326 71.9509 68.4704 71.5955C68.8193 70.7092 69.2416 69.6472 69.435 68.5306C72.4697 63.9317 75.7553 59.3648 78.9358 54.9471L80.1712 53.2333C81.9585 50.7419 83.664 48.1668 85.3081 45.6731C86.0164 44.5935 86.738 43.5092 87.4553 42.4338C89.7737 38.9773 91.4057 35.6787 92.4427 32.3712C92.5922 32.199 92.7326 32.0225 92.8504 31.8239C93.7732 30.7365 94.5826 29.5391 94.7002 28.1419C94.7925 27.1431 94.4783 26.1817 93.8228 25.4223C92.6393 24.0536 90.8937 23.9681 89.9536 23.9152C89.9089 23.9159 89.8685 23.9076 89.8372 23.9036C85.8783 23.2745 81.9989 22.5726 78.0376 20.888C75.8994 19.981 73.7665 18.8324 71.1253 17.195C70.9534 17.0679 70.7682 16.9454 70.561 16.8457C69.8701 16.4133 69.1429 15.9412 68.2935 15.377C66.9292 14.4763 65.5809 13.45 64.0921 12.3006C63.5671 11.8926 63.0411 11.4175 62.4744 10.9116C61.5993 10.1242 60.7015 9.31481 59.6172 8.59317C59.0615 8.22585 58.4191 8.03874 57.7574 8.05319C56.8307 7.9956 55.5192 8.23006 54.2611 9.62214C53.7155 10.2252 53.3099 10.9067 53.0043 11.4033L52.9039 11.5658C52.8298 11.6967 52.7601 11.8185 52.695 11.9536C50.4514 15.6237 47.3084 18.6723 43.9802 21.898C43.6055 22.2615 43.2308 22.625 42.8518 22.9974C42.2215 23.6152 41.5956 24.224 40.9563 24.8374C37.928 27.7858 34.7983 30.8297 31.7811 33.9166C31.0491 34.6075 30.216 35.4162 29.3972 36.2873C29.3398 36.3373 29.2914 36.3917 29.234 36.4418C28.4062 37.3086 27.5838 38.2334 26.7977 39.1979C26.4371 39.6014 26.0717 39.9916 25.702 40.3907C25.5656 40.5359 25.4428 40.6988 25.338 40.8703C22.7795 45.0103 20.4112 49.3085 18.3032 53.6653C18.2642 53.7464 18.2208 53.8365 18.1818 53.9176C17.188 56.236 16.2327 58.7282 15.3461 61.3313C13.8594 65.6653 12.5681 70.4929 11.2722 76.5058L11.2315 76.4751Z" fill="#7D7D7D"/>
<path d="M11.0635 76.0169C11.0219 76.2188 11.0025 76.4204 10.9922 76.6263C10.8135 77.528 10.6304 78.4387 10.4517 79.3404C9.93552 81.8886 9.41167 84.522 9.02231 87.1756C8.91297 87.9332 9.06759 88.6956 9.47981 89.338C10.4969 90.9372 12.0164 92.0459 13.6744 92.8439C15.5936 93.7676 17.6944 94.2682 19.4257 94.5909C23.2517 95.3115 26.4649 95.1378 29.2352 94.0628C30.2312 93.6766 30.9652 92.8202 31.191 91.7747C31.241 91.5324 31.305 91.3302 31.3744 91.186C31.4568 91.0148 31.5079 90.8396 31.5542 90.651C32.7181 85.973 33.9023 80.8608 35.1608 75.0408C36.6875 68.0181 38.489 62.6148 40.8222 58.0667C40.8572 58.017 40.9013 57.9716 40.9363 57.9219C41.5088 57.3318 42.1892 56.7714 42.9049 56.1836C43.3643 55.8055 43.8325 55.4093 44.3093 54.9951C47.107 52.7792 50.4043 50.1711 53.6565 47.5414C53.7052 47.5093 53.7493 47.4639 53.798 47.4319C53.2979 48.3787 52.7978 49.3255 52.3021 50.2633C51.7149 51.3679 51.1325 52.4859 50.5453 53.5906C48.2064 58.0582 46.0648 63.1536 43.9998 69.1736C43.837 69.6501 43.6699 70.1357 43.5118 70.6256C42.9774 71.9665 42.5788 73.1175 42.2469 74.2451C41.4044 77.1024 40.6104 80.205 39.8137 83.7281C39.3395 85.7971 38.9146 87.8788 38.5476 89.9328C38.5349 89.9822 38.5269 90.0449 38.5232 90.0987C38.2836 92.0032 38.1114 93.929 37.9381 95.7878C37.8308 96.9791 37.7106 98.1975 37.5899 99.3935C37.4993 100.204 37.7397 101.019 38.237 101.669C39.6375 103.486 41.913 105.492 48.1645 106.592C51.7342 107.222 54.5687 107.143 56.8291 106.367C57.7858 106.039 58.5345 105.268 58.824 104.297C59.2499 102.882 59.6758 101.467 60.1017 100.051C60.6891 98.0701 61.3021 96.0124 61.9295 94.0171C61.9512 93.972 61.9592 93.9093 61.9719 93.8599C62.1069 93.3256 62.242 92.7914 62.3861 92.2614C62.7514 91.2719 63.0088 90.2528 63.2279 89.3594C63.329 88.9419 63.4347 88.5378 63.5281 88.2054C63.6131 87.9134 63.6935 87.608 63.7695 87.3117L63.8332 87.0871C64.8809 83.5961 65.7897 80.0937 66.6645 76.7081L66.7488 76.3714C67.1254 74.9434 67.5236 73.4704 67.9539 72.0461C68.0222 71.8348 68.1643 71.4704 68.3021 71.115C68.6553 70.2196 69.0733 69.1667 69.2577 68.0458C72.2923 63.4468 75.578 58.8799 78.7585 54.4622L79.9939 52.7484C81.7812 50.2571 83.4867 47.6819 85.1308 45.1883C85.8434 44.0996 86.5607 43.0243 87.278 41.949C89.5964 38.4925 91.2284 35.1939 92.2654 31.8864C92.4148 31.7142 92.5553 31.5376 92.6731 31.339C93.5959 30.2517 94.3963 29.0499 94.5229 27.657C94.6152 26.6582 94.301 25.6968 93.6455 24.9374C92.4576 23.5778 90.7164 23.4833 89.7763 23.4303C89.7316 23.431 89.6912 23.4227 89.6598 23.4187C85.701 22.7896 81.8216 22.0877 77.8603 20.4031C75.7221 19.4961 73.5892 18.3475 70.948 16.7101C70.7761 16.583 70.5909 16.4605 70.3836 16.3608C69.6928 15.9284 68.9656 15.4563 68.1162 14.8922C66.7519 13.9914 65.4036 12.9651 63.9148 11.8157C63.3898 11.4077 62.8638 10.9326 62.2971 10.4268C61.422 9.63937 60.5242 8.82995 59.4399 8.10831C58.8842 7.74099 58.2418 7.55388 57.5801 7.56833C56.6577 7.50173 55.3419 7.7452 54.0838 9.13727C53.5382 9.74036 53.1192 10.4265 52.827 10.9184L52.7265 11.081C52.6525 11.2118 52.5828 11.3336 52.5177 11.4688C50.2741 15.1389 47.1311 18.1874 43.8029 21.4132C43.4282 21.7766 43.0535 22.1401 42.6788 22.5036C42.0485 23.1213 41.4226 23.7301 40.7833 24.3436C37.7551 27.292 34.6254 30.3358 31.6082 33.4227C30.8761 34.1136 30.043 34.9223 29.2242 35.7934C29.1668 35.8435 29.1184 35.8979 29.0611 35.9479C28.2333 36.8147 27.4108 37.7395 26.6248 38.704C26.2641 39.1075 25.8944 39.5067 25.5291 39.8969C25.3926 40.042 25.2698 40.2049 25.1651 40.3764C22.6065 44.5164 20.2382 48.8146 18.1302 53.1714C18.0912 53.2525 18.0478 53.3426 18.0088 53.4237C17.015 55.7421 16.0597 58.2344 15.1688 60.8464C13.6821 65.1805 12.3908 70.008 11.0949 76.0209L11.0635 76.0169Z" fill="#6E6E6E"/>
<path d="M10.9046 75.5631C10.863 75.765 10.8346 75.9622 10.8333 76.1725C10.6636 77.0785 10.4715 77.9849 10.2928 78.8866C9.78562 81.4391 9.25277 84.0681 8.85907 86.7308C8.74973 87.4884 8.91337 88.2552 9.31658 88.8932C10.3246 90.4881 11.8441 91.5968 13.5021 92.3947C15.4214 93.3185 17.5221 93.819 19.2534 94.1418C23.0795 94.8623 26.2927 94.6887 29.0629 93.6137C30.059 93.2275 30.793 92.3711 31.0188 91.3255C31.0688 91.0833 31.1285 90.89 31.2022 90.7369C31.2846 90.5656 31.3356 90.3904 31.3776 90.2109C32.5416 85.5329 33.7257 80.4207 34.9843 74.6007C36.5109 67.578 38.3124 62.1747 40.6456 57.6266C40.6806 57.5769 40.7247 57.5315 40.7597 57.4818C41.3323 56.8917 42.0126 56.3313 42.7283 55.7435C43.1878 55.3654 43.6559 54.9692 44.1327 54.555C46.9304 52.3391 50.2277 49.731 53.4799 47.1013C53.5286 47.0692 53.5727 47.0238 53.6214 46.9918C53.1213 47.9386 52.6213 48.8854 52.1255 49.8232C51.5384 50.9278 50.9559 52.0458 50.3687 53.1505C48.0298 57.6181 45.8882 62.7134 43.8232 68.7335C43.6604 69.21 43.4933 69.6956 43.3352 70.1855C42.8008 71.5264 42.4022 72.6774 42.0704 73.805C41.2279 76.6623 40.4338 79.7649 39.6371 83.2879C39.1629 85.357 38.7381 87.4387 38.371 89.4927C38.363 89.5554 38.3503 89.6048 38.3423 89.6676C38.1027 91.5721 37.9304 93.4979 37.7572 95.3566C37.6409 96.5437 37.5296 97.7664 37.409 98.9624C37.3274 99.7776 37.5588 100.588 38.0561 101.238C39.4566 103.055 41.7364 105.051 47.9836 106.16C51.5533 106.791 54.3878 106.712 56.6482 105.936C57.6048 105.608 58.3535 104.837 58.643 103.866C59.069 102.451 59.4949 101.036 59.9208 99.6203C60.5125 97.63 61.1212 95.5813 61.7486 93.586C61.7703 93.5409 61.7783 93.4782 61.7909 93.4288C61.926 92.8945 62.0611 92.3603 62.2052 91.8303C62.5704 90.8408 62.8279 89.8216 63.047 88.9283C63.148 88.5108 63.2538 88.1067 63.3471 87.7743C63.4365 87.4733 63.5126 87.1769 63.5886 86.8806L63.6523 86.656C64.6999 83.165 65.6087 79.6626 66.4835 76.277L66.5679 75.9403C66.9444 74.5123 67.3427 73.0393 67.7729 71.615C67.8323 71.3994 67.9834 71.0393 68.1212 70.6839C68.4744 69.7885 68.8924 68.7356 69.0858 67.619C72.1204 63.0201 75.4061 58.4532 78.5866 54.0354L79.822 52.3217C81.6093 49.8303 83.3148 47.2552 84.9589 44.7615C85.6715 43.6728 86.3888 42.5975 87.1061 41.5222C89.4245 38.0657 91.0565 34.7671 92.0935 31.4596C92.2429 31.2874 92.3834 31.1108 92.4968 30.9213C93.4197 29.8339 94.22 28.6321 94.3466 27.2392C94.4389 26.2404 94.1248 25.2791 93.4692 24.5197C92.2857 23.151 90.5401 23.0655 89.6001 23.0126C89.5553 23.0133 89.5149 23.0049 89.4836 23.0009C85.5247 22.3718 81.6453 21.67 77.684 19.9854C75.5458 19.0784 73.4129 17.9298 70.7718 16.2923C70.5999 16.1652 70.4146 16.0428 70.2074 15.943C69.5166 15.5107 68.7894 15.0386 67.94 14.4744C66.5757 13.5736 65.2273 12.5474 63.7385 11.398C63.2135 10.9899 62.6875 10.5148 62.1208 10.009C61.2457 9.22161 60.3436 8.42119 59.2636 7.69055C58.708 7.32322 58.0656 7.13612 57.4038 7.15057C56.4815 7.08397 55.1657 7.32744 53.9075 8.71952C53.362 9.32261 52.9563 10.0041 52.6507 10.5007L52.5503 10.6632C52.4762 10.794 52.4065 10.9159 52.3415 11.051C50.0979 14.7211 46.9548 17.7696 43.6266 20.9954C43.2519 21.3589 42.8772 21.7223 42.4982 22.0948C41.8679 22.7126 41.242 23.3214 40.6027 23.9348C37.5745 26.8832 34.4448 29.9271 31.4276 33.014C30.6955 33.7049 29.8624 34.5136 29.0436 35.3846C28.9862 35.4347 28.9379 35.4891 28.8805 35.5392C28.0437 36.4016 27.2302 37.3308 26.4442 38.2953C26.0835 38.6988 25.7182 39.0889 25.3575 39.4924C25.221 39.6376 25.0983 39.8005 24.9935 39.972C22.435 44.112 20.0666 48.4102 17.9586 52.767C17.9196 52.8481 17.8762 52.9382 17.8372 53.0193C16.8435 55.3377 15.8881 57.83 15.0015 60.433C13.5149 64.767 12.2235 69.5946 10.9277 75.6075L10.9046 75.5631Z" fill="#606060"/>
</g>
<path d="M10.9046 75.5631C10.863 75.765 10.8346 75.9622 10.8333 76.1725C10.6636 77.0785 10.4715 77.9849 10.2928 78.8866C9.78562 81.4391 9.25277 84.0681 8.85907 86.7308C8.74973 87.4884 8.91337 88.2552 9.31658 88.8932C10.3246 90.4881 11.8441 91.5968 13.5021 92.3947C15.4214 93.3185 17.5221 93.819 19.2534 94.1418C23.0795 94.8623 26.2927 94.6887 29.0629 93.6137C30.059 93.2275 30.793 92.3711 31.0188 91.3255C31.0688 91.0833 31.1285 90.89 31.2022 90.7369C31.2846 90.5656 31.3356 90.3904 31.3776 90.2109C32.5416 85.5329 33.7257 80.4207 34.9843 74.6007C36.5109 67.578 38.3124 62.1747 40.6456 57.6266C40.6806 57.5769 40.7247 57.5315 40.7597 57.4818C41.3323 56.8917 42.0126 56.3313 42.7283 55.7435C43.1878 55.3654 43.6559 54.9692 44.1327 54.555C46.9304 52.3391 50.2277 49.731 53.4799 47.1013C53.5286 47.0692 53.5727 47.0238 53.6214 46.9918C53.1213 47.9386 52.6213 48.8854 52.1255 49.8232C51.5384 50.9278 50.9559 52.0458 50.3687 53.1505C48.0298 57.6181 45.8882 62.7134 43.8232 68.7335C43.6604 69.21 43.4933 69.6956 43.3352 70.1855C42.8008 71.5264 42.4022 72.6774 42.0704 73.805C41.2279 76.6623 40.4338 79.7649 39.6371 83.2879C39.1629 85.357 38.7381 87.4387 38.371 89.4927C38.363 89.5554 38.3503 89.6048 38.3423 89.6676C38.1027 91.5721 37.9304 93.4979 37.7572 95.3566C37.6409 96.5437 37.5296 97.7664 37.409 98.9624C37.3274 99.7776 37.5588 100.588 38.0561 101.238C39.4566 103.055 41.7364 105.051 47.9836 106.16C51.5533 106.791 54.3878 106.712 56.6482 105.936C57.6048 105.608 58.3535 104.837 58.643 103.866C59.069 102.451 59.4949 101.036 59.9208 99.6203C60.5125 97.63 61.1212 95.5813 61.7486 93.586C61.7703 93.5409 61.7783 93.4782 61.7909 93.4288C61.926 92.8945 62.0611 92.3603 62.2052 91.8303C62.5704 90.8408 62.8279 89.8216 63.047 88.9283C63.148 88.5108 63.2538 88.1067 63.3471 87.7743C63.4365 87.4733 63.5126 87.1769 63.5886 86.8806L63.6523 86.656C64.6999 83.165 65.6087 79.6626 66.4835 76.277L66.5679 75.9403C66.9444 74.5123 67.3427 73.0393 67.7729 71.615C67.8323 71.3994 67.9834 71.0393 68.1212 70.6839C68.4744 69.7885 68.8924 68.7356 69.0858 67.619C72.1204 63.0201 75.4061 58.4532 78.5866 54.0354L79.822 52.3217C81.6093 49.8303 83.3148 47.2552 84.9589 44.7615C85.6715 43.6728 86.3888 42.5975 87.1061 41.5222C89.4245 38.0657 91.0565 34.7671 92.0935 31.4596C92.2429 31.2874 92.3834 31.1108 92.4968 30.9213C93.4197 29.8339 94.22 28.6321 94.3466 27.2392C94.4389 26.2404 94.1248 25.2791 93.4692 24.5197C92.2857 23.151 90.5401 23.0655 89.6001 23.0126C89.5553 23.0133 89.5149 23.0049 89.4836 23.0009C85.5247 22.3718 81.6453 21.67 77.684 19.9854C75.5458 19.0784 73.4129 17.9298 70.7718 16.2923C70.5999 16.1652 70.4146 16.0428 70.2074 15.943C69.5166 15.5107 68.7894 15.0386 67.94 14.4744C66.5757 13.5736 65.2273 12.5474 63.7385 11.398C63.2135 10.9899 62.6875 10.5148 62.1208 10.009C61.2457 9.22161 60.3436 8.42119 59.2636 7.69055C58.708 7.32322 58.0656 7.13612 57.4038 7.15057C56.4815 7.08397 55.1657 7.32744 53.9075 8.71952C53.362 9.32261 52.9563 10.0041 52.6507 10.5007L52.5503 10.6632C52.4762 10.794 52.4065 10.9159 52.3415 11.051C50.0979 14.7211 46.9548 17.7696 43.6266 20.9954C43.2519 21.3589 42.8772 21.7223 42.4982 22.0948C41.8679 22.7126 41.242 23.3214 40.6027 23.9348C37.5745 26.8832 34.4448 29.9271 31.4276 33.014C30.6955 33.7049 29.8624 34.5136 29.0436 35.3846C28.9862 35.4347 28.9379 35.4891 28.8805 35.5392C28.0437 36.4016 27.2302 37.3308 26.4442 38.2953C26.0835 38.6988 25.7182 39.0889 25.3575 39.4924C25.221 39.6376 25.0983 39.8005 24.9935 39.972C22.435 44.112 20.0666 48.4102 17.9586 52.767C17.9196 52.8481 17.8762 52.9382 17.8372 53.0193C16.8435 55.3377 15.8881 57.83 15.0015 60.433C13.5149 64.767 12.2235 69.5946 10.9277 75.6075L10.9046 75.5631Z" fill="white"/>
<path d="M58.7237 92.6074C58.8758 92.0147 59.0322 91.413 59.1843 90.8203C59.6927 89.5335 59.9651 88.0221 60.2919 86.8588C60.3936 86.486 60.4954 86.1132 60.5971 85.7405C61.6237 82.3392 62.5108 78.8819 63.407 75.4289C63.8302 73.8347 64.2534 72.2406 64.726 70.6591C65.0539 69.5628 65.9756 67.809 66.0001 66.4669C69.5719 61.0056 73.4454 55.6784 77.2215 50.4153C79.736 46.92 82.0427 43.2803 84.4532 39.7016C86.5441 36.5795 88.3131 33.1804 89.3184 29.5469C89.5673 29.4448 89.8326 29.2395 89.7905 29.1194C90.327 28.5119 91.1134 27.5698 91.1747 26.889C91.247 26.0471 89.4817 26.1408 89.0559 26.0801C84.6219 25.3777 80.5983 24.6064 76.4344 22.8354C73.7649 21.6949 71.3019 20.3097 68.8817 18.7898C68.8406 18.7367 68.7685 18.702 68.6921 18.6763C67.8568 18.1522 67.0211 17.6057 66.1854 17.0592C64.6676 16.0624 63.2151 14.9527 61.785 13.8427C60.3279 12.7197 59.0139 11.2993 57.5 10.271C57.464 10.2537 57.3969 10.2547 57.3392 10.2824C56.5212 10.0219 55.7243 11.4473 55.2398 12.2462C55.2138 12.3003 55.1878 12.3544 55.1618 12.4084C52.4264 16.9849 48.4736 20.6093 44.6873 24.3026C40.9847 27.9142 37.2505 31.4994 33.6343 35.2081C32.7965 36.0034 31.9811 36.7984 31.1887 37.6378C31.1843 37.6468 31.1576 37.6562 31.1533 37.6652C30.3385 38.5049 29.5691 39.3887 28.8224 40.2945C28.4354 40.7297 28.0437 41.1516 27.6477 41.5824C25.1151 45.6684 22.7992 49.8807 20.7086 54.2015C20.7086 54.2015 20.7086 54.2015 20.7042 54.2105C19.6845 56.583 18.7771 58.9985 17.9503 61.4083C16.2838 66.2773 15.0526 71.2337 13.9828 76.2234C13.9968 76.2634 14.0108 76.3035 14.0028 76.3662C13.3103 79.9726 12.519 83.5537 11.9789 87.1892C13.5183 89.617 17.2446 90.5448 19.8416 91.0289C22.515 91.5388 25.3835 91.6431 27.9182 90.6656C28.0102 90.2438 28.1293 89.835 28.3068 89.4432C29.5844 84.2983 30.7716 79.0876 31.8967 73.9137C33.2563 67.6762 35.0376 61.5308 37.976 55.8867C38.1165 55.7102 38.2393 55.5473 38.3577 55.3935C39.5068 54.1819 40.8475 53.218 42.0787 52.1126C45.2258 49.632 48.3549 47.1428 51.479 44.6178C54.2363 42.3936 56.898 40.0456 59.4144 37.5611C59.5642 37.4112 59.7273 37.2567 59.8771 37.1068C60.2046 39.5395 59.4194 42.0471 58.4937 44.4315C56.7517 47.8436 54.9418 51.2119 53.168 54.5976C50.642 59.4081 48.5735 64.6051 46.8126 69.7395C46.6412 70.234 46.4787 70.7329 46.312 71.2409C45.868 72.3478 45.4557 73.4812 45.1068 74.6672C44.205 77.7401 43.4333 80.8423 42.7199 83.9616C42.2667 85.9408 41.8546 87.9732 41.4875 90.0272C41.1089 93.0966 40.8781 96.1818 40.5532 99.2549C42.428 101.678 45.5753 102.471 48.5216 102.99C50.6384 103.365 53.3978 103.65 55.6048 102.892C56.6488 99.455 57.648 96.0183 58.71 92.5897L58.7237 92.6074Z" fill="#56281F"/>
<path d="M83.015 40.43C82.7481 40.8231 82.4902 41.2206 82.2233 41.6138C80.0427 40.5643 78.8239 39.223 78.7444 36.6211C78.6709 34.122 80.319 31.2973 81.4252 29.0219C81.5687 29.0466 81.7079 29.0802 81.8514 29.1049C84.1166 29.5404 86.4315 29.4116 88.7197 29.5917C88.7334 29.6094 88.7604 29.6224 88.8008 29.6308C88.6393 29.8971 88.4862 30.123 88.4649 30.1904C87.9905 31.3605 87.4578 32.5135 86.9294 33.6575C85.8288 36.0133 84.4763 38.27 83.0284 40.4253L83.015 40.43Z" fill="#026C90"/>
<path d="M78.8183 24.6154C79.9783 25.0183 81.151 25.3719 82.3454 25.6804C84.0427 26.1199 85.7766 26.3219 87.5199 26.5505C87.9995 26.6149 88.4747 26.6882 88.9542 26.7525C89.8232 26.5382 90.6234 26.5127 90.5227 27.2522C90.4424 27.8572 89.8061 28.6719 89.2372 28.9086C89.2105 28.9179 89.1838 28.9273 89.1481 28.9323C89.1351 28.9593 89.1131 28.982 89.1001 29.009C89.0463 29.0054 88.9836 28.9974 88.9255 29.0027C88.5598 29.0708 88.1967 29.0182 87.8333 28.9431C85.3045 28.8247 82.8174 28.8041 80.3168 28.1888C79.3337 27.9487 78.3366 27.6685 77.3568 27.3523C77.4181 27.2709 77.4615 27.1808 77.4959 27.0863C77.8091 26.205 78.3699 25.4317 78.8363 24.6241L78.8183 24.6154Z" fill="#026C90"/>
<g style="mix-blend-mode:screen">
<path d="M90.4913 26.9485C86.2801 27.9736 81.9059 27.6773 77.711 26.524C77.6243 26.7042 77.5375 26.8844 77.4778 27.0777C77.4435 27.1721 77.3911 27.2579 77.3387 27.3436C78.3275 27.6642 79.3157 27.94 80.2988 28.1801C82.7994 28.7954 85.2955 28.8204 87.8153 28.9345C88.1787 29.0095 88.5508 29.0665 88.9075 28.994C88.9612 28.9977 89.024 29.0057 89.082 29.0003C89.0951 28.9733 89.108 28.9463 89.1301 28.9236C89.1568 28.9142 89.1925 28.9092 89.2192 28.8999C89.7881 28.6632 90.4243 27.8485 90.5047 27.2435C90.5207 27.118 90.5103 27.0243 90.4866 26.9352L90.4913 26.9485Z" fill="#026C90"/>
</g>
<g style="mix-blend-mode:screen">
<path d="M76.9657 25.4439C77.1738 25.0114 77.4227 24.6096 77.6175 24.1817C77.8334 24.2635 78.0584 24.3495 78.2876 24.4266C78.0188 24.9852 77.6778 25.5092 77.4089 26.0679C77.2918 26.3111 77.1611 26.5368 77.053 26.7844C76.9619 26.9736 76.9192 27.1084 76.8308 27.1768C76.6689 27.1211 76.5071 27.0654 76.3452 27.0097C76.3031 26.5899 76.9009 25.6014 76.9747 25.4482L76.9657 25.4439Z" fill="#026C90"/>
</g>
<path d="M67.3814 18.9555C68.9984 20.0001 70.6634 20.9679 72.3537 21.8369C73.9269 22.6496 75.5525 23.3765 77.2038 24.027C76.712 24.9334 76.1976 25.8178 75.7509 26.7459C75.7422 26.7639 75.7379 26.7729 75.7336 26.7819C73.8937 26.0851 72.1143 25.2398 70.5194 24.1725C69.444 23.4552 68.3514 22.7739 67.2634 22.106C66.9767 21.7794 66.7254 21.4253 66.5141 21.0573C66.1142 20.3432 66.3666 18.9887 67.3904 18.9598L67.3814 18.9555Z" fill="#026C90"/>
<g style="mix-blend-mode:screen">
<path d="M76.1158 26.0337C74.9068 25.6404 73.7144 25.1664 72.5527 24.6517C70.6207 23.7774 68.7411 22.8172 66.94 21.7173C67.0404 21.8544 67.1409 21.9916 67.2591 22.115C68.3517 22.7963 69.4487 23.4685 70.515 24.1815C72.1099 25.2488 73.8984 26.0984 75.7292 26.7909C75.7335 26.7819 75.7422 26.7639 75.7465 26.7549C75.8636 26.5116 75.9764 26.2773 76.1115 26.0427L76.1158 26.0337Z" fill="#026C90"/>
</g>
<path d="M63.6024 16.3155C64.7064 17.1576 65.8455 17.95 67.0066 18.7196C66.5888 18.8959 66.2037 19.1656 65.9932 19.4416C65.5762 19.9622 65.5045 20.5492 65.6517 21.1195C64.4236 20.3508 63.1951 19.5598 62.0103 18.701C61.748 18.5082 61.4813 18.3244 61.2057 18.1362C61.8162 17.398 62.4265 16.6374 62.9556 15.8377C63.1682 15.9955 63.3898 16.1577 63.6024 16.3155Z" fill="#026C90"/>
<g style="mix-blend-mode:screen">
<path d="M62.0073 18.2001C61.8397 18.064 61.6675 17.9145 61.491 17.7741C61.3899 17.8919 61.2978 18.014 61.201 18.1228C61.4767 18.311 61.739 18.5039 62.0057 18.6877C63.1948 19.5375 64.4233 20.3285 65.6471 21.1062C65.6281 21.0304 65.6134 20.9456 65.5987 20.8609C64.3518 20.0388 63.1534 19.1624 61.9983 18.1958L62.0073 18.2001Z" fill="#026C90"/>
</g>
<path d="M62.7384 15.6666C62.3427 16.1198 61.9513 16.564 61.5603 17.0306C61.3274 17.3069 61.0765 17.5746 60.8483 17.8643C60.6086 17.6935 60.369 17.5226 60.1337 17.3428C60.821 16.6526 61.3952 15.8747 62.0008 15.1007C62.2541 15.2892 62.4984 15.4734 62.7517 15.6619L62.7384 15.6666Z" fill="#026C90"/>
<path d="M56.6826 10.9319C56.788 10.8051 56.9211 10.736 57.0957 10.7423C57.1314 10.7373 57.1624 10.7189 57.1981 10.7139C57.7694 10.6337 58.3542 11.4479 58.6766 11.7695C59.3034 12.4041 59.9342 13.0074 60.5917 13.6013C60.9181 13.8915 61.4527 14.3486 61.5713 14.7941C61.63 14.8335 61.6844 14.8818 61.7431 14.9212C61.6857 14.9713 61.633 15.0347 61.5846 15.0891C61.551 15.2282 61.4726 15.3681 61.2957 15.5049C61.256 15.5413 61.2113 15.542 61.1756 15.547C60.9691 15.7916 60.7625 16.0363 60.547 16.2766C60.3138 16.5306 60.0762 16.7936 59.852 17.0519C59.8434 17.0699 59.8257 17.0836 59.808 17.0973C59.274 16.6849 58.762 16.2498 58.3074 15.7647C58.1075 15.5575 57.7204 15.0937 57.3836 14.7096C57.0705 14.4147 56.8012 14.052 56.5021 13.7971C56.2755 13.5992 55.7158 13.2633 55.7725 12.8688C55.8705 12.2501 56.1434 11.3604 56.7006 10.9406L56.6826 10.9319Z" fill="#026C90"/>
<path d="M56.6826 10.9319C56.788 10.8051 56.9211 10.736 57.0957 10.7423C57.1314 10.7373 57.1624 10.7189 57.1981 10.7139C57.7694 10.6337 58.3542 11.4479 58.6766 11.7695C59.3034 12.4041 59.9342 13.0074 60.5917 13.6013C60.9181 13.8915 61.4527 14.3486 61.5713 14.7941C61.63 14.8335 61.6844 14.8818 61.7431 14.9212C61.6857 14.9713 61.633 15.0347 61.5846 15.0891C61.551 15.2282 61.4726 15.3681 61.2957 15.5049C61.256 15.5413 61.2113 15.542 61.1756 15.547C60.9691 15.7916 60.7625 16.0363 60.547 16.2766C60.3138 16.5306 60.0762 16.7936 59.852 17.0519C59.8434 17.0699 59.8257 17.0836 59.808 17.0973C59.274 16.6849 58.762 16.2498 58.3074 15.7647C58.1075 15.5575 57.7204 15.0937 57.3836 14.7096C57.0705 14.4147 56.8012 14.052 56.5021 13.7971C56.2755 13.5992 55.7158 13.2633 55.7725 12.8688C55.8705 12.2501 56.1434 11.3604 56.7006 10.9406L56.6826 10.9319Z" fill="#026C90"/>
<g style="mix-blend-mode:screen">
<path d="M55.9739 11.9892C55.8622 12.2905 55.7861 12.5869 55.7455 12.8558C55.6888 13.2503 56.2485 13.5862 56.4751 13.7841C56.7698 14.048 57.0391 14.4107 57.3565 14.6966C57.6933 15.0807 58.0805 15.5445 58.2804 15.7517C58.735 16.2368 59.2469 16.6719 59.7809 17.0843C59.7896 17.0662 59.8073 17.0525 59.825 17.0389C59.9304 16.912 60.0582 16.7849 60.1636 16.6581C58.5596 15.2868 56.9893 13.7763 55.9649 11.9848L55.9739 11.9892Z" fill="#026C90"/>
</g>
<path d="M55.3328 13.3675C55.7534 14.2691 56.7704 15.269 57.1388 15.6794C57.4482 16.0281 57.784 16.3451 58.1241 16.653C57.8458 17.185 56.9453 17.9723 56.6944 18.24C55.8099 19.2015 54.9204 20.1274 53.9494 20.9918C52.6652 22.1383 51.1445 22.4385 49.4863 22.2175C48.9217 22.1455 48.7301 21.898 48.1855 21.9688C48.1498 21.9738 48.1098 21.9878 48.0654 22.0109C48.1094 21.9655 48.1491 21.9291 48.1888 21.8927C50.807 19.3351 53.6111 16.645 55.3238 13.3631L55.3328 13.3675Z" fill="#026C90"/>
<path d="M58.0482 38.0245C55.5048 40.4959 52.7484 42.7872 49.982 45.0071C47.1802 47.2544 44.497 49.6475 41.6451 51.8373C39.9651 53.1374 38.2531 54.3887 36.6185 55.7328C35.8654 56.5134 35.1394 57.3071 34.4181 58.1141C35.0857 57.6031 35.7761 57.1141 36.3937 56.5457C36.5745 56.3775 36.9036 56.547 36.7821 56.7993C35.6849 59.079 34.6548 61.3577 33.904 63.7708C33.2129 65.9907 32.6206 68.236 31.8711 70.4389C31.8408 70.5019 31.8101 70.5427 31.77 70.5567C31.5926 71.2481 31.4285 71.9349 31.2554 72.6174C30.3403 76.2943 29.5283 79.9875 28.6536 83.6727C28.1237 85.9036 27.4996 88.1225 27.0011 90.3574C26.8449 90.3821 26.6887 90.4069 26.5326 90.4316C26.4975 90.4813 26.4398 90.509 26.3684 90.519C25.6313 90.5749 24.8981 90.5993 24.1657 90.6685C23.7726 90.7013 23.3704 90.7297 22.993 90.6146C21.3595 90.5498 19.7143 90.3018 18.1115 89.8966C16.6658 89.5338 15.1297 88.8055 13.9402 87.9334C13.488 87.6048 13.1425 86.9391 12.7637 86.4349C13.2422 84.3569 13.6267 82.2668 14.0244 80.1721C14.0941 79.7506 14.1771 79.3245 14.2782 78.907C14.4983 77.781 14.7317 76.6504 15.0101 75.5415C16.1267 70.9849 17.2703 66.4413 18.7102 61.9738C21.0433 54.7511 24.2134 47.5649 28.6277 41.3217C28.8873 41.036 29.1425 40.7593 29.4158 40.4913C30.0988 39.8101 30.8272 39.1729 31.5465 38.5314C32.6996 37.2885 33.853 36.068 35.0068 34.8698C39.1114 30.6305 43.4022 26.5807 47.6293 22.4558C47.639 22.5048 47.6977 22.5442 47.8185 22.5468C48.9871 22.6321 49.8215 23.0891 51.0615 22.8647C52.141 22.674 53.0703 22.3111 53.9685 21.6669C55.0746 20.8675 56.0552 19.7525 56.9567 18.7325C57.2777 18.3654 58.1345 17.6458 58.4958 16.9873C59.1303 17.5369 59.7955 18.0457 60.4873 18.5451C61.2516 19.1016 62.0378 19.6354 62.7974 20.1786C63.4983 20.6824 64.2215 21.1858 64.9401 21.6759C64.4186 22.6901 63.4867 23.4735 62.8705 24.431C61.918 25.9258 60.9835 27.4292 60.022 28.9197C59.3097 30.0307 58.7069 31.2832 58.4402 32.5753C58.2154 33.688 58.9611 34.7904 59.4585 35.74C59.4725 35.7801 59.5305 35.7747 59.5886 35.7694C59.6544 35.9786 59.7202 36.1878 59.7636 36.3974C59.1727 36.9564 58.5904 37.4975 58.0482 38.0245Z" fill="#026C90"/>
<g style="mix-blend-mode:screen">
<path d="M23.5044 52.4508C26.6079 46.187 30.5968 40.5048 35.5268 35.5418C39.906 31.1239 44.9347 27.3626 49.1323 22.7685C48.7105 22.6765 48.2887 22.5845 47.8052 22.5515C47.6754 22.5445 47.6256 22.5095 47.6159 22.4604C43.3932 26.5763 39.1071 30.6395 34.9935 34.8745C33.8441 36.0637 32.6773 37.2889 31.5332 38.5361C30.8048 39.1733 30.0854 39.8148 29.4025 40.496C29.1292 40.764 28.874 41.0406 28.6144 41.3263C24.1958 47.5786 21.0257 54.7648 18.6969 61.9785C17.6372 65.264 16.7304 68.6008 15.8863 71.9457C18.041 65.3473 20.4139 58.6876 23.5091 52.4642L23.5044 52.4508Z" fill="#026C90"/>
</g>
<g style="mix-blend-mode:multiply" opacity="0.4">
<path d="M59.2649 35.9577C56.795 34.7023 54.5082 33.1356 52.147 31.6773C53.3609 32.9829 54.6011 34.2568 55.9295 35.4399C56.0156 35.5147 56.045 35.6842 55.9479 35.7706C54.8405 36.7803 53.5545 37.5153 52.3282 38.3567C50.9649 39.2987 49.6753 40.3871 48.4531 41.4968C45.9954 43.721 43.7149 46.1304 41.3072 48.4119C38.7628 50.8163 36.3772 53.3749 34.096 56.0392C32.9533 57.3759 31.7732 58.6057 30.4853 59.8059C29.4489 60.7832 28.4306 61.7691 27.6072 62.9265C29.4057 62.072 30.998 60.8851 32.636 59.7646C32.7998 59.6547 33.0524 59.7985 32.9974 60.0051C31.7565 64.9124 29.7873 69.5802 28.2003 74.3765C27.0282 77.9186 26.6691 81.9852 24.6647 85.2044C23.0753 87.7688 20.1813 89.2392 17.1625 88.3634C15.4285 87.8618 13.9547 86.8195 12.954 85.4168C12.8787 85.7578 12.8033 86.0989 12.7279 86.4399C13.1111 86.9351 13.4656 87.6051 13.9045 87.9384C15.0939 88.8105 16.6301 89.5388 18.0758 89.9016C19.6786 90.3068 21.3238 90.5549 22.9573 90.6197C23.3304 90.7438 23.7368 90.7063 24.1299 90.6736C24.8624 90.6044 25.5955 90.5799 26.3327 90.5241C26.4131 90.5184 26.4618 90.4863 26.4969 90.4366C26.653 90.4119 26.8049 90.3962 26.9654 90.3624C27.4639 88.1275 28.0879 85.9087 28.6179 83.6778C29.4926 79.9925 30.3136 76.3036 31.2197 72.6224C31.3928 71.9399 31.5569 71.2532 31.7343 70.5617C31.7787 70.5387 31.8184 70.5023 31.8354 70.4439C32.5759 68.2366 33.1772 65.9957 33.8683 63.7758C34.6191 61.3627 35.6536 59.075 36.7464 56.8043C36.8679 56.552 36.5431 56.3735 36.358 56.5507C35.7313 57.1148 35.05 57.6081 34.3823 58.1191C35.1037 57.3121 35.834 56.5094 36.5828 55.7378C38.2174 54.3937 39.9294 53.1424 41.6094 51.8424C44.4612 49.6525 47.1445 47.2594 49.9463 45.0122C52.7127 42.7923 55.4691 40.501 58.0125 38.0295C58.5504 37.5115 59.1369 36.9615 59.7278 36.4024C59.7088 36.3267 59.6808 36.2466 59.6617 36.1708C59.5176 36.1015 59.3734 36.0321 59.2292 35.9627L59.2649 35.9577Z" fill="#56281F"/>
</g>
<path d="M60.1767 36.2078C60.0552 35.8608 59.9163 35.5498 59.7374 35.2528C59.5484 34.2851 59.1181 33.3344 59.2104 32.3356C59.3566 30.7635 60.6528 28.9236 61.5015 27.6674C62.3546 26.4022 63.0088 24.9969 63.9523 23.7974C64.356 23.2815 65.035 22.6316 65.3289 21.9518C66.4132 22.6735 67.5196 23.3724 68.6433 24.0353C67.1901 24.9562 61.7307 33.6707 60.1724 36.2168L60.1767 36.2078Z" fill="#026C90"/>
<path d="M44.3304 101.184C43.5485 100.941 41.8928 99.9995 41.3277 99.0062C41.9293 94.4126 42.3247 89.7864 43.249 85.2372C43.2737 85.0938 43.3074 84.9546 43.3411 84.8154C43.3491 84.7527 43.3571 84.6899 43.3741 84.6316C43.8032 82.2412 44.3174 79.8584 44.9798 77.5137C46.1004 73.5251 47.4867 69.6533 49.1336 65.8625C50.69 61.7063 52.5158 57.6131 54.5771 53.7221C55.995 51.0529 57.4171 48.3748 58.8079 45.6926C59.346 44.2979 59.821 42.8729 60.1121 41.4149C60.4032 39.9569 60.6599 38.2937 60.3423 36.8091C60.4267 36.7721 60.4974 36.7173 60.5235 36.6633C63.0746 32.331 65.9195 28.1957 69.0761 24.2658C71.0297 25.3948 73.0488 26.4109 75.1139 27.2162C75.3208 27.2936 75.5187 27.3666 75.7299 27.435C75.8614 27.5538 76.0907 27.6308 76.4184 27.7109C76.4545 27.7282 76.4902 27.7232 76.5305 27.7315C77.9736 28.2152 79.4733 28.604 80.9583 28.9082C79.3872 31.204 78.1256 34.1481 77.8451 36.8985C77.5685 39.6176 79.4756 41.2124 81.6958 42.2255C81.7229 42.2385 81.7633 42.2469 81.799 42.2419C79.6427 45.4768 77.5045 48.7204 75.2171 51.8589C72.6361 55.3999 70.2227 59.077 67.7184 62.6661C66.5451 64.3431 65.2786 66.0752 64.0932 67.8464C63.9201 68.2292 63.756 68.6163 63.5918 69.0034C63.1902 69.9532 62.9014 70.9684 62.5718 71.9528C63.1346 71.014 63.7021 70.0886 64.2829 69.1585C63.8697 70.2247 63.5555 71.3387 63.223 72.4216C62.7537 73.927 62.3518 75.4538 61.9632 76.9759C61.8999 77.2228 61.8318 77.4564 61.7685 77.7034C61.6798 78.0491 61.5911 78.3948 61.4933 78.7362C61.2305 79.6973 60.9951 80.6938 60.76 81.7126C60.4402 83.0458 60.1157 84.3657 59.7818 85.6588C59.465 86.8936 59.1078 88.12 58.7506 89.3464C58.5992 89.9838 58.4431 90.6079 58.2827 91.2409C57.9278 92.6239 57.4966 93.9811 57.0653 95.3383C57.0059 95.5539 56.9466 95.7695 56.9005 95.9804C56.3526 98.2026 55.8367 100.474 55.2487 102.71C53.5753 103.258 50.7321 102.756 49.2247 102.452C47.5781 102.114 45.9436 101.683 44.3394 101.188L44.3304 101.184Z" fill="#026C90"/>
<g style="mix-blend-mode:screen">
<path d="M46.2759 75.3741C47.676 70.3437 49.4776 65.5397 51.5162 60.7277C52.2764 58.9406 53.032 57.1402 53.7471 55.3314C52.0184 58.7388 50.4796 62.2819 49.1293 65.8715C47.4824 69.6623 46.0961 73.5341 44.9755 77.5227C44.3131 79.8674 43.8032 82.2412 43.3698 84.6406C43.3618 84.7033 43.3538 84.766 43.3368 84.8244C43.3031 84.9636 43.2694 85.1028 43.2447 85.2463C42.7866 87.4895 42.4629 89.7531 42.1749 92.0116C43.334 86.4212 44.7354 80.8808 46.2626 75.3788L46.2759 75.3741Z" fill="#026C90"/>
</g>
<g style="mix-blend-mode:multiply" opacity="0.4">
<path d="M58.799 45.6882C57.4082 48.3704 55.986 51.0486 54.5682 53.7178C54.2159 54.3806 53.8726 55.0477 53.5383 55.7192C55.1424 53.5392 56.7826 51.3765 58.319 49.1528C59.3869 47.6026 60.4185 46.0127 61.3239 44.362C61.82 43.4466 62.2703 42.4648 62.9199 41.6454C63.9599 40.3148 65.2906 39.8788 66.8894 40.0157C68.1508 40.0235 69.474 40.2719 70.706 40.1102C67.3551 38.8637 63.8447 38.0176 60.5669 36.5731C60.5495 36.6092 60.5365 36.6362 60.5101 36.6679C60.4841 36.722 60.4177 36.7677 60.329 36.8138C60.6465 38.2984 60.3855 39.9706 60.0987 41.4196C59.8167 42.8819 59.3327 44.3026 58.7946 45.6972L58.799 45.6882Z" fill="#56281F"/>
</g>
<g style="mix-blend-mode:multiply" opacity="0.4">
<path d="M56.8962 95.9894C56.9466 95.7695 57.0016 95.5629 57.061 95.3473C57.4922 93.9901 57.9325 92.6372 58.2784 91.2499C58.4388 90.6169 58.5949 89.9928 58.7463 89.3554C59.1035 88.129 59.4607 86.9026 59.7775 85.6678C60.1157 84.3657 60.4402 83.0458 60.7557 81.7216C60.9864 80.7118 61.2262 79.7063 61.489 78.7452C61.5777 78.3995 61.6754 78.0581 61.7641 77.7123C61.8275 77.4654 61.8956 77.2318 61.9589 76.9848C62.3608 75.4581 62.7493 73.936 63.2186 72.4306C63.5512 71.3477 63.8653 70.2337 64.2786 69.1675C63.6978 70.0976 63.126 71.032 62.5675 71.9618C62.9014 70.9683 63.1859 69.9622 63.5875 69.0124C63.7516 68.6253 63.9158 68.2381 64.0889 67.8554C65.2653 66.0799 66.5364 64.3611 67.7141 62.675C70.2183 59.086 72.6408 55.4132 75.2128 51.8679C77.5002 48.7294 79.6384 45.4858 81.7946 42.2508C81.7589 42.2559 81.7186 42.2475 81.6915 42.2345C79.4669 41.2304 77.5642 39.6266 77.8408 36.9075C78.1166 34.1437 79.3783 31.1996 80.954 28.9171C80.7835 28.8795 80.6129 28.8418 80.4424 28.8041C78.4993 31.3426 76.6444 34.3896 76.8271 37.6071C76.8438 37.826 76.8695 38.0493 76.8999 38.2859C77.2545 39.2555 77.8222 40.1281 78.0033 41.1585C78.2334 42.479 77.6552 43.588 76.8972 44.6326C75.6748 46.3193 74.3389 47.8959 73.1391 49.6047C71.9044 51.3632 70.7464 53.1697 69.4936 54.9195C66.9183 58.5409 64.4468 62.2234 61.9979 65.9279C59.6979 69.4154 56.919 72.5837 54.6593 76.0796C56.666 74.7926 58.3036 73.0504 60.1187 71.5157C60.2909 71.3655 60.4908 71.5727 60.4801 71.7563C60.1263 77.3569 57.8999 82.4669 56.5946 87.8538C56.0304 90.1791 55.6276 92.5378 54.8881 94.8121C54.3625 96.4346 53.5776 98.3652 52.1304 99.3889C49.8471 101.02 46.3706 100.634 43.8963 99.6875C43.0417 99.365 42.167 98.8996 41.4247 98.3204C41.3924 98.549 41.3691 98.7819 41.3367 99.0105C41.9152 99.9992 43.5575 100.945 44.3394 101.188C45.9526 101.687 47.5781 102.114 49.2247 102.452C50.7277 102.765 53.5663 103.254 55.2487 102.71C55.8367 100.474 56.3483 98.2116 56.9006 95.9804L56.8962 95.9894Z" fill="#56281F"/>
</g>
<g style="mix-blend-mode:multiply" opacity="0.4">
<path d="M88.4515 30.1951C88.4775 30.141 88.626 29.9017 88.7874 29.6354C88.7604 29.6224 88.7334 29.6094 88.7064 29.5964C88.0883 29.5431 87.4573 29.5168 86.8353 29.4949C85.6599 33.1131 83.752 36.8005 80.8274 39.2106C80.7523 39.2744 80.6179 39.254 80.5364 39.1927C78.9278 37.808 79.0752 35.4263 79.3672 33.4361C78.972 34.511 78.7065 35.5929 78.7444 36.6211C78.8239 39.2229 80.0427 40.5642 82.2233 41.6137C82.4902 41.2206 82.7481 40.8231 83.015 40.43C84.463 38.2747 85.8064 36.0136 86.916 33.6622C87.4534 32.5225 87.9772 31.3651 88.4515 30.1951Z" fill="#56281F"/>
</g>
<g style="mix-blend-mode:multiply" opacity="0.4">
<path d="M57.3614 15.9087C55.699 18.671 52.6977 21.3328 49.5157 20.6114C49.075 21.043 48.6342 21.4745 48.2068 21.9014C48.1671 21.9378 48.1231 21.9832 48.0834 22.0196C48.1277 21.9965 48.1678 21.9825 48.2035 21.9775C48.7348 21.9113 48.9397 22.1542 49.5043 22.2262C51.1535 22.4429 52.6698 22.1517 53.9674 21.0005C54.9384 20.1361 55.8322 19.2012 56.7124 18.2487C56.9676 17.972 57.8638 17.1937 58.1421 16.6617C57.8791 16.4242 57.6248 16.1686 57.3794 15.9173L57.3614 15.9087Z" fill="#56281F"/>
</g>
</svg>
